<mxfile host="Electron" modified="2024-11-13T12:43:57.126Z" agent="Mozilla/5.0 (Windows NT 10.0; Win64; x64) AppleWebKit/537.36 (KHTML, like Gecko) draw.io/24.6.4 Chrome/124.0.6367.207 Electron/30.0.6 Safari/537.36" etag="mbLJ-UUV7xzqa0Wdja23" version="24.6.4" type="device">
  <diagram name="Halaman-1" id="JDKRyQlJkINKVDY7d8KD">
    <mxGraphModel dx="2610" dy="2244" grid="1" gridSize="10" guides="1" tooltips="1" connect="1" arrows="1" fold="1" page="1" pageScale="1" pageWidth="850" pageHeight="1100" math="0" shadow="0">
      <root>
        <mxCell id="0" />
        <mxCell id="1" parent="0" />
        <mxCell id="bbb-YKPU-WDCPVEwsLaR-4" value="a)" style="text;html=1;align=center;verticalAlign=middle;resizable=0;points=[];autosize=1;strokeColor=none;fillColor=none;fontFamily=Times New Roman;fontSize=40;" parent="1" vertex="1">
          <mxGeometry x="-601" y="844" width="50" height="60" as="geometry" />
        </mxCell>
        <mxCell id="bbb-YKPU-WDCPVEwsLaR-5" value="b)" style="text;html=1;align=center;verticalAlign=middle;resizable=0;points=[];autosize=1;strokeColor=none;fillColor=none;fontFamily=Times New Roman;fontSize=40;" parent="1" vertex="1">
          <mxGeometry x="-106.5" y="844" width="60" height="60" as="geometry" />
        </mxCell>
        <mxCell id="ommIhU-HipebcXFa5YUA-18" value="" style="shape=image;aspect=fixed;image=data:image/jpg,/9j/4AAQSkZJRgABAQAAAQABAAD/4gHYSUNDX1BST0ZJTEUAAQEAAAHIAAAAAAQwAABtbnRyUkdCIFhZWiAH4AABAAEAAAAAAABhY3NwAAAAAAAAAAAAAAAAAAAAAAAAAAAAAAAAAAAAAQAA9tYAAQAAAADTLQAAAAAAAAAAAAAAAAAAAAAAAAAAAAAAAAAAAAAAAAAAAAAAAAAAAAAAAAAAAAAAAAAAAAlkZXNjAAAA8AAAACRyWFlaAAABFAAAABRnWFlaAAABKAAAABRiWFlaAAABPAAAABR3dHB0AAABUAAAABRyVFJDAAABZAAAAChnVFJDAAABZAAAAChiVFJDAAABZAAAAChjcHJ0AAABjAAAADxtbHVjAAAAAAAAAAEAAAAMZW5VUwAAAAgAAAAcAHMAUgBHAEJYWVogAAAAAAAAb6IAADj1AAADkFhZWiAAAAAAAABimQAAt4UAABjaWFlaIAAAAAAAACSgAAAPhAAAts9YWVogAAAAAAAA9tYAAQAAAADTLXBhcmEAAAAAAAQAAAACZmYAAPKnAAANWQAAE9AAAApbAAAAAAAAAABtbHVjAAAAAAAAAAEAAAAMZW5VUwAAACAAAAAcAEcAbwBvAGcAbABlACAASQBuAGMALgAgADIAMAAxADb/2wBDAAMCAgICAgMCAgIDAwMDBAYEBAQEBAgGBgUGCQgKCgkICQkKDA8MCgsOCwkJDRENDg8QEBEQCgwSExIQEw8QEBD/2wBDAQMDAwQDBAgEBAgQCwkLEBAQEBAQEBAQEBAQEBAQEBAQEBAQEBAQEBAQEBAQEBAQEBAQEBAQEBAQEBAQEBAQEBD/wAARCAPdAeIDASIAAhEBAxEB/8QAHgABAAEEAwEBAAAAAAAAAAAAAAcEBQYIAQMJAgr/xAB0EAABAwICAwUKFA8LCQYHAAMBAAIDBAUGEQcSIQgTFDFBFSI4UVNhdJGztQkYGTI2N1JVVnF3gZKVobK00dLUFhcjNDVCV3JzdXaTlMLTJDNUWGJkgpamseElJihDRGNlwcMnhaKjpPBFRkdIxOPxhIOl/8QAHAEBAAICAwEAAAAAAAAAAAAAAAECBAUDBwgG/8QASxEAAgECAwQECQYNAwQCAwAAAAECAxEEEiEFMUFRBhMykQcUFyJUYXGx0RUWUpOh0iMzNDZCcnOBksHh4/A1grJDYmPxJsJEU6L/2gAMAwEAAhEDEQA/APKpERAEREAREQBFlGCtHt8xpOyWmjNPbW1DYKitcAQwkZkMZmDK/LLnW8RczWLQ4FbPaM9BuAtHkceJsX32ShnjjIdIHg1ZDmAPDR4yAHJ2Wx78nua7YpSuDV606Nsc3undV0GHKneQyOQPnLYA9jwSxzN8LddpAzzbmNo6YzlrC+46x9iSkdLE64zymQhjrbZp6umczIZOMxLA0557NXiAOe3ITBdN1zou0ezC36LdH1LcLiw6sdZOwzSl/TD3ZuHpNLR1laKvdGbsrHJMljsM9op5NrDLTspxl0w6cjMekVNiLlrtW4Kxoylcy74cxJV1JeS2Smkp6VgZkMgWSBxJzz26w4wMtmZqHbgfFp8ZhPE49O4UB+Jcb7uxrqdeu0pQ28njabmRl+aa4LrltO6fjzNTugaWH766VA/6SnKLnZ4QbGPoWxL+nUPxrsZuBMWEc9hbE+f4woB/zVGKPdIj/wC5K3D/AL4m/Zrnge6QH/3KW7b/AMYm/ZplFyu8IHin0LYn9sbf8a7Y/A/sTO2uwvib21twVr4Juj/4ydu9uJv2a+TR7o7l3Sdv9uZv2aZRcvfifmIuXC+Jvbm2rgeB/wB/9CuKPbm2qxOoN0WePdI2/wBupv2a6pLdujOLwxNE70r3N8hMouZE7cAX5gzOFcUn72820rgbgO9cuEsWe3Nt+JYybZuijt8MLRn/AL8m+QnMjdFcm6Coz/35N8hMouZSNwBezxYUxV7dWz4l9DwPy9niwrij175bPiWJ8yd0b/GBpPbyb5C5Fq3R/JugqT28m+QmUXMtHgfN8P8A8r4n9vLZ8S7B4Htej/8AK+J/b62fJWHi2bpHk3QVJ7eTfIXPM3dKcm6Cpfbyb5CZRczHxPS9ehfE/t/bPkp4nneuTC+Jvb62fJWIi37pgeN3QVN7eTfIX0KHdN/xgab27m+QmUXMtHged55cLYn9v7Z8lcjwPO78uFcUf1gtnyFijaHdOj/7gab26m+QvsUm6g5N0BTe3M3yEyi5lHied39CmKfb+2fITxPO75+RXFHt/bfkLGOCbqPPndP9N7czfIXIpd1KP/r/AE3tzN8hMouZR4npc+XCuKvb+2/s1z4nncvQpiv2/tv7NYvvO6lByO6ApM/xzL8hfQh3U3JugKT24l/ZplFzIavwPG+OpZmUWGsTRVDo3CGSW9W6RjH5c6XMDWlwByzAc3Mco41jficul8fby/mqX50u4Q7qrk0/Up/73l/Zr6EG6s+77Sn/AL1m/ZplFyn8Tl0v+am/M03zpceJz6XvNT/mKb5yqsQbq37vlL7azfs19bzurvu+UntpL+zTKLlD4nRpf/nH6PT/ADlceJ06Xx/CP0an+cq4CPdXj/6+UftnN+zX0G7rDi+n5Re2Uv7NMouWt3gdml5n2lWfSpYD/wDkr5PgeGl0f6ut/QofnCu7W7rAcWn2j9spf2a+gN1lyafaL2wl/ZplFyyHwPPS4P8AVV/6DF84XB8D10tt44bh61vjP/XV/b4bQf8A17of0+X9mu1sm61acxp6t5//AM2U/wDSTKLmMnwPjS0P9Rc/a1n7dceJ86WuoXP2sZ+3WWNn3W5/+vFty7KkP/SXIqN1zyadrZ+kSfskyi5iTvA+9LLRmae6eta2n/rLg+B+aWAMzT3X1rSD/wBZZk2r3XY2fT1tf55/7FfYqt15yadLX+dk/YplFzCfE/8ASv8Awa7+0/8A+5fJ3AOlYf7NePab/wDcs64TuvCNunW2fnJP2SCo3XXGdOtrH/8Asl/ZJlFzBvCA6UstsF69pP8A9yDcBaUuoXv2j/8A3LORPutichp1tvp77L+yXYKndc8Y07Wsj7+X9kmUXMDO4C0njjhvvrWEn/rLui8D50nyt1tS+AfiIZ9ozhZw2o3XJBA062sf0pf2S7YqzdfxnNmnS0OPScZj/wBJMouRTiTcKaX7UIXWm03mqadbf31dhqYGR5Zauq6ITB2fPZ56uWQ489kVX/QZpRw6+rbXYWmeKR+qd5e175BraocyLPfSDmD4zMDaQMjlt9SY/wB2tZTrw49wzdw37TW1HO9d8QHuq5Tbr/Tbh+n4Jpo0L0l6tTP32eOBtXC0eac5u+Mb67Qoyi5593G23G0Vklvu1BU0VVFqmSCoidHIzMBwza4AjMEEdYgqnXotDd9yjujbW610dU3C1fUZngdSBLSb6WlusGPPOOycQ10b2FuZyCgrTbuPq7BTJLlZYjTxPaeCOhlNRb6twDdWNkzjrwvIEjspM9ZxAAY0FwhqwuavIqu7Wm42K5VFou1K6nq6V+pLG4g5HjBBGYcCCCHAkEEEEggqkUEhERAEREAREQBERAFlWA8EHFtTNJWTz0tDTgZyxxB2+yazfqQJIyJYXHWydlkMxkc1b8IYediW9R0byG0sIE9Y7fmxuEAc0O1CQeeOsAOdOROZGqCRMzb7R0VLLdq9z2WmzwRwRRlziXBrQ2KFhcdbiaBtOYaBmQdpAyN+IMP6MrBDVvaynbEzeqKnjGbuXMRg7cySdZ52kk7dpXRatGuMtJz2X/SZdKmxWeXn4LVTnKqmYdoL9bZGD/KBP8kcaqMEYUYwnSzpMEQrXM3+30c+QhttOBm2RzTs18siB9qNvjiNWMdKenG84xmmtFiqJqOz5lrnAlstV13HjDT5nt9IX3LUqSjc9KeiHQ/G+04FsNLNXxjUeaLJ8hPKJal2Z9YE5dIKLsRbo/SNenvbQVVPaYSdjaeMPfl13vz29cAKK0UOT4E2LzccZ4uu7ibnia6VOtxiSreW9rPJWh8kjzrPe5xPKTmvlFUk5zPTRcIgCIiAIiIAiIgCIiALlcIgOcz00zK4RAc5nppmemuEQHOZ6aZnprhEBzmemmZ6a4RAc5nppmemVwiA5zPTKZnplcIgOdY9MprO6ZXCIDnWd5o9tNZ3mj21wiA51neaPbTWd5o9tcIgPrXf5o9tNd/m3dtfKID63yTzbu2ud9l6o7tr4RAfe/TdVf7Ipv8AN1Z/sivhEB979N1V/siueETj/XyeyK60QHZwio6vJ7IrkVNSDmKiUHp65XUiAulDinE1scH27EVzpSOIw1cjP7is0w7uhdK2HpGFuJH3CJvHFXsEod6btj+05Ruim7QJZveNcB6QmOujbcMGYsYC9tXSE8CrHeZkAGcZPmssvNE8mbaGt1niPC8RwhjiSO62OobvEsdU0SRFvScDsy9zi4uNa4ImZ7xY2o0u4awTiylgqrZNUczXtkdSDf3PfbpJNQlzc3ZSMOo0c/tyGqXA5PGs1/w/csNXF1tucQa/V14pG5mOaMkgPYTxtORHIQQQQCCBlmBMZzwxjC9yqy2mmOrTSvOYheeJp/kHi6yyu6WIYytMtiuD5orpbBNJQ5PGqZSBnG4OIbk/UY0uzGWTXZkNIcYRC6LsqqWpoqmWiraeWnqKd7opYpWFj43tOTmuadoIIIIPEutQAiIgCIiAIiuGH7ey63yht8sVRJDNOxswpx9UEWeby3YQMmhxzIIGWZ2ICR8N2V2H7BT0tPUMqqu9shq5DBrkBrmAxxZHYXDXIJyG1z288ACc1wjhenxfi/gc7WTYewVqyVI42Vtxfnk08jmgtP8ARZkfHK0PuTorndcSVbt9da6eWq5/jdKOdb6++O1lnMbnaJdBVPVyjK610BudQ5/jnVVTlqB33rTGCP5JVorUhsjPT7pKnv12kwnbak8Co5M6x7T+/wA4+1PWb/fn0gofX1JJJLI6WV7nveS5znHMknjJXyobu7hKwREUEhERAEREBd8PYfmvtQ5rXFkUfjnAbc+kFf34Jt07XxUc0ola3WBIOTgOMjMbfWVPgK4wQyVFvmeGOnadQnpkZKR629Cvkop66qeW22NrI2OjYxscbDnq5jx2e0evtXPSpwlFuTs1uKSlJNWRCFXSy0VTJSzAB8bsjl/eulXLENbDcLxUVVP+9ucA09MAZZ+4rauAuEREAREQBERAFVUNtqri54pmAhgGs4nIDPiHp7D2lSq94bvEFtdJFUZhkhB1h/z/APfTQHIwdeHZ6rIzl/LHxocG3sZ/udpy2nJ44u2sojxTZAG61ZHnlt5x3S/w/wDfGvoYqsXOnhrRls8a7pDrdb/3xoRqYqcHXtpINMNm088PjQ4PvYzzpm7Nux4+NZUMT2Ehudxb0jzp6Q/k9ZGYmsYDf8ptyGzxp4tn8nrIDEzhK8gbadvKfHj41wcJ3gAneG7P5Y+NZc3EdkGQNyZ0jsPW63WXAxHZs9l0jOzLa09bLk9NBqYl9C12zy3hvsx8a4OFbvtPB27Ok8FZeMQ2dwA5owkkZbcx/wC+X/8Ai5biK0bM6+Dnm5Hael//AH/+IDEPoUvBz/c42fygUOFLztPBjl0881mDcQWUkF1fBzwyI1suQfEVyMQWXMa1fCQ4ZHn+sOn/AOwguYYcK3gcdMdnS2/3K21NNNSTOgnZqvblmPT2gjrKQJb7ZC0EV8WWRB57blsy5D0v/fEsIu9ZHW1hkizLGjVBIyz2k/8APL1kBQoiISEREAREQBERAEREAREQBERAEREAREQHdS0lTWyGGkhdLIGOfqN2uIaMzkOXIZn0gVKGGL5JeLJBdmyZ3C0uZT1R5ZIzsjkPa1SfSUZ2u4VFpuNNc6R2rNSytlYeuDnl6Sl64Wm3WXFtqvNqDYrNjSmML2fawyvAc0gcnPFhHSOspQMV0sWNgq6bF9BDlTXRoZU6jMmx1IHGdVoa3XaM9pLnOZK4qP1NNRZTibC1fYJIpnVlNrT0jI43SSGoYCWxtY0jWc860fLlvmeRIChZQAiIgCIiALNNFENFLiOofVQ68kVG99O7WI3t++MBdsO3nDI3I5jns+MAjC1J2iCCmdZMTVToIzPAKcslLAXsZvdTrNDuMAkMJHKWt6QQGQ2m1nEdPR2GUEfRBe7dQvy49Rz3Ol7QyKyrdcXrKmttoiIayqqnzao4tWNuQHpc+O0udENCLhj7B0GqCyK53GqcPwVAXNPrELGN1bM52K7XATsjppHD03OHyQrrstlXvIOREVCwREQBERAEREByCWkOaSCOIhd8twrp4xDNWTPYPtXPJCp0QBERAEREAREQBERAEREAREQBERAEREAREQHK4REAREQBERAEREAREQBERAEREAREQBERAEREAREQBS5WVT67QXaLm05z2S5M1XcoDXvaB2nN7SiNSnZHb7oCv7D/AKm4sI9d8PxqUDKqCrNLiieqp3aoncKuLLkLwJG9oH3FB+IbWyx3+52SOq4S231k1K2bU1N9Eby3W1czlnlnlmcs+MqXbdMZK61TE/v1DSuPp8HA/wCSibFD3SYmu8juN9dUOPpmRygcC2IiIAiIgClDQ3kbLixpz+t4j/4J/jUXqUNDv2Dxcf5tF7ydCUTBufIRLj+yvP8AqY7w8foQb/zUe7qnyZ27sM+/Kkjc7eTy2D+b3j4I1RvuqfJlbuwz78q67DKcSE0RFQsEREAREQBERAEREAREQBERAEREAREQBERAEREARc5HpJkUBwiIgCIiAIiIAiIgCIiAIiIAiIgCIiAIiIAiIgCIiAIiIAiIgClDDx/7BsTfjGL30Ci9Shh7yhsTH/iMXvoFKBcbWcn2Aj+AUvcVFuJfJHdezZ+6FSlaztsHYFJ3JRbiXyR3Xs2fuhUAtyIiAIiIApR0OD/IWLuxoveTqLlKGhx2rZMW9jRH/wAEyEombc6D/P61j+b3n4I1RvuqR/nlbuwz78qSNzr5YFr7HvPwNqjfdU+TO3DpUZH/AIyrrsspxITJyXpZuTPAgbpjrD1BpA3St9uuGaS4wtqaTC9ta2K5BjiCx1XLI1wgJaMzCGGQB41nRPa5ggDwMfQtadNW60sFLiKnp6q0YPpJsV1lJNrZVBp3xsgbkNhAqZ6d7mu51zWOac88j71Xy31l1tk1BQXqqtU02QFXSsjdLGMxnq741zcyMxmWnLPNULGsUfgW+4WYwNdoRdIR9s7E13zPaqgF9eJc7hT7hv8Aaa8fO1NGALSMXaL7VSYiul2q3iWfXqmXGaCpkLJ5WtLpYXNcdg2jPLrbAqPRnbrtHTXvEeHquept9xuccFqp7ndampY2hheI5Zw+R0jteQ785oHOkCLizJQER+Jc7hT7hv8Aaa8fO08S53Cn3Df7TXj52pA1rkLMdJxxBd+aoxdwHeeHScE4HzT4Fwfg+e96u989rautr7c1VYsp67DOMbJUQ3bFElxud+i364yzyNtMVJI5w4I6PWMQzaGsZkzWMhaS4ZoCNfEudwp9w3+014+dp4lzuFPuG/2mvHztbVIgNVfEudwp9w3+014+dp4lzuFPuG/2mvHztbVIgNVfEudwp9w3+014+dp4lzuFPuG/2mvHztbVIgNVfEudwp9w3+014+dp4l1uFPuG/wBprx87W1SIDVXxLncKfcN/tNePnaeJc7hT7hv9prx87W1SIDVXxLncKfcN/tNePnaeJc7hT7hv9prx87W1SIDVXxLncKfcN/tNePnaeJc7hT7hv9prx87W1SIDVXxLncKfcN/tNePnaeJdbhT7hv8Aaa8fO1tUiA1W8S73Cv3Df7TXj52niXe4V+4b/aa8fO1tSiA1W8S63Cv3Df7TXj52niXe4V+4b/aa8fO1tSiA1W8S73Cv3Df7TXj52niXW4V+4b/aa8fO1tSiA1W8S63Cv3Df7TXj52niXW4U+4b/AGmvHztbUogNVfEudwp9w3+014+dp4lzuFPuG/2mvHztbVIgNVfEudwp9w3+014+dp4lzuFPuG/2mvHztbVIgNVfEudwp9w3+014+dp4lzuFPuG/2mvHztbVIgNVfEudwp9w3+014+dp4lzuFPuG/wBprx87W1SIDVXxLncKfcN/tNePnaeJc7hT7hv9prx87W1SIDVXxLncKfcN/tNePnaoLn4Gz4HtZDGLzoooKAynVj4Vi+6xa56Q1qwZra+6UtVW22ro6KvfQ1E8L44qmNoc6F5aQHgO2Eg7cjs2Lym0xYSxvgrSBc7HpAq6iturX75wyaR0nC4nE6krXO2lpyPpHMcYQG28XgX24QnjbNDoRbJG8Ztc3FF4II6YIq19eJc7hT7hv9prx87Vv3COCNIVDbazGl0vdXTYXrYzDQWx7i5lS8O56cNPjGtIIBbtcS7PYNswboHdA4e0I4fJcYq7EVbGeZ9u18iduW+yZbWxg5/fEZDlIAi4eBebhIuLBoPBc3IkfRPeMxnxf7WufEudwp9w3+014+dq8bibF+Icd4exlijFNylrrhW30PkkedgG8Mya0cTWjiAGwBbJIDVXxLncKfcN/tNePnaeJc7hT7hv9prx87W1SIDR/Sj4EHuUMZWV1No/or5o/usbJN4rKG5T18LpCMmmeGrfIXsadurHJETmee6Xk3uodyxpQ3J+PxgrSHSRT0lcx1RZr1SBxo7pACA4xuIBbIwuaJInc8wlp2sex7/0iLVrwSrQradMW5MxhUz09OLvgikkxXa6uTWBhNI0vqWgt2kSUwmZqnndYxuPjQQB+f5Sjh/yhcS/jGL38Ci5Slh7yhMS/jGL38ClAr7Z/wDAOwKXuai3EvkjuvZs/dCpSteX+QOwKTuai3EnkiuvZs/dCoBbkREAREQBSboccOZuKo/NUbD2my/GoyUmaHB/k/FLulRsH/hlQlE07nUn6YFrOX+z3n4G1RvuqPJlbuwz78qSNzr5YVq7HvHwNqjfdU5/Rnbwf4GfflXXZZTibJ+ArdFPin1P67vjbl7ULxX8BW6KfFPqf13fG3L2oVCxjlNgunocFz4Lt91raaKaGohbVxuaJ4t+c9xc05ZBwLzkctmQVbHh6CgsVFh6xVc1qpreKeOA04YSIonNO98+CMnNbqk5Z5OORB2q7IgMF+lTSc1uEfRNduY3NTm1zE+o8G4Xra+tram+6m+/VdTXy19vFsX1JovZUXJklVi+9T2aO5C7Ms8hhMAqA/fGgyam+mMSc+Ga+QIHIAFnCIAiIgCIiAIiIAiIgCIiAIiIAiIgCIiAIiIAiIgCIiAIiIAiIgCIiAIiIAiIgCIiAKPtLOhHBOmOG1sxVSv321VTJ4pocg98eYL4XHzDxx9I7QpBRAU0FDDQW5lttMUNJFTwiGmYyP6nEAMmgNGWwbNmxay4t3D4xziCrxPijS3dq641ry+WWShj9ZrRrZNaOIAbAFtGiAjHQNoPodBdhuVioL/PdWXGsFW6SaERlhDA3VABOfFmpOREAREQBRVusOhZ0yfkBiHvdOpVUVbrDoWdMn5AYh73ToD81ylLD/lB4k/GMfvoFFoUpYeH/YHiU/8AEY/fwKUCuthINg69DSdzCi7EnkiunZs/dCpRt3jrB2FSdzUXYk8kV07Nn7oVALciIgCIiAKT9DY/yVis/wA1jH/hmUYKUNDX2GxYf5tF7yZCUTLudfLEtXY94+BhRxuqfJpb+wz78qRtzp5Ylp/AXj4GFHG6p8mlv7DPvyrrsspxNk/AVuinxT6n9d3xty9qF4r+ArdFPin1P67vjbl7UKhYIiIAiIgCIiAIiIAiIgCIiAIiIAiIgCIiAIiIAiIgCIiAIiIAiIgCIiAIiIAiIgCIiAIiIAiIgCIiAIiIAiIgCirdYdCzpk9T/EPe6dSqoq3WHQs6ZPU/xD3unQH5rhy+mpTw8M9AeJfxjH7+BRYOX01KeHR/2B4lP/EY/fwKUCtt3jrB2FSdyUXYk8kV07Nn7oVKNAOfw/2FR9yUXYk8kV07Nn7oVA4FuREQBERAFKOhr7C4t7Gi95OouUpaGfsJi3seH3k6EomLc6eWLaNv+ovHwMKON1Sc8a2/sI+/Kkfc6+WNaPwF4+BhRxuqPJpbx/Mj3RyuuwynE2T8BW6KfFPqf13fG3L2oXiv4Ct0U+KfU/ru+NuXtQqFgiKhvVTW0dpq6q3NgdUxROdEJyRHrZbNbLbl6SFoxzSUVxKqeogpYzLUzMiYOVxyCtrsVWFji014OXmWOI9wKIorRp4xPPLMMR4GldHxg0dYA3PiAG+bFRjDum51TNSR3XBMksGes2OhrHHLMjPZJxZgjPpgq+Rcz6elsPApfhsXC/qctP8A+ScqS9WuucGUtbE9x4m55E+sVWqD4MCae5I2TC8YFjLhnquo6wOHp/VFIGA6PSjQGanx9X4drYNUcHktrJ2SNPKHb4XBw6+YI6/JDjbiYWP2XhcPTdTD4mE7cLu/7tEjMERFU0YRFj2KrpdLfLRx0c4o6WUSGesNG+p3ot1dVuq0jIOzdzx2DVy5QgMhRYfXaQaKyW62vr56K4VVdHJK11JUxQwvjYci9pme0bcwNXMnMkcQJXNHjcV1xqamgifV20WOkulPHEwCV7pZJmkZuIA2Rt4yANuZQGXosTp9IVJVUTJ6e01M1Q64czDTRTQyETb1vg59rywjVy262zPbxLus+Nm3Wrp6Z9hr6NtRNPSiSZ0RAqIdbfIyGvJ2ajsnZZHL0kBkyLDxpCZM+4UUNmqIq6mo5qyCGWaAmVsZAOsGSExna05PyJB6YIF2hvFfPhF19moxSVRoXVO9OcHhrgwuHESMjsPGgL0ixS3XHEVFLZn3a401dT3jKM6tNvUkMhidICCHEObzpGWWe0bV8xY/jqK2rtUdmqYq2KlmqqeKSaAmVsZAIIa8mM880gPAzBPKCEBlqLEpMc1NDhy23u42CcSVlPv8rG1EDGRANBzL5HhvPZ863Mnp8RX3WY+pqdktRS2WvrKamoYblPNFvYEdPIHEOyc4EkBjjkM+I9bMDKkWLXzHkFmFbNHZK+tpLaxjqqpgMerG57Q5rcnODjzrmkkDIaw6+WUoAiIgCIiAIiIAiIgCIiAIiIAiIgCIiAIiIAiIgCIiAIiIAoq3WHQs6ZPU/wAQ97p1KqirdYdCzpk9T/EPe6dAfmuHL6alTDvlB4l/GMXv4FFY5fTUp4d8oPEv4xi9/ApQK6g8fYOwqPuai3EnkiunZs/dCpVoG7LAQP8AYaQ/+WFFWJPJFdOzZ+6FQOBbkREAREQBSloZ+wmLex4feTqLVKOhn7C4sH83i95OhKJj3OvljWf8DePgYUcbqjya0GY28DPv3KRtzp5Y9m/A3n4Eo43VHk1oOwz79yuuyynE2U8BW6KfFPqf13fG3L2oXiv4Ct0U+KfU/ru+NuXtQqFgqS5MqZaOeKjdGJ3Myj3zLVz6+YOz1iqtasbrHH2NsL4/w5ZsNY1uFhpKy2yTTGma54Lw92RLWgknYAr04OpLKjedHdh1ekOPjgaMlFtN3d7Wirvcm+HBGx9lpbrSyym4zQFjmt1Wx6mWtyk5Mb/zXzFQ3l1bPLJcmQREkxmNsbnEZnnTmwHlz4ztJ9fQwaUdLW+SRu02XnnGgteKWoLXk55gc5nsAHGONw65FordM+namqXw0+kTEFVG3LVljD2tds5A5oPuLI8Vk+J2HT8EmPryajiaf71UXviej8LXxxBktTvrxxvIAJ9YbF1W6ldQ0jKaStkqXNJJklILjmc15vfTu0+ejjEfbd8S+JdO2nWnaH1GPsQRtJyze8tGfrhPFJcznXgZ2o1lWKpa/rfdPSxhJY0njyC+lR2eWSe00U8zy58lNG9zjxkloJKrFiHTUo5W4vgFa7zaKy5PgmoL7WWyaEObrQBj2va7LMOY9rmniGRyzG3plXREIMYdgWnip6Vtuu9ZS1VMJmuqtSKSSbfX68heHsLcy/ntgGR4tmxcXHANuuTagT19XnUUNJQlxLXH9zyulY85ghxLn88CMiBlltWULrM8DZm07pmCV7S5rC4azgOMgcZAzHbQGPW/BMFE+OWW6VNTKy4i5F7mRsBeIN61Q1jQA3V27AqmDClHAYSKmYiKuq64DYM3VG+azdnIN9OXLsCvi6K2uorbSS19xrIKWmgbryzTyBkbG9NzjsA9NAY1aNHtFanxZ3SqqIoKOahiidHFG1sUmpn4xjc3c4OeOZKvFLZDDh/mBUXCapbwd1Nv72ta/UILRsaAMwCBxciuYIcA5pBB2ghcoDHbZhGWlmpZrnf625ChjMdLHIyONkWbdQuyY0FztUkZknLMqms2j6js9VBOLrUzx0tNNSQwuiiY1scmrnmWMBc7nBzxzJ7eeVogMSm0fRzR24G/1omttNJRRzGGBzjA4t53JzCGuAY0B7QD081WR4Noo7bXW0Vc5ZXWuK1PdszbHGx7A4fyiJD1tgWQogMBxXg29XIXC32eeogprnHCyfKaIRPc1rWF7wW74Mmtbsacnao4tqz5EQBERAEREAREQBERAEREAREQBERAEREAREQBERAEREAREQBRVusOhZ0yfkBiHvdOpVUVbrDoWdMnqf4h73ToD81w5fTUqYd8oLEv4xj9/AorHL6alTDnlBYm/GMXv4FKBcaDICwjP/YKPuYUU4k8kV07Nn9+VK1CfsAD/AKPuYUU4j8kN07Nn9+VA4FuREQBERAFKOhn7D4sH82i95MouUo6GPsTivsaL3kyEomPc6+WPZvwV5H/AKJRvuqPJtQ9h/ruUkbnXyyLL+CvPwJRtupznjah7C/XcrrsspxNlfAVuinxT6n9d3xty9qF4r+ArdFPin1P67vjbl7UKhYLWHdPaPocXaXtHjsQOfT4drybZU1TXaobJrueIy77UvGwH0+ktnlaMV4VsONrBV4ZxLQMrLfWs1ZY3HI7DmHAjaHAgEEcRCvTnklc33RrbUtg7QjjI3WkotrelKLjmXrje6T0bVrreQ/SbnPQ9UQRj6VnBZdd0Jjq6moJzGQDtZhc0g58eeShLdGaFsAYFv1lbhl1Pb6i4xP4RbzUOlihaHACfnue1ciRlnlnkeIOWw7tzbgSmja1t+xqGNAaGx36oOqPSB4laarcpaHaqtdcqyPFE9XrDOd9fO+QkcR1iM/dXPGqlK7k/wDP3n3WxemNHZuNWJxG0K84JPzcrad1pfNVei37m9DSeW3WxjntZVU8gbK5gcxkGTmjLI5OeCOPpLogw9UYhuNLZrDRPnr6qqjpIGMY0b892eYGq4tybk05jiDtq3lZuV9FD372JMVg55bbpOB2+JZRgTQHo50eXt2JLJQVdRc96MMdTX1Tqh8LTxhhd43PMgkbciRylcrxUUtD7Or4XdmUaUpYeM5VEvNTSSb4Xae7np7DPLdTPo7fS0cjg50ELI3EcRLWgf8AJVKIsA86ybk22FDmmHFuker0jYS0OaNMS27C1biG33G8Vd8rLe2udFBSOgZvMEDnNY+RzqgElxya1p2ZkZTGsP0h6J8FaUGW12KqKr4XZZ3VFtr6Cvnoayjkc3VeYqiB7JGazdhAdkRxoQa+TafNM2EsPaQ7Xfrxh+84ktWOrRgqzV8dEYKCl4bDTZVM8bXF3OmVz3MLzz5DQ4NIy4qINK2Ed0thak0gY/tGK6yh0fYnraC401qbQVDXGWi1mzQNe+MtDo26jhlrc8COdzM0Wzc36HLVhbEuC4cIMns+L6pldeKeqqZZzVVLWsAnL5HF4lzjY/XB1tca2ettXVhzc2aKcL4ibi+itt2q74LZU2d1yuV6q66pko5tTWhdJPI5xaN7GoM+czdq5axzkECWPSrupLfo80T6SLnpEwveBpRqLZYuZkuHxCy3S1sZ3qu32OQOle0gOfFkxjtrW6njlcseY30kW3BOm7RLpPu9kxlVYUw9br3QXZ9ligZUw1b5QIp6Ql8RMb6ckOHGCMxmMzsC3Qto9bhfB2DhaJuZWAquirrFFwqXOnmpGlsBc7WzkyBOxxIPLmucQ6GNH2Ka7FFyvVpmmnxjbKaz3dzaqRgmpad0jomAB2TCDK/a3InPbxBLghu44l0/Yx004/0f6PdJlowvZ8H2Cw3OmZUYfirXPmqI6hzogS5mrG/eeeJ1iAG6mrtzmbQpjyt0naJsK4+udHDSVt7tkNTVQwkmNk2WUgZnt1dYHLPbllmq+1aOMJWbFl/xtb6CSO74mo6KguUxne5ssNK2RsDQ0nVbkJpNoAJz255BVuDMH2HAGFrbg3C9K+mtVphFPSxPldIWMBJyLnEk8Z4ygL0iIoAREQBERAEREAREQBERAEREAREQBERAEREAREQBERAEREAREQBERAFFW6w6FnTJ6n+Ie906lVRVusOhZ0yfkBiHvdOgPzXDl9NSph3ygsS/jGL38CiscvpqVMO+UFiX8Yx+/gUoFwoRz1g7Bo+5BRTiPyQ3Ts2f35Ur0Pj7Dx/WNH3EKKMR+SG6dmT+/KgcC3oiIAiIgClHQx9isVdjRe8mUXKUdDH2LxT2NF7yZCUTHudfLIsv4O8/AlG26mOeNqHsP/qOUkbnXbpIsn4O8/AVG26m8m9Ft/2L9dyuuwynE2W8BW6KfFPqf13fG3L2oXiv4Ct0U+KfU/ru+NuXtQqFgiIgCIiAIiIAiIgCIiAIiIAiIgCIiAIiIAiIgCIiAIiIAiIgCIiAIiIAiIgCIiAIiIAiIgCIiAIiIAiIgCIiAKKt1h0LOmP8gMQ97p1KqirdYdCzpk9T/EPe6dAfmuHL6alXDvlA4l/GMfv4FFQ5fTUq4d8oHEv4xj9/ApQLhRD6pYewaPuIUUYi8kFz7Mm9+VK9CPqthz/gNH3EKKMReSC59mTe/KgFvREQBERAFKOhg5WzFPY0XvJlFylHQv8AY3FHY8XvJkJRMe528smyD/d3n4Co03Uvk4ouw/8AqOUlbnbP6ZVkH8i8/AVGm6k8m9H2H/1HK67LKcTZjwFbop8U+p/Xd8bcvaheK/gK3RT4p9T+u7425e1CoWCinT7p4tWhexxiOBldfrix3AKRx5wAbDLJlt1AeQbSdgy2kSsvNDdDYrrcX6YcS11VUOkjpKx9vpmknKOKElgaBybQ4nruJ5Vz0KaqS13HYfg26LUelG1nDF60aSzSX0tbKPse9+pW4luxrpo0m4/qJJMR4vuEkEhP7khlMNM0dIRtIafXzPXWG7/P1Z/siutFslFRVkes8LgcNgaao4anGEVwikl3I7N/n6s/2RTf5+rP9kV1orGTlXI7N/n6s/2RTf5+rP8AZFdaIMq5HZv8/Vn+yKb/AD9Wf7IrrRBlXI7N/n6s/wBkU3+fqz/ZFdaIMq5HZv8AP1Z/sim/z9Wf7IrrRBlXI7N/n6s/2RTf5+rP9kV1ogyrkdm/z9Wf7Ipv8/Vn+yK60QZVyOzf5+rP9kU3+fqz/ZFdaIMq5HZv8/Vn+yKb/P1Z/siutEGVcjs3+fqz/ZFN/n6s/wBkV1ogyrkdm/z9Wf7Ipv8AP1Z/siu5lBKWb7O5sEfTfxn0hxlfRqKWmyFJDrvH+slGfabxBQcblF6RVxDBWyt3wyujj8295A/xX3wmnpxzsktRJ03OIYPW4yqSaeaodrzSOeeuV1oR1ebtfYVU9zrqhoZJUvDG+NY05NHrLp3+fqz/AGRXWiF1CMVZI7N/n6s/2RTf5+rP9kV2xUFRI3XcBEzzUh1R/ivsC3wZ6xfUv5Mudb8Z9xCrlDclf2HQySpedVkkrj0gSVUtpatrdepqt4b/AC3nW7Q2rrdcajVMcOrCw8kYyz9fjVMSScycygyylyRXcJpIRzr6iod03PLW9rjXBvNe0FsExgaRkRHsPb41Qolh1MP0lf2nYaiocS508hJ4yXFN/n6s/wBkV1ruio6qb97geR0yMh20LPJFanzv8/Vn+yKb/P1Z/siu80LIx+6KyFh8y0659xBzMj8dv8x62TB/zQrng+yr/uOjf5+rP9kUE1QdglkP9Iru4ZCz95oYW9IuzcfdXPNSsAyjkbGOkxob/cg857o9/wDjPlkdwf4xtQfSzVys9zxfYKkV1iu1yttQ3ilpql8Lu2CFaZKqpl/fKiR3puK6y5x4ySlrlZ0eti4TSafBq5troG3VmJIbpT4V0sVMdXR1LmxU92JaJYHnYBNlsc07OeyzHGcxxbftc1zQ5pBBGYI5QvIpekW5jxhXY10M2K4XSbfayjbJb5pDxv3lxawnpnU1MzynMrAxNJQ86J518LPQzC7JhDbGAioRlLLOKVldptSS4Xs07abtN5KiirdYdCzpk/IDEPe6dSqoq3WHQs6ZPyAxD3unWIdIH5rhy+mpVw55QGJfxjH7+BRUOX01KuHPKAxL+MY/fwKUC40X79Yh0qGj7iFE+IvJBc+zJvflSxR/XFj7Bo+4BRPiH7P3Psyb35UDgW9ERAEREAUp6FWg2vFLjyQwjtsn+JRYpV0J/YrFH4OD3k6Eol7c7+WVY+Pxl5+AlRpupPJxR9h/ruUmbnbIaSrFt+1vPwAqM91Gf8+KTsP9dyuuyynE2Y8BW6KfFPqf13fG3L2oXiv4Ct0U+KfU/ru+NuXtQqFgvK3SX5Y+Kvx3Xd3evVJeVukvyx8Vfjuu7u9ZmD3s708B35ZjP1Y+9mNoiLPPRgRX6+4MvGHbHYsQXDeOC4iglqKPe36ztSN+o7WGWw5+mqnEGjfFuHsX1mBn2uS4XahIEsVvY+o42h2Y1RmRkRyKuZGHHaGFna1Ra5nv+g1GX8LaT5MxhFl2F9GOJ8R4hpsO1NFPaJaumrKmGSup5I2PbTxPkeBmMyecLdnESM1Y6DDWI7rRzXC12C41lLT7Zp4KV8kcf3zmggeumZErH4ZycFUV0k3rwk2lru1cWv3FtRFcbdhzEF4pp6y02K4VsFMM5paemfIyP74tBA9dTexkVKkKSzTaS9ehbkV0ZhXE8t2fYYsOXN9yjGb6NtJIZ2jLPazLWGwg8Sv150V4ps9pw7cRRz1VRiOKrlioIKeQ1EAp36r9dmWfX2cQG1Q5JcTGqbQwtKUITqJOW7Xfo5d1k3fdoYaivRwTjIVcFAcJXkVVSzfIYTQS68jPNNbq5kdcKosuD5rlBiB1wqpbbUWGhdVup5aOV75HB7W72dUfU/HeOdkBy5caZkWljsPCOfOmtN2u92Wiu9+hjqK8z4MxfS0clxqcK3eGlia18k76GVsbGuGbSXFuQBBBBVmUpp7jmp1qdZN05J25O4REUnIERcta55DWNLieIAZoDhFVig3oB9ZM2EHbq8bz63J665NbFASKCDUzGWu/nnfEFBx9ZfsK/uPmOgkLN9qHtgj6b+M+kOMr74XT02yhhzcP9bIMz6w4gqR73yOLnuLieUlfKDI5dt/u4H3JLJM8ySvc9x4yTmvhF2wUs9S7VhjJ6Z4gPTPEFJdtRWuiOpfccUkrtSJjnk8gGaqRFQ02e/yGd4+0jOTR6buX1l8SV87273HqxR8WqwZds8ZUFM7l2UffAooMjWVDWHzDOed8QThscJ/cVO1n8t/PO+IKjRB1d+27+4+5ZZZna8sjnuPKTmvhFUxW+oe3fHgRM81IdUetylCzlGC10KZcta5xyaCSeQKrAt0DTrF9Q/k1edaP+ZXy64z6upAGQs6TBt7fGhXPJ9ld+gZbqjLXmLIG9OR2R7XGuQ23Q/vkklQekware2dqpXOc45ucSemSuEGST7T7irFeYz+5qeKLr6us7tldMtTUTnOaZ7/TK6kQlU4p3SCIvpkckhyjjc49YZqS97HyiqmW2sftdEIx05HBn965NFGzZLXQA9JpLv7goucfWw3JlIiqxFbm+Pq5X9ZsWX95X1r2hv8AqKl/pvA/5IOs5J93xKJb+bivylGfjWq/UWh5mtnJRS+vN/gt9Nxi6F2hhhgjcxvNSq2F2e3nFjYr8WdVeGKTfRxXTX4SPukTsoq3WHQs6ZPyAxD3unUqqKt1h0LOmP8AIDEPe6da48sH5rhy+mpWw75QGJfxjH7+BRSOVSvh0f6P+JPxjH7+BSgV1F9c2TsKj7gFFGIfs/c+zJvflSvRfXVlz/gVJ3AKJ8Q/Z+59mTe/KgFAiIgCIiAKVdCf2KxR+Dg95UKKlKuhQE2nFAHU4O51CEol/c75/TLsX3t5+AFRnuo/JxSZ/wAD/XcpM3PGzSXYculefgBUZ7qPycUm3/Y/13K67LKcTZjwFbop8U+p/Xd8bcvaheK/gK3RT4p9T+u7425e1CoWC8rdJflj4q/Hdd3d69Ul5W6S/LHxV+O67u71mYPezvTwHflmM/Vj72Y2iIs89GE74l0gWnD+izRtRDC2F8QzC3Ve+i4xOnkpjwjY3Jj26ueeeR48lnWJrxHe8Y6VcPYJxrbLNiO7VVumoq19wbTtqqWOP6rBHUZgNdmWu2HaGkdNanIuDqV/ntufGVOhlCVpQqNSvN6q6blVjVV4t2snHK0rZk73Tsbb1V3ZTYi0YQYgxrbLxX2/DeIKavroq9kzN9NLI1rXS588eJuZ8cRszVhwncLtdrLo7uuCdJ1qw9YsM0scd/oJ7oKV8dQ2Zzp5ZISQZ2yMLQNh4iOmtZkTqfX/AJr8Tgj0JhGmoqqrq++CcdZVW/NvbdVaXKy3ptEg6UrDRVVVW6TbEaamsGI75XstNJkWymKN+bpNTLJrM3AAcnFkpKwrXXW+aMMFQaPtI1rw0cN1NTJiCmnuYonl7pQ5s7m5gzt1Mxlt5R08tfKi43Crp6ajqq6omgo2uZTRSSucyFrjrEMBOTQSSSBynNU6s6d0k3uNridgTxeEpYepU1pSbi3FSWW0oJST7TyS3/S13aG2WLLzFfMb6U8P4JxpbbPiS7z2yaiuDrg2nZV0sUX1aCOfMBjsy1xyPPAEchVwpMQyWrEmjB18x3a7tdrTh/EEVXcIq9kzWziEhjXSk884ZBusfHEcvGtPUVOo4X/y1jSPoFSdKNHrvNUcvYWZvqep7V75bWeXnxta0402lDF0m57uL5sdXE3huKWMjkNwdwsU7oA5wa7W19QvAJyOWayjEt/tlwuGNLpNd6OWqumjS3maQTMznqyIC8ce1+YOY49i1mRWdFGyn0QwzqOpSajeTlpFLe6crey9P7Ta9mkGqfp9w3Y5MXh2GZMLspammNaOBnO2yEte3PU1t8DePbnkFqpUBraiVrMtUPcBl0s0igmmOrFE556wzXfwFsJ/dlSyP+S3n3e4rQgoGbsfYlDYcvwUr3hCDSVruDm8ztxefX2bykXdBSVFR+9REjlcdjR652LuNRRwH9zU2uR9vNt9ziXTPV1FQfqspI5BxAesrm9zTluVvad28UVOf3ROZXD7SLi9kVw64SNaY6WNsDD5jxx9N3GqREHVp9rX/ORySScyST11wi74KOeozcxuqwcb3HJo9dSXclFXZ0Lup6SepP1NmTRxvccmj0yV3A0NMOI1Mg9Zg/5ldVRWT1OQkfzo4mt2NHrKCmaUuyv3v4HaRQ0w2k1MnaYP+ZXVPWT1ADXuAYOJjRk0esuhEJVNJ3erCLvhoqica4aGsHG95yb212/5Ppxt1qmT2LB/zKB1Fey1ZTwwTTu1IY3PPWCqOCU9Of3ZUjMcccXPHt8QXXNXVEzd71gyMcTGDVCp0ItOW92KvhzYSeBU7Iv5Z55/bPF6yp5JZJXa8r3OJ5Sc18IhaMIx1QRfccUkrtWKNzz0gM1UczzENarqI4f5Oes7tBBKcY6NlIvpjHyHVYxzj0gM1UmW3w7IoHzO81Ich2guJLjVPbqMeImeZjGqPcQrmk9y7zkW2drded0cDf8AeOAPa40EdtiH1SaWY9JjdUds/EqUkuOZJJ664QZJPtPuKvhkMZ/c9FE3rv58+7sXzJcayQapnc1vSbzo7QVMiEqlDfY5LnOObnE+mVwiKS4REQBb+bivylGfjWq/UWgmR6S383FezQqzPz1qv1FjYr8WdUeGT83F+0j7pE8qKt1h0LOmP8gMQ97p1KqirdYdCzpk/IDEPe6da08rH5rhyqV8Oj/R+xJ+MY/fwKKBy+mpYw90P2I/xhH7+BSiGVtF9c2XsOk7gFFGIfs/c+zJvflSxRj902U/zOk7gFE+IvJBc+zJvflQTwLeiIgCIiAKVdCmfMjFOXU4O51CipSroV+w2KiOPe4O51CEol/c8eWVYdvnz8AKjLdReTml7D/XcpM3PHllYf8A++u95UZbqEk45pSf4H+u5XXZZTibNeArdFPin1P67vjbl7ULxX8BW6KfFPqf13fG3L2oVCwXlbpL8sfFX47ru7vXqkvK3SX5Y+Kvx3Xd3eszB72d6eA78sxn6sfezG0RFnnowlXCe55xJiXD9sxBW4pw1YGXxzm2qnutdvM1bkcs42hp4zsGfW6YWN0eiDSTdLtd7NZ8I11xqbHK6Gt4IzfWRuHIHDY4njABJI4gpGt2kHQrjbB+FbdpXjxBTXHB1O6jhjtoaYa+HWBa1x42HIAEgg8ZzV70Y6eNGVjsNfhu4W64WCjpr6+8Wo0tOytfqFoDY5HS5nXbl4/r5cixnOor6HXVXbPSPDQrzjQc5KVlFw81LO0nGSlmqXjZuy0bvdWykY0WhLFN0wRbcVWmOarr7nepbJHaGU7hO2WNhc5xJOzLVOYIGWW0q3YR0VYjxdiG94XhkpaKvsNBU19VHO8uGUBaHxtMYcC/N2XS2Hap8wpumcIx2Gttt2prsya+3q4TVVRT04FRR0s8ZayaN7QG77mG5gAcZUZ6E8X2jRPjvEN9muUstO+z1lFbat9Pk6WZz43ROfGSdUHUzIJOXXSM6lndewmjtnpDLD4zrqOWpHWkrXzXk9L7rRWmqzO+bdoYrinRBijClVYrLVGGrxBfYG1DLJSNkkrKZrvGCVobkHHbzoJIyOeS6ZtDmlCnxFFhSfBFziutRC+ohp3xhpljaM3Oa4nVdkOPIqXYNNOjej0nWfS8eFMutzoJKPElFBG5zYJnR6nCKaQk5cQ53pdclXqy7oXRbha6YYs9ruGI7jarBBcXuutxZr1TpahhDYw0bdUE8ezkR1KqWiOKfSHpJRpRVPCOcsjbvFrz/PulZ2yxajFLVzUlJPRmvt30X6RLDcrdZ7vgy7Utbd8uAwPpna1QfMtA43DZm3jGYzAUg2rcy4lipLDXYxlrLQ67XwWiahFEX1MTdQuEreeyeDlkMvdyyWS4B3ReHML2LA8F3bW1tZZblcXV+bC58VPUMe1r4nuO1w1gculmFeDpz0T2ejwjarTiPE91hseJxd6mpukOvMYSx+tkRx5Odsb6ZUSnV3JHFtLbXSlyVCjh3G2a8oxbzWdRJq91FaQaTu3m0dk7wxUaGcYuN8uFosd1uFnstXUU0lXFRuzLYnkElvTAGbgCdXlXOL8C23C1twdW26SrqJsUUDat3Dafe2ROc8ABhBOu3bx5cnXyEvYe0+6MocO3623+rvsu+3C7VNDTRQBhLamRzmOjqIy2SEnWGsCSOPkUZ6RtIWHMTWjRvRWp9QZMMWqOkrxJGRqyB7SQ0/bDIHarRlUcrNaGfs/aO3sXjY0cVRlGEZNN2aUl1cmrt73mS3WV2lrqXTHW56xlhSz3i4fRXYbrJh9kEtyt9vlkE9PHMQGPLHMaCDnyE8R6Sw+r0L6U7dbH3u6YIulHb4oGVUlRPFqNZE45BxzOee0ZjjGYzG1SRpZ3TNwxDiqSDCUsRwu+egqJYn0LIp6swFj97lf45zddvETxdZZTi/T1ooutjx1Nar5ime44ypKf9xVrNalpJY8hqRAeNBGeZ6wVVOqkrowcJtXpXg8PQ8Yw6m6jTdotuKfVpqSjlUWrzldpq0VF3epEOPtBOMMFXG5w00Trrb7PS01TWXGOMQwxb83WaznnbXcmQzJ2bNoVrqtC+lShtEl9rsC3WmoIqXhr55otRrYfNHMg8o2ce3iU4aU9PWA9JFhFrtclzgmstbRXKhHBSIbk6NgD4qgZ7Mi3nXHMbQqzFunbRNW2zG9VS3/E01xxlbYoXW+oAfS0crGBoZFlsbntzPFsRVKtldHHhOknSeOHoRr4S9RtKXmSv/01d2aSupTle1llyWvqQDe9DelHDlqnvt6wRc6a30wY6WoMYcxjXAFpJaTs2jbxDPavm1aML3dcAXLSGyppoqC2VsVDJC8P357ngEOaA3IjbynNTFiPdB4TueKMY1dLX3E2u84IfZaKN0TsuHb2A3NhOTQDrc91z01hujvTbUaO9E1/sdhus1Jievu8FVTSOpI5494DA1+e+Nc0HZ0ldSqOOq1NtR2r0jxGCU5YdRq5qWlpJZZWzp3zNZdbySduRbLzoPxlZsQ27C9ktBxFc7jaoru1tGxzmxQvzy1w4AAjLLacsyArTV6JtK8ly5k1ODbnw4W511FIGDfOCtcGl4YDn45wGrlrZniU31u6N0e4hul1ob5X3ymosQ4bt9vrLrb4RFVU9VA+Rzwxo2aj98IOWzZllkqW+boTA7b9UXXDV4vbXxaParDlFVzREVIr3PjdE5zgePnMy8cqqp1eRq8NtzpRFxhUwd5Zd7jLfZPemklduOW1/NzfpIhzFOjR+FcAWnFNwfcIbnWXOrt1VRTUmrFC6FxbkJNbnnZtOYy/u23bEegzEEVTaqTA9uvF9lqrDBeauM0YjfEHnI6jcyXtzyAy2+mu7E+NrdiLQnhfCdVXVTrzbrtXV1dLUtcdcTOcQ4PJze457VIVbugMDMoa1lsrLhHVv0ftw7BKKdzSK0HYOPY3+Umaot3NmdX2j0goxhKjTc59ZVTWXzcue0G7WdrarW9t7ZGFh0LXzmniG1Y6orrYJ7LYKm8saaPfDJvQaRntH1Pac3jPLLLjWBb9R031vFvzx9vINg9Jvxqe36c8H1Nlp4K2tuE1aNGtfhiaR8BcXV8upqAuz2t505uUL4tgwVBLbhguuudSx9DE6vNdG1pZVnPXazVG1g2ZErkg5N+cbbYmN2liq047Spyje1kk1HS6bvvSlZNJt77FlmqZ6h2tNIXdIcg9ZdSLshgmndqQxueesFyn1WkFyR1rkAk5AZlVfBaan21k+bupxbT654guOHmIFtJCyEH7YDN3bKgp1jl2Ff3HDLfMW75OWwM6chyJ9Ica51rfAOdY+of03c63tcapnvfI7WkeXE8pOa+UGSUu0+4qZbhUyN1GuEbPMxjVHuKnJJ2lcIpLRio7kEX0xj5DqsY5x6QGaqRbpmtD6h7IGnzZ29rjUCU4x3spEVXlbYRtMs7utzjfjXArzF9b00MfX1dY9soVzt9lfy/zuOqKlqZv3qB7uuG7F3G3SM2zzwRdZz8z2guqWrqZv32d7utns7S6UFpvjYqxFbmfvlXJJ1mR5e6UM1ub+90kj+u+T4lSIg6vm3/nsKoVrG/vdDTj02l395X1zTqR41sLfSib8So0Sw6qD3oq+aldyTZek0LfXcYzy1Ghdkkz9Z3NSqGfsF5/rfzcV+Uoz8a1X6ixsV+LOqvDFTjHo4ml/wBSPukT0oq3WHQs6Y/yAxD3unUqqKt1h0LOmP8AIDEPe6da48sH5rhyqWcP9D5iP8YR+/gUTDl9NS1h8f6PmIvxgz38ClBlZRbamzbOKkpO4BYfj3BkFroWYrpbrJO24VsjZYJaYRmNzi5w1HNe7XaNVwJcGHxuQOZ1cwoPrizdiUfcGrH8dHPBdNmdouA/umUAjdERAEREAUq6FtlkxWf93B3OoUVKVdC32ExX+Dp+51KEol7c8eWXh/b5897yoy3UPk5pew/13KTdzx5ZWHf++u95UZbqDyc03Yn67lddllOJs14Ct0U+KfU/ru+NuXtQvFfwFbop8U+p/Xd8bcvahULBeW2kmopRpFxSH0LHEXquGeu4Z/V3r1JXlbpL8sfFX47ru7vWZg97O8vAhFSxmLv9GPvZZOEUf8AH51y54VTDxtvi9dzj/wA1Sos49F9XH197JTtWgnSjecK0+MbNhegqaGrpnVcDGVEZnkibnrFsZdrEjLiAzUfRz3eZgfTUrtVxyBip9hPSBAU+1GnCxYD0e6OZ8NWu0XjFFus9ZTCrkqXufaXSOAcDE06pc5pPjhns2cZUhaK9K2C6G3YANPpRsdjslstD6K7WKppg2aWvEbvq2uW84CduvmAfG7S85YzqTirtHWlXpJtrAUauJxGDVSOaahZSTtB1N9lUfnKMcragm272STenDn3OaE1BNS6IbC8A6o9fiWYU2iDFDrzh+03usttkbiWg5pUVXcanUg3nUc4a7gDquOqQGkZ5kKacFaRsHw6AnYbuWOLZRSU9prad1JE0tqHzvcCyN9O9j2T57fqzS0t4uUkXi0aWrNecV6IMT3jSVbnUVttVRTXimqZ9SWnuHAp2OmkBAADi5rAc9py2KZVZa2XM5sd0p2tB1Y4fCZVB1Ve0m5ZYSlBx8y3nNbnfeuavrPecAYlsVjsOIaylY+jxHHPLQGF++Oe2Jwa8uaNrdrhxqxx0VbM0PhpJntJyBbGSCektsML6RsFM0H2TCVuxrabPi91guFPTV88rcqMmdjnwPcT9SdK3LVdyaufIr1ol0o4PobXo/ZTaT7JZLRa7XJRXqx1FO0TT1+9u+r75lsBdz2vmAeLaXkA68knoVqdNNp4WhWnPBuUoTnFdtZoxzuLVoT7Siop7nK7birX01bQ1r4xKyjncwgkOEZIIHGc1esD4BxVpFvDrHhK2GsqWROnlJkbGyKMcbnOcQANoWy2AtK1FhqwaJLJHiygo7c2e5sxJDK+PVZC5xMQl1trQdYkdPZ0lHGiPEeHcK6VMSyU+NbRaLdcBWU0DayhNRQVULpSWQyOBGowjLnhns6at1smnZGwl0n2hVoYp0sPlnTTcG88lK1ScNUopp2jmSTd1JapamHS6C9JlPfrrhuosG911nt5utQ10zNU0w+3Y4HJ+eRyA27CORYTBbrhUtc+nop5Gs8c5sZIb6Z5Ftjh/SVo0wzpSv1DhDGFDaKa84XbTurBUyvt0N2brloie8EtibrEt2ZbTkORVGjvS1gq3YWw3wzSJZ7dbrNFcIsVWaWl3yW8zv1tSSI6mbw5x1thGQOR61Oumt6NWumO2aFN1KmDc9INebOL1hJu6Sqb5RyxV7XazNJ3NZrlo7v8AZrFY8R3RsbaPELKh9CIXb7I8QvDJM2t8bkSONXLR/oxxLpGfcRgy109SbU2N9VJW1TIWsDy4NOTiBxtKnvC2kfAo0N2nDFnxdarDiqS0XiKgraiVpFvD6zXNO8n96dKwtDX8Y1cxxZGMNB+LsKYVwXpLhxYyguBrqKjZBbairdDzQc2V5cxrmEOOWYObSrdZJp6ar4mWukG1sRgsVJUWqtOooRVn50XWyZlG8U0o8c9m028sbNx5jDCeMsJX+fDGJrZPTV9O0PdAzJzSwjNr2lmYLSOUJYdH+JsR2m+3q30jBTYdpWVldvz97c2JxIBaD47aDxKf8D6eIMY0+MKmqxJZcCYqrYKKC0V88OvTw0UGetThzg45kF3GNusMhsGWeyaU9F7sZYkut1xFbL3bZsOWiF7YXtAq3xzSOlY1nESAQ4s6RyPGqyrTirW1/wDRh4vpdtrAReHngvwsVG+XM03enmssuWzzyUX1jacXfRGk3Aa3fN54HPvmrrau9nPLp5dJci315fvYoqguADtXe3Z5HiPEttbfpAs1HiPSGw6YbFBiC+Pp57JiFzWvgioWE/uTxrhC5redLctp27TtVxxTpkwpR3fGF5w/jy0y1z8EU1PQVcT2AzVrXSHVY07NcZg6uWzMKevly/zuMl9NdouoqdPAt3UWneaV3k50uynNq/a8yV4o0/daqincG3AGlJy5x7Trn0m8akO56BtKeH8LPxe/BkrKKKEVMrpJY31EUOWe+OhB1mjLacxmBx5bVetMuP7NfcQ6N8ZtraG83ClsdunvYiLSZKpjg6SOXIbHcYII2ZrKdINZo8vuIMRaWqHT1WU0F4o/3NZ7dvjLgZd7a3g0jSQGxZt4zs29bMy6ktDKxG3dpyjhp9VkU1LMnCdRZoyUVBZbNZleSlJWst2810kguFRK0SQTvkkbrtBYSXN6YHSV6v8Ao/xNhy3WO6XCka6HENFw+h3l++OdDnlm4DxvHxLZzAuNNG9diDR3jus0jWS3NsGGHWaroKt7o6htSIi3lGrqbTzxO3IAZk7Pmkx9g+q0JWzC1hxhbLRis4SjpWXKWZrWxBr/AKrRmT/UveDx8v8ARCh1nfcYVfppj4VqdOng2kpKM7qWl3UW/LujkjJtKV1K3rNSBR1jnsjFLMXSDWY0RnNw6YHKF309nudUzfYqGbeg3XMhYQwN6efFktuMBYz0YVOIdG+Na7SNZaF2HLA+z1dJVSuZMJxGW5jNurqHMnWLsuIDMnZesNY0pcL4J0W3C+aRLVYrKyxSTXS2VVLrvuUWWTWx86cyHfagjjzyKOu1wK4zp5jKD6uGCebdZ51d/hXZWptt2pq1tLzV2krmlmrQUw59xqZByN2MHr8ZWcTaINJM2Jm4MFtp4682rmyIGVDGs4Llnra2eROXJxq36QcIwWakteLaargZT4rfWV9Hb2xlr6WlE7mxa3JzwGYA4gFsI7SLowbdW6aBjyidOMGcwhYBG/hhrNTLLpan8riU1Kkkk4m021t3FYelSr7PpupnVRdmUrVItKMdNyvmTe7TfbfqdwGt3vfjRz6mrra29nLLp59JX27aPcVWTDllxXX20i3YgEhoXscHOfqO1Tm0bW7eLPjWzWGdMtgo7towwtPjS1tww/C8tLiCnlfGYWzby7VZKSM2nWDQBny9dWvDWlW3yaPtFlTVY5p4YMLXJrL9bpi5s72Nkyhka3Vye1jNuYPFs2nYodafL/NTBrdLdrqUXHB2jm11k7xarJLsLLJyprmvPir63WtFjw7dsQ3ejsltpiamtqmUcWvzrBK9wAa5x2DaV2Yiwre8L3qvsF1pCKq21DqWoMXPsEg4wHDYVtJTYh0b4Xt9zhZpKsN0fddIlLf2tppyN5pnStdm7WAz1RnrZZgdPPPLHd01j7DWL8OwHR5i+2soKO61IuVrhla2WqqHOzbWNOecrCDxjPLPrHJGs5StbQvg+l+Oxu06WHjhXGjO6zNSVnZO7bjxvlSaSb1zcCGotEeMnvwy2Wmp4Ti7PmUHztzlycG7R9rtI41abzh2pw5eK+w1dumnrbZUPpakN2sZI1xaRm3PPaOmtisNaYsHWG0aHbRUUuFrm+mjcy5VtcxslRZzvzeea/P6kSMzt8yFk1k0q4ME08eHNJ1jw26nxnW196NTCH816OSdxjMb9U6w1S0cYyyzzAAzh1Zp6owqvSzbWHm3VwjlHzkrZktKk4pvLGckmopWtrKSekWagySXUscxlLJCxhLXCOItyIGZBPTy2q+XjR3dKDFttwfQ3i03muuzKd0ElBVb5FrzeNjc8gZOB4xyZqdtImmSgtOCMdwYJxRa5q6+44qCAze5nvt8lDGx0sYcDk0uaW6464BWP6RsZYVuW6GwXiKgxBQ1Fsoqe0NqauOYGKIxu58OdxDV5ekrKpJ7lzNlhekG0sTJTWG6uLhUa3tuUYwausqtrJpa62ZCt+wnf8OXuuw/c7fIKy3VD6adsQ3xokbxgOGwqttuBqu6YabiKnvNqbI+6x2hlukqC2sdI8AiQMy/e9uRdnxgrZTEOmu2WG118mDcc0EVVW6R5aqXeZY3uktzw3Wk2g/UzltcFYtJuNcEVOH8R0eHMR2d0k+kmmutMyKUFrqfgcYdPqt2lm+a2ZHLnypGrJ2ujHw3Sra2J6qnPCuDk152r3OKleLj5qea685uyepr7jHCV4wLiWtwpf2RMuFvc1k7YpA9oJaHDJw49jgrKpA00VE+JNKOILzT19Dc46qoa8VdA1zaaTKNo5zXJOQyy4ztB2rCTQtZ+/1kDOsHax9xc0XeKbPtNmYqeIwVGriLdZKEXJJPe0m9N614PUpUVZq2uMbZZ5T/ACWho91fPCaNv73QA9d8hPxKTN6xvcn/AJ7SlXORPEFVi5PbsipqdnpRg/3rg3StPFKG/esA/wCSDNUfD7f6FMGPPE0n1lv3uLAW6FWBwIPNWq4/6C0LNxrj/tUnbW+24vlkm0LsfK8vdzVqhmT94sbFfizqrwxZvm4r/wD7I+6RO6irdYdCzpk/IDEPe6dSqoq3WHQs6Y/yAxD3unWuPLB+a4cqlvD4/wBHrEX4wj9/AokHL6aluwdDziH8YM7pApRDKqh/f7N2HR9wCx7HPkOgHSuA/umWRUH79Zuw6Qf+QFjuO/IhB+MR/dMoJI5REQBERAFK2hX7CYqP8in7lUqKVK+hT7CYr+9p+5VKEolzc8+WXh0Z+fXe8qMt1B5OabsT9dyk3c8+WXhzrm9d7yoy3T/k5puxP13K67LKcTZrwFbop8U+p/Xd8bcvaheK/gK3RT4p9T+u7425e1CoWC8sdJdNUfTGxUd4kyN7riOdPV3r1OXllpJqqlmkbFQbUSAC913E49XeszB72d5eBDN45i8v0Y+9mNbxP1F/sSvptJVO8bTyH+iU4ZV/wqX2ZXBqql3HUSH+kVnHor8J6jtbbK93FSyD0xkuTbKhv746GP76VoVRY8P4hxRWC32G11lwnyzLIYy/VHTceIDrlZZ9IjSp6E6j2bfjVXJLRswcRtLDYSeTEV4QfJtJ/azChSU7f32viH3oLl9FtrjHj6iU9ZoaP+azP6RGlT0J1Hs2/Gn0iNKnoTqPZt+NR1keZwfLWzHvxUP44mFirp4/3mhj9ORxd8S4fcat41WyCNvSjaG/3LNfpEaVPQnUezb8afSI0qehOo9m340zw5j5Z2RxxEH/AL0/5mBOe95ze4uPTJzXys/+kRpU9CdR7NvxoNBGlQnL6FJ/Zt+NT1kOZf5d2Wv/AMiH8UfiYAikaPQFpN2GfDszRyhrmuP9+S+zoO0iwu+o4LqpsuWWRo9wH/mnWQ5lH0g2XuWIg/8AdH4kcxxSyu1Yo3PJ5AM1UG3mLI1c8cP8knN3aCz2XQzpekGo3C08bPMxuY0e4VTHQTpVO04UqPZt+NR1keY+XdnS34mmv90fiYYZqGA/ueAzEfby8XsQuqesqajY+TJvI1uxo9YLOPpEaVPQnUezb8afSI0qehOo9m341OeHMLbOyU7+MQb/AF4/EwBFn/0iNKnoTqPZt+NdkOgTSg/bLhqaNvLzzSfWGadZDmXe3tlrXxmH8UfiR4qiGhnmbvhAjjHG95yCkL6SOkqmceCYMqHnkfM5h7Tc8lTzaENLU7tabC9S89d7dnup1keZx/L2zpbsRTX+6PxMJElFSkb0w1Eg+2fsYD1hy+uuieqnqXZzSEgcQ4gPSCzr6RGlT0J1Hs2/Gn0iNKnoTqPZt+NM8OZMdtbKTu8TBv8AXj8TAFer7jLEmJbbaLRe7lwmksNOaS3x7zGzeYic9XNrQXbeVxJWS/SI0qehOo9m3413w6BNJQGvU4aqcuRkbml3unIKM8OZWrtnY0pRqTrU246p5otptWdtdNHb2Eeulnn1GPkkk1G6jASTqjpDpBd4oHRgPrJWwNO3J21x9ZZ8dC+laNpZR4OmgB+2D2l59fP+5UrtBWlZxLnYVqCTxkvb8adZHmStu7Ne7EU0v1o399veYZwqlpz+5KcOcOKSXafWHEFTzVE851ppXO9M7B6yzv6RGlT0J1Hs2/Gn0iNKnoTqPZt+NTnhzLR21sla+MQv+vH4mAIs/wDpEaVPQnUezb8afSI0qehOo9m3406yHMv8u7L9Jh/HH4mAIpFi0BaT3ZOmw5KxvSDml3967fpH6R4HfUMF1MvSdNI3+4FOshzKPpBsu9liIP8A3R+JHEUMsztWKNzz0gM1UG3mI/uqoih6xObu0FnkuhfS9KNX6GKhjfMscxo7QKp/pE6VfQnUezb8ajrI8yPl3Z0t+Jpr/dH4/wAjCy62w+MZLOem46jfjQ3KVg1aeKKEfyGbe2dqzT6RGlT0J1Hs2/Gn0iNKnoTqPZt+NM8OY+WdkvtYmD9s4/EwSSeaU5yyvd6bs11rP/pEaVPQnUezb8afSI0qehOo9m341PWQ5l1tzZS3Yin/ABR+JgCLP/pEaVPQnUezb8atd/0WaQMM0ZuF4wvWw0rPHzNZrsZ13FueqOuUU4viclPbOzq01Tp14NvclJX95iiIiubILfzcV+Uoz8a1X6i0DW/m4r8pRn41qv1FjYr8WdU+GT83F+0j7pE9KKt1h0LWmP8AIDEPe6dSqoq3WHQs6Y/yAxD3unWtPKp+a4cvpqXLAP8AR5xD+MGd0gURjl9NS7Yeh4xB+MGd0gUoMqqHZJZT06Sk7iFjmOznhGH8Yj+6ZZFRfvlj7EpO4BY1jg54TiH/ABEf3TKAR4iIgCIiAKV9CYzsmKvvabudSooUsaE/sJir72m7nUoSiW9zzn9MzDmf/Gu95UY7p/bjmm7E/XcpN3PPlmYbGfLe+95UZbp/yc0/Yn67lddllOJs34Ct0U+KfU/ru+NuXtQvFfwFbop8U+p/Xd8bcvahULBeVukvyx8Vfjuu7u9eqS8ttJM9H9MXFIdREkXquzIkIz+rvWZg97O8vAg2sZi7K/mx97MSRVW/UH8Cf+d/wThFGOKgB9OQrOPRWd/Rf2fE3W0M4WtmGNHtnFDTMbNX0kVbUygc9I+RodtPLkCAOsFnCsWAiHYFw45rQ0G00ZAHJ9Rar6tTJ3k2zyptStUxGNrVKrvJyl7wiIoMEIiIAiIgCIiAIiIAiIgCIiAIiIAiIgCIiAIiIAiIgCIiAIiIAiIgCIiAIiIAuHsZIx0cjA5jgWua4Zgg8hXKIDSXTjha3YR0j3G22mIQ0kwZVRxDij3wZlo62eeQ5BsWAqV9035adR2FT+9KihbWm7wTZ6k6O1p19k4apUd5OEbvnoFv5uK/KUZ+Nar9RaBrfzcV+Uoz8a1X6i4cV+LPgvDJ+bi/aR90ielFW6w6FnTH+QGIe906lVRVusOhZ0yfkBiHvdOtaeVT81w5fTUvWHLwu9/P/EGd0gUQhS9Yh/o7X7s9ndIVKIZU0QzfY+xKTuAWMY2c04TjyO3mg3PtTLJ6Lx9k7Do+4BYljAk4VacjlzQb/dKoJMDREQBERAFKuhR4FpxRH5qOA9qOo+NRUpU0Kj/JWKHdKOAf+XUISiXtz15Z2G/Tvfe9Rlun/JzT9ifruUmbnk/9p2Gusb33vUZ7p7yc03Yn67lddllOJs34Ct0U+KfU/ru+NuXtQvFfwFbop8U+p/Xd8bcvahULBeVukvyx8Vfjuu7u9eqS8ttJVur3aRcUubSSkOvVcQQ3PMb+9ZmD3s7y8CElHGYu7/Rj72YkiqeZ1f8AwOb2BXItdxPFRy+xWcei+tguKN8NH/kDw3+KKPuLFflYsBNczAuHGPGTm2mjBHSO8tV9WplvZ5Px35VU/WfvYREUGKXCnt8dRa56trnb9E/Y3kLAOe9cZ5+kCu2SzjgVG+Jx4RUOfvgccmtAaHA+xOZVLSXCSkaxjY2uDZd8IP2wyyLT1iF3G9VDnh7o2EiaSUjkIe0NLfSyGSgw5Rr5vN3b/s3ezifLLRNI5pjqIHRuY94lzOrzgzcOLPMbOTlXDLVJI1jmVVOd9LxGM3Zv1Tty2drPJc81S1ghhp2xwiOSMM1idrxkXZ9PYO0uuK4PiNMRGDwbWy28eZzQt+Ht/wCvX/Q+hbjJG2QSRxNEIle57ieNxbyDp8iG1ysfIJJ4WMjDDvhJ1XawzblkM9o28S+DXvNOafexkYhFnnyB+tmqqnrYakPiqzC1m9xNDXlwBLG6oObQctnJ10EnWim/84f1KWShdT3BtDO5pOuxriw5jI5HZ21WVVnmFQKWCgmiLnuDXyPzBaMyTxdLaqe4Vsc11fWwDNge0t2ZZ6oA/wCS64K+WnrXVrGjWcXazeQh2eY7RQWrSipLfb7e87jZKvfmxAsIcwv18nAADj2EZ+5yr5faZ45HNlliYxrBIZHawbkTkOTPPPkyX0Lu5swkZDkzUMbmmRxLgTn47PMHi7S+Tcw579emDopGBhYZHE7DmDrHbnmhCeI4/wAv8v8AYd81keZhHTvBY2CKR7zm4ZuGezIZ7duWxdEtpqIGTyTyxRiBwYQ4nNxLdYZbOULtN6e6R54OGxPjjjLGPLctQZNIPH//AFU9RcH1EMsJia0SStl2EnLJpAG300EFiNFL1fyv/MpERFJlhEVwvMENPUQshjDA6njcQOUlu0oUc0pKPP8AkW9EX3E5rJGPewPa1wJaTxjpIWZXVluhgpoXxyHXBayoLvGsc4azeLbxZ9oruqLVRiWpjjqmN4LAJM83HWdmBt53Zx+6OuqaW8VdQ2oZUPMjKj7UnYw55gj0uL11xzSJnqJnwtcKmPe3NzIyGw5g+m0KDEUK9ld/5p/U+nWerbTGpJZsYJCznsw08vFly9NDaJBJJEaumBij3yTnnZNGYG3Zx88Ekurpafenw5vMYj198dlkOI6ueWeQyXW64PdLUy72M6mPeyM+LaDn/wCFCy697/8AN39T65lyh79eeFkbGtcZSTqkO4stmfuciczJWufvs8MTGFo13E6rsxmMsgTxbVyLnm0xTUzZInRsYWlxG1vE4HkPH20NzbIZG1FIySJxa5rA4t1NUZDI8fFsQXr8f5er+vqOW2icuLJJ4InCXeQHuO12QOzIHZt4110FGJ7iyina7a5zXNacjmAdnbC+pLpLK8SPjbmJ9/2bBns2elsXXHWujrnVoYC5znO1c9nPZ/GhKVZxd99vtKp9oqJJt6jo5KbVYXvMrtbZnlnsGfH1ivgWWrMr4y5jQxrXF5DsiDxZADPp8nIuiirn0TpNVusyVmo9usQSMwdhHEcwF3tuzmySneTvcgaNUSuBBbxHWzz6fbQq1XjpHd/nNnybTPG97aiWKEMeGazycnEjMAZDpKomsUrqypjpnBsMU5hY6TMlxHJzoPW6Q2ro5phxkE1IyRj5BK1ms7nHAZcfGRl/cu03yV8kzpYNZssxnDRI5uq48e0cY2DtIVfjF7r+Xq/qU09umpqff55I2EvcwRknXJacjyZe6qRVFRWPqIY4nMA3tz3Zg8esc1TqTJp57efvCIiHIafbpvy06jsKn96VFClfdN+WnUdhU/vSooW0pdhHqDov/ouF/Uj7gt/NxX5SjPxrVfqLQNb+bivylGfjWq/UXFivxZ8N4ZPzcX7SPukT0oq3WHQs6Y/yAxD3unUqqKt1h0LWmP8AIDEPe6da08qn5rhy+mpfsfQ637s9ndYVEA5fTUwWPodb72ezusKlEM7qPZNYx/M6P4OFguM8TtqY58L0tubDBTVmvJLLJvkrpozK0lpAaGsIk8aQ4gtHPcizuk+uLHl/AqP4OFFeLAG4qvLRxC4VAH5xygngWpERAEREAUraFB/kfFP3lP3OpUUqVtCf2HxSP5NP3OpQlEt7nnyzcNene+96jPdO+Tmn7E/XcpM3PPln4Z9O9971Ge6d8nUHYn67lddlleJs34Cv0U+KfU/ru+NuXtQvFfwFfop8U+p/Xd8bcvahUJC8sNJU0rdI2KtWRw/y3Xcv+/evU9eVukvyx8Vfjuu7u9ZmD3s7z8B6TxmMv9GPvZj/AAio6s/2RXyZZHeOkcfTK+UWeejMq5G/Wj/yB4b/ABRR9xYr8rDo/wDIHhv8UUfcWK/LUS3s8m478qq/rS97CIigxQiKttFtfda5lIx4YCC57j9q0cZQpOcacXOW5FEivc9mts1FPV2mtlm4IRvrXtyJb5oe6u+32jD1ydI2CrrRvTDI9zmtDWgKLmO8bTjFyaem/R6e0x1FXttFRI2kfG+NwrJDHGA7Nw25Zkciub8O22SSooKO4SPraZhc5rmAMcRxgIWni6VN2b/prbX95jqK9U1nt0dvgr7pVzR8KeWxtiYDlkciTmuuqw7UQ3CahZPERFEZg97tXWZ8aBYuk5ON91/s0fcWlFdbfQ2eWCN9dXyiaV+o2GFms5vXK+57Za7bcaiiudVOWx6pjdC0EnMZ7QeLkQl4mCk4Wd16n7NCzorxe7VQW6mpZqWacvqRr6koAIZyHZxKzoXpVY1o547giIpOUK53/wCuoOxYfeq2K53/AOuoOxYfeqDgn+Oj7H/ItiIik5wiIgCK9Vtloaezm4U1eaiRkoifqjJmeWZy6fGNqqLfaMO3F0jYKutAiYZHue1oa0DrqLmI8bTUM+tvYzHUVwbZqiQ0hjkjc2teWx5OzIyOWbhyK5Pw7bpXVNFQ18slZSsL3NcwBrsuMBC08XSg7N/01tr+8x1Fd6G22h9PDJXXF4lqH6jY4QHFm3IFy+Kmwzw1lbTRzxEUbN8cXO1S5vWHTQlYmnmcW7W9Xrt7y1or/TWS3G3U1ZVGue+oDjq08YdkAeNUVLSWmapqHT10kNNFtYC36o/rZcWaELFQlmtfT1euxbUV1vFpp6Knpa2knkfDVAlrZG6rxkrUpOWnUjVjmjuCIiHIEREBp9um/LTqOwqf3pUUKV9035adR2FT+9KihbSl2EeoOi/+i4X9SPuC383FflKM/GtV+otA1v5uK/KUZ+Nar9RcWK/Fnw3hk/NxftI+6RPSirdYdCzpj/IDEPe6dSqoq3WHQs6ZPyAxD3unWtPKp+a4KYLH0Ol97Pb3WFQ+OX01MFj6HS+9ns7rCpRDO2jP7psY/mdH8HCi7F3krvX4wqe6OUo0v13Yh/M6P4MFFuLfJVefxhUd0coJ4FqREQBERAFK+hIZ2jFB61OP/LqVFClnQh9h8UenS9zqUJRLO568s7DPp3zveox3Tnk7g7E/XcpN3PXln4Z9O+d7lGW6bP8An3B2IPfuV12WU4mzngK/RT4p9T+u7425e1C8V/AVuinxT6n9d3xty9qFQsF5caSaWkdpFxSTcWNJvVdmCx2z6u9eo68rdJflj4q/Hdd3d6zMHvZ3l4EE3jMXZ282PvZZ+B0nnnF7B/xJwWiHHcm+tG5UaLOPRWSX0n9nwN+8BBowLhwNdrNFpo8jllmN5ar6rDo/8geG/wAUUfcWK/LUy3s8oY78qqfrP3sIiKDFCumHLhBbrmJKk5RSMdE93mQeX3Fa0Q46tNVYOEtzMjzoLJbK+KK4xVctaBGxsf2rdu09tU76mnt+H20lNMx1TXO1py05lrBxNP8A76asiKDgWEW+Ur63frstO4uVFU26hkoayJ0zqiOXWnaQNUNz5PWV7bLarfcKy+sucUonY8xxNz19Z23I+usSRCKuEVV3cnro/Wr3sZPZ6uF9rbTuudLG5khcWVMQO97eNh6fpqlu1farpdppqiWbeY4dSJ0YGbnDizz5M81YkQRwUY1HUu7u/LS+8v1kjgiiZV0d8jo6rMtmZKBkW58nT5F9VYtFxxIHMnjjpNjpXk5B5HHln0+JY+iEvC3m6mZ3aa4cffbhcrrzcXXO4SVOWTPGRt6TBxKhRFJkQgqcVCO5BERC4XZNPNUOD5pC8taGAnkA4gutEIsr3CIiEhERAXiOogGFZaYyt301geGZ7dXVG3Jfb6mC3WBtJTTMfUVx1py05ljBxN/99dWRFBjeLJvV6Xv/AJ7y50VTbqCagrYnTOmjfrVDXAaoGf2vrK9smtdtrq29x3OGbf43b1E3PW1nEHaFiKIUq4NVXdyfJ+tXvYyXD9Lbaem5oSV1Jwwj6kyZ+TYz0yOUq21EdGKqsNyr3VEpZrRywZFr3np58itiIWjhmpym5PX7PUjJrXP+5aR0WJBA2F2csMhyyGfEOmuhz7Zcb1V1UVwFG4OD6d5bzrnDjJ6W3arAiWKeJpSlJS1fqXO/LX95kGJKqlnpKSN9ZHV1seYlmjGzV5AsfREOehRVCGRMIiKTmCIiA0+3Tflp1HYVP70qKFK+6b8tOo7Cp/elRQtpS7CPUHRf/RcL+pH3Bb+bivylGfjWq/UWga383FflKM/GtV+ouLFfiz4bwyfm4v2kfdInpRVusOha0x/kBiHvdOpVUVbrDoWtMf5AYh73TrWnlU/NcOX01MFj6HS+9ns7rCofHL6amCx9Dpfdn+3N7rCpRDO2l+u7Gf5lR/BQotxZ5Kbz+MKjujlKdJtq7J2FR/BQosxZ5Kbz+MKjujlBPAtSIiAIiIApa0H/AGHxP99SdzqlEqlvQYM7Tibpa9J3OpQIlbc9+Whhj76+d7lGO6a2Y7h7EHv3KT9z35aGGfvr53uUYbpvydw9ifruV12WV4mzvgK3RT4p9T+u7425e1C8V/AVuinxT6n9d3xty9qFQsF5W6S/LHxV+O67u716pLy50m0tJHpHxUyaqfG/m1WktMXFnO89NZmD3s7y8CE1HGYu/wBGPvZh6Kr4PQfw8/miuN5t4/2yQ+lF/is656K6xcn3M3t0dyxzYAw2+Nwc3mTSDMdMRNB90LIVqbot3QMmALU3Dt0oqi6W6JxNOWlrJIAdpaM9jm57QDxdNSF4bPBPocvfsYflrXTozUnZHnzavQrbMMZUdGi5wbbTVtU3fi7pk4IoP8Nngn0OXv2MPy08Nngn0OXv2MPy1XqZ8jX/ADN276NL7PiTgig/w2eCfQ5e/Yw/LTw2eCfQ5e/Yw/LTqZ8h8zdu+jS+z4k4IoP8Nngn0OXv2MPy08Nngn0OXv2MPy06mfIfM3bvo0vs+JOCKD/DZ4J9Dl79jD8tPDZ4J9Dl79jD8tOpnyHzN276NL7PiTgig/w2eCfQ5e/Yw/LTw2eCfQ5e/Yw/LTqZ8h8zdu+jS+z4k4IoP8Nngn0OXv2MPy08Nngn0OXv2MPy06mfIfM3bvo0vs+JOCKD/DZ4J9Dl79jD8tPDZ4J9Dl79jD8tOpnyHzN276NL7PiTgig/w2eCfQ5e/Yw/LTw2eCfQ5e/Yw/LTqZ8h8zdu+jS+z4k4IoP8Nngn0OXv2MPy08Nngn0OXv2MPy06mfIfM3bvo0vs+JOCKD/DZ4J9Dl79jD8tPDZ4J9Dl79jD8tOpnyHzN276NL7PiTgig/w2eCfQ5e/Yw/LTw2eCfQ5e/Yw/LTqZ8h8zdu+jS+z4k4IoP8Nngn0OXv2MPy08Nngn0OXv2MPy06mfIfM3bvo0vs+JOCKD/DZ4J9Dl79jD8tPDZ4J9Dl79jD8tOpnyHzN276NL7PiTgig/w2eCfQ5e/Yw/LTw2eCfQ5e/Yw/LTqZ8h8zdu+jS+z4k4IoP8Nngn0OXv2MPy08Nngn0OXv2MPy06mfIfM3bvo0vs+JOCKD/DZ4J9Dl79jD8tPDZ4J9Dl79jD8tOpnyHzN276NL7PiTgig/w2eCfQ5e/Yw/LTw2eCfQ5e/Yw/LTqZ8h8zdu+jS+z4k4IoP8Nngn0OXv2MPy1b73utbQKJ7cO4XrXVbmkMdWPY2Np5CQ0kn0tiKjUfAtT6FbdqSUfF2r82kveR5umJY5NKlWGOBLKSna7LkOrnl7oUVKtvF3uN/ulVebtUuqKyskMs0juNzj/cOQDkAVEtlCOWKR6F2TgpbOwFHCSd3CKTfrSC383FflKM/GtV+otA1v8A7i2KSPQnC57SBJc6pzSeUZtGfbBXBi/xZ1x4ZH/8cX7SPukTuoq3WHQtaY/yAxD3unUqqKt1h0LWmP8AIDEPe6da08rH5rgphsfQ533s5ndYVDw5fTUw2Toc772c3usKlEM76T66smfLQ0fwUKKcV+Si8dn1HdHKVqQfuqydg0fwQKKcVeSi8dn1HdHKCeBa0REAREQBS7oN2WTFDulJR9yq1ESlzQecrFin8JR9yq0JRK257J+mhhj76+cn/DlGG6b8ncPYv67lJ258P/ahhfPzV873KMd055O4exf1yrrsspxNnfAVuinxT6n9d3xty9qF4r+ArdFPin1P67vjbl7UKhYLQfdgaK67CGkGfGtJC59nxI/ft8DdkNVl9UjJ/lZa49MjkW/Cs+KrNh7EtmqcPYmt0VfQ1jdWWnkbmHDPMHrEEAgjaCNi5aM3TldH1vQvpVU6I7TWNUc0Gss484vXT1pq67uJ5QottsZbiSiqK+SqwJit9JTSOzbSXGEyb31hI05kdLNufXKxnwkWOPRbZvzcvxLZKrFnpbD+E7otiKaqeNKN+EoyTXt09zaNb0WyHhIscei2zfm5fiTwkWOPRbZvzcvxJ1seZzeUfot6ZHul901vRbIeEixx6LbN+bl+JPCRY49Ftm/Ny/EnWx5jyj9FvTI90vumt6LZDwkWOPRbZvzcvxJ4SLHHots35uX4k62PMeUfot6ZHul901vRbIeEixx6LbN+bl+JPCRY49Ftm/Ny/EnWx5jyj9FvTI90vumt6LZDwkWOPRbZvzcvxJ4SLHHots35uX4k62PMeUfot6ZHul901vRbIeEixx6LbN+bl+JPCRY49Ftm/Ny/EnWx5jyj9FvTI90vumt6LZDwkWOPRbZvzcvxJ4SLHHots35uX4k62PMeUfot6ZHul901vRbIeEixx6LbN+bl+JPCRY49Ftm/Ny/EnWx5jyj9FvTI90vumt6LZDwkWOPRbZvzcvxJ4SLHHots35uX4k62PMeUfot6ZHul901vRbIeEixx6LbN+bl+JPCRY49Ftm/Ny/EnWx5jyj9FvTI90vumt6LZDwkWOPRbZvzcvxJ4SLHHots35uX4k62PMeUfot6ZHul901vRbIeEixx6LbN+bl+JPCRY49Ftm/Ny/EnWx5jyj9FvTI90vumt6LZDwkWOPRbZvzcvxJ4SLHHots35uX4k62PMeUfot6ZHul901vRbIeEixx6LbN+bl+JPCRY49Ftm/Ny/EnWx5jyj9FvTI90vumt6LZDwkWOPRbZvzcvxJ4SLHHots35uX4k62PMeUfot6ZHul901vRbIeEixx6LbN+bl+JPCRY49Ftm/Ny/EnWx5jyj9FvTI90vumt6LZDwkWOPRbZvzcvxJ4SLHHots35uX4k62PMeUfot6ZHul901vRbIeEixx6LbN+bl+JPCRY49Ftm/Ny/EnWx5jyj9FvTI90vumt6LZDwkWOPRbZvzcvxJ4SLHHots35uX4k62PMeUfot6ZHul901vRbIeEixx6LbN+bl+Jd9FuH8VPqGi440tsUGfPOhp5Huy6wOQ91OtjzIl4Sei0VfxyPdL7prvYbFdsTXiksFjopKuurpWwwwxtzLnH+4DjJ5ACV6e6L8D0ujjANmwbSuDzb6cCaQf6ydxLpXekXucR0hksR0P6D9H2iFgntVPNWXiVmpLc6sAyEHjawDZG3rDb0yVK4IIzCwcRVc3bgdEeEfp7T6WVIYTAprD03e70cpbr24JK9uOrvyOVFW6w6FrTH+QGIe906lVRVusOha0x/kBiHvdOsY6uPzXDlUxWToc772c3usKh0KYrJ0OV87Ob3WFSiGd9J9cWU9Kgo/ggVt0vaMrNhvDNnx5bsRx10+IpN/qKeN2u2F8ge5zfGt1S0tIy57PWG0avPXKm2S2bsCk+CBW7SDt0SYddymtPvZFBPAiVERAEREAUu6ENmHMVu6UtF3GsURKXdCJyw1iz8LRdxrECJU3PZ/7UML9LWvne5RjunPJ1Dn/Bf13KTtz0D9M/Cx6br4P/APnKMN04P8+4exf13K67LK8TZ7wFbop8U+p/Xd8bcvaheK/gK3RT4p9T+u7425e1CoWCoqNokqJ5njNwdkM+RVqo6Dx9R9/8avHcyr3orERFQsFgmlHH19wXXYKs2G7HQXKvxliF1ij4dWPp4acNt1ZWGUuZG9ztlEWBuXG/PPZtztYdpG0a0ukQ4cqXYnvVgrsK3g3q3Vtp4MZWzmkqaRzXNqYZo3MMVXLs1M89UgjLaBSN0rUNss1dXYptNZTVVqr5rdXQ2+CStZG+OJsxkDmMGTDE9jgXBpJcGgF2QNJVaZLfDfqW30dPHcaGqruDielMjpGw8yZLg14Zq/VC5sYaGtPE8HPMaq4vmgnC+IKKip6+83h1VSVNRWPrn8GmmqJp2Bkj3iWF8bXFjQ1ro2McxubWFoJBqrNocw3h2stlzttZc5qizTQVNMyaaPUe+G2G3sD8o88jCdY5Zc/t4udQGQYexvhvFVZLR4frjWthoKO4moijcYHQ1TXuh1ZMtVzixmuWg5hr2E5B7c8HwdpqfeLfeMR4mGHrbZ7ZVVtMGUtxlqa0GGtfSs14d6aAXuYMmtc46z2tGfGsg0S4Cbo9wzUW11LBTTV9wqK+SCCXfY6dryGwwMfqM1mRQMhibzoybGBxALuOi3DMmBZ9H1Qaqots9XNXa8pY6Vk76x1WHjndXnJiC3NpHOtz1tuYFNPplwRT2yG5PnrnOmqJ6XgrKKR9Q2SFofKCwDYGtc058R1m6uZcAaC+adcH0dDT1uH3T3uOpktLW1NLTyuo2tuEsTYC6oDCxrnRzNkDc88nR56u+MJ7qnQxZqqz0NtkxFduF0Es0sdxFPQb87fQ0SNMfBuDgEMaOdiBGWwg7V9XHQzYq6Z3B8QX230c89BV1lDSTQsgrKijMO8yyZxF4dq00LHBjmtc1oBB2ICQEREAREQBERAR1JjvG9FpFuGGbrZMOU1ht1uF4muXNSczNozJKwExGDVDwItYjXy27Ccl33DTFYqegbV0NnvFVPw63UklG6jfBO2Otl3uGfUkAzYcnZddpaciCBfrlgeyXe73K8XDf5nXazix1UBcN6dTa0jjsyz1jvrgTnllls5VYRoftrqGtiqsWYhqrjWPoHNu0r6XhdO2imdLSsZqwCItje9559ji7XdrF2aAqr1pVw5Z7pVWCVlYy5xU9TLTMnpZIoaqSGDf3xxyluq4hmZzGY51+RJa4Drxjj+4WDC9ivdupLUKi91NPABcq11PTw75C+Ul0jY3k5amQGrtz5FaX7n/AAhJiepxS663jhFVW1de+POmyM1TSy00hMm8788b3MdVr5HBmoxrA1g1Fm0mGKCWmslK6ao1LDNHPTEObm9zInxDX2bRqvJ2ZbcvSQGOnS5hi1T2604kuNPHcquOkdO6gElRSQOqX73BnMWt5179jSQOmchkUk016OIKm4w1d9dSxWyCrqZaqamkZTvjpfrkskLcn6m3MDaciW6wBy771ossV5xdFjLh1ZR1n7n4VHBHTOjrGwOLomyOkifI0DWI+pvYSDkcwrc3QZhDVvNHPV3GW2Xmmq6WS3/UI44G1LiZXRyxxNn1s3HVLpHaufO5IC64R0h0+L8SXmxU1prqNtopaKoJraeSnmcagzZAxvaCABEDnmc9Yg5FpCtDtKN2rH0dvslgpZLleK66RW+KsqzBE2ioJN6mqpnta8gGTU1WtaTlNGTlk7K/4UwJFhe6XK+TYkvN6uF1hp4KiouT4SdSAyb2Gthjja399cDkNuQJ25k2lmi0yW8Uj8R3C31duudfWWe6250TaulhqnukfCRLG+J7Q55bquY5pbHETzwzAHVhTTLh7EctltZ3qa63ttfJTMtNQ25Ur4qSeKKWcVEObBHnPCef1Xc/kWhwyWVYSvsmJLBT3aamFPM580E0QdrBksUrongHlGsx2XWVlsGi2w4exBb8UU9fc6m5UNFcqN81TMxxqjXT0008suTBm/WpIg3V1WtaSA3LV1bzhCxS4bw/T2qpqGzztfNPPI0ZNdLLK+WQjraz3ZdZAXlERAEREAREQBERAEREAREQBERAEREB1zxslic14z2bOsV1W5xdTDM55EgLvf4x3pFU1t+tv6RV12WRxKtRVusOhZ0x/kBiHvdOpVUVbrDoWdMf5AYh73TqhJ+a4cvpqY7L0OV87Ob3aFQ4OVTHZuhwvnZre7RKUQztpv3yz9gUvwMK3aQfKkw0OnWO969XKm8faT/w+l+BhW7SEP8Ashw0f564f+GRQTwIlREQBERAFL2hFueGMWn/AH1CP/JrVEKl/Qf5F8W/h6DuNagRKm57B+mVhQ9OS+97VF26bGWOoexR79yk/c9nPSfhZvSffO9yjDdOeTqHsX9dyuuyyvE2e8BW6KfFPqf13fG3L2oXiv4Ct0U+KfU/ru+NuXtQqFgqOg8fUff/ABqsVHQePqPv/jV49llXvRWIiKhYLGdIl2xZZcL1dfg630NTXRRySOfWylsNPG2NzjIWt55550ANBGZdtIAKyZUF/t8t2sVytcD2tkrKSanY53EHPYWgnrbVK3mTg6kKWIhOpFOKaunut67WI+suK9KGMNHeDr1hiks8dwv1OyoudfVMJp6JmoXEthDw95c7JoAdszzKsw00YngwLwh9Da6zEVRiY4Ut9TBrtt9XNmMqoDMu3sDWBAcc3MIByOYqblo10l0+ibDWjjC99tdM6ipo6S8SvfIw1ELQAY4ntBLA7aCcs8uLJVVx0X4jv2AKDDz4cP2C54buFPX2DmcJZKSJ0OWqJGuycQ7N4OXTB2lciyn2sHsdSvV6t03VdrXuo5pWcuLi7xWWKsoK9sz1uOB8ZYvGObro1x5zMqbjR0EN2pK63RPhinppHuYWuje5xa5r2naHEEdLl6MV44xnccc1Oj7R6+zUU1poI7jdrndo3yxQtkJEcTGMc3niGlxcTkAqvBOB8U0+NbtpFx1cLbLda+ihtlNTW5jxBTU0bnP8c/nnOc9xPEMvX2UuMNHeKhjOfHeAa2y8IutvbbLxbrzA+Slq4mE728ahBDgHFpBzBHux5tzBjLZnyjJ3h+LVnb8H1to5tLWt2raZc1v0Tro9L0mHMHc3dJNPR79FdmWkz2KZlXBUl+W9zsaHl7Gnbmx3PjLYDmFnuHr2zEVnp7zHbbhQNqA4inr4DDOwBxHPMO1ueWY6xCiOi0BXKhwhDa4aqywXKpxVS4jrmUNKaaiibEWjeYI256rQ1oAz4ySSpuUTy8DC25HZcVfAvNJyldq6ikkrWi72Tbet9y3IIiKh84EREAREQETaWMc6RMEvrr1Q12FaK10cbHUFDXCSWsvMgAMkceq9uo7NwY0BriSQTsOSu+N8R49paGguVnq8OYatrqMVNdX30uk3qYgatOI2uZkePNxdyZAK26SsBaSMYC9WKjr8L1livEIip+atE91Tay5obI6Is2POY12k5FrstpyVffMI6RKWltNvwzeLHdbbSWxlvq6C/UrnsnlY0BtRrszdrbNrTsOZ5do5NLI+0pPZ6oYa7pdYs2bR2y5Y2vdWzXzdtNZt3m2L7o1xVcsZYEtWKL1a+Z1XWROfLCM9U6r3NEjM9oY8ND257dVw4+NRzDpL0r4isk2kTDMeEqTD3CpoLdbbpK6KquLIpHsd+6HPbHE95jfqgggZbSRtWfaKcDVWj3AtFhSvuba+aB00kj42FkTDJI5+9xtJJaxutqgZ8Q5OJRvc9B2PDhqt0ZW65YSrcJT1c9RQy3a2vqK22Nmc9z96GeoXt31+o/YRrHi5JWW7LYD5HWOxKzQUOsWRyUnHqryzZVvv2LXala9nmM+rNLtit1+tuFam03aa7XKhgr2QUUDaprI5JAwkvY4jVYTm5/jchmCcwDnSwDD+jWbDukGixFR1UTrXQYWjw/FG4nfi5kzHhx2ZZare2s/VHbgfO7UjgYOmsFr5t5O/F8LcLL1v2hERVNWEREAREQBERAEREAREQBERAEREAREQBERAfL/GO9Iqmtv1t/SKqX+Md6RVNbfrb+kVddlkPeVairdYdC1pj/IDEPe6dSqoq3WHQs6Y/wAgMQ97p1Qk/NcOX01Mln6HC99mt7tEobH/ADUyWfob712a3u0SlEM7aXa61da30vwMK36QfKew32cfeyK402QdbB/w6m+CBW/SD5T2Guzj72RQyeBEaIiAIiIApX0JUO+WrEty4ZUt3g00G8Nkyhk3yOpOu5vK9u95NPIHv6aihTDoN24ZxYOnUUHca1AiT9z15aGFvv753uUZbpzydQ9i/ruUm7ns/wDajhYfy733uKjLdOeTqDsX9cq67LK8TZ3wFbop8U+p/Xd8bcvaheK/gK3RT4p9T+u7425e1CoWCo6Dx9R9/wDGqxUdB4+o+/8AjV49llXvRWIiKhYIi6nVVMyYU76iJsruJheA4+txoDtRccW0r4hqIKhgkp545WuaHhzHBwLTxHZyFAdiL5c9jMi9wbmQBmcsyeILgyxDPOVmxwYeeHjul6e1AfaIiAIiIAiIgCIuuaeCnZvlRNHE3PLWe4NGfroDsRdcM8FQzfKeaOVueWsxwcM/WXYgCLjWbramsNYDPLPbl018iaI6uUrDr5hvPDnsuPLpoD7RcNc141mODh0wc1ygCIvkPYXmMPaXNAJbntAPFs9YoD6RcOc1gzc4AZgZkrjXZriPXbrka2rnty6eSA+kREAREQBERAF01lZSW+llrq+pip6eBhkllleGsY0cZJOwBdyiLSzQux5pEwjoprJntslRDU3y8QtcRwuKAsbFCcuNpkcCR0h6SmKuzY7LwUcfiVSqSywSlKTtdqMU5Oy4uyslxdtT6qN0xgQzyix2TFN+o4HFslwtlnklphkciQ85aw64GXSJWc4L0gYR0g251zwneIqyON2pNGQWTQP8zJG4BzD6Y9JRtpD3SWj/AEW3Ogw3b2U9SyirOBXWkp4pIn0MQbsdG3UDHgHLMB3Fxdbq0km04TxRgzTXg10cYvtxpbRdDCC2O40dSCWPe3Zm9uQIdlnxA7BkuTJdbrXPqanR+lXpUorC1KDqqTpSlLMpuKvlkssbOS7LWmq0ad1OCIi4j4UIiIAiIgPl/jHekVTW362/pFVL/GO9Iqmtv1t/SKuuyyHvKtRVusOhZ0x/kBiHvdOpVUVbrDoWtMf5AYh73TqhJ+a4f81MtnH+jdeuzG93iUND/mpmtPQ3Xnsxvd4lK4kM+4P3y1ged9N8DCoNIPlO4a7Od7yRXGm/fbZ+L6X4IFbtIPlOYa7Pd7yRQyeBEaIiAIiIAph0Fn/N7FI6dTQdxrFDyl/QX9gsT9kUPcqxAiUdz35aWFvv733uKjPdO+TqDsX9cqTNz2M9KeF/v733uKjPdO7MdQdi/rlXXZZXibOeArdFPin1P67vjbl7ULxX8BW6KfFPqf13fG3L2oVCwVHQePqPv/jVYqOg8fUff/Grx7LKveisREVCwWv2kWhtEmkPSC29YTuNzq7lhmy09gkprVNPIa1slwy3idrC2F7HvhcXlzQzNrnEAZrYFWy94nw1hpkcuI8Q2y1MmdqxurquOAPPSBeRmfSQvTpzrSUKabb4LVkQV2LtI9PpTsdgijvclM24RUF3ElK40ckJtzpHTRZUmpvZnLRrmo1g8Obq5ZgYXo1vmkXCmiez6SsRUF0prhacH4PuN/oBbBA+sAo5W18AgbGNSRhlMgija0iSNjMgCQtl62/WO22zm1cbzQ0tv1Q/hc9QxkOqeI65OrkfTVHUHB+MrNFXTVFsvFpjkbVRzNmZNT60ZzD9YEtOqdu3Yli3U1cufK7Xte2l+Xt9RiN8smLK3QsBioitxTR08F8mZTs3xrLhTzNq2xQhgaXtZJGI2bNZzWjPMk5xbhi1Y6p79FX12G75zNxGybSbLAyM79Fcd5ljFte14LGSMa+3OYzPnpIJDlsOexFkxRhnErZX4cxFbLq2B2rKaKrjnEbuk7UJyPpq5puK1KU6MnCommuD0ZrLVXrSFiiy1sddU4qjoLPifC9dBVQU8zql9O+sbwoHOjhc5jGtDntbG4M57NxAIF5rMWaahiXF0Ahnp2UlPejQxRCecGKKJ5oZI4zQNiD3Zwn66k1iXt1SQQ3YAkAZk7FS2u7Wq+UMdzstzpLhRy573UUszZYn5HI5OaSDkQRx8YQhQk4uSWi4+3/0zow5S1lJZKOKvuFVW1Jia+WaqDRI5zhmQQ1rQMicgMtiuSIhUIiIAsc0iWimvWB77Q1Fsir3Ot1SYYXwiUmXenauq0g89mdmW1ZGiAgCoq8V4Pslps1qpb1Y6dmEKKe0RWWyb/w295OZNBVgROEeX7lyDzHrB8xLso3Ftwr6vFGGKvHkvC8UzVFyvlufFvTTvVHBJQxAvieKaXKISskjcWskc3VaTlmXGX6LENguVbXW23Xy31VXbC1tdTw1LHyUpdnqiVoObM8jlrZcRVutWkTR/fri20WPHWHrjXP1tWlpLnBNMdXacmNcXbMtuxTZmQsHiGpNU5earvR6Jq6b5JrX2Ed6Fq7F99xK/EeLbfWwVFRhikp3yVFPJHrPiuVxaAdeOPn973px5xh58HVbmAsKxFZMV4YxZdcSstOIq22aK6+e72inpY3zm6R3aUS1IjYG5yvpmGojYxuZDX6oBJAWzSKDHICprjjrB+JMGYLtkF6ENIbbRXNu9ySUkrJYy6omaRSuDgH6wc99QwtcBzp1gHY9U37Sxg3C2HbZZH3+soIubTbvWVbKhlXDXxTRmmhAht9S98bo+EOblFqvIaBJmWMfsnb7vabtwjmVdKSt4JO6mqODztk3mZvjo36pOq4crTtCq0LShKDyyVmYDo7+jasvN3rcY3Wqc+mioqeOkjgEVGZHUVPJPJGHMEh+rGUDWccs3DLMbMYpn4hrcV4lt9DdrzQ1FRjuKkrZoYW60Vv5ixyRCIyMc0RF+qdYDLfHSDPPWCmVfDYYmyumbEwSPADnho1nAZ5AnlyzPbQqa63iq0jyYdhjxBUX26U74cOXaoMtBm6GeO9R7+GCKMHIQxh7mZEgAnYCs/xFfObeP9G1xwk58hfcrlT3N0kD4ni2cz5XSc7IA7V4W23bcssy1ScvgwwmYVBiYZWtLA/VGsGkgkZ8eRIGzrBAfaIiAIiIAiIgCi3TBasQ2a94e0tYWt0txnwzv8FyoIRnLVW6YDfNQcr2FoeBy5esZSRSnZ3M7Z2Ols7EKuoqSs0090oyTjJP2ptX3retSIbpftAel6itN9vGLLW6ltFVw51HVVrKb6qARlUwvIcdU7cnDL0wdtrrrzTafMb2O1YUhmlwbhK4Nulfdt7LYK2qiBENPASOfAJJc4bMuLjBMm3XRpo6vtfzUvWA8P19ZnmaiotsMkh9NxbmfXWQU1LTUUDKWjp4oIYxkyOJga1o6QA2BXzJbjefLWEwkFLBqo5xUlBTknGnm7TSSWaWujeWzs7Oyt2oiLjPlQiIgCIiA+X+Md6RVNbfrb+kVUv8Y70iqa2/W39Iq67LIe8q1FW6w6FrTH+QGIe906lVRVusOha0x/kBiHvdOqEn5rh/zUz2kf6Nt47Mb3eJQwOVTPatm5su/Xq2/CI1KIZ2Uv79ax/w+l+CBW7SD5TmG+z3e8erjSH6vauvQUvwQKg0gD/sZw4elcSP/BIoZPAiFERAEREAUwaCsuYeJs/4RQ9yrFD6l/QTts+JW9Oooe5VaEolHc9eWnhf7+9d7ioz3Tvk6g7F/XcpN3PXlp4Xz83eu9xUZbp7ydwdi/ruV12WU4mzngK3RT4p9T+u7425e1C8V/AVuinxT6n9d3xty9qFQsFR0Hj6j7/41WKjoPH1H3/xq8eyyr3orERFQsFGGkt2Hpb5LDaanCsWNRbA2N2IxLwdtvc92uWDxmevxkbdnPbMlJ6td7wvhnErYmYjw7bLq2F2tEK2kjnDD0264OR9JTF2dzY7LxcMFiFVqXt6rfanvXNXV+ZrfhuewyYc0G8PimjwvBX10NRzRka+E1LYZRA5zsgxzTKCWEgbMlxibfH2HTK/C+RwqbzaTJwT96PPR80d71eTU1dfLZln11svWWGx3C2Gy19moam3FoYaSanY+HVHENQjVy62S5obLZ7Xbm2e2WmjpKBrSxtLBAyOENPGAxoDcvWXJ1mt/wDN9z6z540lV69UnfNfK5Xjbr+uvuvn/Qvbdr6iKre7C79PllOAjbjAML1IuptupvO9b7HwUO1Odzz3zV5cusuzHddiu4aVp8KWrGFws1BHhB9z1aRsZcahtQ9odm9rstgGeXGBlsUl2XDGG8Nsljw7h62Wps7teVtFSRwCR3TdqAZnrld8lntE1ebrNaqN9a6nNIal0DTKYCczFr5Z6mZJ1c8s1XMrmoe26EcRGqoOSjTyJztJt3bzO6a0vZb7JIg7AGLccVVZoxvN4xdV3BmNqKvZcKOSGJsDHQ07pI3xhrQWuzZt2kHM7Ar7uX7ra26HrBb3XKlFUX1QEBmbvmfCJD43PNSdT4aw5SNt7KSwW2FtpD20AjpY2ikD2lrhFkPqebSQdXLMHJWy3aM9G9nuEV2tOj7DVFXQO14qmntMEcsbum17WAg7TtBUuSaa/wA4mTj9u4DH4arh1SdPM1JZVFLzZVnFNK36NSMb6vzTJURFxnyAREQBYhpXxbdsF4Hr7zYbPV3K5ECnpIqanfMWyvOqJHMYC4sb445DbllyrL0UrRmRhKtOhXhVqwzxi03G9rpcL+s1p0HVeGbPjrHNjtLL3EauyUE89bW2qoZJJUNbUuqJ5WvaHAudJrNBy1siG8Wy56PK5+DK/R3ZMP40seK7Xe4H0ZZT2xlPUwxsgLxU56xkAzaGvEm3WfyHYJ5htdtp6+pukFupo62sZGyoqWQtEszWZ6ge8DNwbrOyBOzM5capLbhPC1mr57paMNWqhrarbPU01HHFLL989oBd65XI5p3PrcX0ooYypWqTpyfWRimm4yvKNNwUm8qkrN5llavazWumB6TrhiR+kvAGE7Niats9He4rvw51K1hfIIo4SzIva4AgudkcuUrBsMYq0gC04VxNcMdV9a+TGhwxUUskMLYail36WPXeGsDt95wHWBA6yn+otNrq66lulXbaWasoBIKWokha6WAPAD9RxGbdYAA5EZ5DPiVPHhjDUUEVLFh62Mggq+HxRtpIw2OpzLt+aMshJmSdcbcyTmqqSStYxMJt7C4fB08NOgm4qzeWLb86q3q1fVTgt+mT2EX6Bbra6SXHtLVXKlhmfjW5asckzWudm5oGQJzO1TGsak0Z6N5bmb1Lo+w0+4un4Sat1pgMxm1tbfNfU1tbW262eee1ZKom1J3RrNtYzD7QxTxVC6crXTto0ktLPXd6giIqmoCIiAIiIAiIgCIiAIiIAiIgCIiAIiIAiIgPl/jHekVTW362/pFVL/GO9Iqmtv1t/SKuuyyHvKtRVusOha0x/kBiHvdOpVUVbrDoWtMf5AYh73TqhJ+a4f8ANTRa+hru3ZY+ERqFxy+mpptezc13XsofCI1KIZzS7Ki1Dp0FL8ECosf+Uth4/wDEv1JVWUv11aRl/sNJ8DCpMf8AlK4f/Gf/AE5UZPAh9ERQAiIgCl7QSM7ViP8AD0XcqpRCpf0EbbViMf7+i7nVIESluevLTwvt+3vfe4qMt095O4R/NP13KTdz0P8AtSwv9/eu9xUZbp7ydwdiD37lddlleJs54Ct0U+KfU/ru+NuXtQvFfwFbop8U+p/Xd8bcvahULBUdB4+o+/8AjVYqBknAqmRsoIZIdYOCvHVNFXvRXoqfh9J1X3CnD6TqvuFRllyJuioRU/D6TqvuFOH0nVfcKZZchdFQip+H0nVfcKcPpOq+4Uyy5C6KhFT8PpOq+4U4fSdV9wpllyF0VCKn4fSdV9wpw+k6r7hTLLkLoqEVPw+k6r7hTh9J1X3CmWXIXRUIqfh9J1X3CnD6TqvuFMsuQuioRU/D6TqvuFOH0nVfcKZZchdFQip+H0nVfcKcPpOq+4Uyy5C6KhFT8PpOq+4U4fSdV9wpllyF0VCKn4fSdV9wpw+k6r7hTLLkLoqEVPw+k6r7hTh9J1X3CmWXIXRUIqfh9J1X3CnD6TqvuFMsuQuioRU/D6TqvuFOH0nVfcKZZchdFQip+H0nVfcKcPpOq+4Uyy5C6KhFT8PpOq+4U4fSdV9wpllyF0VCKn4fSdV9wpw+k6r7hTLLkLoqEVPw+k6r7hTh9J1X3CmWXIXRUIqfh9J1X3CnD6TqvuFMsuQuioRU/D6TqvuFOH0nVfcKZZchdFQip+H0nVfcKcPpOq+4Uyy5C6O5/jHekVTW362/pFcTXCHeyIiXuIyAyXbRxOhp2tdxnaVNmo6kXuzvUVbrDoWtMf5AYh73TqVVFW6w6FrTH+QGIe906oWPzXD/AJqabX0NV17KHwiNQsP+amq19DVdeyh8JjVlxIZxTZcLtGz/AGGj+BhUukDylrB+NP8Apyqqp/ryz9hUXwQKl0geUvYR0rp/05VVkkPIiIAiIgCl3QSf8mYjbnxzUXc6pREpc0FD/J2Ij/vaPudSgRK2558tLC/39673FRjunvJ3B2IPfuUnbnjy0sL/AH9673OUY7p7ydwdifruV12WV4mzngK3RT4p9T+u7425e1C8V/AVuinxT6n9d3xty9qFQsFw5rXjJ7Q4dIjNcroqKyCmOq8kuyzyHHkpSb3A++D0/UI/YhOD0/UI/YhU3Naj82fcTmtR+bPuK2WZGhU8Hp+oR+xCcHp+oR+xCpua1H5s+4nNaj82fcTLMaFTwen6hH7EJwen6hH7EKm5rUfmz7ic1qPzZ9xMsxoVPB6fqEfsQnB6fqEfsQqbmtR+bPuJzWo/Nn3EyzGhU8Hp+oR+xCcHp+oR+xCpua1H5s+4nNaj82fcTLMaFTwen6hH7EJwen6hH7EKm5rUfmz7ic1qPzZ9xMsxoVPB6fqEfsQnB6fqEfsQqbmtR+bPuJzWo/Nn3EyzGhU8Hp+oR+xCcHp+oR+xCpua1H5s+4nNaj82fcTLMaFTwen6hH7EJwen6hH7EKm5rUfmz7ic1qPzZ9xMsxoVPB6fqEfsQnB6fqEfsQqbmtR+bPuJzWo/Nn3EyzGhU8Hp+oR+xCcHp+oR+xCpua1H5s+4nNaj82fcTLMaFTwen6hH7EJwen6hH7EKm5rUfmz7ic1qPzZ9xMsxoVPB6fqEfsQnB6fqEfsQqbmtR+bPuJzWo/Nn3EyzGhU8Hp+oR+xCcHp+oR+xCpua1H5s+4nNaj82fcTLMaFTwen6hH7EJwen6hH7EKm5rUfmz7ic1qPzZ9xMsxoVPB6fqEfsQnB6fqEfsQqbmtR+bPuJzWo/Nn3EyzGhU8Hp+oR+xCcHp+oR+xCpua1H5s+4nNaj82fcTLMaFTwen6hH7EJwen6hH7EKm5rUfmz7ic1qPzZ9xMsxoVPB6fqEfsQnB6fqEfsQqbmtR+bPuJzWo/Nn3EyzGhU8Hp+oR+xCcHp+oR+xCpua1H5s+4nNaj82fcTLMaFTwen6hH7EJwen6hH7EKm5rUfmz7ic1qPzZ9xMsxoVTYYmHNkTGnphoC+1RtutI52QLsunlsCqwQRmDmCqtNbyTlRVusOhZ0x/kBiHvdOpVUVbrDoWtMf5AYh73TqAfmuHKpqtfQ03XsofCY1Co5fTU02roabsP50PhEasuJDPmA5VlmHTo6If+kCptIHlM2If8V/6cqqIfr2y7f8AY6H4I1dWkVrWaGrFz7S43UnIOBI5yYbRycSqTwIcREQBERAFLugkf5LxJ+Fo+51SiJS9oK+xOJfw1F3OqQIlTc8+WlhbLzd673FRlun/ACeQ9ifruUnbnny0cL/f3vvcVGO6f8nkHYn67lddlleJs34Ct0U+KfU/ru+NuXtQvFfwFbop8U+p/Xd8bcvahULBanbtDHmJMP0low1ZrlNRQ3V081XJA8sfI1haGs1htDeezIHHkFtitLd3R9msL/gav37Fk4VXmfeeDLD0sV0ow1OtFSj5zs9VdQk0/wBz1XrNaub998+q/wDSX/GnN+++fVf+kv8AjVAi2NkevvF6P0F3Ir+b998+q/8ASX/GnN+++fVf+kv+NUCJZDxej9BdyK/m/ffPqv8A0l/xpzfvvn1X/pL/AI1QIlkPF6P0F3Ir+b998+q/9Jf8ac37759V/wCkv+NUCJZDxej9BdyK/m/ffPqv/SX/ABpzfvvn1X/pL/jVAiWQ8Xo/QXciv5v33z6r/wBJf8ac37759V/6S/41QIlkPF6P0F3Ir+b998+q/wDSX/GnN+++fVf+kv8AjVAiWQ8Xo/QXciv5v33z6r/0l/xpzfvvn1X/AKS/41QIlkPF6P0F3Ir+b998+q/9Jf8AGnN+++fVf+kv+NUCJZDxej9BdyK/m/ffPqv/AEl/xpzfvvn1X/pL/jVAiWQ8Xo/QXciv5v33z6r/ANJf8ac37759V/6S/wCNUCJZDxej9BdyK/m/ffPqv/SX/GnN+++fVf8ApL/jVAiWQ8Xo/QXciv5v33z6r/0l/wAac37759V/6S/41QIlkPF6P0F3Ir+b998+q/8ASX/GnN+++fVf+kv+NUCJZDxej9BdyK/m/ffPqv8A0l/xpzfvvn1X/pL/AI1QIlkPF6P0F3Ir+b998+q/9Jf8ac37759V/wCkv+NUCJZDxej9BdyK/m/ffPqv/SX/ABpzfvvn1X/pL/jVAiWQ8Xo/QXciv5v33z6r/wBJf8ac37759V/6S/41QIlkPF6P0F3Ir+b998+q/wDSX/GnN+++fVf+kv8AjVAiWQ8Xo/QXciv5v33z6r/0l/xpzfvvn1X/AKS/41QIlkPF6P0F3Ir+b998+q/9Jf8AGnN+++fVf+kv+NUCJZDxej9BdyM70XaS8X4PxtarjQXqskjkqooainlmc6OeJzgHNcCcuInI8hyK9MLZrcFAJzAcQOsF5S4c8kNr7Ng9+F6tW362/pFYmLSsjzr4bsLQoYzCVacEpSjNNpWvZxtf2XfeVairdYdC1pj/ACAxD3unUqqKt1h0LOmP8gMQ97p1gHR5+a4cqmm1n/Rqu3ZY+ERqFhy+mpptXQ1XbstvwiNWjxIZ1xZGusp48qOh+CNUZYnr64Xe62vhtRwNtxleKffHb0HNe8NOrnlmA5wBy2AnpqTYjlXWUdOkofgjVFeKdmJ7uP5/Ud0cqk8C2IiIAiIgCl7QV9iMSfhqLudUohUv6CPsTiT8PRdzqkCJU3PJH00cL5+bvXe4qMd0/wCTuDsT9dyk7c8gHSlhgfy713uKjLdP+TyDsT9dyuuyyvE2a8BW6KfFPqf13fG3L2oXiv4Ct0U+KfU/ru+NuXtQqFgtLd3R9msL/gav37FuktLd3R9msL/gav37FlYXtnYXgr/OvDeyf/CRq2iItievgikvQBopt2mLHE2FLndam3wxW+WsEsDGucXMfG0Nydsy589pWDSTgGt0f6QbrgUmSpfRVW9U79TJ80b8jGchylrm7ByqmdZsvE1cNs4Oe0Z7KU/w0YqbVn2W7XvuMTRTdps3O0Gh7AuHsQ1F6qKm63ORkFbTOY3eoJN613BjhtIDgRmVFbMFYyksxxHHhK9OtIaXmvFBKafV6e+aurl180jOMldMps3b2z9rYZYzC1E6bk4pvS7TtZXtf1cyyos8w3hPC1x0XYlxTcabE7rvbZ4o6OSjoXSW5rXFoO/zapaw88dhc3jblnnkrHTaPcfVjqVlHgfEE7q6mFZSiO2TOM9OcspWZN55m0c8MxtG1TmRzw2nhpSqRlLLkllebRN2UtL71Z7/AGmPouyop6ikqJKWrgkhnheY5I5Glr2OByLSDtBB5Cpx0ebm6DSDoWumkehvdU27UZqd4oRE0xS7yA7Vz48yMwOvkolOMFdnFtXbWC2LRhiMbPLCUlFOzest27h69xBSLOtC+jGo0tY+o8INqZKWmeySesqWNDjDCxuZIB2Zl2q0ddy7NM2jan0aaR6vAtorKm5NhZAY3yRjfJHSMB1dVvLmchkmdZsvEPbWC+UfknP+GyZ7Wekb2u3u38N/EwFFdr5hLFWGBCcS4Zu1pFQCYeHUUkG+fe64GfrKpptH+Pax1GykwRf53XGA1VGI7bM41MIyzkjybz7OebzwzHPDpq2ZbzMeNwygqjqRyu9ndWdt+vq4lgRXOgwxiW63d9gtmHrnWXSIvD6KCkkkqGlvjgY2guGXLs2Li14axHe5aqGy4fuVfJQxumqmUtJJK6BjdjnPDQdUDlJyCXReWJoxu5TSsk3qtz3P2PhzLaiIpOYIiIAiIgCIiAIiIAiIgCIiAIiIAiIgCIiAIiIAiIgCIiAuOHPJDa+zYPfherVt+tv6RXlLhzyQ2vs2D34Xq1bfrb+kVh4vso87+HP8owPsqe+BVqKt1h0LOmP8gMQ97p1KqirdYdC1pj/IDEPe6dYB0OfmuCmq1dDTduyx8IjUKhTTa+hpu3ZY+ERqUQzqj+v7J2HQ/BGqLcV+Si8dn1HdHKUm/ZCx9ekofgYUXYs8lN5/GFR3RygktSIiAIiIApe0E/YnEf4eh7nVKIVL2gn7FYj/AA9D3OqQIlbc8eWlhjLzd673FRjun/J5B2J+u5SfuePLQwwf5d773FRhun/J5B2J+u5XXZZXibNeArdFPin1P67vjbl7ULxX8BX6KfFPqf13fG3L2oVCwWlu7o+zWF/wNX79i3SWlu7o+zWF/wADV+/YsrC9s7C8Ff514b2T/wCEjVtERbE9fE+7i0kaVbmR6HavukKlDDOGbTpki0eadbzVQ6mGaKaPE0j8taWSjGtEXDzRcdY7PGn0lq3o60j4j0X3ybEGFzSirnpJKJ/CIt8bvby0nZmNubRtXZhzSljDCuDr7gWz1zI7ViHV4WxzM3DIAEsOfO6zQGnpgLGqUpSk5L/OZ1xt/ontDaO0a2Pwc1CUlTinxyNVI1Vu5SUo/wDdFGwumG+3jSroj0f3qlp4jXX/ABTUGlgn2sbrSSCJjumANUH0ipDwfdqmDTRTYPxNpcq7zeY6OSmq8PW60GG1RMEBdz2ZLRlsOY2klo2A5LTqq0q4uqcIWHBQqIIaHDdUa2gkhj1ZmSkk5l+e3IuOWxZsN1lpabXUl0Y6xsrqcBs9Uy2MbLWgMLQJ3DIuAz1sm6ozA2bMlR0JWsvWaTH9BdpSwTwOGjDJ+Hy6q8c8rw1lCbtlWqjlle3nW1Wb2yjprfuf9OFBRQtip6bEohijbxMY2piDQOsAArnpM0mYzwDgzQpTYSvD7c2tw/QyVTomN1pwyKANY4kHNg1n87xc8oFbpdxc3DOJ8Jg0XAMW13NC4/UOf33fGv5w586M2jZtVNinSbibF9Dhm33c0u9YTo2UNv3qLVO9MDANc588fqbduzlV1Sd/O5/yNxS6H4mri1UxsYTp9bObT1unQjTV01q88b9z3kibsijpqXTVUy08LY3VVupZ5dUZa0haQXenk0KQ9EGOpNHO55w3ifXApY8acHrWnxr6aRj2SA+kDrDrtC1y0iaRMRaT8RfRPic0xrd4jpv3PFvbNRmeWzM7dpX0/SPiR+jtmjBxpeYsdfzRA3r6rv2RHjs+LadmSnqm4RizKq9FcRjNgYHZGKs+rcOs10yqLi7O2u/TcbS1+DqDc6U+KMSWuePheNr7TWuxBpH7noZXiSQjlBAc9v8AQjPKVeqK32uo3V+NbrWhoq7VhyOpopDDvroZN7YDI1n2zgCchxnNam4m0wY4xdS4Zor5XxzxYTYxlvG95Zlupk6Tbz7smNGfW65XdcNNmkGt0hnShBdY6G/FjYzLSxBsZY1obqlhzBBA2g5rj6ibWu//ANGgXQXa9enOeJqxdepSqQlO711pqmt25wp+dpo5PR3J0ueNsFYj0UY5sVy0iYlx6XU5q6WWpsE7Rbatoe6MmUNIja5zQMnENAa7kJXXpU0mYz0faMNDMWD7w+2urrHDJUyRMbryiOKn1WEkHnOfcS3iPLxKIcb7ojSLjqwy4arX2y226qfvlZDa6MU/C3Zg5ynMl20Z5ZgHlzWOYs0l4lxnZ8NWO8ml4NhSk4Fb96i1Xb3kwc+czrHKNu3Zyq0aLurrT+hn7P6FVlVozxdOLpqpOcoNxktaWRO0adOF3KzaUeCd2zb6WCnbuwbJXRwsZNcMLGectGWvJqOGZ6+QA9ZRfuZ7dXw4g0szzUkrGU9lraaVzmEBkpe4hh6R5x2zrFRJetOGkC9Y1tekF1wgo71aIGU1NLSwhjRG3PY5pJDsw4g57CCsnuW6x0uXOoqpZqm1xw1lDLQy00VHqxOEmWvIRnmZMmgBxJyGeQGZVepnlt6jB+Z+2qOB8TpqEs9GlTk3JrK6U5S0WV5k1Ky1Vrd8NIiLMO3giIgCIiAIiIAiIgCIiAIiIAiIgCIiAIiIAiIgCIiAIiIC44c8kNr7Ng9+F6tW362/pFeUuHPJDa+zYPfherVt+tv6RWHi+yjzv4c/yjA+yp74FWoq3WHQtaY/yAxD3unUqqKt1h0LWmP8gMQ97p1gHQ5+a4KarXl4Wm7dlj4RGoVCmm1bdzTduyx8IjUohnUMhcLF2HQfAwouxZ5Kbz+MKjujlKJOdxsPYdD8CCi7FnkpvP4wqO6OUE8C1IiIAiIgCl7QT9icR/h6HudUohUvaCfsViMf7+i7nVIESvuePLQwxs+3vfe4qMN1Bsx5T9ifruUn7nnyz8MfhL33uKjHdQeTunz/AIJ+u5XXZZXibNeAr5+GnxTn9z+u7425e068WPAV+inxT6n9d3xty9p1QsFpbu6Ps1hf8DV+/Yt0lpbu6Ps1hf8AA1fv2LKwvbOwvBX+deG9k/8AhI1bREWxPXwRZ1o10w4o0WR18WHaO1Ti4ujdLw2mMpGprZauThl44rNfDd6TfOjC/tc79oqty4I+fxuO21RryhhMHCcFuk62VvT6PVytrpvfMhBFN/hu9JvnRhf2ud+0Tw3ek3zowv7XO/aKLy5GJ8pdI/QIfX/2iEEU3+G70m+dGF/a537RPDd6TfOjC/tc79ol5ch8pdI/QIfX/wBohBFN/hu9JvnRhf2ud+0Tw3ek3zowv7XO/aJeXIfKXSP0CH1/9ohBFN/hu9JvnRhf2ud+0Tw3ek3zowv7XO/aJeXIfKXSP0CH1/8AaIQRTf4bvSb50YX9rnftE8N3pN86ML+1zv2iXlyHyl0j9Ah9f/aIQRTf4bvSb50YX9rnftE8N3pN86ML+1zv2iXlyHyl0j9Ah9f/AGiEEU3+G70m+dGF/a537RPDd6TfOjC/tc79ol5ch8pdI/QIfX/2iEEU3+G70m+dGF/a537RPDd6TfOjC/tc79ol5ch8pdI/QIfX/wBohBFN/hu9JvnRhf2ud+0Tw3ek3zowv7XO/aJeXIfKXSP0CH1/9ohBFN/hu9JvnRhf2ud+0Tw3ek3zowv7XO/aJeXIfKXSP0CH1/8AaIQRTf4bvSb50YX9rnftE8N3pN86ML+1zv2iXlyHyl0j9Ah9f/aIQRTf4bvSb50YX9rnftE8N3pN86ML+1zv2iXlyHyl0j9Ah9f/AGiEEU3+G70m+dGF/a537RPDd6TfOjC/tc79ol5ch8pdI/QIfX/2iEEU3+G70m+dGF/a537RPDd6TfOjC/tc79ol5ch8pdI/QIfX/wBohBFN/hu9JvnRhf2ud+0Tw3ek3zowv7XO/aJeXIfKXSP0CH1/9ohBFN/hu9JvnRhf2ud+0Tw3ek3zowv7XO/aJeXIfKXSP0CH1/8AaIQRTf4bvSb50YX9rnftE8N3pN86ML+1zv2iXlyHyl0j9Ah9f/aIQRTf4bvSb50YX9rnftFGWPcc3jSJiGTE18go4aqSJkRbSRGOPJoyGwk7fXUpt70Z+zsZtevWy47CxpwtvVXO78rZI99zHURFY3hccOeSG19mwe/C9Wrb9bf0ivKXDnkhtfZsHvwvVq2/W39IrDxfZR538Of5RgfZU98CrUVbrDoWtMf5AYh73TqVVFW6w6FnTH+QGIe906wDoc/NcFNNq6Gm7dlj4RGoWCmm1dDRdutVt+ERKUQzqbtuNi2/7HQ/AwotxX5Kbz+MKjujlKTD/lCx9h0XwMKLcV+Si8dn1HdHKCeBa0REAREQBS9oJ22vEQ/39F3OqUQqXdBX2LxH+Hou51SBEsbnjyzsMfhL33uKjHdQ+Tun7E/XcpO3PA/7TsMZ7fql773FRjuofJ1TZfwP9dyuuyyvE2a8BX6KfFPqf13fG3L2nXiv4Ct0U+KfU/ru+NuXtQqFgtLd3R9msL/gav37FuktLd3R9msL/gav37FlYXtnYXgr/OvDeyf/AAkatoiLYnr4IiIAiLupaSrr6hlJQ0stRPIcmRRML3uPSAG0oQ2oq73HSizei0JaW7hGJaXR9ei1wzBfTFnvslU/SB0yfc9uvsB8armXM1MukGyIPLLFU0/14/Ej9FIH0gdMn3Pbr7AfGn0gdMn3Pbr7AfGmZcyvzi2P6XS+sj8SP0UgfSB0yfc9uvsB8afSB0yfc9uvsB8aZlzHzi2P6XS+sj8SP0UgfSB0yfc9uvsB8afSB0yfc9uvsB8aZlzHzi2P6XS+sj8SP0UgfSB0yfc9uvsB8a659BOmCmZry6PbxqjzMGt/cUzLmSukOyJOyxVP+OPxMDRVt1s13sVSaK9WuroKgbd6qYXROy6eTgNiolJtoTjUipwd0+KCIiksEREARcgEnILLLTok0m3yFtRa8CXqeJ/jX8Ee0H0i4DNQ2kY2JxmGwUc+JqRgucmkvtMSRSB9IHTJ9z26+wHxp9IHTJ9z26+wHxqMy5mv+cWx/S6X1kfiR+ikD6QOmT7nt19gPjT6QOmT7nt19gPjTMuY+cWx/S6X1kfiR+ikD6QOmT7nt19gPjT6QOmT7nt19gPjTMuY+cWx/S6X1kfiR+ikD6QOmT7nt19gPjT6QOmT7nt19gPjTMuY+cWx/S6X1kfiR+ikD6QOmT7nt19gPjT6QOmT7nt19gPjTMuY+cWx/S6X1kfiR+ikD6QOmT7nt19gPjVtuuiPSdZIXVFzwJeoY2eOfwR7gPTLQUzLmclPbuyq0slPE02+SnFv3mIouSCCQRkQuFY2oREQBERAXHDnkhtfZsHvwvVq2/W39Irylw55IbX2bB78L1atv1t/SKw8X2Ued/Dn+UYH2VPfAq1FW6w6FrTH+QGIe906lVRVusOhZ0x/kBiHvdOsA6HPzXBTVaNu5pvGz/ax8IiUKhTVZ+hovHZY+ERKUQzqYCbhYz0qKi+BhRZiryUXjs+o7o5SpFtuFl7Co/gYUWYtGWKryOlcKnujlBPAtSIiAIiIApc0GfYnEf4ei7lVKI1Lmgz7E4j/AA9F3KqQlEs7nfyzcL/f3vvcVGW6iGWOqbsP9dyk3c7+WbhfZ9ve+9xUZ7qPyc0p/mf67lf9FleJsv4Ct0U+KfU/ru+NuXtQvFfwFbop8U+p/Xd8bcvahUJC0t3dH2awv+Bq/fsW6S0t3dH2awv+Bq/fsWVhe2dheCv868N7J/8ACRq2iItievgiKU9zxomOlTG7Ia+MmzWsNqK7j+q7cmQg9Nx4+sHdZQ2oq7NftXaeH2Pg6mOxTtCCu/5JetvRetl80F7me96UBHf78+a22DWBjLQN+rBnt3vPY1v8s+sDty3WwRonwRgCkFLhuw0tFzoa98bc5JAPNyHn3euVk1rtlJaaOKio4I4Y4mNjYyNoa1rQMg1oHEANgCq1rKteU3puPIXSvpxtPpVXk603Gj+jTT81L1/Sfrf7rLQ6BRUYABpozlxazQT7q54HSfwWH2AXci4bs+Nuzp4HSfwWH2ATgdJ/BYfYBdyseI8XW3DE1DTVlLcKme4ukbTw0VI+oe7UbrOOq0EgAcqXZy0aVXETVOkm2+C9Wr+zUu3A6T+Cw+wCcDpP4LD7AKnoLxTV1ujuckVRRRyZjUrYjBI3blzzXZEKrfLFFGZZZWMYBmXOcAAPTS7KyjOEsst+7958cDpP4LD7AJwOk/gsPsAvsSxGPfhI3e8tbXz2ZdPPpKzw4ttlRi1+D4WyvqmWxl135uqYTE6V0YAIOetrMPJllypdlqdKrVUnBN5Vd+pF14HSfwWH2ATgVJx8FiB6YYAV9R1FPKHmKeN4jOT9VwOqev0lb77iWzYctUt5ulZq0sTo2ZxsdK5z5HBsbGtYCXOc5zQABtzCXZEKdWrNU4JuT0SW9t7kUmJcDYYxbQOtt+tFLW07v9XURCRoPTGe1p64IK1G05bkeow9FU4m0bxzT0seck1rcS97G8roXcbgOPVPPceRPEtxMPYjtuJ6F9dbRUsbFM+nliqad8EsUjeNrmPAIPF1iCCFcZomTxmOQZg+4uWnWlTZ9LsDpTtfojir4aTST86Er5XzuuD9as/WeRrmlpLXAgg5EHkXC2O3XOhiLCN3Zj7D9G2K3XKXe66KMZNiqDtEgHIH5HPpOB6a1xWzhJTV0evOj23cN0j2dT2jhd0t64xa3p+z7VZ8Qs00caL7tpBqaipNVDarHbm75crtVHVgpmdL+U48jR7itGCMI3PHeKrdhS0AcIuEwj13eNiZxue7rNaCT6SzbTDjm3NZForwIXU2FbA8xPLDkbjVN2PqJCPHc8Dq5+n0gDbvZHFtTHYmeIjszZ7SqyWaUmrqnC9s1uMm9IJ6Npt6RadyqdKmBdG7TatDeF6eoroM2OxNdoRNUSOGwvhjPOxjpZji42rCrzpg0oX+QyXPHl6drHMtiq3RM9iwge4sPRFFIvhOjmzsLLrZU+sqPfOfnzf+57l6o2iuCRevo2xn6Lr1+ny/KT6NsZ+i69fp8vylW2HR3iHEeEb7ja3cF5nYd3vhm+S6snPnJuq3Lb2wsYRZXuMulSwFec4U4wbg7SVlo7J2enJp/vL19G2M/Rdev0+X5SfRtjP0XXr9Pl+UqOx2esxDerfYLfqcKuVVFSQa7tVu+SPDW5nkGZCuNVgbElJjZ2j6WhzvTa4W7eWnMGUu1RkfMnMHPpbU81aEThs6lN05xgpJOVrLsre/YuZ1fRtjP0XXr9Pl+Un0bYz9F16/T5flJfMIX2w4luOEqikdUXG2TPhnZSgyjNhycRkMyOvku+wYIvGIKG9V8Jjpo7Jazd5RUBzTNBvrI/qew5nWeOkNh2qLxtcrL5NjSVZqGV2s7L9Ldw430Oj6NsZ+i69fp8vyk+jbGfouvX6fL8pW8Wy5GeGmFvqTNUsEkMe9O1pWnPJzRlm4HI7R0kda7m1zWut1UC/fNUGF2btTx+Wzbq5HPpcqm0Tn8WwX0IdyLh9G2M/Rdev0+X5SfRtjP0XXr9Pl+UrXU0VZROYyspJoHSND2CWMtLmniIz4x112utN1ZGJn2yrbGYt/DjC4Ax7Ofzy8btG3i2paI8VwVk8kdfUiv+jbGfouvX6fL8pXWz6XtJ9hkElsx3emapz1ZKt8rPYvJHuLGpbVdIIX1M1tqo4oy0PkdC4NaXAFuZIyGYII6eaybD2irF2JrA7EduiomUzzM2lZUVkcUta6FuvK2Fjjm8sbkTxdIZnYobilqYmMo7IhRvi4U8jdvOUbX5a+rX2a7jNKbSxgnSM1tq0zYWgZWTZMbiW0xCGqjcdgfNGOdkA5chxcTc1iOkjRddcATU9bFWQ3ewXIa9uu9LthqG+ZPmXjlaVhKlDQ9ju3wb9ozx1rVWEsQOELmvOfAKlxyZUR5+NyOWtlybduW01l1Rqq+z6vR6Lxeyk3SWs6N7rLxdK/ZklqoLzZbrJ2ZF6K/wCO8HXLAOLLjhS65OmoZS1sjfGyxnayQdZzSD66sCsnfU+nw+IpYujGvRlmhJJprinqmERFJzFxw55IbX2bB78L1atv1t/SK8pcOeSG19mwe/C9Wrb9bf0isPF9lHnfw5/lGB9lT3wKtRVusOhZ0x/kBiHvdOpVUVbrDoWtMf5AYh73TrAOhz81w5VNNn6Gm89lju8ShYcvpqabP0NN67Mb3eJSiGdcefNGy7f9io8/0MKLsX+Sy9/jGp7q5SlDtuFm28VDR/AwouxgMsW3sdK41PdXKCeBaEREAREQBS3oN+xOI/w1H3KqUSKW9Bv2IxJ+Go+5VSEolvc7+Wbhj7+997ioz3Unk5pOw/13KTNzt5ZmGPv733uUZ7qTIY4pD/M/13K67LKcTZbwFbop8U+p/Xd8bcvaheK/gK3RT4p9T+u7425e1CoWC0t3dH2awv8Agav37FuktLd3R9msL/gav37FlYXtnYXgr/OvDeyf/CRq2iItievgt+tx5g6lsGi6lu+9N4VeZH10z8tuWZZGPSDWk+m5y0FXpnoEZHHoowu2IAN5j0hyHTLMz7uaxsU7QOnPDVi6lHY1HDwdlOpr61FN277P9xIfEsbwzj2w4qr7hbLbI4VFC7Wa1+WVRASWtniI2Ojc5rmg9Np5CCb1dKBt0tlXbHzywtq4HwGSJ2q9gc0jWaeQjPYoJxHdMN009PhPHtbXW+qszJqUC0xTU7K2h1XEMEeb826sTJDkdXYW7MiFi0KSqpridA7F2ZS2nGpB5nNbsqu0uMsv6S3LerXvckK84jx9dhPZcJUVss18og2eoju7jLG6nfmGSRuizDgS14OeRBadnETZbUzdFMqxJcL9gaqp2HXliiZNrFo4wCBs9M5qNcb6RrXocrWXTR5QUlys9ZT2+KAPmkdDqasz3MYQcmbSx5blxvJI2jLIMR6acY2/RrYMeNsFmaL9URwNi3+RzotfWydmMszk05jZxjj2rNWGqKKyRVpaK++59hHo/jKdKl4rh6bp1moxc4rNmau1rJyVteLtuu2bAgkgE8awTH9ru11xdhCK0XmqtUjH1znVdPBFK5g3gbCJWubt649JZ1GSWNJ4yAvpatOx11g8VLBVutik3aS1s150XHc007XvZrUhTSZZrscYWVuKK6zV+H4bM6Jk99szq2ndcBJ9UkfFC+NjJHR6mqSMtjw0DNY/NY7qMO4WjuDqJ2F211ze+K8WGeSiiBc3gn7l34vbCAJt73x2TQ5mbRsy2LRWU2j6DD9KatCjTpKC8zllS3SV0sukvOvfVXW41/pLPFDhmBtxpX1mCziffK6kobTNTUfBODkAx05fI803CdR7hsacnnV1dpo6+2QPxNjI6HbU6hilwZGykdS0r4YHy8KeZBA3Jo1izMc7lzxz49q2MRM7Lx6V1Iyc3Btvg5ea/OUryiopSlpZvS64aGv+GLNQxXkzYZZZ42NstaK5thw7PQMeDHkxlU+SZwdJrHNo1S/MOzIB23CtwrZ7VozwhYZIKm02i78EqL9cKeIvqWzMp2vje95a5zHGVkY3wjNuqAC3ZlOCJnZx1elFapVjNp6NPeru2azuopXi5Xi3F2stGRXo6xxiq74qGGrzVRy22ipJBSXTgMsXNtwcBrgvaGsMbdjwNj3P1m86MhKiIqt3ZpNoYqljK3WUqagrblbfxeiW/fyW5WjZLBtM2DYMcaPb1YJGAyVNJI2EkeNmaNaJ3rPaPWJXmG5pa4tcCCDkQeRetV0DTQya3SXlHiANbfrk1njRVzAelrlZ2Ed4tHe/gOxlSVPGYRvzU4SXteZPvSXcShohP0JaOsd6Ton6lwp6aOyW2QccUtQfqjx/KDdXI+mogUvQl8e5ZqTAP33GEbZsuVopnEZ+uAohWTHe2dr7B/DYrHYmXadXL7IwjFJey+Z+2T5hZDgGDBNTiqjg0iVtdSWF2vwqaiGczedOrqjVd9tlnsOxbIbmfQfb6rR67SnWYTocT3etlkZaLfXzCOljZG8sL35tcCS9rvtTkAMuMqUorfp8u8zrZjjRXo4umHpTquoopntexmezJz9ZpI+9G3pLgqYhJuKPktt+ETC0a9fZ9BLzLwlJ1YU5KW59WpJ3cebyq64kVYfxRuSMNYNxBga34xxW634k3rhb5aVxlbvZzbqEQgDr5gqNdPejPRxgay4Sv2ju43irpMS08tUHXF7S4xDU1CGhjS3PWPH1l97qLRDa9FWM6V+HY3w2m905qYKZ7tY00jTk+MO5RtBHp5cmar904G0ln0X2hvO8GwnBLqdLXy+SkErxlFvU49h0qMMbgcfs7FVZ08U5ympyi75adtUorVNRW9rQjLRY5rNJ2EXvcGtbfaAkk5ADf2Kbr1dsMz3S5aZ3V8TL/a6mow2KbWGvNcDMY4KsfyW0hJz83EPX1oRc06ed3ufabU2BHaeJjiHUcbRytJb4ttyi9d0lo/YmbNYpq8Wz3LHdPonu3B8RHGM81wFHVMgq5aDem7yWOLgXRtkEusGnjc0nYsmpblZY8UzVOkispK6mGjOjF2dTSNkZJJzRBfmYzk/btdqnbz2XGtP0XG6GlrmkqdCI1KcaXXJWSWZQtPdFdvNwy+bp5um+xsZTz6QGXLHkNFfaL6OqyKifZ6qinZEKi06x1mUDiQGN1d7yaCDqtcONXx92xPb5tGFdiq7U9RiCituKZKiUzRzPZIKOTexKQSHPADQc8znsO3Narop6n/Leqxz1eh8ar86cbWa0ppPWi6Vk82kLPNltv42ek74Qxo7FuG7HddKd6ddorXjaiaZ7i/fXR00sL3StJO3e9aNhI4hkslpqjS0zDekwaTcRR1lLPYal1Br10UzJnb6zn6VrXHKIty8aANrRxhaxopdLXQ5sR0SpVKjlSlGMW00sieW0lLzNVlu08zs76aXRs1UY5v8AV6YbfgeoxBK/DNVhyOmntxkHBZAbXrHWZ40u1wDrceYG1UdlsFpv+AMPYJntVLLhKeg5o1GJBXxia0XWT9+1xI8BsbdVrTFkC4c80lxC1xRR1NkrM430QjThCOGq5HFQV1G3nRU1n0kvOebjdaWkpJ6ZfpWw5a8K42rbJYqWSO2wMi4HM+cTcMi1BlUhzTq5SbXADYM8tmSxBEXMlZWZ9XhKM8PQhSqSzSiknJ720t+97/aS/pXP0X6L8C6SpXF9wEUtguUhzzkdBtief5RbrZnl2KIFLzHPk3LD9+2iLGJbFnyNNM0nL1yVEKrHRWNH0Y/B4ethl2aVWpGPqjmzJexKVl6kERFc+kLjhzyQ2vs2D34Xq1bfrb+kV5S4c8kNr7Ng9+F6tW362/pFYeL7KPO/hz/KMD7KnvgVairdYdCzpj/IDEPe6dSqoq3WHQs6Y/yAxD3unWAdDn5rhyqabN0NN67MHd4lCw5VNNm6Gm9dmN7vEpRDPiHPh9n61DSfAwowxpsxjffxnVd1cpPh+yFoH8xpPgYUYY18mV+/GdV3VygngWZERAEREAUt6DfsRiT8NR9yqlEilvQd9h8SfhqPuVUgRLe538svDG37e997lGm6l2Y5pOw/13KS9zt5ZWGPv733uUabqYf58UfYf67lddlleJsr4Ct0U+KfU/ru+NuXtQvFfwFbop8U+p/Xd8bcvahULBaW7uj7NYX/AANX79i3SWlu7o+zWF/wNX79iysL2zsLwV/nXhvZP/hI1bREWxPXwXoVuSsT09/0RWqmZMHTWzfKCZueZa6N2bR67HtP/wDF56qb9ytpZg0e40dZbxPvVqvpZGZHOybBUDYx56xBLSeuDxBcNeGeFkdd+E/YFXbuwZeLq9Sk86S3tJNSXc2/W0keg6wrF2iLB+NruL5emVwqxEIQ6CpMeTQHtOWXTbI4HpgrMKedlTEJYzsPGOkeku1a2E5U3eLszybhMbiMBU63DTcJWtdOztyNbd0XodFFo6tlJg2kIorddJa64TVE2ZiZIwNdM8naWtybmRmQAsErxYq/D9i0dXDTNhossNTG9jGQVZje9rjs33VMZ48gRkOPPPMZbjVtFR3Kjnt9wpo6imqY3RTRSNDmvYRkWkHjBCjt25w0LOk3z6BqUdYTSgdrWWzw+0IxpqFa+jbVrPfzudh7C6c0aGDjhtqSqXpylKMoKEm3LjJz4q73W0fqM7sN6t+ILXDdLXVQ1FPJrNbJDIHscWktOq4bCMwdqxHSVeI7dfMMUVdiipsdvrZKsVM0ErYy8siBY0uIPKsvsVitGGbVT2Sw0EVFQ0rS2GCIc6wE5nj65JVPc8Pi5X+zX01W98yDUHetTPfd9j1OPPZlx8RzWreXM8u4+GwtfC0MbKqr9Xadr2vrGSjfSSve2tmk9TCMPY5v0NHDaqSCa/1VxutXT2eorXCl36ihY1zp5XBm1oJLA5rOe505bSVWVGlaW2srrXdMPEYjpK+jt8dup6nfGVD6rPeJGylrcoyGyFxLQW72/YdmeQ4swrPiB1DcLXeZbTdrU98lHVshbM0a7dV7JI3bHscMsxmDmAQRkrE7RNBW0FZLecRVdViCtq6a4G8RRMhfDPT/ALxvcYzaI2ZuGoS7MPfmTrKfN4m0p19kV7VcRFRb3pZr3zb3a0cmTfltLNuSRbsYY8xFQWPE1iu9rbZrzDh6qutvqaKsM8UjWDVcWvLGOa9jnMJBbxOBBO3KSqRzn0sLnEkmNpJPKclgc+i64XihvD8VYufc7vdLVNZ4atlE2CCjgk8dqQBxzcSGlxL9uqANULPoY95hjizz1GhufTyCh2toYO06mCdGFPC2zJtyspW1Ud2bzraPR8b6JNH2iIqmlCIvl72xtL3uAaNpJQGLaT8UUmDsE3bEFW8BtDSS1ABOWs5rTqtHXLi0D015byyyTyvmlcXPkcXOJ5SdpK2t3Zel+GsMejGyztcddlRc3sdnqAbY4T1yefd0smjprU9bPDQyQ14nqXwQbAqbL2TPHV1aVdpr9SN8r/e237LMl7RuRifQvj/BETi6toOD4gpogdr2RHVmyHWbl21EKyvRhjmfR1jW34ojiM8ELjFVwA/v1O8ZSM7XFnygK7aYdHsOD7zFe8PSCrwtf2mstFXGOcEbtphd0ns4sukPTA5VpK3M+0ws1svbFbC1NI4h9ZB8M6iozh7bRjNc7yt2WZRo9odzRNg+3yaQMbYuoL+d94XT0AO8M+qv1NX6i7jZqE7TtJ9JZHzM3G33R8e+xd83WJ6P91Bj/RxhSjwfZrPhyqoqEyGF9bRyPlAfI55Bc2RoI1nHLYsi8OxpR9DODfa+b9suGUKjbtfv/ofLbQ2R0gqYurOgquRyk1bEwirN6Wi6DaVuF3bdd7zAdLlLoep5raNE2Ir9dWObJw03QHOM5jU1M42cfPZ8fIsw3Yb2RaT7dZoyA20YeoaPU8xlruy7TwrNfN0xjy/4xsWNqy0YeZV4eEopYIqORsD98GTi8GQuccuLJw4lgeO8b3zSLiuuxjiN8Jr7g5hkELC2NoawMa1oJOQDWgcZVowldN8Lm82XsvaPjeErYyNo0adS7lUU5Oc5RsrqEE0ox32W+1tLv60d26iu+kDDNquVO2ekrbxR088Ts8pI3zNa5py5CCQpMvWiay0um/gcNI4YMeJL3mwnVbQxOIlizPERKx0PHnmW9MKJ8K3w4YxPaMSCm4SbVXQVu86+pvm9SNfq62Ryz1cs8jl0lmdVptvNRhm54YZbY2R3G8PuAnMucsNK+bfn0bTq+MMoY8nZtB2bdlpqbfmmZtjC7VqYxVMC/McMj1slmes0r9qKs1zTaMxxJottlyxJc8M2k0Nqt82kBtjg1KAST07HQuIylLg4xjL974iduawu+aMsPw2PEtzwti+e6T4RnijuUM9u4Ox8b5t5EkLxI7XAkIBDg05HNXKTTu9+IJL99C7QZMXMxVvXDeItjLN4z1Ovnr5f0Vi1DpAdRWvGtt5lB/0YtiaX7/lwXUqmz8Wrz+erq/a8efWVYqot5r9n4Xb1CMVUbSXV6Xg7+dFVLvV6Qu73V3uuy71GiVkGkfFGAebznNw5S11SKrg22fg8Zflqa3O62WWeZy66ulHoawvU3TDmF5MfzRX3FFspq+jiNrzponzR6zIpZd91mkkEAtY7jaTlns+3adLRJV3XEEmjqnOI77bZ7fcrkLi/VkMsWo6WOEsIjcSA47TntA1c1j0OlF0WN8LYy5iAnDNJQUopuE/XHBmButravO62WeWRy66fhH/iLxXSKvG0rwcaf/ieaoo7+Pmyl7NORUu0YWe9Wie4YCxTPeZqK5Uttqoqig4K0mocWRSxO13FzC8ZbQ1wzBy48rvTaG8HV1+vuE6DSNPLd8O0dZUVTTadWCZ9OwmSOGTfc3ZOGWbmt2ZkZ5ZHDsLY9rMKYeu9moKX90XKpoaqKr33I076aUyNOrkdbM9cZZcqzOHTlh6muV1xHR6LqOnvl+o6umuVXHcZN7c+oYQ+SGJzSIs3nWIzdntAIzKPrFe38i+Np7fpynDDylKKvka6q70g053S0vnSypPmtzOij0QYUmq8L2Kqx5Uw3vFtup62jgbateCGSYERxyy76CM3DLNrTlmCQFFcjHRPdG8ZOYS0jpELNmaTXMxbg7FPMUE4SpKClEHCPrngzidbW1ec1s+LI5ddYXUzcIqJZ9XV3x7n5Z55ZnNXhm/SNzsuntCnKXjsnJNJ65dHmldLKlply77+29zrRFn2iDR4zGt8kud8lFHhmxNFbeKyQc4Im7d6B82/LIDrk9Y3bsrszdoY6jszDTxWIdoxX73ySXFt6JcW7GQ6QD9C2g7AuDJiWV12mqMQ1MRIzZE/nYSR/KbmR96ogWW6U8dy6Rca12JN5MFK4iCig6jTMGUbe1tPXJWJKIqy1MDo/g6uDwKeJVqs3Kc1ylOTk1/tvl/cERFY3ZccOeSG19mwe/C9Wrb9bf0ivKXDnkhtfZsHvwvVq2/W39IrDxfZR538Of5RgfZU98CrUVbrDoWdMf5AYh73TqVVFW6w6FnTJ+QGIe906wDoc/NcOVTTZehpvQ/nje7xKFgposvQ1Xs/zxvd4VKIZ8wfZC09g0nwMKMccDLGl/HSulX3Vyk+D6/tXYNL8DCjHHXk3xD+NavuzlBPAsiIiAIiIApb0HfYjEn4aj7lVKJFLeg3M2nEYHGZqPuVUhKJc3O/lk4ZyH29773KM91L5N6PsM+/cpM3O5/7ScM/f3vvco03Ux/z4o+w/wBdyuuyynE2U8BW6KfFPqf13fG3L2oXiv4Ct0U+KfU/ru+NuXtQqFgtLd3R9msL/gav37FuktLd3R9msL/gav37FlYXtnYXgr/OvDeyf/CRq2iItievgiIgNn9z/urThuCmwhpFnkfRxBsNLc8i4xsGwMmHGWjkcNo5cwtw7NiWy36ijuFruNPUU8wzjlilD43jrOGwrydV+wrjvGOCKh1ThTEddbXP8e2GUhj/AL5h513rgrGq4eM9UdPdLPBJg9s1pYzZc1RqS1cWvMb56axvxsmvUj1XBDhm0gjrLleeFBut9MlE3VluFsq8wATPQtzPrtLVV+HF0u9TsP6C75a4HhJczreXgb6Rxdk6b/3P+cUegiLz78OLpd6nYf0F3y08OLpd6nYf0F3y1HikyPI50j/8f8X9D0EReffhxdLvU7D+gu+WnhxdLvU7D+gu+Wnikx5HOkf/AI/4v6HoIi8+/Di6Xep2H9Bd8tPDi6Xep2H9Bd8tPFJjyOdI/wDx/wAX9D0ETiXn34cXS71Ow/oLvlrpqt17phqYt7jqLPT7c9aOgBOf9IkJ4pLmSvA50jbs3TX+5/dPQCrudDRRPmqKhjWsBc46wyAHKTxD11rNp13Wtqs0FThrR3VRV90I1HVsZD6elPKWnikf0sudB6ZGS1axfpZ0i47aYcT4rrqqnzz4M1+9wZ/g2ZNPpkErEVz08Mo6y1Pu+jHgcw+BqxxO2aiqta5I3y3/AO5uzkvVZLndaHdV1dTX1U1dWzvnqKh7pZZZHZue9xzLieUkrpRFlHdqSirLcFI2jjSlSWK11GBMc2t17wdcH68tKDlNSS8k0Ds+dcOUcvW5Y5RQ0nvMPaGzsPtOg6GIV1o007NNbpRa1TXBrUljEGgeuraGTE+ie7Q4wsTuf3umIFdTNPE2WHx2Y4tg6+QCi+ut1wtk5pblQ1FLM3jjmjLHD1iu6z3y84ero7nYrrV2+riObJqaZ0bx67SCpHpN0zpXihZT3G5W67sZsyuFvilJ9M5AqvnL1mnjDb2z/Mg4YiHBybpz/faMoyfrSh7CKkUt+GUxh6EsFe0jPjTwymMPQlgr2kZ8aXlyLeP7c9Cj9d/bIkRS34ZTGHoSwV7SM+NPDKYw9CWCvaRnxpeXIeP7c9Cj9d/bIkRS34ZTGHoSwV7SM+NPDKYw9CWCvaRnxpeXIeP7c9Cj9d/bIkRS34ZTGHoSwV7SM+NPDKYw9CWCvaRnxpeXIeP7c9Cj9d/bIkRS34ZTGHoSwV7SM+NPDKYw9CWCvaRnxpeXIeP7c9Cj9d/bIkVRRW+vuU4prdRT1UzuKOGMvcfWG1Sn4ZTGHoSwV7SM+NdVVumdK0kLoLbcLbaGOGWVvt0URHpHIlLy5B43b09IYSmnzdZ2+ym2MPaBrlTULMTaVLrDg6wtOuRVkcNqWjjbFB47M8QzHXyKodI2lKivNogwDgG1vsuDqF++Mp3HOetl6tO7lPFkOTtZYNeb7esRVz7nfrtV3Grk8dNUzOkeetm48XWVApUb6sth9jV69eOM2rUVScXeMYq1OD5pNtyl/wB0np+io3YREVj6EIiIC44c8kNr7Ng9+F6tW362/pFeUuHPJDa+zYPfherVt+tv6RWHi+yjzv4c/wAowPsqe+BVqKt1h0LOmP8AIDEPe6dSqoq3WHQs6ZPyAxD3unWAdDn5rhyqaLJ0NV87Nb3aFQuFM9k6Gq+9mt7tCpRDOIPr+19ahpfgYUZ47GWOMQjpXWr7s5SfTgGstxPJQUmX6IFGWPxljzEg/wCL1ndnqCSwoiIAiIgCmDQMP8mYhd0qqh7nVqH1MOgf7EYjP87oO5VaIIlbc8eWThr7++d7lGe6m8nFJl/A/wBdykzc8+WVhr7++d7lGe6l8nFJ2H+u5XXZZHE2V8BW6KfFPqf13fG3L2oXiv4Ct0U+KfU/ru+NuXtQqEhaW7uj7NYX/BVfv2LdJQvugNBcGlu108cdw5n3G3yPko6lzNeNwflrRyAbQDkMiOLLl2hZGGkoz1PsOgW1sLsPpBh8djHanHMm7Xtmi43stbJvW3A88UWxPhKMe+iuwduX5CeEox76K7B25fkLYdZHmenPKJ0X9Mj3S+Brsi2J8JRj30V2Dty/ITwlGPfRXYO3L8hOsjzHlF6L+mR7pfA12RbE+Eox76K7B25fkJ4SjHvorsHbl+QnWR5jyi9F/TI90vga7ItifCUY99Fdg7cvyE8JRj30V2Dty/ITrI8x5Rei/pke6XwNdkWxPhKMe+iuwduX5CeEox76K7B25fkJ1keY8ovRf0yPdL4GuyLYnwlGPfRXYO3L8hPCUY99Fdg7cvyE6yPMeUXov6ZHul8DXZFsT4SjHvorsHbl+QnhKMe+iuwduX5CdZHmPKL0X9Mj3S+Brsi2J8JRj30V2Dty/ITwlGPfRXYO3L8hOsjzHlF6L+mR7pfA12RbE+Eox76K7B25fkJ4SjHvorsHbl+QnWR5jyi9F/TI90vga7ItifCUY99Fdg7cvyE8JRj30V2Dty/ITrI8x5Rei/pke6XwNdkWxPhKMe+iuwduX5CeEox76K7B25fkJ1keY8ovRf0yPdL4GuyLYnwlGPfRXYO3L8hPCUY99Fdg7cvyE6yPMeUXov6ZHul8DXZFsT4SjHvorsHbl+QnhKMe+iuwduX5CdZHmPKL0X9Mj3S+Brsi2J8JRj30V2Dty/ITwlGPfRXYO3L8hOsjzHlF6L+mR7pfA12RbE+Eox76K7B25fkJ4SjHvorsHbl+QnWR5jyi9F/TI90vga7ItifCUY99Fdg7cvyE8JRj30V2Dty/ITrI8x5Rei/pke6XwNdkWxPhKMe+iuwduX5CeEox76K7B25fkJ1keY8ovRf0yPdL4GuyLYnwlGPfRXYO3L8hPCUY99Fdg7cvyE6yPMeUXov6ZHul8DXZFsT4SjHvorsHbl+QnhKMe+iuwduX5CdZHmPKL0X9Mj3S+Brsi2J8JRj30V2Dty/ITwlGPfRXYO3L8hOsjzHlF6L+mR7pfA12RbE+Eox76K7B25fkJ4SjHvorsHbl+QnWR5jyi9F/TI90vgQPhzyQ2vs2D34Xq1bfrb+kVqPo13HNfZcVUV7xhiCjraWgmZPHSUTHkzSNObQ9zgMmggEjI59ZbeUUDqeAMeeeJ1ndYrExU1JJI6N8LPSXZvSHFYaOzamdU4yu0mleTWiva9ra8NTvUVbrDoWtMf5AYh73TqVVFW6w6FnTJ6n+Ie906wjqU/NcFM9k6Gu+9mt7tCoYCmex9DXfuzW92hUohn1T/XdvP8wpPggUZaQPJ5iT8b1ndnqTqf65oOwaT4IFGOkDyeYk/G9Z3Z6gngWFERAEREAUwaCPsNiMA/7VQdyq1D6mHQQP8h4ld0qu39yrEJRK+56blpKw2f5d8GX/AHcoy3U3k5pOwv13KTtz55ZmHfv753vUYbqbyc0nYX67lf8ARZTibLeArdFPin1P67vjbl7ULxX8BW6KfFPqf13fG3L2oVCwREQHzqM8yO0mozzI7S+kQHzqM8yO0mozzI7S+kQHzqM8yO0mozzI7S+kQHzqM8yO0mozzI7S+kQHzqM8yO0mozzI7S+kQHzqM8yO0mozzI7S+kQHzqM8yO0mozzI7S+kQHzqM8yO0mozzI7S+kQHzqM8yO0mozzI7S+kQHzqM8yO0mozzI7S+kQHzqM8yO0mozzI7S+kQHzqM8yO0mozzI7S+kQHzqM8yO0mozzI7S+kQHzqM8yO0mozzI7S+kQHzqM8yO0mozzI7S+kQHzqM8yO0mozzI7S+kQHzqM8yO0mozzI7S+kQHzqM8yO0mozzI7S+kQHzqM8yO0mozzI7S+kQHzqM8yO0mozzI7S+kQHzqM8yO0mozzI7S+kQHAAHEAFyiIAoq3WHQs6ZPyAxD3unUqqKt1h0LOmP8gMQ97p0B+a4KZ7H0Nd97Nb3aFQwFM9j6Gu+9mt7tCpRDOyFv1W3n+ZUnwMKMMf+TzEn43rO7PUpRDbbT/M6X4GFFuPvJ3iP8bVndnKCeBYUREAREQBTDoKOWHsTnpVdv7lWqHlLehCrpo7JiajdURNqJJqKWOIvGu5jIqsOcG8ZAL2Ank1m9MISiX9z95ZuHsuLXvfe9Rfupj/AJ9UnYX67lKWgFurpQw+Bxa9773qLd1N5OaPZ/sX67lddllOJst4Ct0U+KfU/ru+NuXtQvFfwFbop8U+p/Xd8bcvahULBEVpxJXVdso6evppWsZFWQNqAWg60L3hjvSy1g7P+SgLsiwCLFt/kkusL54QaqpibZy2MZtjdUOgdn5ojU1/Sd1krcY11FdJmz3drKiK6x0bLRwXNz6dz2tEut47aHa+v43Zq8aAz9FhUuJb43FgwO2Wn4VJKK5tUS3naDPMt1Oq6w1Bs8adbkKq6eXFF3irLrb7vBAIaqaGmo3wNMb2xSFh3x+12bi0nNuWWY2HLaBlSLGrxju12a/UliqIK1z59ffHx0NQ8MyaC3VLWEOzz25HZyqnrrtc6utvMkd8jtFBZnx0+vvDZXSTOY15c/PiYN8YABkTz21AZaiwiDHrYKu0uudQ2WCutbp3ut1LNVRunbI1pLdRhcG7XcYCqLffLlfbTNdKe7soKKCvqhNUTU5ZIynjJDQGSN5055ZlwzyB5UBl6K04WrbhcbFTVtzYRNLrkEx7258esd7eWfaFzNVxbyE5K24qud3t9dDqz1VHa94c6SrpaLhTmzawyD2gOLWBu3MD0yMtoGUIsUuONmWO00dfWmjrGSUgqZaqGriiikAG0xNe7WcTxgD0s13S4qFNU1kUcFTWTGshpKWnGo3We+ESbDsyaG6ziXE8Ry5AgMlRY1HjCWTfKXmFUC4NreAtpTKznniISl2vnkGhpzz4+tnsRuMZJn09JTWSd1dLPPTSU75WN3qSJocc3bQWkEEEdMbEBkqKgsd3gvtqgutPG+NswcCx+WsxzXFrmnLZscCNnSWLYkxtW2fFb8OU7ojNW0dPwITNyijlfJI10kjwNjRkwAfbEgDaUBnCLD7tj+34aqHWqvmjqp6GGN9XI6ohhkdrDP6nESC85bcmjlAGZ2K6R4klqrjLS2+z1FVTU07KaepY9oDHua12xpOZDQ9uZ5NuQOSAviLG48a0xvrbHPSNjfK+VkRFVE95MYJJdG1xc0ENORPWzyJyVHFj+ombDveGanXqbcbpC01EY1oG6ocSc9jgXtyHLnybcgMwRYtdsfUFoZS1U1OOCVMcMu+OqYmP1ZCANWMnWcRmCcvWzX1S4muorcSMrLYwwWieOODUnY0vDoY37S4gDx+eZOwHLkQGTosTpcfQVsDuCW7f6lley3ujhqY5GF749cOEgOqRlx8oOezYr1Yry29Us03Bn08tNUSUs8TnB2pIw5HIjYRxEHpFAXJFHtgxdWVs9o3vEsNyqKyeRldQsZGTTRAPJeSwZs1S1o5/j1suNXmLHcToYauotFRBTV1NLU0ErntO/tjjMmRA2sJYC4Z8gPEdiAylFhtdjiubh+4V9PZnU9VHZn3akbLK1zXsDc+ey4iCQSOXpqvhxDVMkDqumkErbU2tfTskj1NYvI2PdlkfTIGSAyNFiNPpCpqmCfeLdv1TT1sFE6KCpjkYXTAapEgORG3bxEZFVTsYhtvmqnW3e56asdRTxS1UUbInhodmZHEAtLS3LIE7Rs48gMkRYW7SFSb7bKwH9zXClqBFTBzHPmqWzRxtYxwOTtrn7QcstvEFlcsdXVUOoJnUVQ9rSXR6shjOwkDWGR6XEgKlFhtvuV3hw9VXi4XupqHMrZKVobDC3VDaoxAjJvGQBnn0zlkqmoxtLDWCmjsNRKyS4PtcUomYA6cMLhsJzDcmnb7hQGUorJa8TR3KopqR1FJBNNwpsjXPDt7fBI1j25jjzLth6QVFZ8bOvk9uhoLNMRXUba573StAhjLyzbyk7M8ggMoREQBERAEREAREQBRVusOhZ0yfkBiHvdOpVUVbrDoWdMnqf4h73ToD81wUz2Poar72a3u0KhgcqmexdDVfuzW92hUohlTGNluP80pfgiirHpzxziI/8Wq+7OUsMH1K3O/mlL8EUS45OeNsQHp3Wr7s5QTwLIiIgCIiALOtD3kjrvxZN75iwVZ1of8AJFX/AIrm98xCUbCaBBlpQw/99e+9yivdTeTmkP8AMv13KV9BDSNKGH/TvXe9RTupvJxR9hfruV12WU4myvgK3RT4p9T+u7425e1C8V/AVuinxT6n9d3xty9qFQsFSXa2094tlVaqsuENXE6F5YcnAOGWYPIRxhVaIDH48E2eOexVAdOXYfjcynBfskzZq5yeaPL6e1dsmFaeW4GrluVe+nNSKs0bpAYd9GWR4tbVBAdqa2rrDPJXtEBYn4OtL3OqHGXhhrxcRVaw30SjYADl43U5zV4tUnl2r4qcHUs8tSxl0uEFFWy79U0UcjRFI87XbS0vaHEZuDXAHM9M55AiA6ZKSmlqIaqSFrpafW3p542awyOXphWq4YXiqq+e5UV1rrbPVxthqjSuaBM1ueqSHNcA4AkazcnZZDPYMr2iAtNuwza7TNSSW+N0TKGi4DDHrZtEesDtz2k5tG0npqkuODaWvphSNuNXTs4e+4PDNRwkkcScnNc0hzQTmARxgdJZCiAt0VJdoKiiYbo+op4mS8IdIyMPlcctTxrQABz3Flyca6rnYTX1jbhS3eut9RvJp3up3NIfHnmAWva5oIJOTgAdp2q7IgMUn0c2V0ApqKqrKOJ1vbbJBE9rjJA3WyBc9pLTz7s3NIJz28i7L3hcmlmntUUstY6rp6thFQInxuja1msxxaQTqAjVcMnZkHIFZOiAxCzYSrX01TU3WrqqavluJr4ZmTMkmidvTY9p1dQ5tDgWhuqAchxZq7UGFqC3zU9S2eolnglnndLK4F0skoAe52Qy5AABkAAABkFeUQFktdlq7NUUdFQVWVqgiqXSxvyL5JpJQ9pzy2BucnEfthx5LtrMNWu4VlbV1sRm4fRsopo3eN3trnuBHKDm87esFdkQGPSYPie4ujvVyhdLDHBVOika11QGDJri7V1muy2FzC0n1hlUPwxAblJXwXGup45546memikDY5ZWAAOJy1toa3MAgOy2g5nO8ogMcosD2+hqqeeOvrHRUc001PASwMY6UODs8mhzvHnIuJI5OVVEOErbA+meySbOltj7UzNw2xOLCSdnjvqY91XtEBi1Zo+tlXC6mFfWwwywwQzRxln1QQ5BhLi0uHEMwCAekq2uwlQ10lwkfVVMYuMkM8jWlpDZotXUkbm07cmMBBzacuLaVfEQFgo8HUVLO+qkrauonkrI6575C0ZyMj3sDJoADdXkACuVstVPauF8Hc88MqpKuTWOeT35Z5dbYq1EBRWm1Utmt8VupQTHECAXZZnMk7e2rTDga2xNZDJWVk0FNTy0tHDI5urSskbqu1Mmgk6vOguJIGY5SsjRAWaTClrmpxSTb6+LmY60ubrZa0DgAdo5chxrpnwfRVdNvFZW1Uz+CMo99cWB2qx+u12Qbq5ggcmRy2hX9EBjtNgqhgnmq5q6rqJ56qnq5HyFozfCMmABrQ1oy5AB281zVYLt9RUGtiq6mCp4c+vZKzUdqSPiEThqvaWkaoHGMweVZCiAxxuBLIaRlHOaidjIKiAOkkzf9WkbI52txhwc0EOG0K/UsL6emigkqJJ3RsDTLJlrPIHGcgBmesF2ogLScOUPMmWz68u8y1DqknMa2s6bfT62t7i+XYXt75IpTJNnDcnXRvPD99LHNI4vG5OKvCICxSYTpteOekuFZSTxz1Mwlic3Mid2tIw6zSMs8stmYyG1fVhwlbcPcG4FJO7glC2gZvjs842vLgT0zmeNXtEAREQBERAEREAREQBRVusOhZ0yfkBiHvdOpVUVbrDoWdMn5AYh73ToD81wUz2Loa792a3u0KhgKZ7F0Nd+7Nb3aFSiGVwyEFt69LTZfoiiPHHk1xB+NKvurlL725Utqd06Wn+CqIMceTXEH40q+6uUMngWRERAEREAWdaH9mIa8/8AC5vfMWCrOdEHkgr/AMVz++YhKNi9Bgy0o4fJ/wCN97wom3U4/wA+KLsP9dylvQeCNKOHj+O+94USbqfyb0XYf67lddllOJsr4Ct0U+KfU/ru+NuXtQvFfwFbop8U+p/Xd8bcvahULBEXy97IxrPcGjpkoD6RdPC6bq7O2nC6bq7O2pyvkRdHci6eF03V2dtOF03V2dtMr5C6O5F08Lpurs7acLpurs7aZXyF0dyLp4XTdXZ204XTdXZ20yvkLo7kXTwum6uztpwum6uztplfIXR3IunhdN1dnbThdN1dnbTK+QujuRdPC6bq7O2nC6bq7O2mV8hdHci6eF03V2dtOF03V2dtMr5C6O5F08Lpurs7acLpurs7aZXyF0dyLp4XTdXZ204XTdXZ20yvkLo7kXTwum6uztpwum6uztplfIXR3IunhdN1dnbThdN1dnbTK+QujuRdPC6bq7O2nC6bq7O2mV8hdHci6eF03V2dtOF03V2dtMr5C6O5F08Lpurs7acLpurs7aZXyF0dyLp4XTdXZ204XTdXZ20yvkLo7kXTwum6uztpwum6uztplfIXR3IunhdN1dnbThdN1dnbTK+QujuRdPC6bq7O2nC6bq7O2mV8hdHci6eF03V2dtOF03V2dtMr5C6O5F08Lpurs7acLpurs7aZXyF0dyLrZPDIdVkrSekCuxRaxIUVbrDoWdMnqf4h73TqVVFW6w6FnTJ+QGIe906A/NcFM1h6GzEHZre7QqGQpmsQ/wBGy/8AZre7QqUQy6SDKjtPY1P8FKh3G/k0v/40qu6uUyTbKK0dj0/wUqGsbeTK/fjOq7q5QyeBZkREAREQBZxoi+z9w/Fc/vmLB1J+hizU1RRYhvrpJRUUjYKONoI1CyZk7nEjLPMGBmW3ldsOzIET1oTaRpSw8OTK9/AAoj3VGX0bUPYZ9+5S/oYBGlLDoPFqXvL9ACiHdUj/AD1oT/Mz78q67LK8TZLwFbop8U+p/Xd8bcvaheK/gK3RT4p9T+u7425e1CoWCoI4xW1EjpiSyM6obmq9UdB4+o+/+NXjomyr3o7eA0vUR2ynAaXqI7ZXeijM+ZNkdHAaXqI7ZTgNL1EdsrvRMz5iyOjgNL1EdspwGl6iO2V3omZ8xZHRwGl6iO2U4DS9RHbK70TM+Ysjo4DS9RHbKcBpeojtld6JmfMWR0cBpeojtlOA0vUR2yu9EzPmLI6OA0vUR2ynAaXqI7ZXeiZnzFkdHAaXqI7ZTgNL1EdsrvRMz5iyOjgNL1EdspwGl6iO2V3omZ8xZHRwGl6iO2U4DS9RHbK70TM+Ysjo4DS9RHbKcBpeojtld6JmfMWR0cBpeojtlOA0vUR2yu9EzPmLI6OA0vUR2ynAaXqI7ZXeiZnzFkdHAaXqI7ZTgNL1EdsrvRMz5iyOjgNL1EdspwGl6iO2V3omZ8xZHRwGl6iO2U4DS9RHbK70TM+Ysjo4DS9RHbKcBpeojtld6JmfMWR0cBpeojtlOA0vUR2yu9EzPmLI6OA0vUR2ynAaXqI7ZXeiZnzFkdHAaXqI7ZTgNL1EdsrvRMz5iyOjgNL1EdspwGl6iO2V3omZ8xZFJNQQGMmJuo4DMEFdlFK6ana5/GNhPTXa/wAY70iqa2/W39Iqbtx1ItZ6FWoq3WHQs6ZPU/xD3unUqqKt1h0LOmT8gMQ97p1QsfmuCmexdDXfuzW92hUMBTRYx/o133sxvd4VKBc6jPgVmy4t4gz/AEUqGsZ7cYX0/wDEqrurlM1R9Y2fb/s8HwYqGcZ+TC+/jKq7q5QOBZ0REAREQBS9oROWGMV9k0Hca1RCpa0KkjDWKhyb/Qn/AMmsQlE66HRlpTw5+DvfwAKH91UMsZW/sM+/KmLRAMtKOGuvDej/AOgCh7dVjLGNu7Ed78q67LKcTZDwFbop8U+p/Xd8bcvaheK/gK3RT4p9T+u7425e1CoWCo6Dx9R9/wDGqxUdB4+o+/8AjV49llXvRWIiKhYIiIAiIgCIiAIiIAiIgCIiAIiIAiIgCIiAIiIAiIgCIiAIiIAiIgCIiAIiIAiIgCIiAIiIAiIgPl/jHekVTW362/pFVL/GO9Iqmtv1t/SKuuyyHvKtRVusOhZ0yfkBiHvdOpVUVbrDoWdMn5AYh73TqhJ+a4cqmmyj/RqvfZbe7xKFhyqarMMtzRej06pvwiJSgXCpI4JZQD/s8HwYqG8ZeTC+/jKq7q5TBUn6nZx0qWnz/Riofxl5L75+MqnurlDHAs6IiAIiIApZ0LeRrFWXHv1F3GsUTKV9DDssN4qH+8oz2oatAT7oiBGk/DGf8HvXwEKHd1aP877b2I/36mLRHmNJ2FyRl+5r18BCh7dW+S62bP8AZX+/V12WV4mxvgK3RT4p9T+u7425e1C8V/AVuinxT6n9d3xty9qFQsFR0Hj6j7/41WKjoPH1H3/xq8eyyr3orERFQsEWNYUxrHii9Yms7Le6nOG7i23ukMmsJyYmyawGQ1fH5ZbeJZKpasc2Iw9TCz6uqrOyf7mk13pphFhGO8bYjst/suEMHWCjud3vMVTUg1tWaenhgg1NdznNa5xJMjQAByrNm62qNbLPLblxZo1bUvWwlWhSp1qlrTTa1V7J2u1vSumle17OxyiLB9I+kS6YKr7BZ7FhCTENyxDPPBT0zK1lNkYojI4lzwR41rulxIk5OyJweDrY+sqFBXk7vVpKyTbbcmkkkm22zOEWG4NxXj++XGSlxVovlw5SsiL2VLrvBVB78xzmrGMxsJOfWWZI1bQjFYWpg6nVVGm/+2UZLvi2vtCIigxgismNsTMwZhC84tko3VbbRRS1hga/UMgY0u1dbI5Z5ceRV0oqkVlHBWBmoJ4myaueeWsAcvdU20uczoVFRVdrzW2k/Wkm13NHeiIoOEIiIAiIgCIiAIiIAiIgCLXDTLu/tzPoTxTiPR9i7HZhxRh6gbVSUUVDNM18z2a0cAexpbvmRYS0kZBw28eWmu498Fmvd4xxeLbus8XWq22KS3GS11dFZnMbHVteCWP3oOdk5mtlmMs2gcZQHqyiwbQxpp0d6fsB0mkjRhe+adkq5ZYGvdGYpI5Y3armSRu55juI5Hbk5p4iFnKAIuimraOs1+B1cM+9OLH73IHarhxg5cR6y+6iop6SF9TVTxwxRjN8kjg1rR1ydgQHYipqq5W6iEprK6nh3iF1TLvkgaWRNzzec+JoyO3i2Klw1iXD+MbDQ4owreaS7Wi5RCejraSUSQzxnic1w2EIC5oiIAiIgCIiAIiID5f4x3pFU1t+tv6RVS/xjvSKprb9bf0irrssh7yrUVbrDoWdMnqf4h73TqVVFW6w6FnTJ+QGIe906oSfmuCmu0dDPeOyW/CY1CgU2WjoZ7v2SPhMalAqKjis/YtP8GKiDGG3Ft7P/EanurlL1QT/AJH69LTfBiofxd5K71+MKnujlDBakREAREQBSrob2YcxUc/t6TuVWoqUqaGyPodxUP5dIf8AyqpAbA6I8naSsKuac86S8n/0IUO7q7yW2zsV/v1LeheTfNIuGP5NNeh/6FqiXdXZfRbbOxX+/V12WV4mxngK3RT4p9T+u7425e1C8V/AVuinxT6n9d3xty9qFQsF8RwxxFxY3IuOZ28ZX2iAIiICwDAmFRDf6cWr6nih7n3Ub/J+6HOjEZPjuc5wAc5l0+NWmk0N6OaG7Ul+o7DJFcqFzTDVtr6kSgNGQY52+ZvYBs1HZt6yzVFOZmdDaeOppqFaaT0dpPVWtZ666JL2K24wy+aG9GGJcRDFl9wZQVt2AyNTKHZuy1ci5ueq4jVGRIJHJlmVWYp0aYJxtVxVuK7Kbk+FmpHHNUzGFm3PWEQfqB38rV1uusnRMz5krauPi4NV53grR86XmrlHXRepFBZLLb8O2uCz2ts7aWmbqxNnqZZ3gdLXlc5x9c7F1XLDVku92tN9uFFvtdY5JZaCXfHt3l8kZjecgQHZscRzwOWeY27VdES7MZYisqjqqbzO93d3eZNO73u6bT5pu5wRmMlhcOhvR3Bdm3+KyVDbo2bf+Hc0qrhLnZ55Ol3zXc3+QSW5bMslmqIm1uL4fG4nCKSw9SUM2js2rr123lixVgjDONqeCkxRbnV1NA4vbTuqJWROJGXPsY4Nk62sDlyZLtw3hKw4Rtz7Th6llpaN7y8QmqlkbGSMsma7jvbdnjW5AcgV4RLu1g8ZiXRWGdSXVrXLd5b87bjA5NBmi6XhjpMNyvluMcsNZObjVGaojkBD2SSb5rvaQTsJIGzLLILIb/g3DuKLTFYr3Ryz0EJaRTtqpYmuDRkGv1HDXbl9q7MHlCvaJmb4nNU2pjqsozqVptx1Tcm2vZrp+4sGGsB4VwfSVNBhu2voqSry3ymbUyuhbsy5xjnFseYO3UAz5VSYc0X4FwnXw3Sw2PeKunphRwzSVM0zo4AAN7aZHu1W7BsHprKkS7KS2jjJZ81WTz9rzn53DztddOYVNcrlQWegqLpdayGko6WMyzTzPDWRsAzJJPEFUrTHdt6UrjU3+n0WWyqdFQ0UUdXcmsP79M8a0bHdZrcnZcpcDyBXp03UllRueifRyr0q2pDZ9J5U7uUuUVvft3JetoyrHu7lsFqr5bfgLDT7wyI6vDauQwwvPTYwAuI651fS5Vhvh88a+gayfnpfjWr6LYLDU0tx6cwngw6L4WkqcsNna4ylJt+2zS7kkbQeHzxr6BrJ+el+NPD5419A1k/PS/GtX0TxenyMjycdFvQ498vvG0Hh88a+gayfnpfjVXbN3rf21LebOj+3yU/2wpqt7H+trAhaqIni9PkVn4Nui04uPii/in949PdFmmXBGl22urcLVzhUwNDqqgqBqVFPn0xtBH8ppI9fYs5XlTgLG970d4roMW2CcsqaKQOczWIbNHnz0b8uNrhsPb4wvUPDV+o8UYetuI7eTwa50sdVEDxhr2g5HrjPJYVej1T03Hn/AMInQddEcTCrhZOVCpe198Wt8W+PNP2rhdwVivwPncf44x1XaScV6G6e44hudbzRrKmS8XFsc9RmCXOgbUCEgkbW6mqduYOZWU6T9yLubNMdlt2HtIOiGx1tFaMuAtpGyW+SnaAQGNkpXRvDMj4zW1eI5bApfRcB1wR3oU3PuiDc7YfrMLaG8Htw9bLhVcNqYRW1NUZZ9UN1y+oke7xrWjLPLYs2vdmoMRWausF1ZM+iuVPJSVDYaiSB5je0tcGyRua9hyJ55rg4cYIKrkQEeaNtz5ob0P1s1w0Y4EosOT1NugtVQ6illaJ4ISTGZGl5Ekg1j9WcDIczm4q4Yr0RYFxzge66OMXUl1umH739fU098ri+VusHam/CbfWszA51rw3LZllsWZogMEh0J6PoMYU2PRS3yW+0tsNmZVz4kuU2tRFxcYpGPnLJBrOLs3tcc8jnmBldKLRvhW2WihsNrZdqC322jioKWnpL3WwNjhjdm0c5KM3chec3EbCSNiydEBb7lY6K6mlNVPcGcDkEkfBrjUU+sQMsn709u+D+S/WHWVIMIWkUNBbhV3vera/fIXc3K3fXnPP6rJvuvMOtIXDkyyV7RAEREAREQBERAcEZjI8q+Yoo4W6kbchx5Zr7RAFFW6w6FnTJ6n+Ie906lVRVusOhZ0yfkBiHvdOgPzXBTZaOhnu/ZI+ExqEwprs5/wBGi8dapb8JjUoHdVbXWXsem+ClRDi3yV3r8YVPdHKXqvY6zdj03wUqIsXeSu9fjGp7o5QC0oiIAiIgClLQ39gcUenS9yqVFqlPQ39gsUffUvc6lAidtCG3SJhsn+D3r4C1RTurvJdbNv8Asj/fqVNBpz0h4d28UF6+AtUV7q3Zi62D+aP9+rrssrxNhfAY5aqHdRYodRwCV5wDWgtJ5OaNv2/3L2a4dfPOxvb/AMV42+ArdFPin1P67vjbl7UKhYtPDr552N7f+KcOvnnY3t/4q7IgLTw6+edje3/inDr552N7f+KuyIC08OvnnY3t/wCKcOvnnY3t/wCKuyIC08OvnnY3t/4pw6+edje3/irsiAtPDr552N7f+KcOvnnY3t/4q7IgLTw6+edje3/inDr552N7f+KuyIC08OvnnY3t/wCKcOvnnY3t/wCKuyIC08OvnnY3t/4pw6+edje3/irsiAtPDr552N7f+KcOvnnY3t/4q7IgLTw6+edje3/ivOvdJzVE+nDFclU3VlNTEC3PiygjAHaAXpUvNjdNeXri7suPuMaysJ+MfsO5fAn/AK3X/ZP/AJwIwREWxPTYVfBYL7VW2W801lr5rfAcpauOme6GM9JzwNUeuVkuEbTYLfhys0gYmoXXOCir4bfR2wPMbKiofG+TWmeNoia1m1reecXAZgZlVIxlpertXFtrlvVPbrc0xxOoKd8dvpYxxxhrRvQbkdoPHntzzVHJ8DU1sfVlOUMMo2i7Nzdk5WvlVk23uu9y4ZmmlgSLPLpT2PG2E7ljC32mGz3eyGn5pQUoypayOV+oJo2f6p4dqhzBzh1swG8SwNTF3MzCYpYqMrxcZRdpJ8HZPetGmmmnyetndIvR3c91t4GhbCTYqESMbbwGuJ4wHO6684l6W7nHyj8H/i8e/csXGdlHUXht/wBHw/7X/wCsjM+HXzzsb2/8U4dfPOxvb/xV2RYB5mLTw6+edje3/inDr552N7f+KuyIC08OvnnY3t/4pw6+edje3/irsiAtPDr552N7f+KcOvnnY3t/4q7IgLTw6+edje3/AIpw6+edje3/AIq7IgLTw6+edje3/inDr552N7f+KuyIC08OvnnY3t/4pw6+edje3/irsiAtPDr552N7f+KcOvnnY3t/4q7IgLTw6+edje3/AIpw6+edje3/AIq7IgLTw6+edje3/iot3VVZeHbl7TA2W3Naw4CxAHOz4hzOnzPGpoUVbrDoWdMnqf4h73ToD81wU1Wbbuab11qpvwiJQqFNNlP+jVe+y2/CIlKB31Y+wx/3FL8GUR4v8ll6/GNT3Vyl2sOQs2fUKT4Moixf5LL1+ManurkYLSiIoAREQBSnob+wOKPvqTudUosUp6HPsBij76k7nVIETnoMP/aFh7rQXr4C1RXurfJfbexHe/UqaDfLCw+M+KC9fAWqK91d5MLb2I735V12WV4mx3gK3RT4p9T+u7425e1C8V/AVuinxT6n9d3xty9qFQsEREARFjmkHSJgrRXhWsxrj/ENLZrPQM1paiodxnkYxo557zyNaCTyBAZGi8itN/gqWl/EeOYqnQqYsMYXtsg3mCspIp6i45HMuqM8wxpGwMYQQCeeJyy3e3JW7j0d7pm3MstUYcO44gZ+6bLNKNWpybmZaVx/fGcebTz7cjmCOeNnFpXBsuiIqgIiIAiKONN01fU2zDGE6O51VvgxViWktNdPSyb3NwTUlnljY8bWb42nMRcMnBsji0g5EASA6voWOLH1kDXA5EGQAgruBDgHNIIO0EcqioblDcw/b7nrRzI47S+TDNG97jykudGST1yc1Euha31GibRJYcZ6N6kVVvtsdXTYlwcK0Bv1GpkbJJRRvOUFVFqOBhGqyQAtIa/VcgNsEVFZL1a8R2agxDZK2Ost1zpoqykqIzmyWGRocx4PSLSCq1AEREAXmxumvL1xd2XH3GNek682N015euLuy4+4xrKwn4x+z4HcvgT/ANbr/sn/AM4EYKusxsgr2fRCyudRartcUTmNlzy2Ea4Iyz41QrJNH7L+7EbXYau1Dbq2OnmkE1bLHHEWNYS5hMgLSXAEAEbSclny0R6Sxk+rw85t2snxt9qTt7bP2F6rbOK3BFTHgbERulnpqoXGvttTTNgr6VzWOYJi0FwfFquILmOOWYLmt41WWTSjabbg2lsVRRXg1tDa7lbIhDWtbRyir33n5Yy3Nxbvx4j9qF0y4mgo4rHpPw5TW+13ikrH0dzoqcBkNQQ0ObIIc9jJGF7HtGTc2nIDWyHXecbYjwHiC7WLAuJJaSzGsfU00cDmPaGSAObtyO0NLQeuFxWzaNHzXi88bHxerTzO7ks0sjuvMkpOEWnpJZXbzovWzV304Riki0ZY8q5GFsMrLbTMkIya6XhQfqA8p1WOdl0gsFV9xJjnF+L44YcS4grK+KmJdFHK/nGOPGQ0ZDM9PLNWJcsU1ds3+BoVaTqVK9lKcs1k20vNjG12lfs33LfbhcL0t3OPlH4P/F49+5eaS9Ldzj5R+D/xePfuWLjOyjqfw2/6Ph/2v/0kSSiIsA8zBERAFxrN1tTWGtlnlntyWquL93JeKTGGKsKaMNzZj3H8OGbs7DT7taxCKR96DWONM/WOtHG0SN1pSMh0stqi1u5S3R9lqKfdM282qq07/RjUYiudqZiWcQVOHJGEMsLZS3eiGZNDS5oZmM9biKA39RatYA3cVbf8e4VwPpH3O2PtHceMKx9mttzvccQgkuscZe+n1QdfUORa2UDJxI2DaRtKgCIiAIiIDrmqKeny3+eOPW4tdwGfbSGop6gEwTxyAceo4HLtLSvDe580TbpbdLae7lpywwcXPwpfLVZrJHW1cwit9IbbFM6OJjHgNDpJHOPTJXdV6CdFu5m3W+gSHQdhkYUp8cS4ltmIaakqpnQ3CCntbqiASMe4glkrQ5p4xtQG6SLB26aNHv025dCE94fS4ubbI7tBSVED4mVdO4vDjBI4Bsrmambw0nVDh18s4QBERAFFW6w6FnTJ+QGIe906lVRVusOhZ0yep/iHvdOgPzXBTRZD/o13zstvd4lC4Uz2M/6Nl9H87b3eJSgVNdllZj/uaT4Kojxf5LL3+ManurlLlw8bZT/uaP4Kojxf5LL3+ManurkY4FpREUAIiIApS0PeR/FP31J3OqUWqUNEGzDuKT/Kpe5VSBE66DPLCsH4C8/AWqLN1d5Mbb2I735UpaC8zpCsP4C8/AWqLd1d5Mbb2I735XJ+iyvE2O8BW6KfFPqf13fG3L2oXiv4Ct0U+KfU/ru+NuXtQuMsEREAXnF4MfNMMP6NKcSvETqy4PLNY6pcGRAHLp5E9sr0dWoHgjG5d0kbo7BuGajRfFR1t1wzVVEj7dUVDKd1VHK1o+pyPIYHAsGxxaCCduzIzHeDxjUlbmiaWn3QujiaCRzHtxPbsnNORH1di9ddwLufsTaDdAv0LaTsJ2+3YiuF2qq6rgD4Kl+9uDGRiSSMuY46rOIOIAPphakaMfA79PdBuqosZ3bC1rw9gmz4rkvFPVtuFM9stIypdJFHBBE5z2ktDAA9rA0elkuTMndA9U0RFxAIiIAo30wfZjRn+W1P8BrVJCjjTfBcKa0YcxdQ2uquMeE8R0l4raakjMk7qTUlgmexg2vMbKh0pa3NzhEQ0FxAIF90n4qrsF4DvOKLVFTzVdthbJGycFzCS9oycAQeI9NYredC25o0lYwvdViPQ9gLEOJKGSFl2qbhhumnqNd8QfHryyRkvJjLTnmchs6yx67S6KcS0eOpIdLdnijx6aKYEubnSiGCKIbC4F2sI89urlnlyK9UmO9FmDb9i7Gx0g0NxdiKakmbQ0Y3+cPhp2QNjjZGXOlc8tGQDc8zl10BWbmWCCk0EYPoqWGOGnpKJ9NBFG0NZFFHK9jGNA2BrWtAA5AApPWDaDsO3fCmiXC9jv1Lwa5Q0LZaqn1tYwSyOMjoieUtL9UnphZygCIiALzd3UVLPS6d8VtnjLTJPDK3McbXQRkEL0iWq27L0K3O/sg0o4ZpH1M9FAKe6U8bS55haSWTNA49XMh3WyPIVkYaSjPU7O8E22MPsnb+XEyyqrBwTe5Sbi132t7WjTJERbM9ZBERAEREAXpjueIJabQng+KZhY7max2R48nOJHuELQvQ3okvul3F1PY7fBNHb4ntfca1redpoc9u07Nc8TRynrAr0wttuo7RbqW1W+EQ0tHCyCGMcTWNADR2gsHFyWkToLw2bYw86eH2VCV6ilnkvoqzSv63dv2L1oqURFhHnwIiIDT3RD9D82770vzaKI6wWZuEqeHEElOydtqOKRVEyiXP6m6pEDoMyzPZrjj1lqxhmighmw1PTWXSX4cR2NYGX+ufTVoidTcMAqTLNkKQ280jSGtaeRuzLatysYbhqkuWJcT4q0daf9JuAJcR3WTEjrbZblGy2x3pzGtNW+HUD5WkRt1onP1TlybMoaO6K3WN5p6PcwUdwmpNMTcc1FhueJm4Rm4KzDTIy5l4YTlTBzud53WzyBGqCQUBIuJ5MM03gkdil0mtrRTTYJihwI+4NmdQC979PwoUp/eW1Bpy3PicRlltyW361pwHuIbThrGeGMa4405aTNIc2EquS7W2hxJdI56OG6SMLZKtrRGHjaXFrNctaTy5LZZAEREAREQGtm5n6IXdOZejC0956dW64N8EOhukFKcWbnKKWpklFBFPbbqJpGtGbg0cIzcQ3a7V5OssRwxpz0fbm/dJaeqTTNJfrCzFl9tV4slTFh24V8FdTNtsULnMfSQygFskbgQ7L19q7q7TPgTdI7rPQLW6HJb3e6HA8uJbjf6yfD9fb4KKGotbqeHWdVwxaznyvDQG59fJAQhu44d18MP4Sp8eXjQ9W455tQPwPT4Ot10ZiThu+N13UjnzFrYw0ZyF41NUbduqvRnRyzGMej7DMekSWmkxU20Ubb2+mGULq8Qt38s/k75rZK1w6GtHcOlip03mwNmxlUWyOzi4zyvkMFKxzjqQtcS2LWLjrFoGtlt5c82QBERAFFW6w6FnTJ6n+Ie906lVRVusOhZ0yfkBiHvdOgPzXBTNY+htv3Zbe7xKGQplsXQ3X7sxnd4lKBVXEZMsuXUqP4Kokxf5Lb3+ManurlLdy2Msv4Kj+DKJMX+S29/jGp7q5GOBaURFACIiAKUNEPkcxV6dL3KqUXqTdEpyw3iv/wDxu5VKEonjQV5YFi/AXn4C1Rburh/nhbOxHe/UpaCfJ9Yj/uLz8Baot3V3kvtnYj/fq67LKcTY3wFbop8U+p/Xd8bcvaheK/gK3RT4p9T+u7425e1CoWCIiALrE8LhGRMwiX97IcOf2Z7OnsBK7Fq9Y8L6dKGHQrVXGusdxorVU1csFupsOVVHU0MnMC4xw8LqX1crHN13sjd9Rjze9pGr40yDaFFCFJdce1lnMFpu+K5t9FibXVFfb94qKeqkuETKxkQMTRq7wZNfVDmsABaRnmqqqm0o2Sir32WuvF2qzbb3vDK1jSBJT1UTKUgti8eYnSEc64vyBydklgTKiwHRDX4ouFuusuIqieWBtcG0JnE5kbHvMZcNeanp3Pbrl2R3vYS5uscshnygBERAdcs8EDQ6eZkYcQ0F7gASeIbV2KKtN9toq2W0VVTQcJlpqatbEyrw5LeaCUOEWvFJFCRJHK9rSI5Ach9UBDsw04/SSYmsmIcTX+ezYqopKzBeHzT26nkfUMpZhJVNqWRymORr5YQ+Mu2OeQcw1xICAnPVZxlo7S+YXwTxtnp3xyRvGs17CCHDpgjjUJYZnxZeblhq5YkqMQwU9sxLW0kLmsnInp30zd5MxdDG58Zk1mh7mMGR4+ImkwVfMfW+PAVJdKbEEjqizWiKqt9JQGlbTzSazaiWQmAwua0c89m+RvjEY1WkyNBEXJ5MsTZGxOkaHvBLWk7XAceQ5csx219qBcOU+ObBg2WGzU92qr1QHFpjNxpnSStn4W51MGOe0azXMLXMDTqvzG3LilPAVVFVW6pdTXO/V8DKjKOa8UroJTmxpIaHMY5zQSdpbsOsBsCEmToiIAuCARkRsXKICGsd7k3RDjirmuQttVZK2dxe+W1yNja9x4yY3Nczby5AKJrLuStFd/udXbrZiPGr2UVXUUU1W6jibTCaFxbI3fCzI5OaRnxFbfKJptBz6nDGOLc3Edzo7rix95EM8d1rH0lOyse8xu4JvohDmhzdYtaHE62TsySuRVZpWufV4Tp10jwNJUaGLmorcm07d6bIrG400OOtcl8bpTrjboiWyVgqaXeGEHIgyauqMjs41Q4u3JmhLA2H6rE2JdJ93paGlo5q4nWp3PlhijMjzEwN1pCGgnJoJUqu0L3uW3xyNqnUtXFeaa5Phiu73CoZFSSQBpkMADMjLrDKM/vTMz0qLGWgu+3jR3ecE2ijsEj71hXmC2aulkebfKHSuDmO1CXtzmBHjNUxtORGxs9dU5mT5RelHpku6PwMN8JLor5omz/TGu3DxFvxpd9pt+EfFr6mrravXyyVfhfcXaGqpzbmzFt2v9I12qGw1kO8uI4wXRtz7TgpBpNEdwpdINXieWojqaepvEt4ZM+rc18bn0u8hm9CPni0c4HGTLe8hq7FmejrDD8FYBw5hGXeDLZrVSUMroG5RufFE1jnNGQ2EtJTrqnMrPwhdJ6kXF4yevKy+1K5U4UwdhjA9oZY8J2WmttEw629wMy1ncrnHjc7YNpJKvKIuJu+8+RrVqmIqOrVk5Serbd2362wiIhxhdcc8Er3xxTMe6M5Pa1wJaeuORdi12w/Df8ADsV8fgPC0s1wjsNXJBVVVhmoLjTTcIjJpqqbJ8VdK4mZ7JI2EjeycpN81nAbEr4dJCyRkb5GNkkz1GkgF2XHl01r6yHH19rMG3e6V19dbrTjtsjzBwlzmUb7TUR/VTJTQPli4VJG3WMeTd8cC7Jubau8xYvseGL19DD77VXajdimaCSppHSzQ1BhkfS7yXs2tcSwt1cw4nLbxICekUM4guOkGxXyezNuV8mw86rtUldc20++1dPBPHWCcQakZ1sp4aMOAaSxk0jtgAIohizF8tts9zprniSupm190i3llE+GrqGsrQyn1yKd7WubGCDHK2PMEuJaWEACc0REAXDnNY0ve4NaBmSTkAFysf0hQVlVgPEVNb4TLVS2qqZBGATryGJwaMhtOZy4kBfdeF0m9a7DIG62rmM9Xp5dJA6MP3sFoflnq8uXTUBSu0jYTtVRTT0ctZiee50rr/e6SlnhZU2ySOYU/BnMiqHxMilDInRhsjowXyO1RJvq4qKzSky1U+KGNr5LlFS2+SWeCilMrrc2/MfMwsfEx75OAB4cN6a920hjSQBNiLmwKKB8W45x4603OrtFBifN9fdJbXKyllgbqQxQcHifGKaSV2+OfI5gLWtcGPDnDYpKwa2/1lzul0vldXgAwRU9JI0MgY11NA95a3VBJ3wv2knLaFAuZciIhIUVbrDoWdMnqf4h73TqVVFW6w6FnTJ6n+Ie906A/NcFMti6G+/9mM7vCoaCmSwn/RwxAP54zu8KlAq7iDvdl60VH8GUSYv8ll7/ABjU91cpfrhnT2o9Kno/g4UQYv8AJZe/xjU91cjHAtKIigBERAFJeic5YbxX6VN3KpUaKStFPkbxUf5NP3KpQlE96CvJ7Yz/ALi8/AWqLt1h5LbX2I/36lHQVsx3Y/wF5+BNUX7rDyW2rsR/v1ddllOJsX4Ct0U+KfU/ru+NuXtQvFfwFbop8U+p/Xd8bcvahULBERAEREAREQBERAEREAREQBERAEREAREQBERAEREAREQBERAEREAREQBERAEREBQXqxWbEVA62X22U9fSueyTep4w9oexwcxwz4nNcAQRtBGYXZabRa7Fb4bTZbfT0NFTt1YoIIwxjBnmcgNm0kk9MkqrRAEREAREQBERAEREAREQBRVusOhZ0yep/iHvdOpVUVbrDoWdMnqf4h73ToD81wUw2A/6OeIR/PGd2hUPBTDYeh0xD2Wzu0KlAudaf3La+xqLuDVEGMRli6+DpXKpH/muUu3B+VNaQPtqejH/AKcFRJjTyY338Z1XdXIxwLMiIoAREQBSXooGeGsVf/43cqlRopM0T+RrFXp0o/8ALqkCJ40FeTyx/gLx8Caow3WA/wA7LUf5rJ79SdoLIGPbHmR+8Xj4E1RlusCDiu1EfwWT34V12WV4n1uOd1VcNyDpPuekq24Mp8TS3KwzWM0k9a6laxslRTzb5rhj8yDTgZZfbZ57FuN4uLir+Ltav6xyfN15hO6a4VCx6feLi4q/i7Wr+scnzdPFxcVfxdrV/WOT5uvMFEB6feLi4q/i7Wr+scnzdPFxcVfxdrV/WOT5uvMFEB6feLi4q/i7Wr+scnzdPFxcVfxdrV/WOT5uvMFEB6feLi4q/i7Wr+scnzdPFxcVfxdrV/WOT5uvMFEB6feLi4q/i7Wr+scnzdPFxcVfxdrV/WOT5uvMFEB6feLi4q/i7Wr+scnzdPFxcVfxdrV/WOT5uvMFEB6feLi4q/i7Wr+scnzdPFxcVfxdrV/WOT5uvMFEB6feLi4q/i7Wr+scnzdPFxcVfxdrV/WOT5uvMFEB6feLi4q/i7Wr+scnzdPFxcVfxdrV/WOT5utLtz/uOtOG6WtF1v8Aows1vmt1oqW0dRU11eynaZ3N19RoOZcQ0tJ2Zc8NqlfxKPdc+c+GPbtnyUBPXi4uKv4u1q/rHJ83TxcXFX8Xa1f1jk+bqBfEo91z5z4Y9u2fJTxKPdc+c+GPbtnyUBPXi4uKv4u1q/rHJ83TxcXFX8Xa1f1jk+bqBfEo91z5z4Y9u2fJTxKPdc+c+GPbtnyUBPXi4uKv4u1q/rHJ83TxcXFX8Xa1f1jk+bqBfEo91z5z4Y9u2fJTxKPdc+c+GPbtnyUBPXi4uKv4u1q/rHJ83TxcXFX8Xa1f1jk+bqBfEo91z5z4Y9u2fJTxKPdc+c+GPbtnyUBPXi4uKv4u1q/rHJ83TxcXFX8Xa1f1jk+bqBfEo91z5z4Y9u2fJTxKPdc+c+GPbtnyUBPXi4uKv4u1q/rHJ83TxcXFX8Xa1f1jk+bqBfEo91z5z4Y9u2fJVvxB4F7us8O2K4X+pw7YqmG3U0lVJDS3dkkz2MaXODG5DWdkDkOVAbFeLi4q/i7Wr+scnzdPFxcVfxdrV/WOT5uvMFEB6feLi4q/i7Wr+scnzdPFxcVfxdrV/WOT5uvMFEB6feLi4q/i7Wr+scnzdPFxcVfxdrV/WOT5uvMFEB6feLi4q/i7Wr+scnzdPFxcVfxdrV/WOT5uvMFEB6feLi4q/i7Wr+scnzdPFxcVfxdrV/WOT5uvMFEB6feLi4q/i7Wr+scnzdPFxcVfxdrV/WOT5uvMFEB6feLi4q/i7Wr+scnzdPFxcVfxdrV/WOT5uvMFEB6feLi4q/i7Wr+scnzdPFxcVfxdrV/WOT5uvMFEB6feLi4q/i7Wr+scnzdYxpT8GNxLpO0Y4v0az6B7Zb4sWWG4WN9Wy/ySOp21VO+EyBhgGsWh+eWYzyyzC86EQH0FL9hP+jviEfztnd4VD4Kl2wuHhfMQtz/2qPu8SlAutxy4PZyOoUZ/9Molxr5Mr9+M6rurlLVwGVJZ8/4PR/BlE2NhljO/DpXOq7q5GOBZURFACIiAKTdEu3DeKB030g/8uqUZKTtEe3D2Jh05aPudUhKJu0KSamOrEQeOC7/Agoz3VDi7FNrz/g0nvgpG0Ln/AD6sI6VPdfgQUbbqR2eKbYOlTSe+Cv8AolOJCbuJcLkrjLrqhYImSZIAiZJkgCJkmXXQBEyTLbkgCJl10yQBEyTJAERMkARMkyQEj6J90Zpt0G09wo9FGkS5Yepro9ktXBAI5IpHtBAfqSNc0OyOWYAJAAOeQyz/AMUF3Y/3c7v+h0n7Fa85JkgNhvFBd2P93O7/AKHSfsU8UF3Y/wB3O7/odJ+xWvOSZIDYbxQXdj/dzu/6HSfsU8UF3Y/3c7v+h0n7Fa8+umSA2G8UF3Y/3c7v+h0n7FPFBd2P93O7/odJ+xWvOSZIDYbxQXdj/dzu/wCh0n7FPFBd2P8Adzu/6HSfsVrzkiA2G8UF3Y/3c7v+h0n7FPFBd2P93O7/AKHSfsVrzkmXXQGw3igu7H+7nd/0Ok/Yqgvu7q3WmJbNW4fvOm29TUFxgfTVMTIaeIvieMnN12RhwzBI2EFQRkucuXNAcImSIAiZIgCImSAImSZddAETJMkARMkyQBETLroAiZJkgCJkmSA5Clmx5fSBxB16qPP89EomHGpYsrg3QFfG5bXVTO7RKUC9XAl9Na8/tYaUdqmUT458m2IPxrV92cpXrs+DW09KOm+DKKMc+TbEH41q+7OUDgWRERAEREAUn6IgfofxK7k36iH/AJdUowUh6JrrvcN7sApdZ1YyGr37X8ZvIkZq6uW3W4QDnmMtXiOewSibNEM29Y3sD+nDdB/6EqNd0w9z8T25zjt4O/3wWeaKp88bYeGfjmVgz+/oJfkrAt0q3VxHbT04JPfBWXZK8SHPTROVFUkLhc8fKmaA44yuUTLJAPTXHpp11z10A4iuFzxJsyQDjXA41z6yIAiHiXAQHJ9JETi5EATaiIAmfTRCgOFyi4QHK4OXIuUQHGxcrj11zxIAm1FwgOU4k9JPWQDrFNoT0lwNiA5y2IuOJc8qAemuOmuTxIgOFzki4CA528eaFEzQD1k28pXC5OaA42Lnpp664QHKIiAbUQ+mnrIAnHxInWCADjUp2h2Wgm8tz46pndolFg2KTbW4t0IXZp4nVLcvzsalAySsbnRUBzHOw0x9P9z5KK8fs3vHeI48stW71g/85ylWaMvgoYGjNzhTsH5nJQhU1NTW1MtZWVEk9RO90sssry58j3HNznOO0kkkklQDrREQBERAFm2iWtpabEFZSzRSvlrrfJDTljQQ17ZI5XF2ZGQ3uKTiz2kbMsyMJVxw3co7RfqC4zzVMcEM7DUGmOUhhJyka3aM9Zhc3IkA55HYUBOuBrhzJxJhqqe4BsVfT08h6QfrU7j6wlKte6eonR3K01eXFv0TvT50j+4r4r6WoiNbbHZ09VBI9u05GOQkkO9Z4PsVkGnUxYwwBRYtpIwNcRVrmgbWFw1ZGH71xcD96rLc0Q95riuOVclCqkj1uJNvEFwBmuc0Ay66LgLlAE66HjRANuaInKgBXC5Ti5UAQDlRNqA4RFygCdZcLnjQHHGudnXXCbEBymfKg6ycaAbE9dcIUByuE2rlAEzRAgHKuOPlT0040Bz205UTlQD00OYRcIDn0guFzl10QHC5TrogB5U4kRAPXTbkmeSIDj01z6a49NMygOUXHprnagCIiAcaHYuOREByOspQpIdTRNR247H3W4RxN9Myk/3MUYxRumkbFGNZ7yGgdMniUnR1Da6622w0TgaTD0GtI4cTpyA0euDt9ZyAyKouXM+4QXRtGallBvlc6n19XfGQgP1NbI5ZtY4Z5HLpKDFJWO6qGO0VbZBHIZHQ0sTd+DXtcHb4XhuWbwA0sOWWRe3M8QMaoAiIgCIiAIiICT8I3Z9zs9NUPGbqHUt1UQ3IBhB3h5yaGjY0tyzJOo9zjtWZ2Wvglp6zBN2d+47mJJKQk7BI4fVYusT49vXL+koJtFzmtNayqjLzGcmTxtfq77FmC5hJBG3LlByIB4wFKtRFBcaXgYr2z86JqSsgJykaDzkzCciHAjIg5OBBa4A5gSnYPUiy82qpst0qLXVjKSneWE8jhyEdYjIqiyWdYjlGJ2ilurY6fEVG3UbJ42Ovj5MjyP6Q5do6wwZ7HMcWPaWuaciCMiCoYOEREABTjTPLlT10ACZ9ZPTTNAcLlAuEBzxJtyQpnsQDkRPTTJAPdTlTYh2cqAIgQIAnL1kyTYgCIiADrIOuuEOaA5T0yuECA5z6y4XPTzRAcLnNOJM+kgCddM9qZoAnpouPWQHKdNcLlAM+unpJxJ7iAbETtpsQA8a45fjXKDagBTYi4QHOXKmaJxIAiJ10ARECA7qWZ9NKJovHt8afMnp+mpPw5bxh2x77Ut/dU5E0wdx6xHOM9MAknrud0li+C8Omombd62MCGI60LXDY9w+2P8ke6etmrri/EE9HTQzUsssbpy40kjJQ14LXAOmI8dlxta7IbQ4h2bCEBj+NrtcJ7g+w1cZiZaaiZhjfEGyCocWtmLjmSdsYaBnlk0HIEuzxxEQBERAEREAREQBXnD2IeY2+xTsnlicA6ERyhu8Tazc5Mi063OBzS3NuebSTzoCsyICULnb6PEEEVNX076WrfAyohLmFpdG9ocyRmeRLXNIOXSPrrBL1ZrnbZjw0OkZxNmG0HpZnkPprptt5qKANp3ZyUm/CZ8QIa4HLIlj8iWEjlGwlrdYO1QFnNDeGXMup6RzrxCdbJghDKwNGuefgzOvzrC8mMvDW5axBOSAjjJOVZrNhuwXfOS1VrI5OVjTxHrtO0K1VOCbvCTvW9TDrOyPuoDH9pT+9XGTD16j8db5f6IB/uXWbNduW3VH5soCi9NcKs5j3Uf8Aw6o/NlOY91G3mfUfmygKT00VZzHuvJb6j2BXHMe6n/4fUfmygKTahKrOY91875/YFcizXY8Vvn9gUBRIOsq3mLdvO+f2JTmLds/sfN7FAUK5VbzEu5/+Hz+xXPMK7+d83sUBQ+uiruYV3875u0ueYV4875j6yAoFxybVcBYrx53y9pOYN4875u0gKBFXiw3jj5ny9pOYN4875dvWCAt655FX8wLx53y9oLnmBeT/APD5fcQFv4tq4VwFgvH8Al9xPofvH8Al9xAUCK4fQ/ef4BJ7ifQ/ef4BJ7nxoC38aK4fQ/ef4BJ2x8afQ/eDsFvk7YQFv5U9dXDmBeeWgk7Y+NPofvP8Bf2x8aAt/GnrK4HD955KCTtj41z9D954uAP7Y+NAW0+muVcDh+85fWD+2PjXP0P3gDbQv7Y+NAW7YiuP0PXn+Av7Y+NPoevP8Af2x8aAtvGdi5zVxOHb1n9Yv9kPjT6Hb1/AH+yHxoC3FccSuf0OXvkoHeyHxp9Dd6/gD/ZN+NAW1cDrK6fQzezxUDvZN+NfQwvfP4CfZt+NAWlc8iuwwrfT/sX/AI2/GvoYSvp/2MfnG/GgLMudiyGDA95lPPmGMdd+Z9wK4R4MttC0SXa6MAG0jWDB7u1AYhFDLM8RQxue92wNaMyVldkwfqgVt5LWRs54xk7B98f+SutHW2GiY+OyURqjHq75I0COKPNwaDJK/INGZAzJyzIVquGLaV8by9vDZyz6hGwFlLTuIaQ9wcNaZwzeNUhrQ5oOcjSWkC53y/MoqGMxxlkEoPB4jm11SAS3WIG1sQIIz2FxBaOJxbgdXV1NdUPqquUySvyzcdmwDIAAbAAAAANgAAGxKqrq66bhFbVTVEuqxmvK8vdqtaGtGZ25BoAA5AAF1IAiIgCIiAIiIAiIgCIiAIiICsdd7hJC6Gao34FkcYdMxsj42MBDWse4FzAAcsmkDYOkMr1TYupY6aQPorjFUmQmPg1yyp2MyGTd7ljkcTnnt3ziIGWzM4yiAy614sp5RNzZvFfSaurvIgt8VVr8etrEyRauWzLIHPM8WW2pkxXaR+9X25P++s0Tf/ySsIRAZZLiqE7WXms9LmZGP+sV0nFLstl3qva+P9osZRAZEcTz57LvU/oUfy1x9E9R57VH6HH8tY8iAyD6Jqjz1qP0Nny19DE0x8deKoelRR/LWOogMj+iQ8t7rf0CP9ovoYjYfHX2vHpW+I/9VY0iAyb6IKY8eIbn7Wxftl9C/UZ8diS6j0rZEf8ArLF0QGVc3bf6J7x7VRft19Nvtr+2xTeR6VohP/5CxNEBl3Nyz8uLL37TQ/OV9tvtk4nYtvo/7kgP/wCSsORAZnzcw/y4wv8A7RwfOl9NvWGftsZYiHpWGn+drCkQGbc2MLHjxpiX2hp/na+hd8I/bY2xR61gp/niwdEBnPNbBvo3xT7QU/zxOa2DvRvin2gp/niwZEBm5u2EftcbYn9ew0/zxfPNfCvo0xL7Q0/ztYUiAzbmxhYcWNMSe0NP87Xyb1hseNxjiE+nYaf50sLRAZpzdw/ll9F9+9oaf50uObth5MXX0+nYqf50sMRAZib/AGbkxXevaSD5yvnm9aPRXevaWD5wsQRAZab7aeTFV59poPnC+DfbdyYpvHtRD+3WKogMp5u2/kxRePaqH9uvk32i5MT3c+na4f2yxhEBk3N2m5MS3X2si/bLkX2k4jie7j0rZD+2WMIgMpF9oR/803j2qh/br7GIaIf/ADTd/aiD9usTRAZb9EFAePFV4HpWeD9uuRf7by4vvntNB84WIogMv5vWonbjG/AdazQfOF0XO+0TKVrrViq+1dQZAHxz0EVMwMyOZD2zSEnPLZqgbTt2ZHF0QGQ0mIbWSObMF/q28ohvDYc+3A9WrmkGugkhoKSOWEkmQsMu+55Za7ZC5pyy5AOM557MqNEBV193uVyDY6yre+KOSSWKBuTIYXPIL97jbkyMHIbGgDYBlsCpERAEREAREQBERAEREAREQBERAEREAREQBERAEREAREQBERAEREAREQBERAEREAREQBERAEREAREQBERAEREAREQBERAEREAREQBERAEREAREQBERAEREAREQBERAEREB/9k=;" vertex="1" parent="1">
          <mxGeometry x="-817" y="-145" width="482" height="989" as="geometry" />
        </mxCell>
        <mxCell id="ommIhU-HipebcXFa5YUA-19" value="" style="shape=image;aspect=fixed;image=data:image/jpg,/9j/4AAQSkZJRgABAQAAAQABAAD/4gHYSUNDX1BST0ZJTEUAAQEAAAHIAAAAAAQwAABtbnRyUkdCIFhZWiAH4AABAAEAAAAAAABhY3NwAAAAAAAAAAAAAAAAAAAAAAAAAAAAAAAAAAAAAQAA9tYAAQAAAADTLQAAAAAAAAAAAAAAAAAAAAAAAAAAAAAAAAAAAAAAAAAAAAAAAAAAAAAAAAAAAAAAAAAAAAlkZXNjAAAA8AAAACRyWFlaAAABFAAAABRnWFlaAAABKAAAABRiWFlaAAABPAAAABR3dHB0AAABUAAAABRyVFJDAAABZAAAAChnVFJDAAABZAAAAChiVFJDAAABZAAAAChjcHJ0AAABjAAAADxtbHVjAAAAAAAAAAEAAAAMZW5VUwAAAAgAAAAcAHMAUgBHAEJYWVogAAAAAAAAb6IAADj1AAADkFhZWiAAAAAAAABimQAAt4UAABjaWFlaIAAAAAAAACSgAAAPhAAAts9YWVogAAAAAAAA9tYAAQAAAADTLXBhcmEAAAAAAAQAAAACZmYAAPKnAAANWQAAE9AAAApbAAAAAAAAAABtbHVjAAAAAAAAAAEAAAAMZW5VUwAAACAAAAAcAEcAbwBvAGcAbABlACAASQBuAGMALgAgADIAMAAxADb/2wBDAAMCAgICAgMCAgIDAwMDBAYEBAQEBAgGBgUGCQgKCgkICQkKDA8MCgsOCwkJDRENDg8QEBEQCgwSExIQEw8QEBD/2wBDAQMDAwQDBAgEBAgQCwkLEBAQEBAQEBAQEBAQEBAQEBAQEBAQEBAQEBAQEBAQEBAQEBAQEBAQEBAQEBAQEBAQEBD/wAARCAPlAdUDASIAAhEBAxEB/8QAHgABAAEEAwEBAAAAAAAAAAAAAAcEBQYIAQMJAgr/xABxEAAABQMAAwQLGQoGDwgDAQAAAQIDBAUGEQcSIQgTMUEUFRYiOFF1kZW10QkXGDI2N1JTVFVXYXF0dneBkpOxsrO009QZIzRWZXKUltLwMzVCRXOhJCYnKERYYmNkhaLBwsThJUNIgoOGo6SEw+Ol/8QAHAEBAQEAAgMBAAAAAAAAAAAAAAECAwUEBggH/8QARxEAAgECBAIFCAcFBwQCAwAAAAECAxEEEiExBVEGEzJBYQcWIlJxkZPSFRdTVIGSsRQ2stPwIzM1c6HC0UJicsFDlILh8f/aAAwDAQACEQMRAD8A8qgAAAAAAAAAAAF/olgXlcTKZVJt6W7HcaU82+4kmmnEpXqK1HFmSVmSslhJmew9mw8TDY+450h3Q+TzsaVKhE63qrpsVxTb6MnrkT7qUIbPGCIzJW09pbMGBr+A3Yg955Vg3mZb8Z9hDa0rVFn1qKonCI8mlRsFkiPgPBkfSMjF9c3BLav5ktRn0uaCX/1FsyXRoUA3v8AKgzzyHaxekVwSv2R9J3AbZHlUK1j9W4JX7IWZbo0OAb7FuBY3HT7U/WGX+yPpG4FhmfPQbTL1bgmf7khZi6NBwG/5bgalEXPQ7O924J37I4VuC6On/ArLP/3DP/ZCzJc0BAb++AOonHDsov8A3FP/AGR8eAUohGZcrbJPpHzST+4FmLo0FAb+J3ClCPhptkfrHP7g+07hKgHwwLI/WKodwLMXRoAA9Ai3B1vn/gdkfrDUO4PtO4Mt3gOHY/6wVHuBZi559APQktwTbh/4FY36wVIfXgBre8w2P2fqQWYueegD0MLcC2/n8Asjs/Uh9FuBbfP+bbHP/X9SCzF0eeID0P8AACW/xUqx+z9TDwAdA86rI7PVLuhZi6PPAB6IluA6AXDSLJP/AF9Uu6OS3Alv+clk9nqn3QsxdHnaA9E/AB2/5yWV2eqX7Qs1Z7zmiVSUmRBq9DpDaWyQbEOsvKQo8meuZvMuKztIthkWwtmcmazF0aCgN6/uaq/xzh9l0/ZRx9zVc/HGGf8ArdP2ULMXRoqA3q+5qvcV3xOy6fsw4+5qyPxti9l0fZgsxdGiwDeg+81pHFdkXsuj7MPn7mxO4rkjn/rhv7OFmW5oyA3kPvNmocVwsn/rhr7OOPubVR4q832YZ+oCzJdGjgDeL7m3VOKsJP8A1yx9SPn7m7VfPcuzMf6kLMt0aPgN4C7zcqp/zt//ALMf6ocF3m9VzPB1JReny5jfVBZkujSABu+feb1ZI8FOcP8A11F+rHB95wVkv8Md7NRfqwsy3NIQG7pd5w1guGU+fqVqJ9WOfucVX4n5J/67ifVhZkujSEBu+XecVX43ZXZyH9WPpvvOGqrVqqXLSXkjrsPH9TeQsxdGjwDelXeblRQnWS3UJJ+RauGCk/8AbaIhHNx956abqND36DBemvksiU2mOlxJIweVEqO48ZnnGzV4z27MGsxdGrgCQ7o0BaUrTkyo8623JHImprcjnlxWtgsJZXqvGZGrB/e9mDPgLIwCVFkwpLsKbHdjyI61NOtOoNC21pPCkqSe0jIyMjI+AQp1gAAAAAAAAAAAAAAACspVFq1ckKi0enSJjqEktZNINRNoNSU66z4Ep1lJLWPBEai27QB80ul1Ct1BilUuMqRKkr1G20mRZPhMzM9hERZMzMyIiIzMyIhsJo03PVDSaKjds6O/vLqjW+o1HEIkqI0722ZJU6rnTzr4RhZpNOU5PpsOzqFa8Zb7e15TCDnSXXSNJaqU65JVqp1WtcjPGMnzpGZ4IVLc679MM52jWXIOl25DVvUysvIMkn/kNJLwx44El0yyZFgxUiMk6o6edDOhqO3BtS2mKzVY6Eoadkkl3e9UiJJITjUbwRYLVSR42ZMY/UdPO650nffbdpcmiU93ah1xKYqTTxGlbpkZl+aZijUehvQJGTI3lM2uKTrFJkEUie6rySEnzrJcO0semZmIuu/dM3vXXXG6ClqkR1GeF4J58y9NSiwXuF7o1tuQkN/R3p/rpHJuzTQiOk9qklNfdNPWSSf9oWiVovgRMlWt0k2y4XCkzIjL30gj/qEC1W5Lhrrhu1mtzpqjPP3+QpZF6hGeCFtEuik/KsixUHqq3Tasl5FBmX9T4cxlg8HgnXfglfXCAQC65An3mNsH/Gdd+CV9eODs2wD4d024f/pK+uEBgF/AE9HZej8//Eyv4FX1w+FWTo/MsluljM/TZV9cIIALrkUnI7HsQz27pFB/+mv60ccwthmfRHtfBK+tEHAF1yBOJ2JYvFuj2fg1fWhzCWN/jIM/Bq+tEHAF1yITlzCWPxbpJn4NX1wcwdk8W6SZ94r64QaAZvAE5lYdl8W6TY94r64fRWHZ3+Mqx71X1wgoAzLkCdisSz+LdLMdZX1w+ysa0eLdLsf1/XCBgC65AnrmHtPGzdMsdc/rhzzDWr/jOMdc/rhAgBdcgT5zEWsX/idY65/XDkrLtb/GeZ/r+uEBAF1yBP5WVbH+NAz74/rh9Jsq287N1Cz7/wD/ALjX4AuuQNg+Ym3P8aJn4T/+4+isq3S4N1GyX/q//wBxr0AXXIGwxWZbxf8Aila+E/8A7j6KzqAW0t1M2X/q/wD9xruAZlyBsTzHUDO3dTt/Cl9ePorPoPFuqEfCl9eNdADMuQNjeZCiZ2bqtPwxfXj7TadFL/xWl8MX141vAMy5A2VTbNKSWE7rAy//ACC+0Ds5m6djZutFfpJfaBrMAZlyBs2m3ISdpbrZZepKT9oHYm34h8G63d/S0/aBrAAZlyBtDzOxT/8AFw7+lo+0D65nInFutXv0tH2gauAF1yBtGduQS2Hus3lerKb+0D6TbkAiyndZvJM+lJb+0DVoAzLkDagrcicHgtH9n+lN/aB9lbcPwxbreQX/AOU19oGqgBmXIG3EKi1ZpRHRd17J3zOwiebV8UgZZTalupLfQUy0tOFOr7aNpImKWRr9ItYnEdcyGjYqYVSqNNdJ+nT5EVxO0lsuqQovdIwzIWN9l7sa/aAhmg7o3RTFqFOWeoUtTCHms9NDidZBK9TVMvSFzn6Ntz1ug6eqp6O5lPTUHGkkdJq5mZ6iVa5NsySPfmi1jPgWoj1jIzSRmNOLc3QN/wBIjqpdaks3HS3U6j0OqNk6S08Za588f/myXpC0z7up1ErbFy6NZE6jE6rfHac4s1FGcLiQsvDIPizhRbfSFuhYyjSludrnsirPw6TTp7ymDZQumvp3ycSlZI1IJtOq82aiIyUjbhewlElSxEA29s/dDwdK9vIta/WkuVOI2fIsrZv7R8Ztq/lJPZlB7D4yyRKEPX5o5Yqjzkm1oTLdQjpJK4cVskoloIsEppJbCcwXhS8P/SfwmWuRURGAAIAAAAAAAACX7UoSrWpbUJMZDlaqZpU6aW1JdaSok6sc9bBkZGR62CTz2c6xIQoYVo8t6LWam/OqRuph0tpMk8ME4267rFqNLM8pIjIlqwZHrE2pJFt1ikFydNhU6RWYjKnarPeTTKW0ksmchzYZl6aUmRFnh1gBeINGl6Q6wqyYMtxm36UpDlensng33eKO2fuGRZ4MKMy2YO66UdLNP0fU9uybGix48qO3vaENJy3CQfGZfynD4dueHKs523G5pcHQRo3aotPW29Ujyk3OHkiasvvjp9NKcYL0kpLjGrsmTImSHZct5bzzyzcccWeVKUZ5MzPpjb9FW7zK1PqbNmVGU7OnyXZEh5RrcddUalLPpmZjoABg0AAAAAAAAB9NoU4tLaCypRkkvVMSDS7Ea5GLFOkVCRvZurS0g1aqC4VGXARF0zGoxc3aKI2luR4Ayq57WZgRE1SASiZUfPJ4i249wyPiGKiNNOzLuAABAAAAAAAAAAHJEZngiyZgDgBkTNmS3C++SUIUWNYsGeD/AN/7+kO7mEmGWSmsHszjJ9wCXMXAZRzCT8ZKUwewj8Mfc/fI4Kxpx7OS2OI+E+DrAW5jADJuYafkv7JY2kR8J9wccxM7zQzwEfHs/qAXMaAZIdlTi27+1j1D7gcxc7B/f2tnDsPZ/UBLmNgMjVZU8s5ea2er6g5OyJ5GZE+0ePT4gFzGwGRnZNQI8G81n1RR1C2pkCOqQpaFEgtYyIy4OmX78HugW5aAAAAAAAAAAAAAAAAAAAAAAAAAAAAAAAAAdsWVIhSG5cR5bTzSiUhaTwZGJYolzPVyIivMKJMqKaUTmSPYRnwOEXkVcfSMREMktyVNtSbArzzW+02cSmHjTtS4jOHGz6Si4ceofAYAu2kq0oUFuPddAjNsU2YaWX2idL71JPXPnUYIyQaUnsI1ESkq8KRoSMDE7x4UaS3UrOmyTODUWsNulk9h4W25qpUnWwZIXq5IjNBEfGIPnwpNMnSKbNQSJER1bDqSWSiStJmSi1kmZHtI9pGZADoAAAAAAASVZETkGz3JKo5IcqMrJOk5nfGkbEkac4LCkulwEZ658JYEpaNKGmraR6ep5BLh2ZSSqC8ls5OkeEI/TSR5L+jGEMNplUi3osOO2yT8NlOq2gkkazQ2nWwXGpWsoz4zMzPaYmbROww1bd33QRap1evPNJV02I6CSj3MrWNQV2SWiIB0+3Q7X75dp6XDOPSU7wks7N8Vzyz9XgL/AMojQVlYqDlWq02qOmZrmSHHzz/lKM/94oxG7u4WgAAEKAAAAAAAH204bTqHU8KFEovcEt29dDLsXf4kl5KnWd4eSy/va9XaZkfDkjyeSMRCOSUadqTMvUG6dSVKWaO5JRUlZmfXtXoCKUVGiGlTjqzcWSVa29+F2GfqILrmMAABJSc3dhKysgAAMlAAAAAAAAPpC1NrStJ4UkyMj9MfIADMIN5Q2my5IZcSZFtJCSMuEhVJvilpwRtvqwWP4Mi4/V/f1dowUAJYztN70gsEbckyLZ4ThL337/1gV60YjTzkrnf8nhL3wwQAFjOyvOilq/hHO7PCcJbPTDmyouC2yed2eF4S64wQAFjO03jRixlyQeCx4QcleFIIyPfnODB/eulj0v34BgYALGepvGj7NZ5w8Fg/vXSMv3/qHKbxopEkjdXzpY/gj24MhgIALGfFeNEwkjUszTszvZ8H77RZ63ccKVG3iGS1KMjTkywREZGXHw7DP9+DGQAWAAAFAAAAAAAAAAAAAAAAAAAAAAAAAAAAAAJK0SMQ7ohVmwang2pjPJcVR8LLyed1k+ntT7iTLjEajMNEk5UDSFSFkrBPOqYV6ZLQZF/WZCrcGV0KXJVQqbIkkZS6RIcpcgulqHlsusai/wDKMe0uUJqDVYdehx97jVZpWuojQSVSWzLfNVKcGRai2VGas6ylqPJ7SLKZLXI1z3xSsYS3NZqKC6SlKMj/AKnv6iFv0lxo0uyafVHHXeSIk1EZpBKLUNDjazcMyxnOWG8beAz2HsxGFsRUAAAAAAA2OuNeb9iLVwuTEPGf50hZiRbYjnTdztBkp2LkM1WWZ+mcp8i/qSQja4jI7yphkWDNTBn8MoS0pomdztQ0J46JNX7pvvmfxjdPckjR0AAYKAAAAAAAAAAAAAAAAAAAAAAAAAAAAAAAAAAAAAAAAAAAAAAAAAAAAAAAAAAAAAAAAAAAAAAAAAAAAAAAAAAAAAAAABfLGcNq86GsuKoR/lkLGLzZnivonVGP84kECTq+erpRvBguBynsr90uRzFhv1xSrIhIzs5YbfcS53Re7h8dq7OpiPkxxj9855iopHxVL/hcFe4RHIAAgAAAA2KuPZelNL02PnliXpHQ8UHqDK+eeERXGX9utN/OY+eUJefLO52oB/kGX88+N09ySNGAATbuXdy7c+6RueQyzMOkWxSDSdVqpo1zSasmhhlBmWu6rB/5KE5UraaELwUhIB7J2FuONzlYFLKnw9GFJrTpoQT8yvMJqLzykljXPfSNDZnxk2lCTPiGIbpDQNosp9p0x+2ND9owX11AiW5DoEZpSkb0s8GaGyyWcbBqKzOx2HC8A+KYyng4yUXN2u9keTYDdHvtbOzjmOt7Jf6Ex3B2I0XWm48UZFk0BTpq1SbKAwas9LGrwjm/Z3zP0D6scT95h7maVAPRfQtoh0cy7qnQ67o7taWTUFR7xJpMdzUXviCzqqQeDwZl7omjvjdCnoP2R+r8T6scUoZXY9X4r0Yq8LxDw8qilondJ955AAPX/vjdCnoP2R+r8T6sO+N0Keg/ZH6vxPqxmx1v0TP1keQAD1/743Qp6D9kfq/E+rDvjdCnoP2R+r8T6sLD6Jn6yPIAB6/98boU9B+yP1fifVh3xuhT0H7I/V+J9WFh9Ez9ZHkAA9f++N0Keg/ZH6vxPqw743Qp6D9kfq/E+rCw+iZ+sjyAAev/AHxuhT0H7I/V+J9WHfG6FPQfsj9X4n1YWH0TP1keQAD1/wC+N0Keg/ZH6vxPqw743Qp6D9kfq/E+rCw+iZ+sjyAAev8A3xuhT0H7I/V+J9WHfG6FPQfsj9X4n1YWH0TP1keQOAwY9fu+N0Keg/ZH6vxPqw747Qp6D9k/q/E+rCw+iZ+sjyBwYYMev3fHaFPQfsn9X4n1Yd8doU9B+yf1fifVhYfRM/WR5A4DBj1+747Qp6D9k/q/E+rDvjtCnoP2T+r8T6sLD6Jn6yPIHBjgev8A3x2hT0H7J/V+J9WHfHaFPQfsn9X4n1YWH0TP1keQAD1/743Qp6D9kfq/E+rDvjdCnoP2R+r8T6sLD6Jn6yPIAB6/98boU9B+yP1fifVh3xuhT0H7I/V+J9WFh9Ez9ZHkAA9f++N0Keg/ZH6vxPqw743Qp6D9kfq/E+rCw+iZ+sjyAAev/fG6FPQfsj9X4n1Yd8boU9B+yP1fifVhYfRM/WR5AAPX/vjdCnoP2R+r8T6sO+N0Keg/ZH6vxPqwsPomfrI8gAHr/wB8boU9B+yP1fifViqp2550TViSmHStB9ozH1cDbFtRVq6xNhYPhU1q5I8dgHtJVNyHaFGi8m1Hc7Wu2xjJrTbcRwkl01aqD1fdwMa743Qp6D1kfq/E+rCxmPDHNXjNM8gAHrPeOgPRdMtaqM27obtJVQKMtbXI1Aik4nV2mojJGSwRGZnxERjWHmDsf8TKF2OZ/ZHJCk5rc9l4L0Gr8apSqU60Y5XazT95psA3J5g7H/Eyhdjmf2RleirRvo7qOkW34NQsK3JUZ6chDrL1LYWhaekpJpwZeqNOg0r3OzxXk0xeFoTruvFqKb2fcrmhYD26XueNATiTSrQhYJEfkbbhkfXJsay7obvOW0KxRpdy6Bm3KNW4zRulQnpKnIc4yMzNLa3VGplwyM8ZUbZmSU4bIzWXAfmZ5vi82Ztu+iF+UI/ziRan40mHIdiTGHGH2FqbdadSaVtrSeDSoj2kZGRkZGLtZXiwoefPCP8AOJBAkq4fHbuvqYj5DAx++fEXF6pf8CxkFw+O3dfUxHyGBj98eIuN1R/4FivcEcgACAAAADYq4VGq8qYeNn9jn/8AKoS8/wBDrQD/ACDL+efEO1pWvdFHWX8pMY//AJFCYXzPwO1A6XKGX88+Nw3JI0aMeye45sKl6P8Ac42VEpyEG7Wqc1XpjxNkhTz8tBPZVjhNKFNtEfGlpI8bD4x7d7nrxgtGnsPo30JoYKTHT57z9oVaCpDKWo5MKTqtJJRmbu01KIsn0tpjCdId+Vqx7Gl3q5cFQQxRG1R4UJMhZNSZj7S2mEKTnCkNmo3TTwfeiF6ZmyGIsiG0sialEknSxw6p5L+sQjutKjLVo6otK3zEZFZN7UIsZWbKyyZ8ewtg3TV5JHfdGMNDGcXoUKnZlLX2Wd1+OxBNlXwVtXLRapblFit1TVKPMk1BtuaTjy3zPf2kOI1WVEg0p/lHsM889gpHdqM23tKOny56Gs41WpKqoqBJbT98iqdrDTK3Gz/kKJp1wiUW0s5LAhSTcdRlN0htaIqOUjW8xVNR0IUZb6p3LhkWXFayz2qyeMFwELzS9KV30i9KrfcaVFXUa45KXUm34rbsaWmQo1PNuMqI0KQozzqmWzZ0h5rjc+hcXw6VaTqQirtWab3tNSSbts0muSva1icbeqdQuKoWZdddcN+s1WzXuTpSy++yTZqbrDTjh8KlG022RqPaeMmMyEP6L74uC/tIcur3A9HNcejJhxmI0dEePGYbcbJDTTSCJKElt2EXGYmAeLUVpH5b0koSw2N6uSSdlotldtpLbRJ2Wi2AAAwdCcpSpaiQksmo8F6o7ExJCpPIaWjN7WNOrkuEfMcyS+2pRkREtJmZ+qLw1KjclonKeQTqnUtK28RK2r9TVwXXEPHrVJU+yr6f6lkMjIzI+EgF1jOskhszdaJkjVyQgzLK9p8BcJ7MYwPlEpKXIbe+N72hrWUR4xrc9whcdc9dP61LahClmZJxsI1HkyLYQ4Ffv6XWm3HnEm5vTyTMzLPBsI+vsH27JQ4T7KnEG2TDZoIseGLVzj0/DAXrZXtb+r2LaO9iFIkoNxokapHgzU4lO33TIXCSZqiTDJ1pTXOb0lJllKdbgxwl7oomnmkQTSttDijdzqqMyMixw7DAiqynG8Vrf+uRTKSaFGg8ZSeDweRwLsw/GTBSSEt4JKt9Spwk5UZnjYZGatmMYHBvscgElBNGjetU0m4RHr9PVxkzzxhcnXyvbL32LY2046SzQnJNp11beAs4/wB5D5F335JR5BFIZ3lUcktN6xaxHlOdnDnh9Ucyn4xtETZNb0akb399IzTgyzzuMlsznJhciryv2f60LOAqai8b815WuSkktSUGWMauTxjAphTyItyimwADtYjLfQ6tBkRMo11Z6WcAVtRV2dQAAFPthh6S5vTCDWoyM8ekRZHLTDjxLUgk4bLWUalERF1xUwXWIzLj7jiiWtRISSMGoiI8meD4uD+sdjr6GUS0xZGG3tRaEkrbt4S9zgEPHlVlmcUv67/1LetC0GRLSZGZEos9I9pDgXdMlC30OuPIWo4yEtmbhFqqIiJWTPOqfDwjrflEg5C2lNpcNLacpUSsnxmR42n0zICKtJ6ZS2ALm7IQtBsm6g2yit4LJeHIk/18I5kOtGhZqeZVHPV3ltONZO0uLhLZnOeECqs9LotYC7OOo1i359haDfQbJJMucRnbnHhSxjYYp5b5PxVGtxKlpfMk8GSRji9ICxquT2OluBJdaJ5BNkg84NTqU5x6RnkU4q1vNFDYbNttxREvOTPKdvpGKp5+OcLVaJs297Skkm4WSVsyerjOc52gTrZp6rvLUPomnFNKeJPOIMkqPPAZ5x8Ri6ypEVTWDS2pk1o1CJwjUSS4cJIsls4cjlx5veVplSGXGzkNqJKFEZ73z2dhelxBcz18rJ5SziWNAmkCn2zVXLeqzTLTFUcTvcsyIlId4CStXkT/AKj9UxgSpDHJLBrNnBOGolb6SsJwezYRYLg2GLM44t1ZuOKyo+Ew3El+1QcJqyN0bzu+lWVQX63VFEpKC1WmSURKecPgQnu8RZMahm3Vb2uZZU6nIVNqcg1Ijx0ElCTUfARcBEXGZ+qYV27K9cjECNWZ65DdNZ3hgj4k9M+mfAWekRC4WVpBq1hrffosGAt+QRJU8+ya1knyJHksFxn0wtY4cNhJYWDcdZP3GRS241hqqtjwW0u1JykzSq01SCPOYi1ky10kFzuT4VGXERYHnMN4tJmlytJt64LlTQ6IVTehOoVJ5GVr4WjezPw3DqmZDR0eTQWjZ+q+TyjOFCvUn3uK/FJ3/VWAzDQ9459tdUGxh4zDQ9459tdUGxzS7LPdeL/4fX/8Jfws3lAAHXHykeTXehFhUuyN0bPl0lCGmrpp0evOMttkhLb7i3GXTLHCa1sKdM+NTihAdk+LGh9UY/ziRtJ3p94/lA9h8X6bNGrlk+LGh9UY/wA4kECSri8du6z/ACYn5DAx6+fEZG6o/wDAsZDcXjt3X1MR8lgY7fBmdlxs+eX/AALFe4RHQAAgAAAA2HrZatz0hPSRH+cUJhfL+9zoGOKhTPnnxEFwli66WXSKP86oS8/0OVA6hTPnnxunuSRo0Y/SLuUaPSXdy5odccpcRa12BbylKUwkzMzpzGTM8D83R8Y/SjuTuhY0N+1/b3a5gYKSRykovnRC/R0dwa37uSnUaLo8oKyo8Q81oi51tKf+4d6RDZ0a0bu/xuKB1bL5h0ctD+8R7l5PYqXSbBp+t/tZpJvVF46O37iv+g53ujFwUZr3T/6DqAdrZH2R+z0+X6k2bleJSZN81NHKeKnFJWeTQSv++a6Y2h5T0nzrifAJ7g1g3Jvi8qnUhfzzQ2qHX4n+8Pn/AMocIw45NL1Y/oUnKek+dcT4BPcDlPSfOuJ8AnuCrAcB6PZFJynpPnXE+AT3A5T0nzrifAJ7gqwAWRScp6T51xPgE9wOU9J864nwCe4LpFps+alS4kN11KeE0pyQ5jUuoTFLRGiOOKaPCyItqT9MQw6lNXu1puWrlPSfOuJ8AnuBynpPnXE+AT3BdJlNnQCScyMtrXzq6xcOB8xYMycs0RIzjqi2nqpzj1QGeDjnurcyjdiQ320suwoykJ4CNlPc2jp5T0nzrifAJ7guDkWS0/yM6w4l3ONQ0nrZ9Qdkqm1CEhK5cN1pKuA1JwQETpxslbUtfKek+dcT4BPcDlPSfOuJ8AnuCtSlS1EhCTUpR4IiLJmYqJVMqEJCXJcN1pCuA1JMiA05QTSb1ZauU9J864nwCe4HKek+dcT4BPcF8K3q2ZEZU17B7eAUCkqQo0LLCkngy6RgSE6dTsNMouU9J864nwCe4HKek+dcT4BPcFWApuyKTlPSfOuJ8AnuC50ij0g4tSzSof4L5QnyRekKcXOkfgtT9a/8RCHBiEur/Ffqiw8p6T51xPgE9wOU9J864nwCe4KsBTnsik5T0nzrifAJ7gcp6T51xPgE9wVYALIpOU9J864nwCe4HKek+dcT4BPcFwjxpEt0mYzK3VnwJSWTHezSKlIddYZhuLcYMicSRbUn6fWEMSnCPaaRaOU9J864nwCe4HKek+dcT4BPcF1mU2fAJKpkVbRLMyTrFwj4iwZk5ZoiRnHTIsnqpzgApwcc6atzLbynpPnXE+AT3A5T0nzrifAJ7guDkWS0/wAjOR3Eu5xqGk9bPqDslU2oQkpXLhutJVwGpOCAueF0rrUtfKek+dcT4BPcDlPSfOuJ8AnuC4R4z8t5LEZpTjiuBJcJjvlUipwmt/lQ3Gm841lFsyBHOEZZW1ctHKek+dcT4BPcDlPSfOuJ8AnuC7JpVSVH5LTBfNnGdfUPGOn6gpALGUJdl3KTlPSfOuJ8AnuBynpPnXE+AT3BVgKasik5T0nzrifAJ7gcp6T51xPgE9wVYALIwDTPSqWjRbcakU2KlRQjwZMpIy54vSGkPIcTzKz7whvRpp8ay5PWR/KIaODzsL2WfuHkvhF8OrXX/X/tR1chxPMrPvCEgaAIEFzTTZyFw2FJOqtEZG2RkfCMEEhbn3x67N6qtf7xzz7LPdePwj9E4rT/AOOf8LPSflJRfOiF+jo7gcpKL50Qv0dHcFaA6c+GDxS72iixoe6jtZqJGaYQdgwVGltBJIz5Y1HbgvUGkNk+LKh9UY/ziRvH3tV0U1q+wCD2xqI0csnxY0PqjH+cSCBJVx+O1dmPOxHyGBjt7+IyP1SP5CxkdyF/dauzqYj5EcY5e/iMj9Uz+QsV7gjoAAQAAAAbFXJsu6mF/QfOqEuv9DjQOoU3558RHc5FzYU0vTZ+dUJbfP8AvcKB1Cm/PvjdPckjRs+MfpR3J3QsaG/a/t7tcwPzXHwD9KO5O6FjQ37X9vdrmBgpKo1p3dxGejmgYIz/AO2y+YdGyw1r3dT7zGjqgqZcUgzrREZkf+YdHLQ/vEe5+Ty/nPg7et/tZo/qL8ifWDUX5E+sO/ljO81OdcOWM7zU51x2p9lXnyXv/wD0TNuTkKTfdUM0mRcqF8Jf55obUjVncpSZD991RLzy1kVIWZEo8/8AfNDaYdfif7w+ffKJf6cnf1Y/oAABwHo4AAAGS1F6XGo9GKmrcQlSTUe952ubOHHDtyOa+zIeuRMSA6pt2QhvfNRRkWt0zx6WBaYFdqdNaNiLIIm86xJUklER9Ms8A649WnRpi57bpKkLIyNayIz28Yh1kcLVhJtW0zW8bu+und+Je50+Q7XI8GmMJlcgpNpCXNpLVjnjPP77B1oW+zar7kXLbypmH9TYaS6WzgLOOuMfQ8625vrbq0r4dYlGR9cVUCrz6YaziPYJzw6VESiP3DCxuWDcYKMLO1t++zbd/ffbcyZb5tzaFKksuOvmyeuSU6yzLGw8cJ4zkfOqzyqrGtUHZST5774hSSQrOwtvHkYy/VJ8iYU92Ss30mRpUWzVxxEXEQ7Z9dqdSaJiVII2yPJpSkkkZ9M8cIWOD9gqejqu6/4Svpp+G6KlblaS/T1swUtPJZ/sc22yUa044TLbk8C466pNvzyYefde51ckpOedPhPU4uEY23MltOtvIkOEtn+DPWzq+kQrJtwVWewceRILe1HlRIQSdb1ccIHPUws5OOVLRrX8b+N/etS40WTIgU6TW5MhxWC3mMlazMlLPjIj6XdGOqUpSjUozMzPJmfGYqJFQlSYzENxRb1HI9RJJx7p9MUwHkUaLhKU5bt/6Lb/AJAAAp5AFbAltRmJjbhKM32d7TguPJHt6wogAzOCmrMAAAaAAAAudAmyY1Rjx2HDQiRIZS5jhMiVwZ6W0d89Ex+5ZMSG64hb0g084oy908dLaLSw85GfbkNGRLaWS0mZZ2keSFU1WJzM52otrST7udZWqXHw46Qh4lSjLrHUgldq34+Je5s+S7WmYFLZTLKC2bSUubSUrHPKPPHsHSlbzFprcimptxUsydNGwyLpbPcGPoeebc31t1aF7eeSeD64qqfV59MNfIj2EueGSoiUk/TwYWOGWDcYJQtpbfvte9/ffbcvlYlTIy6PLYTrT1RsKynWUZmRY2dPaY6qk87TqO5TZ76n5kpZOrSZ6xMlw8PTMWoq1UeWBVNT+tIIsEakkZEXSIuAdsy46nPYXHkKaNDmNbDZEfDnhAxHCVIuCsrLV897pbbL/UuMORMYrcV+bS1JUiPzqI7eTNONisEOuaxGnUh2oxHpqTYdJK0Pr1iVnjLrizNT5rEhEpuS4TrZYSozzgult4vSHfPrdRqTZMyXy3sj1tVKSSRn0zxwgbeFqKpGUbLa+/dfu158zIKLImOTyRUXZSZ+9mlppaNRrVxsyRF6oxSQlaH3EOERKSsyPHBnIuKbmrSGCjpl7CTqEvULXIulrYyLWZmZmZnkz4TA5MNQnSnKUkle23hfwVvYcAACnmgAAAYVpp8ay5PWR/KIaODePTT41lyesj+UQ0cHnYXss/cPJd/htb/z/wBqAkLc++PXZvVVr/eI9Ehbn3x67N6qtf7xzz7LPd+P/wCE4r/Ln/Cz00AAHTnwqeK/e1XRTWr7AIPbGojRyyNt5UPqjH+cSN4+9quimtX2AQe2NRGjlk+LGh9UY/ziQQJMuTx2bs6mI+QwMavbxGR+qZ/IWMluQv7rN2dTEfIYGN3v4jI/VP8A4FivcIjoAAQAAAAbF3P4sKd6rPzqhLb/AEN9AP8AIU7598RLc/iwp3pmz86oS0+f97dQTLioc7598bp7kkaNmP0o7k7oWNDftf292uYH5rj4x+lHcndCxob9r+3u1zAwUlUa0bu/xuKB1bL5h0bLjWrd2NuOaOaCTaDUZVsjPBf5h0ctD+8R7n5PHbpPg/8Ay/2s0eAdhsPFsNpXWAo758DSz9wdsfZmZcyatyb4vKp1IX880NqhpfoNu0rCvdFSqcV4oMxhUSQ4lBmbaVGlRKxxkSkln0huTDqEGoxm5kGW0+w6klIcbURpURjr8SnnufgnlHw1WHF/2hr0JRVn3XWjXtO8Bxro8kXXDXR5IuuPHPz6zOQHGujyRdcNdHki64CzOQHGujyRdcNdHki64CzOQHGujyRdcNdHki64CzOQHGujyRdcNdHki64CzOQHGujyRdcNdHki64CzOQHGujyRdcNdHki64CzOQHGujyRdcNdHki64CzOQHGujyRdcNdHki64CzOQHGujyRdcNdHki64CzOQHGujyRdcNdHki64CzOQHGujyRdcNdHki64CzOQHGujyRdcNdHki64CzOQHGujyRdcNdHki64CzOQHGujyRdcNdHki64CzOQHGujyRdcNdHki64CzOQHGujyRdcNdHki64CzOQHGujyRdcNdHki64CzML00+NZcnrI/lENHBtZuitKFDp1sTLJp0tqVVKhqtPobVko7eSUZqxxngiIvTyNUx5+GTUNT968muDr4Xhc51otKcrq/erJX9gEhbn3x67N6qtf7xHokLc++PXZvVVr/AHjmn2We28f/AMJxX+XP+FnpoAAOnPhU8V+9quimtX2AQe2NRGjlk+LGh9UY/wA4kbx97VdFNavsAg9saiNHLI8WVD6ox/nEggSfcHjuXZs/mxHyGBjN9EZWbGz545/+NYya4PHbuzqWj5EcYzfZ5s6Njzx//WoV7hEcgACAAAADYu5tt300/TZ+dUJaf6G2gZ8453z74iW5Nt20w/TY+dUJaf6G2g9RJxf/AGHxunuSRo4fHgfpR3J3QsaG/a/t7tcwPzXHxj9KO5O6FjQ37X9vdrmBgpKogjdl29UKzogVU6ch1a6JPamuk3nJNGSm1K2cRa5GfSLJ8QncdE6FEqUJ+nT46H40ppTLzSyylaFFhSTLpGRmNQlkkpHa8C4pLgvEqHEIq/VyTtzXevxV0eS5Tppf4U774wOdMPhlO++MT3pr3Jl4WZU5NXsOnSa7QHDNxDbCTckxS4TQpBbVkXEpJHs4SLjgF1h9hxbLzK23G1GlaFJMjSZcJGR8BjtoTjNXifaXBuM8N4/hlisBOM4vu0uvCS3T9pycmQrwz7h/+Yx9s1CfGSaY86Q0R7TJDqkkfWMdGqryJ9YNVXkT6w1Y7Zxg1ZpFXy5rHnrM+HV3Q5c1jz1mfDq7opNVXkT6waqvIn1gsjPVUvVXuKvlzWPPWZ8Oruhy5rHnrM+HV3RSaqvIn1g1VeRPrBZDqqXqr3FXy5rHnrM+HV3Q5c1jz1mfDq7opNVXkT6waqvIn1gsh1VL1V7ir5c1jz1mfDq7ocuax56zPh1d0UmqryJ9YNVXkT6wWQ6ql6q9xV8uax56zPh1d0OXNY89Znw6u6KTVV5E+sGqryJ9YLIdVS9Ve4q+XNY89Znw6u6HLmseesz4dXdFJqq8ifWDVV5E+sFkOqpeqvcVfLmseesz4dXdDlzWPPWZ8Oruik1VeRPrBqq8ifWCyHVUvVXuKvlzWPPWZ8Oruhy5rHnrM+HV3RSaqvIn1g1VeRPrBZDqqXqr3FXy5rHnrM+HV3Q5c1jz1mfDq7opNVXkT6waqvIn1gsh1VL1V7ir5c1jz1mfDq7ocuax56zPh1d0UmqryJ9YNVXkT6wWQ6ql6q9xV8uax56zPh1d0OXNY89Znw6u6KTVV5E+sGqryJ9YLIdVS9Ve4q+XNY89Znw6u6HLmseesz4dXdFJqq8ifWDVV5E+sFkOqpeqvcVfLmseesz4dXdDlzWPPWZ8Oruik1VeRPrBqq8ifWCyHVUvVXuKvlzWPPWZ8Oruhy5rHnrM+HV3RSaqvIn1g1VeRPrBZDqqXqr3FXy5rHnrM+HV3Q5c1jz1mfDq7opNVXkT6waqvIn1gsh1VL1V7ir5c1jz1mfDq7ocuax56zPh1d0UmqryJ9YNVXkT6wWQ6ql6q9xV8uax56zPh1d0OXNY89Znw6u6KTVV5E+sGqryJ9YLIdVS9Ve4q+XNY89Znw6u6B1irmWDqswyP/Pq7opNVXkT6waqvIn1gsh1VL1V7gZmZmZnkzHA51VeRPrBqq8ifWFOS6OBMW5OtOdc2mmjSmGDVFomvUZTnEhKUmSPdNxSCx0s9IYbYeiTSDpJlIj2nbcqSyatVcxaDRGa6es4fO7OkWT9Ib9aCtCdI0MWyqA06mZV5+q5UZuMEtRFsQjjJCduOMzMzPpF41eqoxcVufmnlG6ZYLgvC62BpzUsRUi4qKd3FSVnKXKyel93buuSYAAOtPks8V+9quimtX2AQe2NRGjlkeLKh9UY/wA4kbx97VdFNavsAg9saiNHLI8WVD6ox/nEggSfcOzS3dvUxHyY4xi+jzZ0bHnl/wACxk9w+O1dvUxv5McYxfJYs6N6dSP5CxXuER0AAIAAAANi7j23XS/VZ+dUJZkbNzZQeok/6Q+ImuPxVUv1WfnVCWJJ43NdB6iz/pD43T3JI0eMfpR3J3QsaG/a/t7tcwPzXHxj9KO5O6FjQ37X9vdrmBgpKo6Jj6mGdZHhlHgh3ijqXhG/zyGoK8kmSWxwmApZEp59ZqPaeDHS7b9OfWbjzKHFHwqUhJn/AFkLmAueQj6OqLTzM0nzIz8EnuBzM0nzIz8EnuC7AGeRvNLm/eYFQrt0N3TcdRs+2b7tGr16juOM1GlQKlFkTIbiFGlaXmUKNbZpURpMlERkZYPaL7VIFq0SGdRrL8CDFS420b8ne22yW4tKG06ysFlS1JSRcZqIi2mIqsmw7qpdAj2/MtpxioN6Sa7caZpqb1I8B+uTJiFkvJmZux3Ut6pFkt+MlYwY6W7e0vOyZC48OpxG58WLIlNOVBbpNyiqjLikJW4+vOI5yCM0JQg06qSLYlKWeQzS5v3kvQaTbVTYOVTVQZbJOOMm4wTbid8bWaHE5LJZStKkmXCRpMj2kLLe1w6J9GlOYrGke8bXtWBJfKMxKrc+NBZdeNJqJtK3lJSpWqlR6pHnCTPiEZTKFe9ux6FaTFVdp6r0q1do8yMzLJD7Ed+pSJqJzBksjSpMQpCdZBGolPsmeN7MSPpEtS4bguaxZlBlKht0apypEuSlDbhtNKgSGk86vYrK3EFsIz25DPIZpc37y/Uym2vW6dFrFGep8+BNaRIjSoptusvtKLKVoWnKVJMjIyMjwZGKnmZpPmRn4JPcGBSLev8AVpCdqEyo1ByAzNp/K9yLkmziJZSUhLqN/S3tc341ZbUeqtvVyaedxpu0tLjdLmrRVK4c2VBU3U2UvmnkhRzmVOnHeVIPenuRilJaNtDaS3xGTQaEkTPIZpc37yXGKPbkl+RFjHCdeiLS3IbQSFKZUaSUSVkW1JmlSVER8RkfGO7mZpPmRn4JPcGJ6LLaqVArd8SZEGpxqfU6yxIphVCVv7qmEwY7ajJRqUsk76h3BLUaiLpJ1UlIQZ5DNLm/eWnmZpPmRn4JPcDmZpPmRn4JPcF2AM8hmlzfvLTzM0nzIz8EnuBzM0nzIz8EnuC7AGeQzS5v3mF3pWtFujekor2kS67atamOvpiom1qbHgsKeUlSktk48aUmsyQoyTnJkkz4jHbaNQ0b6QKKi5LDuK37kpDq1tIn0iUxMjKWk8KSTrRqSZkewyzsFw0gUuXXLEuOjU9gnpc6kzI0dszItZ1bK0pLJ7CyZkMEu+3L5dgpYozNTS/GtlpmjnElmy1Hq5K2qfSladdOCa8MRp1Uul/KwbPIZpc37yQ027RlmokR46jSeqrDaTwfSPZ6ZDr5S29yXyvxD5KJvft41Ub5veca+rw6udmeDIjufadywZF0NUqhzjKvXZHmPSEVB1BFBKIzl1KW3UrV99aNtTZKQZkrJ6yS1VVuia375gyolRvSPIJ9qlyoWvIeS46SCqDyo6FmS1maijm1kzUo+mozyYZ5DNLm/eXKm3loXrV4y9HlHv8As+ddUDXOXQo1UiO1CPqY198jJUbiNXJZyksZLIyrmZpPmRn4JPcGCSLT0hwrTvHlFWVNVGoSKo7TIptNp1DdfUpC0upMlaxpM8ZUWDUXBgWddqX+lhqnsy66ukLrpuvtLW4laI/IJauoope/qZ38smk3CVrmfOm3tDPIZpc37yTZtHtymxHqhUThRYsdBuPPvkhDbaC4VKUewiLpmOJlJtyntoenchx0OutsIU4lCSU44okIQWeE1KUREXGZkIVumxNJ9bturUqpFctU361IEKioKe2wbc7fpHJXJSUumlazbOKSlLW4SkoUScKNWvKd+LjxK3ZFSqZEmDFrm9rdWrDbL70V9iOajPZzzrqWk9NbqCLaZBnkM0ub953RpujqbckqzYdwUF+vwWUyJVKaksKmMNK8KtbJHrpSfEZkRGLmui2+3KagrRFTIeQtxto0IJS0oNJKMixtItdOfziEW25Z190qLZdDTb8E5VDqMxdaqUuIhw5Rmh0jnsvpdJSHXjVtSaFH99USsEnJ19i0OtUCk6I6Fc0iW/dLFNVKra5cs5LynU08m5ajWaj53kh1kud50jNOMZIM8hmlzfvJI5maT5kZ+CT3A5maT5kZ+CT3BdgDPIZpc37y08zNJ8yM/BJ7gczNJ8yM/BJ7guwBnkM0ub95aeZmk+ZGfgk9wOZmk+ZGfgk9wXYAzyGaXN+8tPMzSfMjPwSe4HMzSfMjPwSe4LsAZ5DNLm/eWnmZpPmRn4JPcDmZpPmRn4JPcF2AM8hmlzfvLTzM0nzIz8EnuBzM0nzIz8EnuC7AGeQzS5v3lp5maT5kZ+CT3A5maT5kZ+CT3BdgDPIZpc37y08zNJ8yM/BJ7gczNJ8yM/BJ7guwBnkM0ub95RIpbTaSQ24pKS2ERbCIGlOxZJR3FmtC/CmfEK0Ucr8Mj+qYsZOWjONq2pWAADjNHiv3tV0U1q+wCD2xqI0csjxZUPqjH+cSN4+9quimtX2AQe2NRGjtj+LOhdUY/wA4kVbgk64vHZu7qY38mOMZvrxHReqJ/IWMnuLx2Lu6mN/JjjF758R0XqifyFg9wiOgABAAAABsXcXippXqs/OqEryceBqoJ/kWofSJAii4TM7opXqs/OqEry8eBpoJ/kWofSJA3T3JM0fMfpR3J3QsaG/a/t7tcwPzXHxj9KO5O6FjQ37X9vdrmBgpKoo6l4Rv88hWCjqXhG/zyG6faRJbFYAAMFQAAAGOxdIVlzrtesWFcMSRXY7SnnobStdTaU4zrGWwjLJbDPO0UcPSzo7qFwla0O6YjtRW+uKhsiVqLeQWVNpcxqKWXGkjyMNm0um0vdJ2+3ToMeKh+26lIdJpskktxchBrWrHCozPJmYxmPfWjW9b3pdm0StUOiWzatbblsta6Wn6nVCWo0IZRwk2TizNSj2rVgi2ZM+RQTPdaPR7C14qpTjUceqU21b0W3Na2i73cVlirPV3klFslWu6UdGlu3CVGr1yU+LVGdRC98Iz5H33whOOEWG9bYZEoyzwjL1LQhBuKWkkJLWNRnsIunkav1ms0W27W0w2LdZkVz3BVJrtMhrbNb9QTIQRQ1MljKyJWMY8KZY2YEsXxb10ztAE+2qel1dcVbyI5tpPK3HCaSTjZHxmoiUn1TBwSscXEOjuHw37OozcVUmouUrZWnGD6yOi9FZn3vZa7l1oemjRdclbbt6iXnAlT31KQy2k1ETyk8JNqMtVZ/mmYzUa6yNI9Br0ew7Y0fJtupvxpUBtVBl0t5cynuNqInXtclpJjek62TUk9pengZTonpjlY0gX5XqnWatIXSLlkRYMZU53kZlBtJ1vvRHqq8N/KIyLGzBhKFtS8T6OUsLRniFmpKMW8s9ZN58q7oWTvvZrR2crWJhAAHGenAAAAAAABRVms0q3aXJrdcnswoENBuPvvK1UNp6ZmLRbOkSzLwRMVb9eYkHTySqUhRKaWylRaxKUlZEZJMtpHjA7b5qtuUS2pNUu2Ecmkx1NrkJ5GOQSCJaTJxSCI9iVYUZ42YzxCIdHtdp1Y0m3jV5FZYveI5b7G/VKnxMMstJWv+wd6TknFmSlL4TM84wQ2o3TZ7Fw3hFPG8PrYqUZ3hs12XrFZeza9pN6zi+zZS1JStvSpo/u6plR7duaNMlqbW60hJKSTyEnhSmzURE4RHwmkzF1ue67csylLrd0ViNTYTaiQbr68Eaj4EkXCoz6RZMQdS7st25tMFjSrVq8Sv02O1LRDpUKIcZdvoUxqm68RellvVVqkWtsIzwMr01Ox6NeGj68rhjrctmi1CUqou72bjcVxxg0MPOERHhKVn4bGwzIxcmqR2Ffo7Qp8RoYW04qcJTyvt3jntBXjH0pZVFXj2npmVm87tHSBZ19tyXLUr0eecNRIkNoylxkz4NZCiJRZweDMtuDGQjXh69Hrnq+kWtW4ug1GmxrZkEi4aVBejvJcys2oqnzcUTqkIIlGpJJ2mWMcAlDQ3SCp2j2h1B2pVCfMq9OiT5b82Ut5SnVsIM9UlGZIT/kpwXu5M5KOU8PjHAqfDqTrpuOsUoPWScoqTu7Rtbxintp3mbgADB6yAAAAAAAAAAAAAAAAAAAAAAAAAAAAAAAAABRyvwyP6pisFHK/DI/qmNw3JLYrAABgp4r97VdFNavsAg9saiNHbH8WdD6ox/nCG8Xe1XRTWr7AIPbGojR2x/FnQuqMf5xIIEn3EX91i7upjXxRxi99Y5jouPPE/kLGUXHs0r3ef5Ma+KOMXvrxHROqJ/JWK9wiOgABAAAABsVcPimpR+mz86oStL6GigHn+Zah9IkCLbmSRXTTEkWwnGi/wDlUJSldDRQeo1R+kyBunuSZpCfGP0o7k7oWNDftf292uYH5rj4x+lHcndCxob9r+3u1zAwUlUUdS8I3+eQrBR1Lwjf55DdPtIktisAAGCoAAAD4NllTpPm0g3Elqks0lrEXSyOgqVTErJxNOiksj1iUTKckfTzgVQAaU5LZnWuOwt1Ly2W1OI8Ks0kak+ofEOwAAl2zrRGjtuqfbYbS4vwyySRKV6p8Y5bZZaNammkINw9ZRpSRax9M+mY+wAOTfeAAAIAAAAAAAHBkRkZGWSMfDLDEZG9x2W2k5zqoSSSz7g7AAt3ax1tx47S1utMNoW4eVqSkiNR+mfGPtSUrSaFpJSVFgyMskZDkAF23c6kRoyGTjojtpaMjI2yQRJwfDs4B9oQhtCW20klKSIkpIsERdIh9AAbb3AAAEAAAAAAAAAAAAAAAAA+VrS2k1rUSUpIzMz4iAH0Ag+movHdASZVbbuuqWtYjEhyNT2qWsmpdVJCjSp9TxkZobMyMkknizx7R9p0WTocJVz6D9LFYcmRVqIodQqZ1Gny3GzMlNOa2VIMzI0mZHs4iLhG8iWjZ7NLgFCg+oxWJUKqsmssnGDe0ZzWz52UktU3o7TaAxPRjfrGkW1Ga5yIqFOZdch1GEs+eiS2z1XGz93aR8ZGQywZas7M6HFYWrgq88PXVpxbTXiv637wAAIeOAAAAFHK/DI/qmKwUcr8Mj+qY3DcktisAAGCniv3tV0U1q+wCD2xqI0dsfxZ0LqjH+cSN4u9quimtX2AQe2NRGjtjeLShdUY/wA4Qq3BJ9x+OreHU1n4o4xe+vEdE6oH8lYyi5PHVu/0qaz8UcYvfXiOidUD+SsGER0AAIAAAANkLm8VVM/pm/nTEoTD/vZ6Ds/meo/SZAi65/FTTSz/AN8j54xKEzPgZ6D1HqP0mQNw3JM0iP0x+lHcndCxob9r+3u1zA/NcfGP0o7k7oWNDftf292uYGCkqijqXhG/zyFYKOpeEb/PIbp9pElsVgAAwVAYtpSu2ZYWji5b0p8RmVJolMkTmmXjMkOLbQaiSoy24PHEMpFou216VetsVS0a4l1VPrEVyHKJpw0LNtaTSrVUW0jwfCAMYlaQqta06tU+76W3LVTaazVYzlKLV5IbW4ppTZpeWSW1JWlJ6y1kjVXk1JJKjLDpe6aos+HTptqwnHTqNv16sIYkoaWTbtLmQorzS3mXlNmZLmlg298QsiNROERFr53K0TWtUI85FVeqU+XUFxHHZ0iWapCTiu77HJB+FSlDmVEkk4MzPJHkxblaBdH7jyJMhqpPyEQ6vB352ata1NVKTGkS8mfCanYbBkf8kiMiwRgC50vSnb1Vr8a1o8Seirvz6jCdhOE0TsZELV3yQ6RLPDKidimg05UZS2DNKdZWri1/6aqjYUyoRplKgupgVqGlxRurQTVDVGJ+VNWZlgjaJqVx6p72jaRqwMtoNjpp1/XFfstEcpVYajRGUtLWrUZaIyNZ62CJa/vZK1S2ky2RmeqWO6r6N7Sr1yvXXVoC5M1+iv0BxK3lGyuG8olOJNvOrrHqkWtjOMlwGYAw+dp+pFuRY9TuujSo1PqNZlwIkpt2OhtqMzIOOmQ5vzyFOa60KWlDCXF6iknqcJimqO6Po9swrvqV7WtPoca3LjK3ICpVQpzRVh9UZD6d6W5JS20ZpUpX39bZapFtzrJTfpOgmwn6TEorbdRjxYtIaoZkzMUlT8NtRqQhxXCrnlKMz2Go1HnPALu/oztp6XUZ7ap0eTUqm3WVOsyVEbE1EdMffms51DU0kkKLwplnJbTyBbrT0yW5fM2kxrSplTqceq09FTOcwcc40VhS3m8uL33nj3xhaMNEvJmRllOVFnostItKlUaonVmHJb0xUFmnLfkyFOrW02txadY1cKtZ1ZmfpkXEL0AAAAAAAACOq3f1cty+ZtKrUyhxLep1CeuGXMcZd3xmM07qrI+fxkkkas44uAUFw6cplIobs+Fonu6VU2p1OYOkunAjyFRZcneW5aVOSSa1DURlqGsnUqNJLQgjNRZtV7ItqvVCZUaxTky1T6S7RJLTpmbTsNxWsttSOA85Mj9LYLWnRXbZwZkORMrEpyYmIg5UmoOOyGkxXSdjkhajPGo4Wtnaaj2qNQAsF56eaHa1Wr9rlTJJVel0WbVIapD0cmJrkeOp5TSW0unISRJTk1qaS2e0krM9gyC678XaUW2qxPislSapMTFqcpTmqUBK4zq2ndp7SN5DTWOHLyekYo6joVsmqSpsiWmob3PXOddjolqSzvkxhbEhZJL+UpDitpnsM9mBfrtsa3L3tGTY9xxFSaTLbabdaJZpMybWlaOeLaRkpCT9wAR3Y+nKvV+36XVrks1VJnLp9QqVWpSXCXKhoa3lTLREaiQbikyW9YzVqEZKweNoqqLugIdzyLUVbVkVmdDuCXOhT30TKcpNGcjJSazeUiUaHU4VnMdT2xJ4yeCPJ6homsypVO46vIiSSkXQzFZnmiSok5j43taE8CF863rGRc8TTZHkkkPuBovtynrjPsyKkuRHqL1T392Wpa3HXUEh1K87DQpJERoxgsFjGCAGE23ur9FF3xqlItiTIqqoLbEhhmFIhyHp0d59phDzaG31G2W+PNlqP704Wc6gzm57zqNEtSl1pu3ZTFSq82mQEU6Wpo3Ijst9tpW/G04ps95JxSl724oj3sySpWSM+mnaKrZplITQI8mrLpjKYjcWI9UHHGorcZ5LrKGkqM8ESkJLJ5PVSSc4IiF1vK1mbupDVNclORnYs+HUozyDPKH40hD7ecGWUmpskqLjSpRcYAwyr6eadSJU9k9H13S2YCppFKYahb0+UNw0S1I15KVETZFrnrpSa0nhslqI0lk1n3mu7Kpc8NllpEeiz48WK8WTN5t2DHkktRHwHmQZYLiIhzJ0b2vMYejyGH1NvlUkuFvxlkp6syODpmezpD4pWjmlUGqyKtRKnVYipbjDsiOmQRsPLaYbYQakmkz/AINlsjwZZxnhMAd+jq7yvi1GK4tptuS3KmU2a23nURLiSXYsgk526pOsuYztxgZKLFZFqRbKtqLb8Z0nlIcflSXyRqb/ACn3lvyHtXi13nXF44tYX0AAAAAAAAAUNciPT6JUIMdeo7Jiustq6SlIMiPrmK4ANQm6clNbohbRRFlXtoGodt27dEy2apRkpp05yK2hT8d9hRpcbUlWwtbGt6hkKDc6aKL20ezbkuW8K9KjxqlKeU3THFNahklZ/wBlO6nOpUoiPBIMiwe3OzGV3TofqB3DIvTRjd79pVqaZKnoSwl+FPUXAp1k9mv/AJZbeHj2i2TdFGlK+C5W6TdKDK6EvBSaZQoPIhTEcaHHVGaySrgMi4S6XCObNdPXRn6FLilDEUMTCliqdOjiJZpxlBurF3zOMWotS17Lc1ol2G2c7nUlVCPe12RkKTTLgumbLpysYS6yRknfE+kaiPb6RiXxSUqlU6h02NR6TDbiwobSWWGWywltCSwREQqxxyeZ3PTeL46PEsbUxMFaLei70kklfxslfxAAAydaAAAAFHK/DI/qmKwUcr8Mj+qY3DcktisAAGCniv3tV0U1q+wCD2xqI0esXxaULqjH+cIbw97VdFNavsAg9saiNHrDLN60LqjH+cIVbgk65fHUu/B/zcx8UcYvffiOidUD+SsZRc3jqXf1OY+KOMXvrxHROqJ/JWD3CI6AAEAAAAGyFzF/bXTfTeb2f+soSfL6Geg7f5oqX0qQIwufxWU0uLf2/nlCTpm3cy0HHnRUvpUgbhuSZpIfGP0obk7oWNDftf292uYH5rz4x+lDcndCxob9r+3u1zAwUlUUdS8I3+eQrBR1Lwjf55DdPtIktisAAGCoDonHNTBkKprbK5hNLOOl9RpbU5g9UlmRGZJzjJkRnjiMd4pKrDeqNMlwI096C9IZW03KYxvjCjIyJackZZI9pZLGwDdO2dZtr9+3+mpEVo33e8fSlHsesXnRro32JJfrDEGETHKR5vV1EJVnLiVGpSeeLW50j2cdm79bSUi0j03u1OncyyaouKdATCLfOQkyjjm6T+dbfcpNWMavpDMKToxvebeVBuq/rwptS5mGn2oXINOOO9JN1BIUp9ZrVnYWdVJEnO0WktBFe5D5hXLvjLsE6qdUOnnCPkw0m8bxxje1tXejcMzM9XWxxjmvE/RI4rgXWxdR072hntB2cVKp1ihaEUpyXV5ZKMWrWzZlKUqqtXNpKuu67qp1gXBTqPEsxDCDRJglIOpSVsb8aFKMyNtsiNKcp57JmfSGXW9pCjVbRZG0myYa0Mro51V6O3tUWq0a1oTnh8KZFkWC5tGN4KuGu1mwLwhUVq62Gmas3Jgm+pC2297J9gyWnVXqYLCiMthHwjJDsOJC0YvaN6M/vLBUVyksOuFnV1mTbJaiLh2nkxl5WkdJjavC6uHoQg4709otSSyJVc7sszc9Y6ysr2srIxKLug6XNkRYUSwrsdlVOAVRpTRRWs1Bosa5t5c53Vzk9fVyRbM5LPWelmVcV2aMXbXkusUS7EVRUyO+wgnTUwgiJCjPJpUhZLI9U9uOMXejaL5tLr9lVldVYcRatCepDqCbMjfWtLZEtJ8Rc4ew+mMXRoSvSjw7Idtm5aMipWg9VnNedEdcZeKY6pZFqoWlRaqVGXDwirJ/X4nYU10dcv7O0W1Nek5NXcK0U3dPaSpSTWqcm9laM2ALTbLd0NUlCLwl0yTUtdWu5TmHGWDTnncJWpSs44douw4j0erBU5uCadu9bP2XsAAAOMAAACGN0HpOu616VMpejiTHZqlLhHV6rLdaS6UOKStVCCSojSbjizwRGWxKVn0jFXpdum9KdcNApFu3FUaJDkQJUuZLh0Dlopa0KaJtskap4MyUs+LYkx2aQdz/AEi7IN0O0evVanVS50pOSo5rhxlrSREnXaLwySSWCTxDIK1aV9xEUpdiXsiOunxlxX2KyyuYzKJRkZOKNKkr3xODwecGR4Mhypxsj3nDYvg1GjhVSyuceszZ4buUI2cnlqJpTzKCcWlu0rtu56Oaumu2bTaom6k3HvyFGdSKIUU3jJRkZG0RFvak+FNOCMjLaMFpO6Tt+rx6PLj2TdJR6+l1FNd5FbNMqSjJmwnDmdY9U+ePCP8AK2GYznR1ZhWHa7NBXUVT5Kn35cuUpskb9IecU44oklsSWso8FxEMKtnQpUqDQNHlGdrkZ1dlT3pj60tKIpBLQ4kkpLOwy3wuHpCLLd3PCofQkq2KliHmWd9XvH0ctV3tFJL0lTVrJJPRLupri0yT6lSLUqlrtTKQ5LvNi3qtDnR2zeaxr760oueIj2JPWSecHwiZBDlw6FLkmwHiotw05mcV7Lu6OuTHWtpJGnCWlpSojM88JkZCRrSZvdmG8m+qhRZco3csqpUV1hsm8FsUTi1mas52kZFjASy2Vji4zT4bLDU5YCcVlcrrXNq01rbVLbV3sX0AAcZ6wAAAAAAAAAAAAAAAAAAAAAAAAAAAAAAAAABRyvwyP6pisFHK/DI/qmNw3JLYrAABgp4r97VdFNavsAg9saiNH7C8WtC6ox/nCG8He1XRTWr7AIPbGojSCwfFtQuqMf5whVuCTbl8dW7+pzHxRxi19FizonVE/krGUXMeNKt3dT2Pijj4aolGuGBDpdcKSbCpTrhcjyksKJSSP+UptZYwZ7McJlt6Z7hEKgKusQUUurTaa0+b6Ikl1hLpo1DWSVGklauTxnGcZPHTMBAUgAAA2QufPNhTv6dv55Qk2Z0MtA6kVL6VIEZXPnmyp39M38+oSZL6GSg9Sal9KkDcNySNJj4R+lDcndCxob9r+3u1zA/Nee3I/ShuTuhY0N+1/b3a5gYKSqKOpeEb/PIVgo6l/BoPiJZZG4dpElsVgDgjIyIy4DHIwUAAAAAAAAAAAAAAAAAAAAAAAAAAAAAAAAAAAAAAAAAAAAAAAAAAAAAAAAAAAAAAAAAAAAAAAAAAo5X4ZH9UxWCikmSpzCS2mW0xuG5JbFaAAMFPFfvaroprV9gEHtjURpBYHi3oPVGP8shu/wB7VdFNavsAg9saiNIdH5Zvigl+UGPlkKtwSXc/jq3cX5PY+KOPmIeE0/8Ap3/kj6ufx1rv6nMfFHHXH/g4B/59/wCSD3CIpujHNLVsebn/AJxQDi5/FLVvXz/zigEBbQAABsjc+TvOnF/n2/n1CSpfQx0DqTUvpUgRtc/izp+fNCPn1CSZfQxUDqTUvpUgbhuSRpOfCP0obk7oWNDftf292uYH5rz4R+lDcndCxob9r+3u1zAwUlUfDjaHUG2sskY+wAFEUOU3zrMrCeIjHPI87zWXWFYA3nZMqKPked5rLrByPO81l1hWAGdjKij5Hneay6wcjzvNZdYVgBnYyoo+R53msusHI87zWXWFYAZ2MqKPked5rLrByPO81l1hWAGdjKij5Hneay6wcjzvNZdYVgBnYyoo+R53msusHI87zWXWFYAZ2MqKPked5rLrByPO81l1hWAGdjKij5Hneay6wcjzvNZdYVgBnYyoo+R53msusHI87zWXWFYAZ2MqKPked5rLrByPO81l1hWAGdjKij5Hneay6wcjzvNZdYVgBnYyoo+R53msusHI87zWXWFYAZ2MqKPked5rLrByPO81l1hWAGdjKij5Hneay6wcjzvNZdYVgBnYyoo+R53msusHI87zWXWFYAZ2MqKPked5rLrByPO81l1hWAGdjKij5Hneay6wcjzvNZdYVgBnYyoo+R53msusHI87zWXWFYAZ2MqKPked5rLrByPO81l1hWAGdjKij5Hneay6wcjzvNZdYVgBnYyoo+R53msusOyPEJlRuLWa3FcKjFQAjk3oLIAADJTxX72q6Ka1fYBB7Y1EaQ6PvFzQeqDHyyG73e1XRTWr7AIPbGojSLR6Wb5oPVBj5ZCrcEl3N4693dT2Pijj4j/wUH1w/wDJH3cpZ0sXcX5PY+KOOthX3qF65f8AiMHuERPc/ikq3r5/5xQBc/ilq3r5/wCcUAgLaAAANk7o8WlPL/SUfPqEkSuhit8/yTUvpUgRvdJf26U7HmlHz6hI8o/72G38edNS+lyBunuSZpQfCP0obk7oWNDftf292uYH5r1D9KG5O6FjQ37X9vdrmBgpKopKlL5Djm5rEnpqPgSRbTPrCrFlu7+IZn9A78gxqCvJJmoLNJLmas3Pu3EQK5Kh25Z3J0Nhw20S5E5TansbNYkEg9Us5wRmezpcAtXg6K5+IEXskv8AYGsDn8Ir84x8jtFSgu4+vaPku6K06cYywuZpbuc7vxdpJe5WNofB0Vz8QIvZJf7AeDorn4gReyS/2Bq8AvVQ5HJ9WPRT7ovz1PmNofB0Vz8QIvZJf7AeDorn4gReyS/2Bq8AdVDkPqx6KfdF+ep8xtD4OiufiBF7JL/YDwdFc/ECL2SX+wNXgDqoch9WPRT7ovz1PmNofB0Vz8QIvZJf7AeDorn4gReyS/2Bq8AdVDkPqx6KfdF+ep8xtD4OiufiBF7JL/YDwdFc/ECL2SX+wNXgDqoch9WPRT7ovz1PmNofB0Vz8QIvZJf7AeDorn4gReyS/wBgavAHVQ5D6sein3RfnqfMbQ+Dorn4gReyS/2A8HRXPxAi9kl/sDV4A6qHIfVj0U+6L89T5jaHwdFc/ECL2SX+wHg6K5+IEXskv9gavAHVQ5D6sein3RfnqfMbQ+Dorn4gReyS/wBgPB0Vz8QIvZJf7A1eAOqhyH1Y9FPui/PU+Y2h8HRXPxAi9kl/sB4OiufiBF7JL/YGrwB1UOQ+rHop90X56nzG0Pg6K5+IEXskv9gPB0Vz8QIvZJf7A1eAOqhyH1Y9FPui/PU+Y2h8HRXPxAi9kl/sB4OiufiBF7JL/YGrwB1UOQ+rHop90X56nzG0Pg6K5+IEXskv9gPB0Vz8QIvZJf7A1eAOqhyH1Y9FPui/PU+Y2h8HRXPxAi9kl/sB4OiufiBF7JL/AGBq8AdVDkPqx6KfdF+ep8xtD4OiufiBF7JL/YDwdFc/ECL2SX+wNXgDqoch9WPRT7ovz1PmNofB0Vz8QIvZJf7AeDorn4gReyS/2Bq8AdVDkPqx6KfdF+ep8xtD4OiufiBF7JL/AGA8HRXPxAi9kl/sDV4A6qHIfVj0U+6L89T5jaHwdFc/ECL2SX+wHg6K5+IEXskv9gavAHVQ5D6sein3RfnqfMbQ+Dorn4gReyS/2A8HRXPxAi9kl/sDV4A6qHIfVj0U+6L89T5jaHwdFc/ECL2SX+wHg6K5+IEXskv9gavAHVQ5D6sein3RfnqfMbQ+DnrR7FaP4plxlyyXtL4MbEaFNMFM0s24mt0+O5FW08cWXDcc11R3cEZYVgtZJkZYPBe4ZGQ81huFuE/4nuX1/G+QocValFQbSPRPKN0D4DwbgU8fw+j1dSEo7Sk7pyUWmpNrvvzujbQAAdafO54r97VdFLavsAg9saiNI9Hni6oPVBj5ZDdzvaroprV9gEHtjURpHo68XdAL8oMfLIVbgku5fHZu3qcz8UcU7Z4YhY80v/EKi5fHau7qcz8UcU2slDEHW45L/wAQPcIiu5vFHVfXz/zigC5vFHVfXz/zhgIC2gAADZS6cc2dO9co+fUJGldDBb3UqpfSpAja4lm5d1LXjap9s+u8oSRIx4F+3upVS+lyBuG5JGlJ8I/ShuTuhY0N+1/b3a5gfmvPhH6UNyd0LGhv2v7e7XMDBSVRZbu/iGZ/QO/IMXoWW7v4hmf0DvyDG6faRun24+1fqeUrn8Ir84x8j6c/hFfnGPkdwffi2AALtPtG66VSI1fqlsVaHS5uryNNkQnG47+sWsnUcUkkqyRGZYPaRZEuYnVp02ozkk3orvd+HMtIC40O3LhueYqn21QajVpSUG6piDFW+4SCMiNRpQRnjJlt9MhRSI8iJIciy2HGX2Vm2424k0rQojwaTI9pGR8RhcKrTc3TUlmW6vr7jrAd0OHKqExiBBYW/JkuJZZaQWVLWo8JSRcZmZkQuN12lcVj1x+27qpblPqMYkm4wtSVYJSSUkyUkzSZGRltIzC6vYjr0lVVFyWdptK6u0rJu29ldXfii0AAqafTqhV5rNMpUCRNmSVkhmPHaU444o+AkpSRmZ+kQpySkoJyk7JFMArqzQ63bs9VLuCjzqZNQklKjTI62XUkZZIzQsiMiMuDYKhm0rrkUNy549s1Z2jMmaXKiiE4qMgyMiMjdJOoW0yLh4xLo4niKKhGo5q0rWd1Z32s++/cWkAAU5gAAAAAAAAAAAAAAAAAAAAAAAAAAAAAAAAAAAAAAAAAAAAAAAAAAADcLcJ/xPcvr+N8hQ09G4W4T/ie5fX8b5ChxVuwz838rP7q1/bD+OJtoAAOpPkc8V+9quimtX2AQe2NRGkmjks35QfX7PyiG7fe1XRTWr7AIPbGojSXRx4vKD6/Z+UQq3BJVyeO1d3U5n4o4oXdY48AkkZ/2Q/8Qrrl8di8PSprHxRxZLgq71DthqfHjMPPKlusIU7r/ejWlXPp1VFlRauwlZT0yMHuER5cpGm46qlRYMpr5GX/AKhgKSoT5VVnyanOcJyTMeW+8skJQSlrUalHqpIiLaZ7CIiLiAQHQAAANkLjLVu6lkXE+2X/AM6hJMjoX7d6lVL6XIEcXKX9uVM9co+fUJGkdC9bp/kqpfS5A3DckjSox+lDcndCxob9r+3u1zA/NgZD9J+5O6FjQ37X9vdrmBgpKost3fxDM/oHfkGL0LLd38QzP6B35BjdPtI3T7cfav1PKVz+EV+cY+R9OfwivzjHyO4PvxbAbzzqTAvzc9WposWkiqtUtBurUpZ8BvxEMnqeqonCL1NYaMDYWq6dKBSC0L1S2ag5JlWbA5FrLG8rRhKkMocbI1ERKylLhEZZLJEY4K0XJqx6F044XjOJVMH+xReenKc00tFKNOUoXfcnNKOu97Ejbjm34VmW61c9Wjkmp3pUV02AlZYWliOhxThkR7SLXQrPppT6QhaiUPR1V9Il5OXzFuapvM1KVyFS6HENxySo3V51llnV9IsdPbswck1fdB6PZen21K1T55xrMtmC+00tEVxJE682rXMmyTrcOong4jMWTR7pbsOLQ7+tp+9Z9nT7grDs6FcEOE484pg15JGEYWk8Z4y8Me0jHCs93K256nQpcYpV8VxWpRqKeJhSbUcycE6klluoyleFNRclGObV2tuUWkTQlbNvN6P70tmHcFGp9y1RqDJplVM25sRzfNiiPBGnJJUZcfhTLh2ZI9oVtG590neNkXBUaxLhU63k1FqVLnrekE8SI2FLcVlS0lvitnSIi4ha7/0t6OajZWj63KNd1XrMi3LjRNny6m06ch1onFmp5SlZzk1ZSnJmSTIuIXKLpw0btbom87+XW3ColXtrldEkciu5cf1Ixaupq6xbW17TLGz0wvUt37P9SqfSOeFlK1XPGlXUXllmv11Pq91fNkva+rSe+pjUvRloWvPRPc136MXbhj1G0ibckHUlI1ZKD4T1U51ckSjLBlgywMB3Pnj12d1Ua/3i/aKdINq2xok0kWtWagpmpXDFaap7RMrUTqiJZGRqIsJ4S4TIYhofuGlWppOtu465INiBT56H5DhINZpQWcnhJGZ+4OZKWWUf62Pb6OGx8MFxTBVXOpFZlTcruUlKkm0nb0lnbSts9Cft1tbiL/TAvq1oZyJtMq79p1JhssuE8l094yRcSs7M+WJIZtpAi0e1tzddGjClqQt60adBYnrb8Kcp5aXVl6vPEr/ziPtGm6EsO3dKN/yLjkretiu1FVXpzvIy1nyS25lsyRjKTURkeTIsGghh1O0xUOp6MtKUK4qgtqvXfUW5kSPvS1kotYjMtciwWCLG0y4BwZJ6Ra0Vv6/A9EpcE4x1WFwFSlLqcLOjODs/S6ycG0/8ldYnyTVzIKboN0e2jaluTr6ti+LkqdxRUznDoEY1MQGVkRpJWC2qwZGZce3YPu2tzPbbGner6NrklSpVHTQXKzTX0ub05qG42lBuYLhSZuEZceM7OAVcbTHY9+WhbEat6YLu0f1SgQ0QJjFMKQpmchBERKTvR4JRkRc8rgzjBi3aP9Muj6h6b6zdM247idoJ0B2lQplakPTpTqzcbURZwakJMyWZJ4C4eE8DV6lnuec6nSd0cU81XrclS6yztmzrJ1bso7bKnmuu1qiia0YaEL70a3TWtGsm4mqvaMZMl16omgm5aCIzM9Qs6pKJKscBkeOEYlpG0c21bOiHR/edLbkJqVxofVOUt3WQZoxjVT/J4RU6FtIFq2fYukai1+oKjy6/SijQEEyte+uarhYM0kZJ8MW08DJ6deuhK/tDds2bpHuGr0OpWit3e0w4pvcloUZ7EnqmkjMtXw2MGXGQ36cJd7V//R3Up8X4Tjmm61XD060e5zk4Sou+yvKKqNbaRfsMS096N7Z0eM2Yu3G5CDrlCaqEvfnjXl5RFnV6RbeARMJn3SWkaytIci0XLJfdONS6KiI6y62pKo6iMsNmaiLWMi2ZLJHgQwOWlmyLNue2dFZYyfCKMsepKr6V83a7UrXv4W/AAADkPYQAAAAAAAAAAAAAAAAAAAAAAAAAAAAAAAAAAAAAAAADcLcJ/wAT3L6/jfIUNPRuFuE/4nuX1/G+QocVbsM/N/Kz+6tf2w/jibaAADqT5HPFfvaropbV9gEHtjURpLo38XtB9fs/KIbtd7VdFNavsAg9saiNJdG/i9oHr9r5Qq3BJVy+OvePU1n/AJYY1fBFzBsnjby1L5DoyS5/HXvHqax/ywxu9zzYTPVYvkPAwiNAABAAAABslcpZvGmeuUfPqEiyceBdt3qVUvpcgR5cqTK8KYX+lpL/AOcxIcnoXLdx51VL6XIG4bkkaWGQ/SfuTuhY0N+1/b3a5gfmwVwD9J+5O6FjQ37X9vdrmBgpKost3fxDM/oHfkGL0LLd38QzP6B35BjdPtI3T7cfav1PKVz+EV+cY+R9OfwivzjHyO4PvxbAB9spbU8hLyzS2aiJSi4iztMTWVhbmIyIz0zVgj4/+zF/VjLdjquJ8Yo8KyqrTqSzX7FOc7WtvlTtvpffXkQiAm7mC3MPoz1jsYv6sOYLcw+jPWOxi/qxM6Or878J9hX+BV+UhEBN3MFuYfRnrHYxf1YcwW5h9GesdjF/VhnQ878J9hX+BV+UhEBN3MFuYfRnrHYxf1YcwW5h9GesdjF/VhnQ878J9hX+BV+UhEBN3MFuYfRnrHYxf1YcwW5h9GesdjF/VhnQ878J9hX+BV+UhEBN3MFuYfRnrHYxf1YcwW5h9GesdjF/VhnQ878J9hX+BV+UhEBN3MFuYfRnrHYxf1YcwW5h9GesdjF/VhnQ878J9hX+BV+UhEBN3MFuYfRnrHYxf1YcwW5h9GesdjF/VhnQ878J9hX+BV+UhEBN3MFuYfRnrHYxf1YcwW5h9GesdjF/VhnQ878J9hX+BV+UhEBN3MFuYfRnrHYxf1YcwW5h9GesdjF/VhnQ878J9hX+BV+UhEBN3MFuYfRnrHYxf1YcwW5h9GesdjF/VhnQ878J9hX+BV+UhEBN3MFuYfRnrHYxf1YcwW5h9GesdjF/VhnQ878J9hX+BV+UhEBN3MFuYfRnrHYxf1YcwW5h9GesdjF/VhnQ878J9hX+BV+UhEBN3MFuYfRnrHYxf1YcwW5h9GesdjF/VhnQ878J9hX+BV+UhEBN3MFuYfRnrHYxf1YcwW5h9GesdjF/VhnQ878J9hX+BV+UhEBN3MFuYfRnrHYxf1YcwW5h9GesdjF/VhnQ878J9hX+BV+UhEBN3MFuYfRnrHYxf1YcwW5h9GesdjF/VhnQ878J9hX+BV+UhEBN3MFuYfRnrHYxf1YcwW5h9GesdjF/VhnQ878J9hX+BV+UhEBN3MFuYfRnrHYxf1YtV1Wduf6fb06Za+lOp1GqtNa0WK7AUhLq8lsNRoLGzPGGZHJR6VYWtUjTVCum2lrQqpa8242S5t7ETAADZ7MBuFuE/wCJ7l9fxvkKGno3C3Cf8T3L6/jfIUOKt2Gfm/lZ/dWv7YfxxNtAAB1J8jniv3tV0U1q+wCD2xqI0l0b+L2g+v2vlDdrvaropbV9gEHtjURpLo38XtB9ftfKFW4JJufx1rx6msf8sMZvbxBM7P52/wCF4ZPc+e/WvLqax8cYYxe2yw2Oqv8AwvA9wiNgABAAAABstdJf25U316Xz5iQJRl4Fu3epVS+lyBgF0+LGnevi+fMZ9KL+9bt3qXU/pcgbhuSRpcofpP3J3QsaG/a/t7tcwPzXqH6UNyd0LGhv2v7e7XMDBSVRZbu/iGZ/QO/IMXoWW7v4hmf0DvyDG6faRun24+1fqeUrn8Ir84x8j6c/hFfnGPkdwffi2AAAFAAAAAAAAAAAAAAAAAAAAAAAAAAAAAAAAAAAAAAAAAAAAAAAAAAAAAAAAAAAAAAAAAAAAAADcLcJ/wAT3L6/jfIUNPRuFuE/4nuX1/G+QocVbsM/N/Kz+6tf2w/jibaAADqT5HPFfvaropbV9gEHtjURpNo28XtB9ftfKG7Pe1XRS2r7AIPbGojSbRt4vaD6/a+UKtwSTc/jq3ls/m2P8cYYzfGyxI5flT/heGT3N46159TI/wAcYYxfPiFj9VP+F4GERqAAIAAAANmbqLF301PHyfj/AOcxnsroW7d6l1P6XIGB3dkr0gpLiqB/SDGdysnuWrd6l1L6XIG4bkmaWq4R+lDcndCxob9r+3u1zA/NerhH6UNyd0LGhv2v7e7XMDBSVRZbu/iGZ/QO/IMXoWW7v4hmf0DvyDG6faRun24+1fqeUrn8Ir84x8j6c/hFfnGPkdwffi2AAAFAlXRZucb+0nJZqLTBUmjunsnSkHlxPTabLa56uxOw9ozjcubnxm+X277u6KTlIYdxBiLTzstaTwpa+m2kyxj+UeSPYW3eGFBjQGUsRmkoShJJLBYwRcBF0i9IeLWxHV6Lc/FunvlRfBq8uGcHs6sdJTeqi+SWzku9vRPSzd7a821uJ9G9OQg667Uau5jnjekmwjPTJLWD/wBoZWjcmaEEJJPMcyeOM5Uoz/reExgPEdeo+8/DsR0z6Q4qeepjat/Ccor3RaXuRDvgTtCP4msfpMr64PAnaEfxNY/SZX1wmIBOuqczx/Onjv32t8SfzEO+BO0I/iax+kyvrg8CdoR/E1j9JlfXCYgDrqnMedPHfvtb4k/mId8CdoR/E1j9JlfXB4E7Qj+JrH6TK+uExAHXVOY86eO/fa3xJ/MQ74E7Qj+JrH6TK+uA9ydoRMscxrH6VK+uExAHXVOY86uO/fa3xJ/Ma/V7cYaJ6g0aaVDm0xeDwuNNcVt/NdNfxkIC0obki+bKS9UrZcO4Ka0k1qShvUlNlx5b2ksi6aTM+HYQ3+Hw6y2+g0OpJRfENwxM4vXU9g4N5SukXCKqlKu6sO+NR5r/AIv0l+D/AAZ5GmRkZkZYMuIcDcvdR7nSNUocrSDZsJLdSjpN6dHbLBS2y2qWRFsJxPCfki9Ph00HYQmqiuj6d6K9KMH0rwKxmF0a0lF7xfLxT7n3rk7pAAZ3oo0dM3xUplRrs7ldbNCa5Lq84+FDe3VbR01rMsF7p7dhHpuyuzusfjqHDcPLFYh2jH8XySS723ZJLVtpIobD0XXhpFeeK34KExIu2VPlL3qLHLhM1uHs4NuCyeOIZm5b+53sot5r101q86g34dqjtpYia3GW+qPKk/5ST2ix6SdLcq62m7WtaJyis+nmbcKmMc7viS4HHzLatZ7DPJmRemeTOOxmzludFTwfE+LrrsbVlQg9qdNpSt/31NXfwhlS2zS3JSLSLoWZM0R9z8ytGdinrllqUfq4IiL3B9d+Xoc/xe4X6xS+4IrAXIjyPNnAveVX/wCxX/mEqd+Xoc/xe4X6xS+4Hfl6HP8AF7hfrFL7gisAyIebOB9ar8ev/MJU78vQ5/i9wv1il9wO/L0Of4vcL9YpfcEVgGRDzZwPrVfj1/5hKnfl6HP8XuF+sUvuB35ehz/F7hfrFL7gisAyIebOB9ar8ev/ADCVO/L0Of4vcL9YpfcDvy9Dn+L3C/WKX3BFYBkQ82cD61X49f8AmEqd+Xoc/wAXuF+sUvuD5VpF0LPYQ/ufmUJztUzcstKi9TYZdcRaAZUPNnAraVX/AOxX/mEwN0Lc63p95olzVyy6g54RurtpkQ9biLfEnkk/5SjLAw2/NFl4aOnGV16E25Bl7YtQiOb9FkFwlqOFs2ltweDxxDERIWjbS1NtBDltXHE5e2jUMNzqU+esSUnwuMmfhFlwlgyIz6R4MpZx2PHqYLifCF1uBqyrwW9Oo05W/wCypo7+E8ye2aO5HoDPdLGjmPZU2FWbdm8sbWr7RyqRM4zR/KaX0loM8H7nHkiwIaTuro7zAY6hxLDxxWHd4y/BprRpruad009U00AABTzANwtwn/E9y+v43yFDT0bhbhP+J7l9fxvkKHFW7DPzfys/urX9sP44m2gAA6k+RzxX72q6KW1fYBB7Y1EaTaNfF9QfX7Xyhuz3tV0Utq+wCD2xqI0m0a+L6g+vmvlCrcElXN4615dTI/xxhjF9bLGjdU/9zwyi5vHXvLZ/Nkf44ou1k25Zt3PNW/e0tTMRTcuVHJKFq15LZnqJPUUkyIyUouHjBhGu4CvuGDFplfqdNhKcVHiTHmGVOGRrNCVmSTUZERZwRZwRAICgAAAGzN2mfNvBzxVDb+kGM8k9C1bnUup/S5AwS8clfsRPSqB/SVDO5PQtW6X5Lqf0uQNw3JI0tUP0obk7oWNDftf292uYH5r1cY/ShuTuhY0N+1/b3a5gYKSqLLd38QzP6B35Bi9Cy3d/EMz+gd+QY3T7SN0+3H2r9Tylc/hFfnGPkfTn8Ir84x8juD78WwF9se1pd7XfSLUhbHKnKQwavIIzla//ACpJR+4LEJu3IFNRO0vIkr/wGmyH07M7T1Uf8YzJ5YtnTdI+Iy4TwjE42n2oQk17baf62N8bVoUG3KFDpFOYSzHisIZaQRY1UJLCS639ZmLuOCIkkSSLBFsIR3pKZm1qrwbceqb9IhraN+HLbJad9qPPE0W+EkySTeNfVMy1slwkhRH1UI9bLVnxRhMPLiOJy1J2vdtvV827bt//ANel2SIZkXCYwGbp10YwZC4zlfcdU2s0GpiG86jJbDwpKTI/cMYpdFb0jVW0qhOrthQ4JUuC5ia7L1JSJCedN9kyThCSWnXItushPp6ou7N56IKjI5Fm1Wz1VNtZx3USW2TeU6nYrYoiVk1Z2DyIYdJXkm/Z/TO+w3AKdGHWYqEqurT6qUXltZ6tKe6fhbx7s1tS+rWvZp9226qmVyKaSeQaFNrb1s6uslREZEeDweNuDF+GJ2Rc1l196fHs6dSZLcIm0vHTtXeyNWtjOrszsPpjLB41SOWTSTXt3PX+I0I4bEypxhKCVtJdpXSeui9uy0IcsCpUCBbr961lm6lyqXGnz5cuRLmqiuIaW5raiFObyo9UthEni2cAqbY0u1yq1CgnKhxpMaurSh2NFp8xt2na6DUhSnXE726kjIkqMtTBqIyyQkSi21TqLbyLaQSpMNKHW1JfIla6XFKUolFjBlzxl6gsdB0aMUOdAeVdVenQaQSiptOkPo3iMRpNJbUISt3VSZpTvilYL08GF07nf1OJcNxUsRUrxbbbyXbfo2lZLR5bNp2ukl37qWHUXTbU6wVMrUWPGkU+qTG2k09qmzOSWo7jmoh7fzTvSjIjJak4IiLOFHjb3XhdV917R/edwUWPSo9HiRqnDjtrU5yW8lhLjTj5OEZJbMloWaU6qskktpZ2ZRT9GEWmzY3I90VwqPClHMjUYnm0xWnMmoi1iQTpoJRmZNms0lsLGCIhSVrQ7TKuiswGborsCkV43XJ1LjPNlHW64nC1pNSDWjJ88aUqJJnnJbTzU43PIjjeCQxMalGKik07tOXoqV8tko+nbv171m/6ljjOlSdFKBbFLmRI7tNodPkSpEyBKl78881rJbImC50tUiM1mZnz2xJ4MXqkaQbwuaq25ApVBhwU1OluVKoHONwlxt7fQ2pCE4I1mrWPV1iTs54/IndZmjJhS40ih3RWaFJap7NMffgmyapTDRGSNcnG1kSk5VhaSJRax7eDF1pNmUqi1CDPguyc0+mHSmkuum5lo1pXrKUrKlKygtpnxmJdHjYnG8IdPNSp3lZ733yu7ei3k1KOsrJWdtU4zZuOE9pDnXBcNzVqmUk6gSaFUTlLZpz6GGjTIiLbM97PK0OrJaiyrB6qudEwUiqQ63S4tYp6lqizWUvsqWg0GpCiyk9U8GWSMj2jBqnoToVZiSaDU7grb9tSpC5K6FvraY2upZrMiWSN+JJLPWJO+YI8cWwZtRKa5R6TEpTtRkTlRGks8kyNXfXCSWCNZpIiM8cJ4LIkmnseNxnEYHE0qbw8m5RtG1tFFKy7l6T/AOtXy31i3majUSo6ZLCmVER5LZniMebm6KsJrR/pRqNPhRiYgVAiqERBFhKEOGesgukSVpWWOIiIelI093dtLZSu2atq4dJyVHM+mkyQov689cx5GFlaVj2/yR8VqYHpDHCp+hWUoteKTkn+FrfizUsTHpZkd9/YluaG4STZlKYRWrh1cZXKdLLbSscOoki9LwpiPNHtObq9929THfCSanGbV6huJyL9p6qS6rphut9azVvVRcipzxE197x/sjznrJI+iseljeNYbCT7FOMqrXOSahD3ZpP2pPuMBAVECBMqk6PTafGXIlSnUsstILKlrUeEpIumZmJ8TubLDs6FHTpk0w0+36xJbS7yrioJ91lJ8GvtM+I9pJ1ckeDMJTUNzzeKcdwPB3CGJk88+zGMZTk7btRim7LvdrGB2JoL0o3YzS7motnvzaRIfSonyca1VIS5hWw1Z4j4hKG6D3PWkCs6Sp9UsSws0U47BNnF3lpvWS2WvhOsXHniFlvLQ/c1r2Wu9dEOleRdFqwtbklMCW405DLYajU2hRlgs5VwGXCZYyYqNyrcdzVC86/OqlxVOYxTbcmyN7kS3HEa2E4PCjMsltHBKTf9pFrQ9Ex3FeIVoVOkOAxFOUKCnHI4VE/ScXaac01NWXct27WZr2tCm1qbWWFJM0mXSMhNlj2dSbs3PdWiNQmDuE67JfprxoLfHeR4jbrjBKxk8tb6ZJ8kRCE3Fm64pxXCtRqP3RldB0k1q3KJS6LTWWUcqq6VfZePOsp4m0o1FFnBoMkbS48mQ55ptaHvHHMJi8ZQprCO04zjLey9G715puya71clCBo4guaFqfbnILDVzVyu0hxyS6gtdhucbqGG88JFqIS4Zf5wukLDDsbRDXXLrpVBqNypnWzSJ85p6STO8z1x0HkySktZotYskRmrKeNJ7BjlU0x3TVV1t90mWpNZrEWsk83klRXI2uTKGy4CSklkRZ4kkLo/p2lqYrXINiW1T5lxwJEGqzYrDiXZG/JMlLLKzS3tPWMkkRGeMjiUZo9cjw3jtLPK7zTlm9GaSi3kcr33irSjFeF7K6ayvTFY1vU2i0O6qy4tmTWLbpMWhQYhJRvz6Yze/SHlYMiQk1JLHhlGriIsimo+inRPI0jM6Jp9WuJVZYSpEqc1vSYzklDRrWyhBkakpLBkSzM8mngweRiFZ00V2v0Z63qtTIcinLpsKEwyo1f2K9GbJtuS0rOUrNJYUXhVEeDLYQu1L3Q9Xp1Ui3K5ZduSLhZYKM/V1suFIktk3qc8RL1CWacEaySRmRY4xFGoo2OGHDekFDAdRFvOozSyzikm1Hq3qto+kpLW8nm1TSj1UizNFrFDsx66JdwnPuwn0rOGbRNQyTMcYQ6ZKLK/CFlBY4DPO0iHVJ0f2TZNNlz7/m1eY8qtzaNCjUs228lFNBPPrW4RlwuIIkEW3J7SGISLxmyI9tRlRWSK2ULRHMs/fdaSuQet/wCZwy2cREMkY0yzHF1dm4LRoddgVSqPVhESchzESU4eVKaWhSVEk9hGkzMj1SyNuMzt62C4tCWaM5Si5SckpJO2eWVQb7PotX1V0rXTdzLapog0bUWXWJkmrV2RSKbbFOrrSmibS++5IcSnUMjLCSPWLp6v+VjB09taPbOVd9l3ZT2JEq0Z7D1VqkerLQRw2Irxtv74pOCcQR6plsI1axJxtGNXLpqr908tjm0qntKq9HiUd3eEGhKG47hLSpCc4IzNOMcGOAUlB0s1mgwaPTGqVTpUOlxJsB2PJQpbcyPKc3xxDhEZHwkWDSZGWCMZy1Lf1y/5PBhw7jzwjVSo3UfotZlbK6Vm1a3pdZs9PwVzI9LdrXZUiXci6BRCpFMjE6iu0tluNGqUd14yYUSU4SbhbUapFrFqHrcGREYkes6aJtWtGTYDNpUWn24sidjQYyXcxpRKzyQlxa1LUsyM0mSjMjI+DjEcDkpqSVpHf8Ao4zD4V0cZBRyv0berpvZtKV73S9FbR0Ji0PyOb2zbi0MTvvz77C6vb+sf8HNaLKm0nxa6c+lsV0xDxkZHgywZDONB1SXStLtpyW1GWvVGI54PhJ1W9mX+0LZpMpzVI0h3JTWCw3HqklKS6Rb4eCFWkmjxsClguN4jCw7FWMatuUruE/faD9t33mMgADZ7KBuFuE/4nuX1/G+QoaejcLcJ/wAT3L6/jfIUOKt2Gfm/lZ/dWv7YfxxNtAAB1J8jniv3tV0Utq+wCD2xqI0n0aeL6g+vmvjG7He1XRTWr7AIPbGojSjRmX9v1B9fNfGKtwSTcvjsXl1Nj/HGFTaB5uWiJ9efGKa5vHYvLqbH+OMKqziPmooZelN+UYMIhi7DzdNZP8oSPnFAPm6Dzc1XM+OfI+cUAgLYAAANmbwLX0gRU9Oon9JUM8k9C1bvUyp/S5Awe7040jxE5wXLQy/+0oZxJ27lq3eplT+mSBuG5JGlquMfpQ3J3QsaG/a/t7tcwPzXnwj9KG5O6FjQ37X9vdrmBgpKost3fxDM/oHfkGL0LLd38QzP6B35BjdPtI3T7cfav1PKVz+EV+cY+R9OfwivzjHyO4PvxbATbuQakiDpeRGXj+z6dIjp242lqr/4BCQvlk3RLsq7aTdUHa7TJSH9XyaCPn0H6SkmovdGZLNFo6bpHw6XFuEYnA0+1OEkvbbT/Wx6skZGRGXAe0YzpIoD9x2dUYMGO49PQ0t2Elt3e178STIiJWSLaSlJMjPBkoyPYYr7Ur0C5aDCrFNkJejSmG3mlpPOs2ospPrbPVIxeB1Kbpyv3o+IqNWrgMSqiVpQez5p7P8ARmu9sWVppVMXQrhZlnRqshcOpqfksuI3lTq1a6EkrWQomtVGzO0zyR7DKGtD9dg23p0qNTqqi1EOT0ayiMzJRqMi4EqMj4s44xvaIM0iaG9IjdZm1LQzWaNQo1W1H6gytJtOqkJNWVocJCsEolFlOUllJHjJmY7XC42M89OoksytyX/s/Tuj3TCjjXisHj4wpKvDLdXhG/e27Td2ttLeiloUe5hltVK5NI9WYbNDM2roebI0kXOmbplwbOPiE/iFNFdi6e6JcEaVf13UebS2TWpxDZm7Kc5wySjXNpOEEZko+e4hNY8PHOMqzlFp7bey3gepdMqlGvxaVahUjOMlHsNySyxUbXcY3fo327zCaTpTp9UVCeetmu0+BUZXIcWfKbYNhx3XNCS+9urWnWUkyI1JIs44MjJTuK3yrHM8ddp/LU0b5yDyUjkjU8lvedbHp4Ee6PNHdTfo1HmXNctccjwZbs1iivsMMsMupeWbZq1WkuqJOSURKWZZwe3YMbk0N12xl2bHtCoNXsqebiKnysVqIlck6xTuSsahp1ee8NrY53HEPGypvQ5KnCeH18TKlRnZRlleW7STbWZ5rO0UvTtpqrMmedcNApk+LS6lXKfEmzTxGjPyUNuvn/kIMyNXuEY6Y1wMSbnnWwmOsnoMOPMU6ZlqqS8t1JEXHkt6PPqkIul02LTnL6p92WHUa3Ua3OedgPMwFyUzIymkEw2l4iNLGoZGnClJJJlrFw5GR6PaLcFJuVxNwJedkN2vRor8syUpDshtUnfCJZlhRkZkZ8fPEZ8IZUkeJX4ThsPhZ1c92oprazbcdY2eyu4u/frvdRkQAAYPXAAAAA083dtUZU5bNJJWXd8kyDLpJIkJL+vPWMbeypCYzCnlKIsFszxmPNrdDX81pC0n1GpQZRSKfBIoENxJ5SttBnlZHxkpalqzxkZDysLFuWY/UfJHwqpjukMcUl6FFOTfi04pfjdv8GYpo+qTdIvq3qo7jUi1OM6rPEROJyL/AKe6Y5StMN1sOINO/VFyUnPGTv3zP+0MA4BMelaOekGwbd0xw1G9LZYRQ7hJJFlElosNvKxwa6TL0vCkQ856STPorHv9i41hsXPsVIypN8pNqcPflkva0u8xbQhOr9M0pUKo2vbKLgqsZbzsanLWSCdUTDm3J8GqWVl6aRs/UK9pfq0xyoVTcmUSZKePLjz7jS1rP01HtMapaLHYDN+UtdTvGVasbLpLq8UjNyNlpZFjG3CjMkH6SjGxG+2J/jmXB13O6OCsry2/X/0endOMNCpxKFV0lJ5Er5MTJ2zSdr0Wo28Hr3vSxkibo0z0ulVOHTdy5S6YxPjLZlHFfbb12zSZc9q4zgjPriHtzWSqdb+li4sap0+1JDSS6S3CWaS67eBm06RYyIUhad2LcL5paWZNFvh75sPncZ4+AYDaNxWFZOgK8G4t2clXVeLbEJVM3oyNhtt5ZGrWxjCm1qM88ZEXGMRXotJb25/+zqsBhb8NxGHo0bSrVKEfRp11f01dy62+iinqrJbPdEIDJ4+jyvy9HkrSZHOMukwqkVLfQSlb8hw0JUSzLV1dTn0lnWzk+DjGMCcNGN2W1TdFTNp3DUIvIdfuSVBqLCnk74xHehtpblGkzySW3koXrYxzh8Y8qbcVdH6jxzG4nAUIVcLHM86urXbjq5W8bLTxsYDRdF1eq1osX24+xGoz1YZo2tquOPqcXjK0NpSeulOeDOTPYRGKJ3R7dr9UmwaBbdaq7MWZIiIfj0t/76bSsK53VM0mRYM0ntTksiaJNz2hAoCrJo9wwF062rioEWM7yQkil72p9cuUkjPag3VqPWLYSdTbjAsekK+VQ7HnRLYuxLT8i+6vMWiDNInFsGZG25zh5NBnkyPgP3BxKpNvY9ew3HeKV8RkjT0nK0cyaSi4qUXLS97PVX30IZ5U1Qo8uUdNlbxAcQzKc3lWow4o1ElDh4wlRmhWCPBnqn0jFTHta5pZtFFtyqPG+wUpom4bit8ZNeoTicFtRrGSdYtmTxwicL2nUG7ZmkKhUi46KU6tt23UmHHp7LLEpxmKZSSJ5Sib3zXeyZGZGZkvjLA7n7hp1p09EamXlS1T4Ojd2nk/CnoVqyzmEamkKI9qyI1YxtMi1i2YMV1X3I5/OfEzpwyUbTll9F30UqcJXemylJxvb/pfemiFCsC+1VJyjJsqvHUGWifciFTXt+Q2fAs0ausSfTMsCgpNu3BX5yqZQqFUKlMQlSlR4kVbzqUkeDM0pIzIiPh2CQappJuUtGlnxI16TCmsVSoqkkiae/pbTyObG+GR6+qRrfNOts2rwM9u2tU6tM3zQ7CvGkUurzbgiVNx0qm1ERUYvIuFpRINRIM0vKNRo1iyZmfCQrnJbo5anHOIYeyrUo+k5LN6Vo5aig5S02d8yXclq7aqCOY+7d/TF5l6vvy2lPpb5Cd1lNJXqKWRauTSSudM+Aj2cIp6zQK7bsooNwUWfTJKkksmZkZbKzSfAeqsiPHpjYmsXoxTFQ5JX9TplYh6N5sFydGnoUrk7f8AYhK85NzpHwqxrFnOREdzXAuu6LLZRU60c+pwqtU0ar0jfH2o6m4ykZIzNRINW+YzszrY4whUlJ6o5OGcbxuOqQ6yklByyvtX2m01dLT0Vv63dazwMAAcx7WZ1oNpjlW0u2nFbQpW91NmSeC4CaVvhn/si1aS6k1V9IVyVJg8tyKpJWg+mW+HgxnuiKPzAWVcWmece8yEMLo1va5Y3yY6WFuozw6iSP0vDdIQ8ZmZ5M8mYwtZNnrWBf7bxvEYqHYpxjST5yu5z914L23XccAADZ7KBuFuE/4nuX1/G+QoaejcLcJ/xPcvr+N8hQ4q3YZ+b+Vn91a/th/HE20AAHUnyOeK/e1XRS2r7AIPbGojSjRl4v6D6+b+Mbr97VdFLavsAg9saiNKdGPi/oPr5v4xVuCSLm8dm8upsf44wq7O8VVCL0pnyjFJc3js3j1Nj/HGFXZ5Yuyhfmy/lGDCIWussXRWC6U+R84oBzdviqrPVCR84oBAWoAAAbO3seNIcdReeavpKhnEjoWrd6mVP6ZIEe3JTIVGu+mUinM7zEgzSjR29Y1ajaHzSlOTMzPBERZMzMSFI6Fq3OplT+mSBuG5JGlquEx+lDcndCxob9r+3u1zA/NerhH6UNyd0LGhv2v7e7XMDBSVRZbu/iGZ/QO/IMXoWW7v4hmf0DvyDG6faRun24+1fqeUrn8Ir84x8j6c/hFfnGPkdwffi2AAAFNity9ug2rDfRZF2yiboz7hqhynDPViLUeVIV0m1HtzxHt4DPG8cGfFqDCJEZ1K0rSSyMjI8kfAZGXCXpjySEoaLt0PpA0YrZhxpx1OjtEZcrpSspTnjbXjWRjpEer0yMeLWw/Warc/F+nnku+mq8uJ8IajVlrKD0UnzT7pPvvo3rdO9/SYBrbae7Y0eVJrUuRio0d/ZnfWN/aI+klbXPGXHtSMyTuqtC60korzikR9Nh8j+QPEdCou4/DMV0N6QYOo6dXB1L+EJSXvimn+DJgARB4KjQx+OkT4F79gPBUaGPx0ifAvfsCdTPkeP5r8b+51fhz/AOCXwEQeCo0MfjpE+Be/YDwVGhj8dInwL37AdTPkPNfjf3Or8Of/AAS+AiDwVGhj8dInwL37AeCo0MfjpE+Be/YDqZ8h5r8b+51fhz/4JfARB4KjQx+OkT4F79gcHuqdDBbebOJ8C9+wHUz5DzX439zq/Dn/AMEwDrdeaYTrurJJcXp+oICuTdnaKaWwvlTLnVV7OEoiQ1J66ndUsemRH6g170n7rG/r6Sqn0Azt2nLSpLhMOa77xHxG4ZEaS9JGOHaZjcMNOW+h7FwXyadIeMVEpUXSh3yqejb/APF+k/Cytza3JX3Ue6NjQIcrR7Zk1LlRkJUxPktKyURB7FNkZbDcPgPyJZ4xpuOTMzMzM8mfCY4HYQgqasj6c6LdF8H0UwKweF1b1lJ7yfPwXJdy5u7YZ1oo0jNWLU5cCtweWNt1xrkSrwT/AJbXE4n/AC05My930jLBQGmrqzO6x+BocSw8sLiFeMvwfNNPuadmmtU0mSLpH0RybXjJu20pZ16zZvPRKoyWsbWTxvb5F4RZHs2kRH6R7CjoZTZGku8NHz7ircqhojSDLkqE8hLsaSnjSttRGR5LZksHjgMhnD90bn6+ySdyWdVLLqS1GpyZQ1k/FWZl/KZWfOlniQWemYzdrc6KnjOKcISpYylKvBbVIJOVv++no7+NPNffLEh4BL6NG+giSknI2nY20n/JeozyVF7g577DQh6PbHYh0M6N+deBWjhW+BW+Qh8BMHfYaEPR7Y7EOh32GhD0e2OxDoZ0POvAepV+BW/lkPgJg77DQh6PbHYh0O+w0Iej2x2IdDOh514D1KvwK38sh8BMHfYaEPR7Y7EOh32GhD0e2OxDoZ0POvAepV+BW/lkPgJg77DQh6PbHYh0O+w0Iej2x2IdDOh514D1KvwK38sh8BMHfYaEPR7Y7EOjhWjfQRHSbkjTua0lxM0Z5Sj9wM6HnXgXtCt8Ct8hEAkTRtojl3awu6bnlnQbOhZXMqz5apLIjxvbJGXPrM9mwjIj6Z7DvrFy7nyxSUq3rRqt61JKiU3LrSyjxUGRfyWUHlRZ4ll6hjCL40m3hpBeb5oKlmHGM+RIDCEtRoyeJKG0kRbC2ZPJ44wu3sYqYzinF06WCpSoQe9SokpW/wCynq7+NTKlvllsXLSvpGYvafDpNvweV1sUFo4tIhFwkjO11fTWrhPu5M8DABpKysjvMBgaHDcPHC4dWjH8W+9tvvbd229W3cAACnmAbhbhP+J7l9fxvkKGno3C3Cf8T3L6/jfIUOKt2Gfm/lZ/dWv7YfxxNtAAB1J8jniv3tV0U1q+wCD2xqI0p0YeOBQfXrfxjdbvaroprV9gEHtjURpVovLOkGg+vUCrcEj3N47F5dTo3xxhWWftu2hfmy/lGKS5/HXvPqdG+OMKqzS/ttoOelL+UYMIhe7fFVWeqEj5xQBdvirrXVCT84oBAWoAAAbO3x4v46vyov6SYzh/buWrcP8AJlT+mSBg17KzfMVXTqiz/wDsGM6ex4Fq3eplU+mSBuG5mRpYrhH6UNyd0LGhv2v7e7XMD816uMfpQ3J3QsaG/a/t7tcwMGiVRZbu/iGZ/QO/IMXoWq5I65dLdjJMi35C28nxGpJkXxjdPtI1B2mm+aPKBz+EV+cY+Rd7rteuWfXJVDuCnPw5UdxSTS6gy1izsUk+BST4jLYLQO33PvmhWp4inGrSkpRaumtU14AAAU5QAAAAAAAAAAAAAAAAAAAAAAAAAAAAAAAAAAAAAAAAAAAAAAAAAAAAAAAAAAAAAAAAAAAAAA3C3Cf8T3L6/jfIUNPiIzPBDdzcY2bX7atKfU61T3YnLiahyM08k0rU0hGN8MuEiM1HjPkc8BkOGs7QZ+ZeVyvSp9GKtKckpTlBJd7tJN29iTZsyAAOqPkw8V+9quiltX2AQe2NRGlei4v7oNB9eoG6ne1XRS2r7AIPbGojSvRYX90Kg+vEf7xVuCRrm8de8+p0b44wrbP8VtA9SX8oUdz+OvefU6N8cYVln+Kygf8A5fyge4RCt2+KutdUJPzigC7fFXWuqEn5xQCAtQAAA2bvPxaROqa/pBjO3y/vWrd6m1T6ZIGCXptvOJ1Tc+kGM8f6Fq3T/JtU+mSBuG5JmlauEfpQ3J3QsaG/a/t7tcwPzXq4R+lDcndCxob9r+3u1zAwUlUfK0IcSaFpJST4SMfQAC3PUVh0865GXES0ErHqDr5QMdNr4Eu6LqA31kuZbtFq5QMdNr4Eu6HKBjptfAl3RdQDrJcxmZauUDHTa+BLuhygY6bXwJd0XUA6yXMZmWrlAx02vgS7ocoGOm18CXdF1AOslzGZlq5QMdNr4Eu6HKBjptfAl3RdQDrJcxmZauUDHTa+BLuhygY6bXwJd0XUA6yXMZmWrlAx02vgS7ocoGOm18CXdF1AOslzGZlq5QMdNr4Eu6HKBjptfAl3RdQDrJcxmZauUDHTa+BLuhygY6bXwJd0XUA6yXMZmWrlAx02vgS7ocoGOm18CXdF1AOslzGZlq5QMdNr4Eu6HKBjptfAl3RdQDrJcxmZauUDHTa+BLuhygY6bXwJd0XUA6yXMZmWrlAx02vgS7ocoGOm18CXdF1AOslzGZlq5QMdNr4Eu6HKBjptfAl3RdQDrJcxmZauUDHTa+BLuhygY6bXwJd0XUA6yXMZmWrlAx02vgS7ocoGOm18CXdF1AOslzGZlq5QMdNr4Eu6HKBjptfAl3RdQDrJcxmZauUDHTa+BLuhygY6bXwJd0XUA6yXMZmWrlAx02vgS7ocoGOm18CXdF1AOslzGZlq5QMdNr4Eu6HKBjptfAl3RdQDrJcxmZauUDHTa+BLuhygY6bXwJd0XUA6yXMZmWoqCyRkZKbIy6TRd0V0aGzGyaMqUew1KPaO8BHJvcN3AAAyQ8V+9quiltX2AQe2NRGlmiss6QqCX+mJ+Ixun3tV0Utq+wCD2xqI0t0VeOJQfXafiMVbgkS589+vefU6N8cYVtnH/bXb+enL+UKK6PHWvM/ydG+OMKyzvFVQD/ypnygYRDF4li7q4XSqUn51QD6vXZeVeL8pyvnVAICzAAADZu8dt3QVFx1Jf0gZ4/0LNu9Tap9MkDA7vIuayB1SX8+M8kbNyzb3U2qfTJA3DckjStXCY/ShuTuhY0N+1/b3a5gfmvVwmP0obk7oWNDftf292uYGCkqgAAAAsc+86DTITs+dIW00zO5Xry2eSe1scHS262eDG0d0+6KRTlyWpLjxriqabUhtlTiluOEZoQgkkZqUZFnBcBGRnsAF2AWZm7KM6wzINx5pLsooSieZU2pl4y2IcJREac7CIz2HrJxwkOXrsojLMuQqQtTcSTyGo22lLNx/Bfe2ySRmtRZwZEWwyMuI8AXgBbqRXoNaJ5MZMhp6OaSeYksKZdb1s6pmlREeDweDLYeD6Q75NUp0SnuVWRMaREaQa1va2UkkuE8kAKoBY4V4Uea65HxLjPIZVJS1KiuMrcaTwrQSyLWIslnG0slnGRWlW6ecWnzNdW9VNTaI56p5M1pNSc9LYRgCvAWaHdtGnVBNOYXIJTi1tsurjrSy8tGddKHDLVUZYVwHtweM4MXZ55qOyuQ+4lttpJrWtR4JKSLJmZ9IAfYCz0m6aXWZBRoqJba3GzeZORFcaJ5sjLn0GoiJRbS9PaQrpNQjxo6pJaz6UrS2ZMlrqIzURcBdLO30gBVAPhTzKV72p1BLwR6pqLOM44PVAnWzcNonE65Fk05246eAB9gPhD7LijQ28hSiLJklRGZEOmpT41Kp8mpzFGliI0t50yLJklJZPZx7CAFSAoGa3T5NRKlx3FOSCYKQ4SU5JpB+F1z4CM+IuE8GfAKxDzLiDdbdQpBZ54lEZdcAfYDr39jet/35ve+HX1i1euC32UESlvISRlkjNRFkv3MgB2APhLrazUlLiTNB4URH4U/T6QpptYplOiFPmTmm45uIaJzWyRqUokpLZ6ZkQArAHxvzJKSg3UayyyktYsqL0umBPMqc3onUGvbzpKLOzh2AD7AWus3BEorkZh+NMkOyzWTTcZg3VHqkRqPBcRZId1OrNOqcFNRiyMMqUps99SbakLSeqpKkqwaVEZGRkYArgHW4+w0ZE682gzxglKIhSPVumszH6acklzI8Ypa46CM172ZqIjIuMzNKtnCAK8B0tSmXEMqNWop9JLQhfOq4M4x0x9E+ybm9E8g17ed1izs4dgA7AHWp9lJrTvqTU2nWUkj2kXqDqg1CLUYkaZGcy3LZS+0StijQoiMjx7pACpAWOq3bDo89unyKZVXHHl720piGpaHFahrwlRcJkRH1jFxj1JmQt1Btus7zqZN5GoR6ySVgs8OCPb0jAFWA60vsLUSUPIUak6xESiMzT0/UHJvMkRGbqMKI1EesW0i4TAH2A+UONukZtOJWRHgzSecGPoAAAAAAAAAAAAAAAB4r97VdFLavsAg9saiNLdFPjiUL12XxGN0u9quiltX2AQe2NRGl2ijxxKD67L4jFW4ZId0+OtenU2N8cYVlm7booB/5cz5QpLp8dW9epsb44wq7M23NQP6SZ8oGEQ3e3izr/VOV86oAvbxZ1/qpK+dUAgLKAAANm7vxzWQD/KS/nxnskv71q3s+dtU+mSBgF2GR3TTlZ4agr58Z/J6Fq3uptU+lyBuG5JGlSuEfpQ3J3QsaG/a/t7tcwPzXq4R+lDcndCxob9r+3u1zAwUlUAAAYRVbZqFUuqZDdiZo8uM5LU/ksckqZOPqY4fCHrZFNEpFfdtY6nVKZMTWHJ6ZZtxHmyfZJBE0lSNfKFHvacmk9hkoy4RIAACPit+uS7fqkJyLKVIuSWlK3J6m1ORmibSg3lk3zhKIm8pSngM0Z4DHfAo1co1Gp0JNK5KctuepaCaUlKp7Cm1p3xJqMi3377lWsZZWlW3aQzoABZIT1QrzMs5dLmUZpZIQytTiEylYMzUZ6pqJJcBFtztPYWwWZFl1KDZ3Khie5NmMvMykIkO5aUpp8nSbI8c6SsYP1RmgADCj5pq5VXZZU6pU+CiE+27GmnHPXeUgkpS1qayscJmo1YPZgul1w7TqMSDa6jmVJ5yG9HVIYdeSptoiZUSjxjiMyLhGcgAMOgS6pV7r5JrNu1SMxDWtunkpKDYTsMlPrMl5NSiMySWOdIz4zPGQMzW61RDmRIe+olMrNtmRhJOEZGRErhwR+7sPg4hcR8oQltJIQkkpSWCIiwREAMCgsXShL7FFodRixW6Y+3yFVZSFtHJwRMoaWlZrJPhiM8kWDLGD4LXRrXqzDM9MegPQ2nk03DXI0eOlS25Gs4aUNKPgTjaozUeOlgSmAAiupxIbNWdKVQEP1RVwR3CqyXGlHvZvINLedbfCNKDJG96uNmeDaLnGt2UmtMKTa6mqo1VFy36396w5HNSj1dclb4rKDS3qGWCx0iIxmh0WjKqRVlVJhHUCTqlKNhG/EXBjXxrY90VoAwKh2u7R5VuVBmkoivNqmFU3kpSlRtrSo0k4otqi1iQZcOMEL3WH1XTYM2RSYzylVSluKjNLIkrVvjZ6pGWcEZ5LjGQmRKI0qIjIywZHxglKUJJCEklKSwREWCIgBHybVr9MoNUtqEp6SipsckolqNBPb9hBOtOK4DNREeqoywRc6ewizRwLRltUeplCotQbYfeiKdp8hqIwmU22vLqUts4QRqTzpmo+ewRHs2iTgAEd1airkUiMzTbE5GgKqK33YimGHnEFveCdSwpZNJM1cR5x4bVyZmXxTLMekU2nQa3QkvNw4NSZQ1IQ2smlLdTvRERc6R6hGRapERFwYEjgAI1hWrVKbRmjh2+yqXItpuPOQtKf7IlZSaic54tde1w8mraZnk9oo41o1BdGr0dVtOHHXMp82JEdjR2tfe1oN3UbQeokzSjGDPJ7MntErAAIxui36vUq6c2LbKkuNvwXIklqMxrJaQtBq1nVKNaDTz5aiEkWOMyMxcztV1qazVo9HQmfzRrkLkklJO8iqNSTPW4dU0nwenwDOwAGOXLSKrUq1RnqbOfhJjlJ32Q0htZoJSUkRYWRltx0uIWqr2qxAcpxvUSRccBrktcllxLTri5LxpMnlJXqoPgcTsxq6+wsZGcAAI4g2RMfNhu4KS3LJmhPR2ye1XSZcU8pSGiM+FSWzSnW9LhHfzO1BFRXOeohuvzLYbhckklBqbkoJzWSszPWI1EtJEZZI8YPgEgAAIpui2q7OdaNm3FLkx2IPIsplhhS0m2aVK1nVqNaDSrOEoSWemeTxenrVfTNeq7NIQU87kZkokElO+8i/e0rMlcJJ1dcjLpGewZ4AAjOlW9W03S3VH7dOG8Uuacl5lhlLa21pc1D3wlKdd1sNmetgiPHOlgiK7WFRaxQ1ttVyMqQ89T2CbmaqSOOlCEkcUyI9mDyojLYrJ52ltzYABZ63DkyanQn2GTWiLNW68ov5CTjupIz91RF7oslYt2TU6pKTJppSIj9VhPKSsiNC2kNYUZkfCRHsMj4RmYACP6LZvKx6LJj0JmO+zcExwnENpJSISye1SIy2k2eUc6Wzg2CjOlXFKZptPVb0tnlXRqjBcdWps0OOrbQlGphRmZK1TPJkXD6okwABa7ZpESh0OHAiQGYeqyg3W20EnLmqWspWOFRmW0+ExdAAAAAAAAAAAAAAAAAB4r97VdFNavsAg9saiNLdFHji0H12XxGN0u9quimtX2AQe2NRGl2ijxxaD67L4jFW4ZIl0n/AHVb16mxvjiiqsw/7ZaEf+el/GKS6vHVvXqbG+OKKqy8ncdDM/L5Zf1g9wiHb28Wdf6qSvnVAF7eLOv9VJXzqgEBZQAABsxdZYummlwf2eosf+sJAk9C1bx/k2qfS5AwG7dl204vygr58Z/Jz4Fm3uplU+lyBuG5JGlKh+lDcndCxob9r+3u1zA/NerhH6UNyd0LGhv2v7e7XMDBSVQAAAAAAAAAAAAAAAAAAAAAAAAAAAAAAAAAAAAAAAAAAAAAAAAAAAAAAAAAAAAAAAAAAAAAAAAAAAAAAAAAAAAAAAeK/e1XRS2r7AIPbGojS3RT44lBP/S0/EY3S72q6KW1fYBB7Y1EaW6KfHEoPrtPxGKtwyRLq8dW9upkb44oqLNfiRq5RpE2S2wymTLI1uHhJHxF/UKe6/HUvbqZG+VFGJ3uRcxLB44KofxOg9wjFL4SpN63AlSTSZVSWRkZYMj31QCyAIAAAANm7t8V9P6oq+fGfSOhZt7qZVPpkgYDd2y74B/lFXz4z+Qf961b5dKmVT6XIG4bkkaUKH6UNyd0LGhv2v7e7XMD816h+lDcndCxob9r+3u1zAwUlUdb7yWGzcVxcBdMdgo6l/Btl01kNRV3YjdkcJcqLpa6EoQk+AjHOKn02xWcAC5/AlijxU+m2GKn02xWAGfwGUo8VPpthip9NsVgBn8BlKPFT6bYYqfTbFYAZ/AZSjxU+m2GKn02xWAGfwGUo8VPpthip9NsVgBn8BlKPFT6bYYqfTbFYAZ/AZSjxU+m2GKn02xWAGfwGUo8VPpthip9NsVgBn8BlKPFT6bYYqfTbFYAZ/AZSjxU+m2GKn02xWAGfwGUo8VPpthip9NsVgBn8BlKPFT6bYYqfTbFYAZ/AZSjxU+m2GKn02xWAGfwGUo8VPpthip9NsVgBn8BlKPFT6bYYqfTbFYAZ/AZSjxU+m2GKn02xWAGfwGUo8VPpthip9NsVgBn8BlKPFT6bYYqfTbFYAZ/AZSjxU+m2GKn02xWAGfwGUo8VPpthip9NsVgBn8BlKPFT6bY+o8panDjyEarhcHSMVQo5X4bHMVPNpYNW1KwAAcZo8V+9quimtX2AQe2NRGluinxxKD67T8RjdLvaroprV9gEHtjURpboo8cSg+u0/EYq3DJEuvx1L26mRvlRRil67bHZM/PU/idGV3X46l7dTI3yooxS9PEK11WP4nge4RHAAAgAAAA2bu/xWwOqS/nxIEoi8C1b5lszTKp9LkCP7u23bALH85r+fEgSs+Bat/PnZVPpcgbhuSRpOofpQ3J3QsaG/a/t7tcwPzYK4B+k/cndCxob9r+3u1zAwUlUUdS8I3+eQrBR1Lwjf55DdPtIktisAAGCoAAAAAAAAAAAAAAAAAAAAAAAAAAAAAAAAAAAAAAAAAAAAAAAAAAAAAAAAAAAAAAAAAAAAAAAAAAo5X4ZH9UxWCjlfhkf1TG4bklsVgAAwU8V+9quiltX2AQe2NRGluinxxaD67T8RjdLvaropbV9gEHtjURpboo8cSg+u0/EYq3DJEuvx1L36mRvlRRid5eINrqufxPDLbq26Vb4wX81xvlRRiV5eINrqufxPA9wiOQABAAAABs3dp/23U/qmv58SDK6Fq3+plU+lyBH12+K6n9U1/PiQZPQtW/0+VlU+lyBuG5JGk58A/SfuTuhY0N+1/b3a5gfmwPaQ/SfuTuhY0N+1/b3a5gYKSqKOpeEb/PIVgo6l4Rv88hun2kSWxWAADBUAHClJSWVKIi4NpjkAAAU0eo0+Y89GiT4770cyJ5tt1KlNmfEoiPJcB8IFUW02lsVIAAEADr5IYLYb7fviH2RkZZIyMj4yArTW5yAABAADjWSZmkjLJcJADkAAAAAAAAAAAAAAAAAAAAAAAEUacd1NoK3OD1Hj6ZL4TQHK+l9dPTyDJkm8lk0E4f3lterjfUeGxnOzODwBK4CkpNVgVylQq3SpBSIVQjtyozpEZE404klIURHt2kZHtFWAAAAAAAAAAAAAAAAAAAAAAAAo5X4ZH9UxWCjlfhkf1TG4bklsVgAAwU8V+9quimtX2AQe2NRGluinxxaD67T8RjdLvaroprV9gEHtjURpbop8cWg+u0/EYq3DJGunx1L49OlxvlRRiN4+IJrqufxPDLbq8dW9+pkb5UUYleXiDZ6rH8TwjCI5AAAAAAAbOXZ4rqf1TX8+JAkl/euW/1Mqn0uQI+usv7bad1TX8+JBkdC5b/AFMqn0uQNw3JI0nPjH6T9yd0LGhv2v7e7XMD82Bj9J+5O6FjQ37X9vdrmBgpKoo6l4Rv88hWCjqXhG/zyG6faRJbFYAAMFRGW6CddZsqnKacUgzuKkpM0ng8HKRkhVXLpHuSDfy9Htr2mzVZ6qSiptuPTOR2kp300K3xWqrBFsxgjMzVjBERmPnTrS6nV7Qp8ak06VNeRX6W8puOypxSW0SUGpZkkjMkkRGZnwEQ7I9MqSdPMysKp8koCrWajplG0reTdKUajbJeNXWxtxnONo2rW1Pb8F+yvhkJV4qWVVmk21r/AGVr2afPS+up10TSBddzW9ccRu1YtOuu3pHIkunyJ5nHypCXEOIeSgzNKm1EoudznZ6YwvQzXGNHehBi+LitinRUPwozyH6ae+zas64Z6u/ZQkzdUtZERGpRc8e0hm1rUupx770nTJFOlNMVCTAVEdWypKJBJp7SFG2ZlheFEaTxnBkZcIxWNZV0VLc42pSINKcbr1EYplRbp8tJsKW9GcQ4bKyUWUmeqZbcbcZGtNvYefTeBVOWEajClVqYdytJ6KVNykruT9GMm1eV8t9W2kzJIukm9qRUqW3pDsKNRabWpLcKNLi1QpRx5Lh4abfTqJ1dY+d1kmZEoyLjyJIPgMQ9clwVDS2VGtOj2XclNJmrwp9VlVWmritRGo7pOqQlS8E44pSCSWpktpnnHDMJ8BjElY9e4zh6dCNKTpqlUd80IttJJrK9ZSab10vsk7a3esOi5vc8yrRS9pDrVuor51ColKTOq29PERTHib1km4WOcJGNnBgTDXLxdt2TSLF0dW03WajIg8lMNKl7zFiwkGSSdceMlHgzMiSREZn7gtmg2zo0PRzEZuO1WmJ/J9SW4ibBJL2qqa8pBmS062DSaTI+MjLGwWPS5YlLfv8AgXnclo1mu2+dJ5XPpoz8lMiE6h01tub1HWlbjZkpRHjODIjwOSWWU7M9pxtfBcU45VoV5zlCMqjUXLNFyTeVQjmp6clnV9En3PM7d0mKdbr0S+aOm3anbMdM2oNlJKQwcVSVKS+04REakGTayMjSRkaTIWBzTDeMCkN33W9HKYdmuajqpZVIlzmIq8ashyOSMau0jNJLNREfHjAstsaNrduC2b2hWhYlZthqu0s6XFqFamSlvy8oXtNh9altNpUosGeDVk9mOHD4dhWGujRbZm6Dr2m3MTbUaVFdqNSap6llgluclb6bJNcKiMs8RYzsBRhf+v8Ak1huF8ElWq5qcnaUU42V4xcU5Nf26UfSvrKU8lkppPebLtv6swK/Ds+yLbbrtZlRDqLu/wAvkaNFi62oTi3NVRmalZJKSLbhR8QxfR9cVUq+me7Tr9KcpEyBQKY1Liqe3xlDhOyFGttzBEtBpUk9bBcZGRGRkKu4DnaO9JCL1TbdVqdCqNCYpEg6ZHVLehOsOrW2ZtpytTakuqI1ER4NJZ4cijtFiv3bpNvKtVW2qlRqTWbegw6e7KjqbcW2SpBK1yMsJcyo1amdYkmjODPAiSyv2HX0MPhqXDqsoQjklSX9pm9JydSGaNs1tNfRUU7JSvZ61CtMF4yKQ9fdJ0cplWYwlT5SzqRImvxUZ1pCI5oxq4I1Ek1kZkWdmcC5XNpWmw6rbVLs63OX67qp782AopG8o5wm1JNajSZIQaVmZqPaWCIiMzIQ5S9Hdm2/bjVpXHodvWq3VFZOLqw5lRKnz1lkkuJfQ7vLbaiwZ5ItXJlqiXGLak0vSFYSIFAeiU2lW/OiLS2pb7MRRkwSGjeMtp86ZEatqtUzFkorb+v9TzOIYDg2Fqp0qV0lVavpGajBuD0rTlK8reklBSu0knopBo71UfpcV6tw2Yk9bZHIYZd31Da+NKV4LWL08EKwAHCfns5KUnJK1+5dwAAAyAAAAAAAAAAAa+7u+sab6HuZrsqGgNtSLgbjmuXMZlExJg05JGqS+wozL76SEngyMlERmpPPEQ83tDO5Y3SfemVslpf0wafCi06gkuh0V2ZTUynHVoIlOYZaUyhsjM0azp6y1mW0j1SMek27l0d6Y9KO5vua0dBtdfgXJJSg1RmXUsrqcTOH4hOq/g9dBntyWtjUMySox5nWxps3ZHeW1Dj6Lrwsm2pVJurfaxS2Zz3JKWHiJCH9RxhZGRkZt6yFZLJkZcJgDI9z/pB3e1gbsK1dyvMvZ65WNHUgocykPy0NwXKLvaDU6p3VS46SY7iFNa+spB6hEWwyHsWPIjc+7mLd43tuorP3V91TU221eUput1asR5EdakUxTSVFFXFzsS4wlDSEmStXKVK55I9dwBrZuhN0xf8Ao00sUPRVY1uWcl+pUV2tIn3hWXKZFqS0PE3ythOkg0HKUR63PqIiIy2bRll8bqew9HM2RSrmotwPzaNR49cuXlTBOaxQIrpGZLkupMixhDqucJR6jalYwWR3addB12aYCXBpelFui0WfTXqXU6PULdjVaI8hw9r7ROKQpmQScpSvWWkuHUMyyMCvLcP0auVpuq2/dlJjJkUGmW9UeX9oQbgecYgtKaadjrlZSw6pCsLNSHUKwRmjJACqqm6yrce8NLlDo2jyoVal2HasC4aRUokcltSzkRZD2XlG6X3pW9I1DSRGZJdzwJyou6gmS3rHuW6CmW9Bquj+sXfVKC7RSW8+mGiOtb7Mjfj1EETp6iDSo1ksjM0mQyle5weYvq6q9SL2RDty9rUi2tWqIVHb1zTFjvsR3o76FoSxqpkry2TSknhONUiGL+BFuGoU6gRbl0tR58i37Br9gMvs27yOTkaoIZbZfUnklRa7KGEkoiPDhmZ5b4ABkdsbsLRJX397qrFxWsw7bL94Q5dw0pcJibSWSSp+Q0tRnkkEtJmk8KwojIjI8iltvdmaLrguWg2vJt+9KFIualTa7S3qzQnIrMinxWd+ckJUo9qTRtIsa3BkiyWbdpB3J9Kuql2qmuV2dVKfZ2jytWVJpkGGlqTV25sVho3GnVvElhwuRudSrWIzWWVJJOTg7Q/amlDSLp70Xz5FcvibR9Hdq1ymy59esfmfXSOSY7UeMwRO743Mlc4ZrUk1NYaI9UiPCgNttEmnK2dMaH3reoFyU5pEONUY71VpqmGZsV/W3t1lwjUhZc6eU5Jacp1klkhIwhfQRud5mhq4a7cMy9IlUXWosaIcSmUFqjQyNlTiuSXI7K1NKkr3zC3EJbIySXOEJoAAAAAAAAAFHK/DI/qmKwUcr8Mj+qY3DcktisAAGCniv3tV0U1q+wCD2xqI0t0U+OLQPXifiMbpd7VdFLavsAg9saiNLdFXjiUH14n4jFW4ZIt17NKt79TI3yooxK8zzYbGfPY/ieGXXZ46t7bf5si/HFGJXoWrYkcvyqf/AO4GERwAAIAAAANmrq23fTuqa/nxIcjoXbfLH811T6XIEeXSf9uFP6pK+kCRHizuXbf6l1T6XIG4bkkaSHwj9KG5O6FjQ37X9vdrmB+bBQ/SfuTuhY0N+1/b3a5gYKSqKOpeEb/PIVgo6l4Rv88hun2kSWxWAADBUAAAAAAAAAAAAAAAAAAAAAAAAAAAAAAAAAAAAAAAAAAAABhWkXQpoi0urgOaUdGtuXWqlk4UJVXpzUk45OauuSDWR6utqIzjh1S6QzUAB0wocSnQ2KfAjNx40VpLLLLSSShttJESUpIthEREREQ7gAAAAAAAAAAAAAAAAAAAAAAAABRyvwyP6pisFHK/DI/qmNw3JLYrAABgp4r97VdFNavsAg9saiNLNFXjiUD14n/eN0+9quimtX2AQe2NRGlmivxxKB69R/vFW4ZI92eOre3UyL8cUYpepf2gsH+Vf9z4yu7fHVvbqZF+OKMUvTZo/ZL8rF8UgGERsAAIAAAANmbo8WNPx55K+kCRndu5et/qXVPpcgRzc/ixp3VJX0gSO50L1v8AUqqfS5A3DckjSJQ/ShuTuhY0N+1/b3a5gfmwUP0n7k7oWNDftf292uYGCkqijqXhG/zyFYKOpeEb/PIbp9pElsVgAAwVABj10XZJtpyO2xZ1wVsn0qM1UthpwmsY2L13EYM87MZ4DFj79OoehHfn6FF+0ADPQGBd+nUPQjvz9Ci/aA79OoehHfn6FF+0ADPQGBd+nUPQjvz9Ci/aA79OoehHfn6FF+0ADPQGBd+nUPQjvz9Ci/aA79OoehHfn6FF+0ADPQGBd+nUPQjvz9Ci/aA79OoehHfn6FF+0ADPQGBd+nUPQjvz9Ci/aA79OoehHfn6FF+0ADPQGBd+nUPQjvz9Ci/aA79OoehHfn6FF+0ADPQGBd+nUPQjvz9Ci/aA79OoehHfn6FF+0ADPQGBd+nUPQjvz9Ci/aA79OoehHfn6FF+0ADPQGBd+nUPQjvz9Ci/aA79OoehHfn6FF+0ADPQGBd+nUPQjvz9Ci/aA79OoehHfn6FF+0ADPQGBd+nUPQjvz9Ci/aA79OoehHfn6FF+0ADPQGBd+nUPQjvz9Ci/aA79OoehHfn6FF+0ADPQGBd+nUPQjvz9Ci/aA79OoehHfn6FF+0ADPQGBd+nUPQjvz9Ci/aA79OoehHfn6FF+0ADPQGBd+nUPQjvz9Ci/aA79OoehHfn6FF+0ADPQGBd+nUPQjvz9Ci/aA79OoehHfn6FF+0ADPQGBd+nUPQjvz9Ci/aA79OoehHfn6FF+0ADPQGBd+nUPQjvz9Ci/aA79OoehHfn6FF+0ADPQGDxtJs+RIajnoqvhknVpQbjkOMSEZPGsoyfM8FwnsGcAAKOV+GR/VMVgo5X4ZH9UxuG5JbFYAAMFPFfvaropbV9gEHtjURpZor8cSgevUDdPvaroprV9gEHtjURpXos8cSgevUCrcMki7fHVvbh/iyL8cUYteyf7n7J9Kqp+KQMpu7x1b1x52xfjjDGL1L+5411WR8UkRhEZAAAAAAANmbo8WVP6pK+kCSHOhft/PnVVPpcgRvdHizp+3+clfSBJDmPAv2/1Kqn0uQNw3JI0iUP0n7k7oWNDftf292uYH5sFD9J+5O6FjQ37X9vdrmBgpKoo6l4Rv88hWCjqXhG/zyG6faRJbFYAAMFQAAAAAAAAAAAAAAAAAAAAAAAAAAAAAAAAAAAAAAAAAAAAAAAAAAAAAAAAAAAAAAAAAAAAAAAAABRyvwyP6pisFHK/DI/qmNw3JLYrAABgp4r97VdFNavsAg9saiNK9Fnjh0D16gbqd7VdFNavsAg9saiNK9Fnjh0D16gVbhkkXd46l7dTYvxxhjF6+N211WR8UkZPd5/3VL16mxfjjDGr1L+5y2f5Xa+TKBhEYAACAAAADZm6PFpTuqSvpAkhfQwW/nzqqn0uQI3ufxaU7Z/OSvpAklZGe5it/pcqqp9LkDcNySNIFD9KG5O6FjQ37X9vdrmB+a9XCP0obk7oWNDftf292uYGCkqijqXhG/wA8hWCjqXhG/wA8hun2kSWxWAADBUAGNXg3U3pVEbpM5UaQUxbiNvOOGlhw9RwuNJ4wfS4S2kQxs71lx4EuU085Fek1R9tKZKU4aUhlvLRmtRER6+SIkkZq26pcYAkkBhTdwV+c6w6xMYjtvuw2Tb3jW1d+ZJajIzPhI+Di6eRb6nf9Tgx6erfmCkKQSnULQlKZGHzbVq5XrGeEmeEJPVyRmeMEYEigMQvuRX2ptKbt4zN9xMrXSS8K1CQRmaCPnVOEWdUlbNYyzsyKCp3k3SXaTDokxK4ziY2ql80mp5DjxNq55StdSiLOcJ50/DHxADPgGCvXTcsWIue0hmcp1NUJiIlkyVrxlrJsiMjyrJJwZY25LGOOn5rFxiqdQbuJic0luG2iU0hCWmzUtzWzrLJCccBqM9mwjIzLBgSEAjx687gVb79aZfjJODSX6gtG9axPqadWnGc7EqJHF09guDl1TyuFunKqMVpaqnyIdPNk99KPqmZPa2c4UZEecau0i4SMAZmAAAAAAAAAAAADGbhpsSRcdDU6hz+yHnkOkl1aSWSWFmRGRHjYZEYAyYBHNQvKdN5ewmJaSbYiS1JLVJLrC2lpSWUoUaiyR5wrCj2GRFnAr2LyfZksOP1aHJpCZ6Y71TSgktGlUdxWqasmkjS6TadbOOeJPDkAZuAj+Nd1fmNPzWZbCWolNbnmg4/8KZyH0Gk9pGkjQ2Xp52+kK9m6Jrl0xaUqpxUqdnSI7sDey31tlDTim3DPOS1jQk8mWDI8FwGAMxAYHV4tUqd51eFAZUtaKdBNl5UxTSYi1LkZcJJeGPnSPGNuqRHsHVU7wnOVSq0dmSk0Nx5jZowlDrSm2jNKyIlGoiMyPBqIsltItmTAkEBga7xqDFEJ6a8mBNOUmMtlwm/7GTqmaNZa1Ek9ciIyVtznVIsjrh3jcE6ntVdLsZtCIlLkOMbzklqkOGlwtbOSLBZLpHw54DAkAAAAAFiu11tmLEVMkOsU/kpPJriFqRqtaqsayk7Up19TJ5LZw7MizQa/DpizkxKkjlA5UENNyXnTW0STYM1ajij8LvhJIjzjJmRADNgEcu3VVm4j1dOrJQtdsuzo8dSC3tx9snFGoiPaeC1TMi4jIXKNeCkJKS7WYcmntyWG3pxJJDaNdC9dCjzgjSokFnhLWIj2gDNAGE0WuTqlcNIkyKqaI02DN1GdUkoeWh9JJxnbram3p4I/TGbAAAAAAAAAAAAAKOV+GR/VMVgo5X4ZH9UxuG5JbFYAAMFPFfvaroprV9gEHtjURpVot8cOgevm/jG6ve1XRTWr7AIPbGojSrRf44Vv+vm/jFW4JJu/x1L16mxfjjDG71L+5ujqu18mUMku/wAdS9ep0X44wxy9i/uboPpVdn5MoGERcAAIAAAANmrmJXNlTVY2HU1F7vJAkhezcw0DqTVPpcgR5dZYvCnJ6VWc+kEJDcx4GGgdSap9LkDkhuSRpAofpQ3J3QsaG/a/t7tcwPzXqH6UNyd0LGhv2v7e7XMDjKSqKOpeEb/PIVgo6l4Rv88hun2kSWxWAADBUAFhui+bYsyRQ4lx1E4rtx1RujU1JMuOb9LcQtaW8oSerlLaz1lYTs4eAU1B0k2bc92V2ybfqyp1Vto20VVLMd02YriyylpT+rvRuY2m2SjURcJEAMnAAAABYbovm2LNl0CDcdROK/c9URRaWkmXHN/mKacdS3lCTJHOMuHrKwnncZyZZvwAAAAAKBdDpzk9NScbeW+he+JJUhw20r1dXWJs1ahHjjwOi7bqoVjWxVbyueacOkUSG7PnSCaW5vTDaTUtWqgjUrBEZ4IjM+Ihj/fzaOVVe06AzXlv1K9oZVGixWYb7jr0TUJe/rSlBmy3hRc+7qlk8ZzsAGbAAAAAs9u3TT7mXVW4ESpMHSKg5TXzmQXYxOOISkzU0biS31syUWHE5SZkZEewxeAAAAAAAGBXxp10UaOLoodlXheEaFXrikMxadT0NuPPuLdUaWzUltKjbQpSVES16qcke3YYAz0Bj1939amjS3V3XelTOBS25MaIp8mHHsOyHkMtJ1W0qVtccQWcYLOTwRGY6GtJllSNILui2LWOSLljQSqUmGxHdcKLHUeEKecSk22jV/JStRKUW0iMgBlAoSotP5YJqhtuqkIUakGt9xSEKNOqZpQatVJ4MyyRcZiuAAAAAAAAAAAAAAGPX3pBs3Rlbr1133cEakUtlSWzffMzNbitiW0JSRqWtR7CSkjM+Ihjs7T9opp9h2/pJfuVxVDupLaqKpmBJdkz98Qa0paiobN9atVJq1SRkiI8kQAzydCjVKFIp01rfI8ppbLqNYy1kKIyUWS2lkjPgHclJJSSUlgiLBDAomnnRHN0ezdKjV7wm7Zpji2Jsx9K2jjPIUSVMuNLSTiHSUZFvZpJWTIsbRV6OtMGj7SqdQbsutOyJNJNsp0OXBkQpUcnCM21LYkIQ4lKySZpVq4PB4MwBmYDBtIumzRnopkwKfetxHGqFUStcKnxYb82ZIQjwykMR0LcNJcatXBC7WFpEsvSfQEXRYdwxqvTVOrYU6zkjbdQeFtuIURKQsuNKiIy6QAyMAAAAAAAAAAAUcr8Mj+qYrBRyvwyP6pjcNyS2KwAAYKeK/e1XRTWr7AIPbGojSnRf44Vv+vmvjG63e1XRTWr7AIPbGojSnRf44Vv+v2vjFW4ZJV3+OpevU6J/wAsLDfREWjbZ58R/kSxfrvL+6nevU6J/wAsLDfezRuZfliP8iWDCIpAAEAAAAG0F245s4Bfldz6QQkFzoYaBt/mmp/S5Aj67CI7zgmZ4I6wsv8A7AkF3ZuYaDjzoqf0qQOSG5JGkKh+lDcndCxob9r+3u1zA/NeofpQ3J3QsaG/a/t7tcwOMpKoo6l4Rv8APIVgo6l4Rv8APIbp9pElsVgAAwVGt27Wpdz1un6KaPZlfbodam6QoLEOpLZ34oa1RZRb6SD2KUkjMyI9mSLOwYPo7vROhbQLpH0RV60Jyr7sFl+RUo9Ekram3HGkuYTWmnuecy4S9Z1Zaym1JUREWEpLckBbg86Yd81KE7pioVnXa0u33tB9VrrKaVVqhNjt1Bo97S+3Ilnrm6SXFEpTeqWSLPPFskW34lbsLS1oUKzK/XXpd96PKvIq7M6rSJbU+ZHhxnI7hodWpKFE44e1JJ2Hjg2DdEAuDzxseqWfU1bnlbdx3PUNICb6infDFTkzHCYqZwJpupeQ997ZcJeuTaUEnLetgjIslcKlpJen6U7fuOgyZtCrrulin0apU+ZW6lKqaILk3kZaH2DIoseM6g9ZCMKLCkmk9bg3+ALg87Lrcq1P0Q6edMcO6bhaueyNKU0qFITWJJNRG0SYxb0TJL3tTaiWojSpJkZbBken+4osO6t0InSZddyUm4IVumvRxHjTZcdpUQqYanXI6GTJtw9/199UrJpLOTIiLG+AjDSXoDoelKZNVWr6veBTKtE5Aq1GptZNqBUY5pNKm3G1IUaCUkzJRtKbNRHtMwuDAL5kyJneftWly33H33tF63HHXFGpa1HT8mpRntMzPjMRruVG6roTvW3YelyoM1mTpatiluW1dBsqQTCmIyP+wzyZpbJKMON6uCWevnnsDcyjUim2/SIVCo8REWBTo7cWKwjwrTSEklCSzxEREQrAuDQW2dKvJNmbn3RxzSVhN30HSY3TroiOlIQ6zhNQwzIWoiJRLLUUlJmeslOSySdmS2JV7RlXpJjaT7y0gQtMhX9INmn06TLNXK8pZpioRHURxjpyouobi9XBayz1iWRY3VALg8/qpVK/WH6lSH7orbDMndRIpKlRqi604mEdLycdK0qylszyeqWCIzyWD2ivuaVeVmsbo3R1Y9euZNv27XLVcQ2xOkS5lNpktLC6mqM4pSnS+9G4rCTM0lk04Mb5C13Pb8e6qDNt+VPqMJqa3vZyKdLXGktbSMlNuoMlJURkXxHkjMguDWbQNWLKl7qGrwNFV01aq2X33UGTDTInSpMUnzqL6XFMKfUalFhKcmRmWtrFnYZFtaI80d6FKDo+uCoXg5cty3RcdShtU56r3BOTIkJhtrUtDCCbQ22hBLWpWxGTM8mZiQxABrduyqZTmWdFdVagR0TZOlK3WXpKWyJ1xtBSTQlSuE0pNSjIj2FrH0zGyIADXfd8Nz3tzVV2qVIbjzV1ugJjOuJ1kNunVouopRcZEeDMhGlsSL90MUHTHoYkEufpaqdJqF1W9dKGdV67CUyeFJLJ4fjr5zeknqpSaDSREZme6Y6J8NqowpEB9byG5LSmlqZdU24RKLBmlaTJST27DIyMhbg0q0S1nR8vTJoLh6Lb3uqqsSqVWyuJuoz5r6Fz0QGzM5BSDwmSSjc1kJxjZlJYSN3BGFm6AbftO64d51C8rxuqpUph6LSVXDVClJprTxJJxLJJQnJqJKUmtw1rwWNbhEngwAABAAAAAAAAFivaBCm2vUlzIbL6osSQ+wbiCUbThNLIlpzwKwZlktu0xqbQNOWjzQBuNdCt63TSafULjdoUSDbDcrVRqSXGUpcWbyiPeWkoMjcWW3V2bcjc8ABorOptqVDc9w7zse72NJSoOlOl3vfsqisrdbcUUtD0tDTJFrG222aMJIjM0oye0zEpaLq9TdLW6zrWl7RvNXOsuBYzNAl1NtlbcefUVzCeQhs1EW+Gy2hZKP8Akm4SeMxswAtwavX3dVH0MbqOv6RdJSnKVQrlsqJS6Dc78JciHTJTD7qn4zqkEe9m6bjLhEeCXvWM5IhFtUr19XHokqFalbxRqdX9LtvRaXW6FR3aDJrMZyYwh+aps1qX98UpRJWo+eSkjMuIb5gFwWu2bbpVo0OJblEbfRBhJNLRPyXJDmDUaj1nHVKWo8me1RmYugAIAAAAAAAACjlfhkf1TFYKOV+GR/VMbhuSWxWAADBTxX72q6Ka1fYBB7Y1EaU6MPHCt/1+18Y3W72q6Ka1fYBB7Y1EaU6L/HCt/wBftfGKtwySru8dS9ep0T/lhYr88bky/LMf5EsX+7CzpWvQvydE/wCWGP34WNHai/LLHyZYMIikAAQAAAAbRXgWL1ip6VYX9IGfvdDDQepFT+lSBgF4n/buz6VYWf8A9gxn7/Qw0EvyRU/pUgbhuSRpCofpQ3J3QsaG/a/t7tcwPzXq4R+lDcndCxob9r+3u1zAwUlUUdS8I3+eQrBR1Lwjf55DdPtIktisAAGCoAAAAAAAAAAAAAAAAAAAAAAAAAAAAAAAAAAAAAAAAAAAAAAAAAAAAAAAAAAAAAAAAAAAAAAAAAAo5X4ZH9UxWCjlfhkf1TG4bklsVgAAwU8V+9quimtX2AQe2NRGlOjDxwrf9ftfGN1u9quimtX2AQe2NRGlOjDxwrf9ftfGKtwyTrp26WLz6nRP+WGPX943yy/LLHyZYyK5yzpZvLqfE/5cY5pA2WCsvyyz8mWDCIpAAEAAAAGzNcqMKtXNBq9Oe36JNqCJMdzVNOu2t81JVgyIyyRkeDIjEkv9DFQepFT+lSBDlvFmn2l0t5gfGQmN/oYqCX5IqX0qQNw3JI0gUP0obk7oWNDftf292uYH5r1cY/ShuTuhY0N+1/b3a5gYKSqKOpeEb/PIVgo6l4Rv88hun2kSWxWAADBUAHy442y2p11ZIQhJqUozwREXCYNuNvNpdaWS0LSSkqI8kZHwGAPoB1yJDMVlT8hwkNoxrKPi24HYAACnbnwnnZLLUtpTkNRJkJJZZaM0koiV0udMj9Qx9xZUabGamQ30PMPIJxtxB5StJlkjI+MgB2gOtiQxJbJ6O6lxBmadZJ5LJGZGXuGRkOwAAAAAAAAAAAAAAAAABblXDREz+VaqkwUvOrvOtz2c44PVAFxAdT0mPG1OSHkN76sm0ax41lnwEXpmO0AAAAAAU6KhBcKSaJbKuQ1GiRhZfelEklYV0udMj28RjiHUYNQQTkKU2+hTaHkqQeSNCyylRHxkZbSAFSAAAAAAAAPlxaGkKdcWlCEEalKUeCIi4TMxS0+sUuq6/K2exJ3vGvvayPVzwZ9XBgCsAfKnG0KQla0pNw9VJGeNY8GeC6ewjP3B9AAA+FuttmknHEpNatVOTxk+kXp7DH2AAAAAAAAAAAAAo5X4ZH9UxWCjlfhkf1TG4bklsVgAAwU8V+9quimtX2AQe2NRGlOjDxwrf9ftfGN1u9quimtX2AQe2NRGlOjDxwrf9ftfGKtwSjcZZ0t3iX5Pif8ALjGtIeyxlF+V2vkyhk9wFnS7ePrCJ8UcYxpEPNjqMvPhr4pQMIikAAQAAAAbBW2kzp9qet4HxkJgeL+9koPUepfSpAiG2CzTrWL/AEeB8ZCX3uhloBfkepfSZA3DckjR9XGP0obk7oWNDftf292uYH5r1cY/ShuTuhY0N+1/b3a5gYKSqKOpeEb/ADyFYKOpeEb/ADyG6faRJbFYAAMFRarjcqJU52PTqU5OVJbcZMm3UINs1JMiUeuZEZZ4cHnpEYx0reuJuvwnDclHHYKKSXWXEE22hCCJxCiUslYUZK4EHklFtLBYzcABH521c7EaOiI3J13qW6iZmYR5kk+ybfCrhJG/YMthFs6RC60Wm12Jds2S/GfOA+Tyt+kSCUesa0mhKCSs8oIs4JTaTRwEasmMrAAYHPtWvO16svRWyTAr8lDE4ycSSjjJYZLfE7ckfOvtmXDz6VcCR1KoV0x3qCxEp622YCIKFraeSRNpS6W/JVl0ixvezCUK1uDPAQkEABgUeh3ZBh1Fo4vJTslD3IhpdJBRkKfMzbwTiTNSkmSiUSk5MtUzRgh80O2a8+/HYr0eUmC3IlqJtUoi1W1ttb2Rkhw9muTmCyeMeoYz8ABgKKVea6jR3pEV7MZqGTz6ZCTzj+HJZm5w7T2JQecZ1j2EV2tyi1OmTYjz6HkpchOpmGuRr5f31Jt7NY9urr7S2EWzpDKAAAAAAAAAAAAAAWadCqB1tdQiMJUSaY6y2al6pG6a0mlJ42kWzhF5AARhFty71MvNz6XLdjlIgSEx+SkIUpSDd380mbyzLJb3wryrPDw4u0mnXQxTTKHTJbhuxp7DUcpbevG3w0mzrKUvB6pJMudNWMkRZLaM5AAYkqhVgp/LFkn0vlUkKJXJHOlG5HSlXO62Ma+dmMmZEfSMW2yn3HK1DYNTq3mKc8me7yeUhD0jXZLfMEo9XWMl41iSoyyWqRJGfjgkpLJkkizw7ABgs+1a4uq1JcBom41ekb1UFG4n8HQlBktJZ8Mot9aPj55J8CR80u1663GpEGZHdRHjs05uQhEkiIibjOocTzqtpa5oIyLh9MhnoADAuVV3RID8dEKTJW/CnQmsS0ZZ+/uGwpRqVt+9GgiMsmWCI8cVWu150moOSJLUg0uzHjXiWZEbBsESCwSuDfCIyLiPb6YzIABR0duW1SYTU/W5JRGbS9rK1j3wklrZPj252isAABbLlpr9XoU2mxlIJ19rVSSzwlW3Oqr/ACVYwfpGYx2q0y4a4+/VWKS7THY9OcitMrkN68hZutrLnkKNJJImzIjMyP74ewi4c1AAYaqk1SoVVisT6G8W9VhuQ00t9s1ssnFS2ati9XY4WTIjM9h4zx2WBSLiq1Ac5WMyozkimS2lSXZ2smU6v+B1S1jNJpwfPGSdXgLJHkSYOCIi2EAMNk0urVaUVTnUB8kt1KPIajOSGjWlsmtRR7F6pYUecZ2kWzJ7BmYAAAAAAAAAAAAAAo5X4ZH9UxWCjlfhkf1TG4bklsVgAAwU8V+9quimtX2AQe2NRGlOjDZpCt/Pm9r4xut3tV0U1q+wCD2xqI0n0Z+OBQPX7XyhVuCWK2RHpfvAj874nxMDFdImyyFl+WG/ilDLKwWdMN4esInyWBiekXxErL8st/FKBhEUgACAAAADYa1CzAtci4o0D4xLrvQzUAvyPUvpMgRJZ6daBbRFw8iwPjEuudDPQPTo1R+kyBuG5JGjiuMfpR3J3QsaG/a/t7tcwPzXK4x+lHcndCxob9r+3u1zAwUlUUdS8I3+eQrBR1Lwjf55DdPtIktisAAGCoh7dN7oZvc32jRbvfs5+4mKnW2aXIZYlbyuMyptxxyQX3tevqIaUepzufJFgWzdEbqu39BFKsuXDoPNPMvaoMR4UVmbyOSIazQS5hrJtfOJN1ksYLJuJLJC+aedHtb0gz9HDNNo6ahApF3tT6ylTraCbg8hymlqMlqLXLLqS1U5Vz3BgjGtD25Q04yrPuSNc0Bqu1W3ptItixSTNYSrmZiVNElTy1LcJKXFNk2kyUZLxGIsGZ5VVYG3lxaZdFNpXC3adzaQaFTKu4bRciSZiELSbh4bJeTwjXPwutjPFkWYtOts0+8NIFvXaqHQKZYRUnfKtKmlvck5zSlpTqGktQyMiSREpRqM9mOAQFumtEW6H0mxdJds0m2Z1Rg1h6A7byqfU6bDgux2jYUtEpLmrIcfJaHTI1K3vGrgyxg+7SFuetL8zTJcmmm26Wqpros22anRbclzoyYFfVFiOMy0rJSvvUhvX+8uuGlKV7S1iPJLA2OufTVomsufFpV26QaJR5kxlEhpibKS0smlnhC1krahJnsI1YLOwfN26bdElhy34N5aQ6JR5EaMzNdblSkoUlh01k25jyJm25t/yTPiEAborR3ugdJLOkSj0ez6o/TLltlqNQ2IFVpcNtD/ACMonY9QU4ZvOr35RkjUXvWqeDUnaoZZYmhu7IOkipXFctqR1RH9FdEthp956O6ZzmjkHJj4JRqIufayrGorZgzxsAlq5dMOi2z6dTavc1/USBErLe/U512WnEtvVJWu0RGZrSSTIzUWSIjLaOqt6a9EtuRaZOrekOhxI1ahrqFOeXLSaJcdOrrONKLJLLn0cGfDF0xrtaOi7dEWvZ2ia1XrampptEssqVV2KRVKbHnw6oSkEROyXiXmNvZKIyjmpWtg8GRDv0O6AdJVs1rc9SLptJtDFg21XIFaWuZHeKFJf1SYIsLM3NYiPCkEoi4zILA2ite6rbvagxLotGuQqxSZ6TXGmw3kusukRmR4UWzYZGR9IyMhBtI3XLdyUC32rasFVRvS6K7U6TTrdbqnOojQZrsd6fIk7ye8sETWsZ72o9ZRITrHkxlm5lsK5dHNh1e37opCaY89ddbqEVhLzTieRJExx1lRb2pSUkpKiPV2GWdpEYgDRnuXdKWhuPF02WVQpitIabmqx123naswbNaoEme4pDLS1Obyy4lG9yEZUXPmslYNWCA2nrOmTRdbVws2hct/UGm113eiVBdnJJaFOeESrONXWPYnWwauIh9yNL+jGLeS9Hb98UhFztvsxlUlUguSSddbJ1tOpw88gyVngwZdMav3PuctJLtz6TaZLsqvXVQ9JlaKrJcj3bGpkRhlxppCo85Ckrey0bZ6qmUukZEkiJOBMGifRXcVrboXS9ftZoDbVKuNFAZotQW+065IRGpzbLxbFG4jVcSZc+lOtjJZLaAL/b+6BsLmIt66b7vG1qO9cMV+XHKLUzkRHkNL1VqZeUhBuEWU550jyrGDF+f0y6KI9kxtJD+kKgotiasmo1VOajkd5w1GkkIVnnl6xGWqW3JHs2DXbQ3oA0l229ucFXXZzbSdH9JrzFe15kZ0oL8htSWMarh74ajPhb1iLO0yFjr+ie9NHsC0buqlHo5FbGlmvV+Lbk+swoaKpEnKeKOqO444TJPpJe+IbWpJ7VZ1TCwNtLO0kWHpBVPRZF2U2tnTFNJmchPE4TCnEa6CUZcBmnbgZINYNyHKfrGlLT3ca6LEprVRuWnqJqHJbkspdKEk3Eb61ltbhGotfUMyJRmWT4T2fEegAh2p6fqxTtPVtaHHdF1SYpdyPVCKxcUua2yhx2JEVIXvMckqW43giRrqU2WTPGtgxMQiHSVYd13Bp+0O3tSKVv8ARbVdrqqvJ39tPIxSKeppnnFKJa9ZZkXOErHCeC2ggX7SVpX77y7NH1r8oOWHN3XF0bf+St65D1Y7j2+auorfP4PV1cp4c52YFxvq93bRq1p05CqOSLirBU1zk+cqO5qm0tf9jpJCt+dykucM0ljJ52CON0xa2kSq3ForvHR9Ycm7V2bczlUnwI1QiRHTYVEdaI0qkuNoM9ZZbM5FHetG0qaWaponuaZonqFsOWvfBVCpwp1VgPuMwUxXElI1mHloURrcJOokzXsM9XG0WwMt0a7pTRfpNau+RSq4xDj2ZUJESc/LdJts2GiSfJWseCS0esZFrGR86eSF+pOm7RHXqFWLmo+kOhy6ZbzByqrIalJMobJJNW+OFwpRqkZkoywZEeBAl2aCNKl02Jps0WR6EVORdN2ldtDrKaiyUeoNm/EdOEtKVG6yoyjKSalI1OfI+ewZC31bQZpEuu1NKtVVoxr8C5K/YEi1qYuuXfEnSprit8UlgkM/eG2iWojS4t0lc+ZGlJBZA2ntO9rSvuC/U7NuGDWYcWSqI6/DdJxtLyUpUpGsWzJEpOfVF7FlsqjJt6z6JQygMwjg0+NHWw0lJJbUhpKTSWrs2GWNmzYL0IAAAAAAAAoq3U+UtFn1goEudyBFdk8iw2jdff1EGre20FtUtWMJSXCZkQiG1d0BdcnSPbmjnSPomdtKTeFMmVSjrRWUTnEtxktqdbltJbQcdwidTsI3E5yWtkhLVxHX00GoqtVMFVZKK6dPTO1uRlSNU97J3UMlahqwRmW3GcDWqxdFuk2Zp9pmlI9EiNHHJEeYm95XNE1UGrhccaImksMIWs20odyslqJtRFs1TyYqBd2d2C67TUaRVaL5Leixy4Dt4rqVVmyeJZSTinKOFveSjE8RpNZu6xYzqDI723Qd0Uy7bstjRxomevJuwYbEq45JVluEbKnWTfTHjIU2vkh7eiJZpM0FzyS1smRCGkaANODuh5G5KlWbD5liuRyW5eiasxvSqQupqnKQmLnfyk8+aCI06nHrCQK/Z2mnRrpB0oVbRjo6jXdA0nNxJMWQussQypE9qEUVXJCHTJTjJkhtZG1rK8MnG0jJoCa7b0i2rc2jmBpUiVBLNvT6QitlJe50moptb6al9LVTnPSwYxwt0joEUiWtOly2D5BjNy3yKoINSWV41VkWcmWTItmcGeDwLTTdElXs/cor0KUlSanVoVjv0JnVWlCZMs4a2ywpZkSSU4rYajIiI9pkMGszQfdtI0jaEq7Ns6KzAs/R7MolYdJ2MfIs5bcYkNapKM151HueQSklt27doEh1nT7RI2kPRfZttw4tepek5ipyYtai1At6YbiMtuEpKSQoniXvmPDJ1ccfAUqjSWhaH9OujqPoBr1P0QzLgk6PnbvKsUyHWacw4wifJM4uqt59LaiNsyVhKj1SLB4PYNu7Hr1x3Jb7VVuqx5tpVBxa0rpcyZGlOtpJWEqNyM4tsyUW0iJRmWduDBgv4AAgAAAACjlfhkf1TFYKOV+GR/VMbhuSWxWAADBTxX72q6Ka1fYBB7Y1EaUaMvHAoHr9r4xuv3tV0U1q+wCD2xqI0p0YeODQPXzfxircEs1Ys6Ybw9YRPksDENIh/wBpa+rCPilDMKqX92K7/WMT5LAw3SHkrMURnn/thP8AzIMIi0AAQAAAAbTv0qFR7kRSaYzvMWDMbjMN6xq1G0PqSlOTMzPBERZM8jP1YPc02+X5GqP0mQMMqvPXrK6pZ/8AsLGaEWdzXbxF5zVD6TIG4bkkaNq4x+lDcndCxob9r+3u1zA/NerjH6UNyd0LGhv2v7e7XMDBSVRR1Lwjf55CsFHUvCN/nkN0+0iS2KwAAYKgAAAAAAAAAAAAAAAAAAAAAALfXbeoF00x2i3NQ6fV6e/sdiT4yJDLn5yFkaT90hcAAFvoNvUC1qY1RbYodPpFPY/gokCMiOy3+ahBEkvcIXAAAAAAAAAAAAAAAAAAAAAAAAAAAAAAAAAAAAAAAAAAAAAAAAUcr8Mj+qYrBRyvwyP6pjcNyS2KwAAYKeK/e1XRTWr7AIPbGojSrRft0hUD162N1e9quimtX2AQe2NRGlei3xw6D68QKtwSxVdmmO7/AFhF+SyMO0iY5jVYPP8A2uj4pIzGrGRaYbwM+AoEX5LIwzSCebLM/wArp+KSDCIuAAEAAAAG2Uznr0k54eTs/wD2FjN0Fnc2271Hn/SZAwmQRne8o8/4Z/zCxm7Jf3t9uF+R5/0l8ckNySNF1cY/SjuTuhY0N+1/b3a5gfmvPjH6UNyd0LGhv2v7e7XMDjKSqKSooUpklpLOoojMVYcIsXZ3I1c6m5LDiCUTiSzxGeDIfW/NeWo98Q6lQIqj1t7xnpHgfPK6L5A/fGNegTU79+a8tR74g35ry1HviHRyui+QP3xhyui+QP3xhaI1O/fmvLUe+IN+a8tR74h0crovkD98YcrovkD98YWiNTv35ry1HviDfmvLUe+IdHK6L5A/fGHK6L5A/fGFojU79+a8tR74g35ry1HviHRyui+QP3xhyui+QP3xhaI1O/fmvLUe+IN+a8tR74h0crovkD98YcrovkD98YWiNTv35ry1HviDfmvLUe+IdHK6L5A/fGHK6L5A/fGFojU79+a8tR74g35ry1HviHRyui+QP3xhyui+QP3xhaI1O/fmvLUe+IN+a8tR74h0crovkD98YcrovkD98YWiNTv35ry1HviDfmvLUe+IdHK6L5A/fGHK6L5A/fGFojU79+a8tR74g35ry1HviHRyui+QP3xhyui+QP3xhaI1O/fmvLUe+IN+a8tR74h0crovkD98YcrovkD98YWiNTv35ry1HviDfmvLUe+IdHK6L5A/fGHK6L5A/fGFojU79+a8tR74g35ry1HviHRyui+QP3xhyui+QP3xhaI1O/fmvLUe+IN+a8tR74h0crovkD98YcrovkD98YWiNTv35ry1HviDfmvLUe+IdHK6L5A/fGHK6L5A/fGFojU79+a8tR74g35ry1HviHRyui+QP3xhyui+QP3xhaI1O/fmvLUe+IN+a8tR74h0crovkD98YcrovkD98YWiNTv35ry1HviDfmvLUe+IdHK6L5A/fGHK6L5A/fGFojU79+a8tR74g35ry1HviHRyui+QP3xhyui+QP3xhaI1O/fmvLUe+IN+a8tR74h0crovkD98YcrovkD98YWiNTv35ry1HviFIpZSZre9bUtbTPiHZyui+QP3xjvaabZTqtoJJBeMdhq9z7AAGDR4r97VdFNavsAg9saiNLNFRZ0iUEv9LT8RjdPvaroprV9gEHtjURpbop8cWg+uy+IxVuGSnXDxpdvM+lT4vyWBht/+Ir/W6PikjMa947d6dT4vyWBhl/eIsi/KyfikAwiMgABAAAABtiozVe0k8f4SR/8A2FjOY+fA424X5GnfSXxgpKSV8yEnxv8A/MLGeMFjc5W51HnfSXxuG5JGiquMfpR3J3QsaG/a/t7tcwPzXHxj9KO5O6FjQ37X9vdrmBgpKoAAAAAAAAAAAAAAAAAAAAAAAAAAAAAAAAAAAAAIR04bqG19E7zlvUuKVbuJKSNUZLmqzGzwb6ss7cbdQtvBkyzka4Td2lppkyFOxZFHiNmfOtNwSUSfdUZmY5oUJzV0e/cD8mvH+PYdYujTUKb2c3a65pWbtydrPuN/QHn14MvTj57Uvsc2Hgy9OPntS+xzY3+y1Du/qZ6RetS/NL5T0FAefXgy9OPntS+xzY5Ldl6cfPal9jmw/Zag+pnpF61L80vlPQQBp1o43clTTPagaTqHHciOGSTn05BpcaPpqaMzJRfmmRl0j4BtzR6xS6/S41aos5mZBmNpeYfZUSkLQZbDIxxTpypv0j0rpD0T4r0XqKHEadlLaSd4v2Pn4Oz8CsAAHGetgAAAAAAAAAAAAAAAAAAAAAAAAAAAAAAAAHiv3tV0U1q+wCD2xqI0u0UeOLQfXRfJMbo97VdFNavsAg9saiNLdFHji0H10XyTFW4ZKNf8dq8+p8X5LAwu/DzZhdVi+J8ZpcHjtXp1PifJYGFX14iy6r/aAYI1AAEAAAAG07zurfRqL+VIL+uQsSKxs3OdudRp30h8RpI2Xu3t2ckp+kKEltY8DpbufOad9IfG4bkkaKq4x+lHcndCxob9r+3u1zA/NerjH6PdyomvHuXtD28uME3zA2/qZ4ccrmMcQwUmgBadS4vLY/7+4GpcXlsf9/cAF2AWnUuLy2P+/uBqXF5bH/f3ABdgFp1Li8tj/v7galxeWx/39wAXYBadS4vLY/7+4GpcXlsf9/cAF2AWnUuLy2P+/uBqXF5bH/f3ABdgFp1Li8tj/v7galxeWx/39wAXYBadS4vLY/7+4GpcXlsf9/cAF2AWnUuLy2P+/uBqXF5bH/f3ABdgFp1Li8tj/v7galxeWx/39wAXYYdpfvZWjvRtXrwaNO/wY2I5K2kb61EhvZx88pIvepcXlsf9/cENbrkqynQhVeTHGjaOVEySeH+GTgagk5JM7vo1g6XEOM4XC1leE6kE/FOSuvxRoXOnTKnNfqNRlOyZUlxTrzzqjUtxajyajM+EzMdAAO5PuSMVFKMVZIAAuNBt6t3PUEUq36ZInSlkat7ZTnVSXCpR8CUlxqMyIuMxG7bmalSFKDnUaSW7eiRbgF6uWzbmtB1lq4qQ7EKQk1sOayXGnSLh1HEGaFY48GeOMWUE09USjWp4iCqUZKUXs07r3oDbLcN6Rp5VGp6MZ75uRFsqqMAlHtaWRkTqS9IyMlY4jI+mY1NE2bj7ks9NUMoSkk6cCV4bgxqDirpOm7nqPlBwVHHdG8XGsr5YOS8HHVNfp7G0ehQC06lxeWx/39wNS4vLY/7+4OqPjEuwC06lxeWx/wB/cDUuLy2P+/uAC7ALTqXF5bH/AH9wNS4vLY/7+4ALsAtOpcXlsf8Af3A1Li8tj/v7gAuwC06lxeWx/wB/cDUuLy2P+/uAC7ALTqXF5bH/AH9wNS4vLY/7+4ALsAtOpcXlsf8Af3A1Li8tj/v7gAuwC06lxeWx/wB/cDUuLy2P+/uAC7ALTqXF5bH/AH9wNS4vLY/7+4ALsAtOpcXlsf8Af3A1Li8tj/v7gA8be9quimtX2AQe2NRGlmio8aRKCf8ApZfEY3L72cKaW6htcpykG5zBQsavBjljUP8AqNM9Fh40h0H14n4jFW4JTuDHftXp1PifJYGFX14i/wDXH2gZrcHjs3p1PifEwMLvvxGq6sF8T4MEaAACAAAADaCXsvdr10n59QkxvodLe2/zLN+kPiMpvi4ax5rT8+oSYjoc7e6izfpD43T3JI0WPjH6Udyd0LGhv2v7e7XMD81x8Y/SjuTuhY0N+1/b3a5gYKSqAAAAAAAAAAAAAAAAAAAAAAAxO+dLWi3RjyN342ke2bXOZnkYqvVWIhvY4dQnFEasceOAWq1t0NoFviss27ZumiyK3VZBGbMGBX4r8h0i4dVtKzUrHpEAJBAAAAAAABCe7F8Yqreu4fzyRNghPdi+MVVvXcP55I3T7cfaj2Xob+8OB/zaf8SPPUAAdwfbZV0mCdUqkOmE5vZy5DbBKxnV1lEnOPdEgXNKq8q4ZmiDR1TFRafFnPwiZZURSKippSiU9JdPGtsQatUzJCCzgtmRaaM7akOJSzua1K1Sjd59muQZCtZRkrY6TThajmqeCwhaODhyKpLFxWNfkKvx203OVXJ9yFJQl1SKq2+lbTmMYWTh66iUnwyVe4Z8UndnrmMrftFZvL6UIycIytllNbO6eXS2zakld2WrOludeGi2SduXPSWJdMqLJPvUqW4h+NIaNRpJxtSFGSFkaVETiDJRGk/TIWrSLbsG1byqNEpbjq4bRtuxzdMjWTTrSXUJUZcJkSyIz48DILntvSDd0ulxadoorNLjU+KUCJFagylpJJuuOGZrcIzyanVbTPBFgW7TDJiytItVOJJakIYTGiqcaUSkG41HbbXqmWwyJSFFkuHARd5GeHVlUxkJJxzShNzUWrXUoKLaTkk7N9771dpIwwTnuM/HwhdT5fyBBgnPcZ+PhC6ny/kBW/u2Z6a/u7jf8qf6M9AwAB1J8TAAAAAAWu5botqzKJKuW8LhptDpEJOvJn1GUiNHZTnGVuOGSU7dm0wBdAFBQ67RLnpES4LbrEKq0ue0T0WbCkIfYfbPgUhxBmlRH0yMV4AAAAAAAAACkqtVpdCpsms1upRafAhNKfkypTyWmWW0llS1rUZJSki2mZnghFvgv9ylnHgk9GX61QvrABLoCngT4NVhMVKmTWJkOU2l5iQw4TjbraiylSVJMyURltIy2GKgAAAAAAAAHiv3tV0U1q+wCD2xqI0q0XHjSFQfXiBur3tV0U1q+wCD2xqI0p0X+ODQfXqBVuCVa/47V6dT4nxMDCr6PNmr9Ksl8T4zWveOzenU+J8TAwm+fEa51aL4nwYRGwAAgAAAA2enHi+EelKT8+oSajZudKB1Em/SHxGE7xcJ9dI+fUJPLodKD1Em/SHxunuSRosfGP0o7k7oWNDftf292uYH5rj4x+lHcndCxob9r+3u1zAwUlUAAAAAdMz8Df8A6NXxGANA92d3pRTbGVP0Ybn+ZHqNwJJyNULhLVcj05Zc6aGCPJOukecqPnEmReHPONV9zX3ojpj0NXOrm+rlTvm16k8lU+JUZSnZTG3nnY7q8mlWDM9Qz1VY/knzw1nrkOZUbyqFPp8V6VKlVN1lhhlBrcdcU6ZJQlJbVKMzIiItpmYqLs0d6QLBOMV9WLcNuHN1zjFVqY/D3/Vxram+pTrY1k5xwZLpjmUVawP0FaKtLNhaarNiX5o5rzVUpMozRrJLVcZdLGs06g9qFlkskfTIyyRkZ5gNGe8izM9z9cJGZ4K53sfAMjeYcTVnYAAAQAAAARboapcCoz75vGoR0yavPuypQnJL3PrRGiO8jMMoM/CNpQ0R6pYLXWtXCozPG90TC0dwbnsW4NK0SmMWVG5aw6nPqCCREhuPsI3hTruwmcqbUSXDNOFmkiMlKTnJdEFUplGty7ahV6hGhRUXxXW1PSHUtoJS6itCCNSjIsmpSUl0zMi4x21DSUds3RfS7ldfkUShooiI7DLKFLQuYpTauHGsRrNBnk9hEeOkAMK0BaebFr15StClC0wW5pAKDTTqdEqlOqrcyWuC2tLa2JuopWXmjcaw7/3qFZMtZKzPYERjejLTOm7RibLSGzUxXUnqpIslvDJ465F1hJwAAAAAIT3YvjFVb13D+eSJsEObrenSajoIr/IrZrOK5FkrIuHUS+jWP3CPPqEY3T7a9qPY+h8lDpBgnJ2XW0/4kedgAA7g+3SRLbuKPbrNDplSututW/W0KbrFIcQtSaek1mnJa5GSXCI98StvBkZYPZkjtzdZjRbQrFs8vCcXSaq1OozyNZJqyam3jbPhTrJJle3H8GXGMMAYyI6v6JpZ3Nt3bTeiWqk2nolrZ5G93HRt7lzXc9yuoU25cNTWhRYUlUtwyMukZZFsABq1jsYU4U+wkvYBOe4z8fCF1Pl/IEGCe9xXBkSdNCJTTZm3EpklbquJJKJKS/rUOOt/ds9Z6byUejmNb+zl+hv2AAOpPigAAACGt1Vp5qW590cQrnoVvw6vWK5XINu01qfL5FhNSZS9VLsl7B720nBmZ/1lwiBbxoWm/ThJoNxbsONo60TaKtHteh1qZDkVRE1u45TJKJGu84pDLcRRuFhKyUpR4LB4IxKm77r9v0/czXNalVoLtaqt9JTadtwGY6HnHqzNJTcTVJZkSTS4ZK185LVyWTwQi/TRotvBqgbna5Knolm6RrX0aU3kC7bEpbjUx9uYcFhtl9LC1k1KVHW24nVUf8vJcJmAKSxbe3Ru54hVFvcswdHWljRPelWnV6iyOWpQGbcOQ5vikG4ha23YiSzg2sHkjyRcB7E7ljTrJ3ROiKLpCqFut0WeifNpU2NHkckRlPxnlNrcjvYLfGlYIyVjhyWTxk9bbH0M6Qqjuct0hTaTomk2LE0pOTzsexpshpl+NrQd6MzbJW9sLedSp3eyPCdu3GDGwe41vaz723O9qHZtIcpDVAjcz9RprsZLC4dRiETcltSEGac74RqyRnklEfCZgCbAAAAAAAGtPehjDU3c2SaZKTvkWoXPbcOU0ZnqvMOVaMlbai40qSZkZcZGJWVue9A6mjYVoZsk2zTqGnlDFxjGMeEEW96B9D0j2YWv24iiRtNWj7S3frFJb0VadpujZyEt5U1yNQodS5OJRI1CMpKT1NTVV4Xh19vAQAinckybz0Q7iClSqvo7uWfWrZTXlsW2UZTNQeZbqkw47Lbb2qZEbO96meFGrqkewjm/RFpesXThY0HSDo9q6Z1Mm5QtKi1X4rydi2H2+Ft1B7DSfq7SMjGtdLsjT3WbEe0n03vSl96047cl52scxdFTFbRHcW2+pSzbIiJC23EnngNJjB+869HGlV7TBpJ0/wAy9qlVdHV3Ncj0qTNpLFLVcktK281QobCUoaQRNuISvBKcJzWPbkAb/gAAAAAAPFfvaroprV9gEHtjURpRox2aQKD69QN1+9quimtX2AQe2NRGlGjLxf0H1638Yq3BK9d8dm9Op0T4mBhF8eI53q0XxPjN66Rd+zenU6J8TAwi+PEc91bL4nwYI2AAEAAAAGzU8z5uS9co+kKEol0O1BL8iTfpD4i2cZHfadv+Eo+kLEqJL+93oBfkWb9IfG6e5JGih8Y/SjuTuhY0N+1/b3a5gfmuPjH6Udyd0LGhv2v7e7XMDBSVQAAAHy4hLram1cCyNJ+oY+hTuVCCzOYpjstpEuU246yyaiJbiGzSS1EXGSTWjPS1i6YA899HPeZN+aON09RdKsK/renWfR65y5Q28T6KiaSUpaWjbJs2jMjMi198LgzqlwCdd3juXr13Umj+3rasStUOnVCi1c561Vdx5tpbSmVoMiU024olZNJ41cHt2kNkKXVqZW4pzqRPYmR0vPRjdYcJaSdZdU06jJfykOIWhRcSkmR8AqxczvcEE7jfc2SNy/omOxancLFZqk6e5Up0iO2pDCXFJSkm2yVzxpJKC54yIzPJ4LgE7AAj1AAAAAAFipt+WVV+TeVd2UmUVNRvks2pjaiYRlRa6zzgk5Sotbgyk+kYAih6hLpJ3ho2va27heoVYuE7lpVWo0JyUl1DkhqUpl3e0qNp1ElK04NOqpo0GStbWJNzuFixLlXX1z6RfKTuM6ccve6BLLV5Cc3xrUyyeMmXPZzkuDAmEUaaxS1yo8Nueyt6Uh1xlKFa2+JbMicMjLZzpqSR+mYAjmMqpaQNLdCuSNb9WptDtCBPQcqpw1xVTJkomUpQ02vCzQhtDhqWaSLWUgizhWJSHU7KjMOssPSGm3JCjQyhSyJTiiSajJJHwmSSM9nERmPmFNiVKI1OgvpejvpJbbieBRdMgB3gAAAKGt0en3DR5tCqrBPQ6gwuO+g/5SFEZH8YrgA1CcqclODs1qn4nmXpm0M3JofuR2nVGO6/Sn3FHTqiSPvb7fCRGZbCWRcKfdLYI9HrTWKJSLhgOUqu0yLPhvFhbEhonEK9wxBOkPc7aC6K9TJDGjmXJl1ypJpzEaFVHGEb4ppxzWPWXqpTqtK4PS2DzoYtWtJH0NwHy04aOGjS4zSl1iVs0EmpeLTcbPna6vy2NDAG87m503N9MehU65aLKpVTmJSo4iqq+7vRKWaEGtaDNKEqUWqlSjIjVsLJlgdpbnfctcs5lIU283JgNuuyN8qUhDaUtY33DijJCtTJa5EZmnJa2MjX7XDkzvfro6PepV/LH5zRMBubTtE25PqNYr1NRTak0xb8OmypEt6bJQlapzshplpCDMnDcNUfYWrz2+t6utrC+Rdz3uWZkqlQokeW/IrKX1w2W5spS3CYWlD2sRbUb2taEr1tXVM8Hgxf2uHJk+ujo96lX8sfnNHoECbVJrFOpsR2VKkuJaZZaQaluLM8ElJFtMzHoFuX9CD2ia1nqlX2UFcVbJCpSSVrcjMp2oZI+DO0zVjjwW3VIZ5ZOiLRvo7PfLPtKFAf1dU5GFOvmX9IszV/WMwHj1sR1iyrY/NOnflNn0nw/wBH4CDp0G7ybtmlbVJpXSV9bXd3bUAADxj8mAALVcF023akZuXctdg0xl5RobXKfS2S1Ek1GRZPbhJGZ9IiM+AgBY9K+iKwNNtoO2PpHoh1KlOPtSkJRIcjusPtq1m3WnWlJW2tJ7SUky4y4DMhq5fm5iqm5XrNs6XNyXBvl+FGrkQr1sun1RU5Fbpp65SJKW5SzNcvJo265ZLJ87jI3QjyGJbDcqK828y8gnG3G1EpK0mWSURlsMjLbkdTVSpz5JUxPjOEp5cdJodSeXUGoltlg/DJNKiMuEtU88BgDS/RfuSqnujF1nTFuv03w5VKhWZrtp23LrbkLmbphu/2OaW4akE3I1C1VHrK2EWcmZmNr9GOi+xtDlmQdH+jqhN0miU/XU0wlxbqlLWo1LcW4szW4tSjMzUozMzMZFBnw6nFRNgSEvMOZJK08B4MyP8ArIyFQAAAAAAAACBt23ZF5X5uf6lTbCt92uVinVej1pumsrJLspuHPZkONt52Gs0NqwXGYtJ7sitah6u443RBuY2EdtQCTnpZ5O4PTwJ/qVwUOjtTH6rVosRunxylSlvOkgmWTNREtRnwJM0q2+kYq3pUePFXNfeS2w02bq3FngkoIsmZ54CIgBr9uStDE2ibka3tFOmaz4qnZ6apIq1EnIS+hDcyoyZSWXS4DUlDyCPpKI+kJ/hQodNhsU6nRGYsWM2lllhlBIbbQksJSlJbCIiIiIiHYw81JZbkR3EuNOpJaFpPJKSZZIy9LA+wAAAAAAAAeK/e1XRTWr7AIPbGojSfRnsv+gn/AKa38Y3Y72q6Ka1fYBB7Y1EaT6NPF9QfXrfxircEr10v7rN6dT4nxMDCL38R73VsvifGcVzx2b06nxPiYGEXyRptB4j8+iP/AGXwYI2AAEAAAAGy0w/7fU+uG/pCxK6c+B6oBfkWZ9IfETyTzfyf6dr6QsS0jofKB1FmfPvjcNySNEj4x+lHcndCxob9r+3u1zA/NcfGP0o7k7oWNDftf292uYGCkqgAAAI60iWPdF2Xta8+37xrdrsU6DVG5NRpLUFx3WdVF1GjTMYfRqq3tZ5SjOUFtLODkUABrlaejfSHbFnM0Wt02v1xxt651RVx6izGfTNk1mU/Hmvk0tlszcZcbXlCcNnrkSE62CzNvR5cE+45VQuLk6Tv1ZZ13G6g6205DKjstuYbSsiJBy0KPVx4bnvTEtALcliB3LR0uPVG2lS3puGafRkG80W+LivtLLkzfHOS20lrF4bLLuunJbeATwACFAAAA4VnVPBEZ42EY14rGj6+6/YN22bEtSpN0+TaUuDAgVaTDW5FmmSSahwpLRktcc9RRmqQec71gyLWSnYgABDtepF9yr5okygWxNg0+JKppE/ySasQdm/ocI5OqhRZUk0paXrFqnr+RtMOwLupFOj0qh0et0+LFpdzx5KIc5tLj0l9+KqK4ya3dU1KbS5qGo06pkoj1M5OeAFuCEqbZl0TKhY9WrNmuNt27c0txJNy1b4mG5AdbTJW0t9zey39RFvaXFmSdVWC1lJTcKVb13RqvR3biodaqiW6dTmorkepJaRBkofdOSt774RqyhTR5wvWJBpwXHLoCAAAAAAAAAxe/dH9F0hsUeBcMWJMgUyqIqTsOXGQ+zJ1WnUEhaF7MZdJWTI9qSGUAAIwrGge2plyFWqUxToURcCDTXKccLMdpmK864jeUIWhKDMnlpMlJWnYkySRkrW5Y0H0pmoVl9MxpLNVVU3ScJhapLTk5aluGS1rUjBKcXgiQWwyI9hbZOAARRU9CEq4axV7iuK5mJM+otUVDSWYKmWGlU9yUtOsknTUonClrIy1yMsEZHsLGQ2vo1YturUqsImMb5ToVSiKajxzbbcOXIjvGotZalFq8jknaZmesZmYzYAAAAAAAAABgOlGlVeY/SahRKZXlS4iZKW6jRH4vJUQ1kg9Q2ZZby607qaqs5NJpQZEWTUnPgAEFzrU0ty67QH5LPIqG4dF2UtrDNPdbURzG0nyW2lCNhljeXdZB6pZwRDstTRdJt6LEjzbSlOrp+kKr1tKmZRGRxpcmU6y+nLhZJKX2SWk+eI0q51XCc4ALcliCpdiaRpFPr04yqZ1OPbUVNExUVESao3LnuGeqS9U1ai42TUWDSZJ2kRkOqBU5adJTNCmTZMu4Dumom/KjVhveVU/kd9yNHOMTpqSbbTsdJkppJa7ZrM+fTrz0OoosZMhUtMdon1J1DdJBa5p6Rnw4EKYFofpVxUanzYNdpUyMlG8b3Imu5fkr1D3xS0k+6glEerlaTSSzMz1SIiEhAAAAAACKNIFkXVUL9RfNM5JnwqJDhvpoSTaSzVnm3XzUlSl4PfW0rJbRGpLe+apq4CNOPLs/SrNuesOT1Tjaedqy0voQkmZcN1l4osdSlSzLCd9aTqlGQZLYMzUZGanJ4AAQrSre0k0msv01VMqb0OdcFEqjUpExveIkJmnxWJDBkbmuR79HdUaEpNJk7rZMzUKS2rY0lzX6k3W6FNpUWczS1vsNTV6vJKZmtKJDpyXHFp3rZr4b1k4LV4hOoC3JY6osZiFGahxkajTCEttpyZ4SRYIsntPYO0AEKAAAB4r97VdFNavsAg9saiNJtG2y/aD6+b+Mbs97VdFNavsAg9saiNJNHOy+6F6+a+MVbglqubdLN5+nTonxRxhl/lq2m6X5YQf+w+MzrRn37N58O2nRPijjDdIBZtJ4+lWGy/+N8GERkAAIAAAANlH9l/JyXA+19IWJbb27n2g585Znz74iSXsv4vXDf0hYltrbufaD1GmfPvjdPckjRI+AfpR3J3QsaG/a/t7tcwPzXHxjcqwu9YN1Do5sa3dHtv0+x1Uu2KTEo0E5FJeW6ceMylps1qJ8iNWqgsmRFk87CGCnu4A8QPuyW6487dH/YZ/7QH3ZLdceduj/sM/9oAHt+A8QPuyW6487dH/AGGf+0B92S3XHnbo/wCwz/2gAe34DxA+7Jbrjzt0f9hn/tAfdkt1x526P+wz/wBoAHt+A8QPuyW6487dH/YZ/wC0B92S3XHnbo/7DP8A2gAe34DxA+7Jbrjzt0f9hn/tAfdkt1x526P+wz/2gAe34DxA+7Jbrjzt0f8AYZ/7QH3ZLdceduj/ALDP/aAB7fgPED7sluuPO3R/2Gf+0B92S3XHnbo/7DP/AGgAe34DxA+7Jbrjzt0f9hn/ALQH3ZLdceduj/sM/wDaAB7fgPED7sluuPO3R/2Gf+0B92S3XHnbo/7DP/aAB7fgPED7sluuPO3R/wBhn/tAfdkt1x526P8AsM/9oAHt+A8QPuyW6487dH/YZ/7QH3ZLdceduj/sM/8AaAB7fgPED7sluuPO3R/2Gf8AtAfdkt1x526P+wz/ANoAHt+A8QPuyW6487dH/YZ/7QH3ZLdceduj/sM/9oAHt+A8QPuyW6487dH/AGGf+0B92S3XHnbo/wCwz/2gAe34DxA+7Jbrjzt0f9hn/tAfdkt1x526P+wz/wBoAHt+A8QPuyW6487dH/YZ/wC0B92S3XHnbo/7DP8A2gAe34DxA+7Jbrjzt0f9hn/tAfdkt1x526P+wz/2gAe34DxA+7Jbrjzt0f8AYZ/7QH3ZLdceduj/ALDP/aAB7fgPED7sluuPO3R/2Gf+0B92S3XHnbo/7DP/AGgAe34DxA+7Jbrjzt0f9hn/ALQH3ZLdceduj/sM/wDaAB7fgPED7sluuPO3R/2Gf+0B92S3XHnbo/7DP/aAB7fgPED7sluuPO3R/wBhn/tAfdkt1x526P8AsM/9oAHt+A8QPuyW6487dH/YZ/7QH3ZLdceduj/sM/8AaAB7fgPED7sluuPO3R/2Gf8AtAfdkt1x526P+wz/ANoAF372q6Ka1fYBB7Y1EaSaOfF3QvXrfxjM90jul9Iu6ovmDpC0msUdqqU+ktUZlNLjLYaOO2886kzSpazNWs+vbngxs2bcL0dni+aGf+mt/GKtwS3WTLv2Lz6nRPijjDb7VrWdIM/Ppsv9iQMxq5l37F5bP5tifFHGHX34jZBfltv5MkGCMgABAAAABsrM8Xp+lJR8+oSzHWXgf6AWf5mmfSHxE08y5u1H/pRfPqEmx3DPQLQizwUmWX/2HxuG5JGj4+R9D5PhGCgAAAAAAAAAAAAAAAAAAAAAAAAAAAABcrZoE267kpNrU1xhEusTmKfHU+vUbS464lCTWr+SnKiyfEQ3/T3jNpONJGvTNa5KxtIoEgyI/VHncM2Rpx01NoS23pgvZKUkRJSVwSyIi6RffABu59xl0mejRbHY+R3Q+4y6TPRotjsfI7o0k7/TTb6MV8frDL+sDv8ATTb6MV8frDL+sAG7f3GXSZ6NFsdj5HdD7jLpM9Gi2Ox8jujSTv8ATTb6MV8frDL+sDv9NNvoxXx+sMv6wAbt/cZdJno0Wx2Pkd0PuMukz0aLY7HyO6NJO/002+jFfH6wy/rA7/TTb6MV8frDL+sAG7f3GXSZ6NFsdj5HdD7jLpM9Gi2Ox8jujSTv9NNvoxXx+sMv6wO/002+jFfH6wy/rABu39xl0mejRbHY+R3Q+4y6TPRotjsfI7o0k7/TTb6MV8frDL+sDv8ATTb6MV8frDL+sAG7f3GXSZ6NFsdj5HdD7jLpM9Gi2Ox8jujSTv8ATTb6MV8frDL+sDv9NNvoxXx+sMv6wAZ5usNyddW5Ouii25ct0UmuJrkJcyO/BJSDSSF6qkrbXzydplg+A8njaR4gwXO4boua7ZxVS67iqdamkgmikVCW5JdJBcCddwzPBZPZnjFsAAAAAAAAAAAAAAAAAAAAAAAAAAAAAAAIZFo/Vq3rRVdKY38Yx0ZDYPi0o2dv9mN/GKtwS3U+e0r3iZcBU2J8UcYjfZZsySf5bb+TJGVVFRlpSu/H8qDEI/esDFr7LFlSurjXyJQMEYAACAAAADZSpbL2Wr/ST+fMSSwsk6B6H1KmF/8AYfEa1UjTejpH/JlKIz9R4xnTT5r0H0VBngk06Yk/0l8bhuSRpoPnYPoxxkYKMFgcYHOAwAOMBsHIcAA4wOcEHDtDhAHAYAPcADGwNnTADADYGC4xyAA4wA56wADjAYHIZMAcYDA5A9gA4wGAHPugDjYGCHJ9IODiAHAYAAAwGByYADjAYHIADgy9Uc42hwh8YAYIcB6o5wAOMbAAcmAOMAORxw8IA5wQYDYGABwZEOcDjbwjnbkAcYDA54Bx6QAYDA5HHGAGAxtHOAAHGAwOeAcAAMi0fni9aKf+lo+MY9gZBYJ4vKjmfmtHxircEqT16+k+7lYxmFE+JkYzfeyypRflxr5MoZDJUR6S7rVnhhxCLrMix363ix5qy2kmuRiz6rcs/wDcDCIrAAEAAAAE98uJVVlxbgmtttyKhGTOcQ0RkglLNLhkkjMzIsr2ZMzxxiTIRE5obgNked7ZqLRl6aZb5CI6bNOpUW36jyJyMhynJiIRr62tvSSZNecF4ZUdSscWcZPGTlGw5RVGwajTXTycGovpx/m3kIdI/dUpzrDUNySNRD4AHdLjqiyXYqywplxTZ+qR4/3DpGSgNg4Ic8QAeqGA9UNnEABh6QemHCAGwPTD3QAD1AD0xxj1QByOD4QHIAemYekBjjgMAM+kOQwAAAHphsAAA2Bt64A4HPCHqhs4wAwAcIAB6Q4HIABxB6gdcccQA59wcDkPcADhAuDABjiIAA9McDkwAHHGOQAAA4g4wAHA54QAHHXAc7Rx6gADkAAAPUHA549gABkAAHHp5wL/AGIRneFJwW0pST6wsPqjKNGkY5F50/BZJo1uH7iTx/WZAgSG5980iXS5w/eIic+nqt9wYXpKbM0QJGOdW/LSR+obZ/8AEQy+BIRIrVw1UjLUeqG9a3TSwnVz6h5/qGEX/U3HWaVRtaMpEZDsozQeXEuOmlCkL24LBMIURYI+fM9pGWKDDwABAAAABImjudH5npkcm2kvQZZSVKN4tdxtxBJPDeM4RvasqyZZdSWzZmV9G9UbgV+bR314arMUkoMz2b+xrLQXqmhb3vCGvNsVo6DV2pa1OcjOfeZSEZPXZVjW53WSSjLBKSRnjWSkz4BKjaJLLZMx5baZcBxC40hCyWnnT1mnCUWSUkywWSySizjYYq01D1MA0nUhVGvapsauEPO8kI9Ml7T/AK8l7gxb1RLWk5li8aFHu+nsb3KhGbE+PwqaP+Uk/wA1W0j4yVkRKfBsB7kRwOeAMAIUB6YB7gAbMAQHsDgAD0sjgc5PjAAA4eMBwQA5D1A4wAD3cgAZ2bQA9MC2BwAAGBwOdg49IAPcHPugHEAADgcgDjAcQ52GODAHIAOABz6Q4AcgAHuB7g4AHONgAAA4HOzrjgcnnpAAHpAOPSAHIB6oADgc7TDZwBxAB6g44ByQcQA49Uc+oOOEc+kAB54wDjAAOMOPaHWAAMjKbQqSbchz66nHJS0cixC49c9pq9QthjFuEZXZFJcqdQbmSka0Sn4NKTLnVOZylPp7eeP0ixxkAMypdOep1DZp+otcl4ktmgi55Trh5Un1dpl7gjS55zNQr0yRGWy4ySyaacaQpCXUNkSEuYXzxGokko842mewuAs+uytz6VBOpU2WbDrMhMdh5DxIeS8ZGpTiC8MeqSSI1JwaFLQeSM05i4VgAACAAAAAM1sKrsJaXTXZOrKbXrRG1EerIQr+EaJRnhKsklSE4LWM1lnJpSrCgAErTZEymu80NDSmQh1G9zIqi5yS0WzBlxKSWS/fBx/WodOUs6hQ1mqG6eTZX/CRlH/JV0y6SuA/VGTWxc8iouusuRo6VtsNazZP6qpJlqN6yScUalvqUZKNKc62VGRESQrFsw6y2dUojyUuKzrpLYSj6Rl/JP4/6xQYJjjyHpjvlQpUF42JbCm1lxKLh9Tpjo4BAMAHqB6oAcIZ6QGHpgAfujg+kOdoABgcemOfiAtgABs6Q4HIABs9QDyHugDghyY4HIABsDgIPUADYOByONgADkPcAj2gDjADkcZAHJ+qGwPTDgyAGA2hkAAyYfGB+kHuABwjjI5DAA42mGByOABzj+oAyBgBgADGAA4gP1AyOABz6vGBgB+oAGA9UBwAOT28QDgAA2AOcGfAXCL5SLTqFRUlbyDjsnxqLnj9Qu6AKClUuVVpaYsZO09q1nwIT0zElsoiUSCimxn24yUINxx90zJLKMkSnV4IzyZ4IiIjMz1UpIzwR0UVqLR2HolKbbJUZG/SpDh/e46MkWu4ouE8mREktpmZJIjMySeDVqtOVJxTTS3ORiXrlr+HdVwa68ce08FtJJHgs5MzAp6pUFVOYqSbe9p1SQhslGokpIumfGe0zxgsmeCLgFIAAAAAAAAAAAAAAMipV0k1vq6k9N5MWtThTm1k4tWSUZpdQsyJzK9XCtYjSRqM9fnSLHQAEjLnQZ7Bonsx5zJIW6ciEe+oJtK9Q3FtmROslnGNdKeEj4DIWtdqUWpffKRU07f5JKJePc4RhouLVencmHMqBN1JTjqHXimpNxTuqedU3Mk4kjyZHqKSZ9PJEZAXN+xqs2f3p1lZemZpP4hTKtGuJ2FGSfqOEPiVc8l1etChs09PEiO/IUkvhHFi8OXhQMnvFNuNH59bZV/yhACznadcL/Ay+ET3RxzKVzzIXv090V7t2RF7EM1lJenUmj//AEEKZVxtmeUnViL056D/AP1ADq5la5wciF79PdHHMrW/Mpe/T3R9KuAlcC6p7s5P1Y+OXquJ2pfppfsADnmVrfmUvfl3RzzK1vP4Kn35D55eq8tqP6YX7AFXVcbtS/TC/YAH1zJ1rzMn4QhzzKVrH4Oj35Dgq63/ACjqh/8A56fqxzy9Y4yqvZBP1QAcydax/AI9+QFaVa8oR8IQ+irkD+U1WD/1kn6kc8u6Zxx6z2UR9SAPnmRrPlLfvyDmRrXlTfvyHYVco3HDrh+pVkfUD6Ku0TO2FXey7f2cAdPMjWuNlv3455ka15U378VBV63y4afcHuVlv7OOSr9uEeeVtw+5W2/swApeZCteVN+/HPMjWuAmm/fisK4rY/lUu5D/ANetfZR9FcNqZ56kXKf+vmvsoAoeZCs+Vt+/ArQrXlbXvxcOaKzuOh3P+sLP2QclcNlZ56gXOf8A7hZ+yAC3HaFZ8ra9+HMhWeNDXvxcyuKxeO3Lo/WNn7GHNFYn4uXT+sbP2MAWzmQrHkGvfhzIVjyDXv8A/oLkdw2LxW7dH6xs/Yx8ncFk8VAucv8A3Cz9kAFBzH1jpM+//wCgcyFYLbqs+/8A+gr+aCy/OK5/1hZ+yAdxWf8AyaLc5f8AuBn7IAKDmPrHSZ9//wBA5kKwf8lr3/8A0FbzR2sR5TSrmL/XzX2UOaO2OKmXN2ea+ygCi5kKx0mvf/8AQOZCsdJn3/8A0FWdx25/Jp1yF6tca+zD5O4qAf8AgFx9m2/swApuZCr/AOZ9+fcArPq+eBn359wVB3BQD/wG4uzbf2YfCq9Qz4IVwF6tZR9nAHVzIVf/ADPvz7gcx1X/AMz74+4Pvl5RfMle7MI+oHB1uin/AIJXey6PqABxzH1fbnePfn3A5jqv02PfH3BwdapPFGrZf62T9SOCrNK449b7Kp+pAH2Vm1fpse/PuAVmVjpse+PuDgq1Rs5OLXTPquj6gfRV2jFwRa/2YR9QABWZV+mx78+4OSsmrn/LY98fcHPNBSOOPcHZlH1A55fUL+VDuI/9do+zgAVkVc/+8j++V3B9FYtWP/vmOuruDjl9b5lg4Nxn/rxH2cfSK5aufv8ASrlWXSKvNl/ypgD7RYVRUf3ySykvSIzFQiz6PD56p1pCfS1ko+MzMY65UY3JbrrdP32Oa1G01KfW4pKM7CUpBo1jIsZMiLPSLgFQ/X2TOOunW7SYC2NY1Kbbcf37OMa6ZC3E7MHjVIuE852YAyimuW2zLRCoVPkVKas8NtxWFOuLP0uPrCnqN2JT97kLS22eDONBeStxaT1Dwp/BoRlKleFJZkpJpUkhiKqlUVQSpap8k4ZOE6Uc3Vb0SyIyJWrnGSJRlnGdp9MU4ArqtV3aqtnMaPFZYbJDbEclEgjwWss9YzUpSjLJmZnxEWEpSkqEAAAAAAAAAAAAAAAAAAAAAAAAAAAAAAAAAAAAAAAAAAAAAAAAAAAAAAAAAAAAAAAAAAAAAAAAAAAAAAAAAAAAAAAAAAAAAAAAAAAAAAAAAAAAAAAAAAAAAAAAAAAAAAAAAAAAAAAAAAAAAAAAAAAAAAAAAAAAAAAAAAAAAAAAAAAAAAAAAAAAAAAAAAAAAAAAAAAAAAAAAAAAAAAAAAAAAAAAAAAAAAAAAAAAAB//2Q==;" vertex="1" parent="1">
          <mxGeometry x="-311" y="-149" width="469" height="997" as="geometry" />
        </mxCell>
      </root>
    </mxGraphModel>
  </diagram>
</mxfile>
